G04 Layer: BottomSilkLayer*
G04 EasyEDA v6.2.44, 2019-10-08T14:21:55+02:00*
G04 eb769dd03b8a4f4b8b9bb7d3164b0f61,d54f43e133bf43b298e367d61d3b1b7b,10*
G04 Gerber Generator version 0.2*
G04 Scale: 100 percent, Rotated: No, Reflected: No *
G04 Dimensions in millimeters *
G04 leading zeros omitted , absolute positions ,3 integer and 3 decimal *
%FSLAX33Y33*%
%MOMM*%
G90*
G71D02*

%ADD33C,0.203200*%

%LPD*%
G54D33*
G01X29181Y34955D02*
G01X30613Y35500D01*
G01X29181Y34955D02*
G01X30613Y34410D01*
G01X30135Y35296D02*
G01X30135Y34614D01*
G01X29181Y33960D02*
G01X30613Y33960D01*
G01X29181Y33510D02*
G01X30613Y33510D01*
G01X29181Y32010D02*
G01X30613Y32010D01*
G01X29181Y32010D02*
G01X29181Y31123D01*
G01X29863Y32010D02*
G01X29863Y31464D01*
G01X29658Y29855D02*
G01X30613Y29855D01*
G01X29863Y29855D02*
G01X29726Y29991D01*
G01X29658Y30128D01*
G01X29658Y30332D01*
G01X29726Y30469D01*
G01X29863Y30605D01*
G01X30067Y30673D01*
G01X30204Y30673D01*
G01X30408Y30605D01*
G01X30545Y30469D01*
G01X30613Y30332D01*
G01X30613Y30128D01*
G01X30545Y29991D01*
G01X30408Y29855D01*
G01X29658Y29405D02*
G01X30613Y29405D01*
G01X29931Y29405D02*
G01X29726Y29200D01*
G01X29658Y29064D01*
G01X29658Y28860D01*
G01X29726Y28723D01*
G01X29931Y28655D01*
G01X30613Y28655D01*
G01X29863Y27455D02*
G01X29726Y27523D01*
G01X29658Y27728D01*
G01X29658Y27932D01*
G01X29726Y28137D01*
G01X29863Y28205D01*
G01X29999Y28137D01*
G01X30067Y28000D01*
G01X30135Y27660D01*
G01X30204Y27523D01*
G01X30340Y27455D01*
G01X30408Y27455D01*
G01X30545Y27523D01*
G01X30613Y27728D01*
G01X30613Y27932D01*
G01X30545Y28137D01*
G01X30408Y28205D01*
G01X29658Y25137D02*
G01X30613Y25137D01*
G01X29863Y25137D02*
G01X29726Y25273D01*
G01X29658Y25410D01*
G01X29658Y25614D01*
G01X29726Y25750D01*
G01X29863Y25887D01*
G01X30067Y25955D01*
G01X30204Y25955D01*
G01X30408Y25887D01*
G01X30545Y25750D01*
G01X30613Y25614D01*
G01X30613Y25410D01*
G01X30545Y25273D01*
G01X30408Y25137D01*
G01X29658Y24687D02*
G01X30613Y24687D01*
G01X30067Y24687D02*
G01X29863Y24619D01*
G01X29726Y24482D01*
G01X29658Y24346D01*
G01X29658Y24141D01*
G01X30067Y23691D02*
G01X30067Y22873D01*
G01X29931Y22873D01*
G01X29795Y22941D01*
G01X29726Y23010D01*
G01X29658Y23146D01*
G01X29658Y23350D01*
G01X29726Y23487D01*
G01X29863Y23623D01*
G01X30067Y23691D01*
G01X30204Y23691D01*
G01X30408Y23623D01*
G01X30545Y23487D01*
G01X30613Y23350D01*
G01X30613Y23146D01*
G01X30545Y23010D01*
G01X30408Y22873D01*
G01X29658Y21032D02*
G01X29726Y21169D01*
G01X29863Y21305D01*
G01X30067Y21373D01*
G01X30204Y21373D01*
G01X30408Y21305D01*
G01X30545Y21169D01*
G01X30613Y21032D01*
G01X30613Y20828D01*
G01X30545Y20691D01*
G01X30408Y20555D01*
G01X30204Y20487D01*
G01X30067Y20487D01*
G01X29863Y20555D01*
G01X29726Y20691D01*
G01X29658Y20828D01*
G01X29658Y21032D01*
G01X29658Y20037D02*
G01X30613Y20037D01*
G01X29931Y20037D02*
G01X29726Y19832D01*
G01X29658Y19696D01*
G01X29658Y19491D01*
G01X29726Y19355D01*
G01X29931Y19287D01*
G01X30613Y19287D01*
G01X29181Y17787D02*
G01X30613Y17787D01*
G01X30613Y17787D02*
G01X30613Y16969D01*
G01X29181Y16519D02*
G01X30613Y16519D01*
G01X29181Y16519D02*
G01X29181Y15632D01*
G01X29863Y16519D02*
G01X29863Y15973D01*
G01X30613Y16519D02*
G01X30613Y15632D01*
G01X29181Y15182D02*
G01X30613Y15182D01*
G01X29181Y15182D02*
G01X29181Y14705D01*
G01X29249Y14500D01*
G01X29385Y14364D01*
G01X29522Y14296D01*
G01X29726Y14228D01*
G01X30067Y14228D01*
G01X30272Y14296D01*
G01X30408Y14364D01*
G01X30545Y14500D01*
G01X30613Y14705D01*
G01X30613Y15182D01*
G01X29522Y11705D02*
G01X29385Y11773D01*
G01X29249Y11910D01*
G01X29181Y12046D01*
G01X29181Y12319D01*
G01X29249Y12455D01*
G01X29385Y12591D01*
G01X29522Y12660D01*
G01X29726Y12728D01*
G01X30067Y12728D01*
G01X30272Y12660D01*
G01X30408Y12591D01*
G01X30545Y12455D01*
G01X30613Y12319D01*
G01X30613Y12046D01*
G01X30545Y11910D01*
G01X30408Y11773D01*
G01X30272Y11705D01*
G01X29181Y11255D02*
G01X30613Y11255D01*
G01X29181Y10300D02*
G01X30613Y10300D01*
G01X29863Y11255D02*
G01X29863Y10300D01*
G01X29522Y9782D02*
G01X29454Y9782D01*
G01X29317Y9714D01*
G01X29249Y9646D01*
G01X29181Y9510D01*
G01X29181Y9237D01*
G01X29249Y9100D01*
G01X29317Y9032D01*
G01X29454Y8964D01*
G01X29590Y8964D01*
G01X29726Y9032D01*
G01X29931Y9169D01*
G01X30613Y9850D01*
G01X30613Y8896D01*
G01X7681Y35091D02*
G01X7749Y35228D01*
G01X7885Y35364D01*
G01X8022Y35432D01*
G01X8226Y35500D01*
G01X8567Y35500D01*
G01X8772Y35432D01*
G01X8908Y35364D01*
G01X9045Y35228D01*
G01X9113Y35091D01*
G01X9113Y34819D01*
G01X9045Y34682D01*
G01X8908Y34546D01*
G01X8772Y34478D01*
G01X8567Y34410D01*
G01X8226Y34410D01*
G01X8022Y34478D01*
G01X7885Y34546D01*
G01X7749Y34682D01*
G01X7681Y34819D01*
G01X7681Y35091D01*
G01X8158Y33960D02*
G01X9590Y33960D01*
G01X8363Y33960D02*
G01X8226Y33823D01*
G01X8158Y33687D01*
G01X8158Y33482D01*
G01X8226Y33346D01*
G01X8363Y33210D01*
G01X8567Y33141D01*
G01X8704Y33141D01*
G01X8908Y33210D01*
G01X9045Y33346D01*
G01X9113Y33482D01*
G01X9113Y33687D01*
G01X9045Y33823D01*
G01X8908Y33960D01*
G01X8567Y32691D02*
G01X8567Y31873D01*
G01X8431Y31873D01*
G01X8295Y31941D01*
G01X8226Y32010D01*
G01X8158Y32146D01*
G01X8158Y32350D01*
G01X8226Y32487D01*
G01X8363Y32623D01*
G01X8567Y32691D01*
G01X8704Y32691D01*
G01X8908Y32623D01*
G01X9045Y32487D01*
G01X9113Y32350D01*
G01X9113Y32146D01*
G01X9045Y32010D01*
G01X8908Y31873D01*
G01X8158Y31423D02*
G01X9113Y31423D01*
G01X8431Y31423D02*
G01X8226Y31219D01*
G01X8158Y31082D01*
G01X8158Y30878D01*
G01X8226Y30741D01*
G01X8431Y30673D01*
G01X9113Y30673D01*
G01X8022Y28150D02*
G01X7885Y28219D01*
G01X7749Y28355D01*
G01X7681Y28491D01*
G01X7681Y28764D01*
G01X7749Y28900D01*
G01X7885Y29037D01*
G01X8022Y29105D01*
G01X8226Y29173D01*
G01X8567Y29173D01*
G01X8772Y29105D01*
G01X8908Y29037D01*
G01X9045Y28900D01*
G01X9113Y28764D01*
G01X9113Y28491D01*
G01X9045Y28355D01*
G01X8908Y28219D01*
G01X8772Y28150D01*
G01X8158Y27360D02*
G01X8226Y27496D01*
G01X8363Y27632D01*
G01X8567Y27700D01*
G01X8704Y27700D01*
G01X8908Y27632D01*
G01X9045Y27496D01*
G01X9113Y27360D01*
G01X9113Y27155D01*
G01X9045Y27019D01*
G01X8908Y26882D01*
G01X8704Y26814D01*
G01X8567Y26814D01*
G01X8363Y26882D01*
G01X8226Y27019D01*
G01X8158Y27155D01*
G01X8158Y27360D01*
G01X8158Y26364D02*
G01X9113Y26364D01*
G01X8567Y26364D02*
G01X8363Y26296D01*
G01X8226Y26160D01*
G01X8158Y26023D01*
G01X8158Y25819D01*
G01X8363Y24619D02*
G01X8226Y24687D01*
G01X8158Y24891D01*
G01X8158Y25096D01*
G01X8226Y25300D01*
G01X8363Y25369D01*
G01X8499Y25300D01*
G01X8567Y25164D01*
G01X8636Y24823D01*
G01X8704Y24687D01*
G01X8840Y24619D01*
G01X8908Y24619D01*
G01X9045Y24687D01*
G01X9113Y24891D01*
G01X9113Y25096D01*
G01X9045Y25300D01*
G01X8908Y25369D01*
G01X8158Y23350D02*
G01X9113Y23350D01*
G01X8363Y23350D02*
G01X8226Y23487D01*
G01X8158Y23623D01*
G01X8158Y23828D01*
G01X8226Y23964D01*
G01X8363Y24100D01*
G01X8567Y24169D01*
G01X8704Y24169D01*
G01X8908Y24100D01*
G01X9045Y23964D01*
G01X9113Y23828D01*
G01X9113Y23623D01*
G01X9045Y23487D01*
G01X8908Y23350D01*
G01X7681Y22900D02*
G01X7749Y22832D01*
G01X7681Y22764D01*
G01X7613Y22832D01*
G01X7681Y22900D01*
G01X8158Y22832D02*
G01X9113Y22832D01*
G01X8158Y22314D02*
G01X9113Y22314D01*
G01X8567Y22314D02*
G01X8363Y22246D01*
G01X8226Y22110D01*
G01X8158Y21973D01*
G01X8158Y21769D01*
G01X7681Y20269D02*
G01X9113Y20269D01*
G01X7681Y20269D02*
G01X9113Y19314D01*
G01X7681Y19314D02*
G01X9113Y19314D01*
G01X8158Y18523D02*
G01X8226Y18660D01*
G01X8363Y18796D01*
G01X8567Y18864D01*
G01X8704Y18864D01*
G01X8908Y18796D01*
G01X9045Y18660D01*
G01X9113Y18523D01*
G01X9113Y18319D01*
G01X9045Y18182D01*
G01X8908Y18046D01*
G01X8704Y17978D01*
G01X8567Y17978D01*
G01X8363Y18046D01*
G01X8226Y18182D01*
G01X8158Y18319D01*
G01X8158Y18523D01*
G01X7681Y16709D02*
G01X9113Y16709D01*
G01X8363Y16709D02*
G01X8226Y16846D01*
G01X8158Y16982D01*
G01X8158Y17187D01*
G01X8226Y17323D01*
G01X8363Y17460D01*
G01X8567Y17528D01*
G01X8704Y17528D01*
G01X8908Y17460D01*
G01X9045Y17323D01*
G01X9113Y17187D01*
G01X9113Y16982D01*
G01X9045Y16846D01*
G01X8908Y16709D01*
G01X8567Y16260D02*
G01X8567Y15441D01*
G01X8431Y15441D01*
G01X8295Y15510D01*
G01X8226Y15578D01*
G01X8158Y15714D01*
G01X8158Y15919D01*
G01X8226Y16055D01*
G01X8363Y16191D01*
G01X8567Y16260D01*
G01X8704Y16260D01*
G01X8908Y16191D01*
G01X9045Y16055D01*
G01X9113Y15919D01*
G01X9113Y15714D01*
G01X9045Y15578D01*
G01X8908Y15441D01*
G01X7681Y13941D02*
G01X9113Y13941D01*
G01X7681Y13941D02*
G01X7681Y13328D01*
G01X7749Y13123D01*
G01X7817Y13055D01*
G01X7954Y12987D01*
G01X8158Y12987D01*
G01X8295Y13055D01*
G01X8363Y13123D01*
G01X8431Y13328D01*
G01X8431Y13941D01*
G01X7681Y12537D02*
G01X9113Y12537D01*
G01X7681Y12537D02*
G01X7681Y11923D01*
G01X7749Y11719D01*
G01X7817Y11650D01*
G01X7954Y11582D01*
G01X8090Y11582D01*
G01X8226Y11650D01*
G01X8295Y11719D01*
G01X8363Y11923D01*
G01X8363Y12537D01*
G01X8363Y12060D02*
G01X9113Y11582D01*
G01X7681Y10723D02*
G01X7749Y10859D01*
G01X7885Y10996D01*
G01X8022Y11064D01*
G01X8226Y11132D01*
G01X8567Y11132D01*
G01X8772Y11064D01*
G01X8908Y10996D01*
G01X9045Y10859D01*
G01X9113Y10723D01*
G01X9113Y10450D01*
G01X9045Y10314D01*
G01X8908Y10178D01*
G01X8772Y10110D01*
G01X8567Y10041D01*
G01X8226Y10041D01*
G01X8022Y10110D01*
G01X7885Y10178D01*
G01X7749Y10314D01*
G01X7681Y10450D01*
G01X7681Y10723D01*
G01X12681Y35500D02*
G01X14113Y35500D01*
G01X12681Y35500D02*
G01X14113Y34955D01*
G01X12681Y34410D02*
G01X14113Y34955D01*
G01X12681Y34410D02*
G01X14113Y34410D01*
G01X13158Y33141D02*
G01X14113Y33141D01*
G01X13363Y33141D02*
G01X13226Y33278D01*
G01X13158Y33414D01*
G01X13158Y33619D01*
G01X13226Y33755D01*
G01X13363Y33891D01*
G01X13567Y33960D01*
G01X13704Y33960D01*
G01X13908Y33891D01*
G01X14045Y33755D01*
G01X14113Y33619D01*
G01X14113Y33414D01*
G01X14045Y33278D01*
G01X13908Y33141D01*
G01X12681Y31873D02*
G01X14113Y31873D01*
G01X13363Y31873D02*
G01X13226Y32010D01*
G01X13158Y32146D01*
G01X13158Y32350D01*
G01X13226Y32487D01*
G01X13363Y32623D01*
G01X13567Y32691D01*
G01X13704Y32691D01*
G01X13908Y32623D01*
G01X14045Y32487D01*
G01X14113Y32350D01*
G01X14113Y32146D01*
G01X14045Y32010D01*
G01X13908Y31873D01*
G01X13567Y31423D02*
G01X13567Y30605D01*
G01X13431Y30605D01*
G01X13295Y30673D01*
G01X13226Y30741D01*
G01X13158Y30878D01*
G01X13158Y31082D01*
G01X13226Y31219D01*
G01X13363Y31355D01*
G01X13567Y31423D01*
G01X13704Y31423D01*
G01X13908Y31355D01*
G01X14045Y31219D01*
G01X14113Y31082D01*
G01X14113Y30878D01*
G01X14045Y30741D01*
G01X13908Y30605D01*
G01X12681Y29105D02*
G01X14113Y29105D01*
G01X12681Y29105D02*
G01X12681Y28491D01*
G01X12749Y28287D01*
G01X12817Y28219D01*
G01X12954Y28150D01*
G01X13090Y28150D01*
G01X13226Y28219D01*
G01X13295Y28287D01*
G01X13363Y28491D01*
G01X13363Y29105D02*
G01X13363Y28491D01*
G01X13431Y28287D01*
G01X13499Y28219D01*
G01X13635Y28150D01*
G01X13840Y28150D01*
G01X13976Y28219D01*
G01X14045Y28287D01*
G01X14113Y28491D01*
G01X14113Y29105D01*
G01X13158Y27632D02*
G01X14113Y27223D01*
G01X13158Y26814D02*
G01X14113Y27223D01*
G01X14385Y27360D01*
G01X14522Y27496D01*
G01X14590Y27632D01*
G01X14590Y27700D01*
G01X13295Y26296D02*
G01X13363Y26364D01*
G01X13431Y26296D01*
G01X13363Y26228D01*
G01X13295Y26296D01*
G01X13772Y26296D02*
G01X13840Y26364D01*
G01X13908Y26296D01*
G01X13840Y26228D01*
G01X13772Y26296D01*
G01X12681Y24728D02*
G01X14113Y24728D01*
G01X12681Y24728D02*
G01X14113Y24182D01*
G01X12681Y23637D02*
G01X14113Y24182D01*
G01X12681Y23637D02*
G01X14113Y23637D01*
G01X13363Y22369D02*
G01X13226Y22505D01*
G01X13158Y22641D01*
G01X13158Y22846D01*
G01X13226Y22982D01*
G01X13363Y23119D01*
G01X13567Y23187D01*
G01X13704Y23187D01*
G01X13908Y23119D01*
G01X14045Y22982D01*
G01X14113Y22846D01*
G01X14113Y22641D01*
G01X14045Y22505D01*
G01X13908Y22369D01*
G01X12681Y21919D02*
G01X14113Y21919D01*
G01X12681Y20964D02*
G01X14113Y20964D01*
G01X13363Y21919D02*
G01X13363Y20964D01*
G01X13158Y19696D02*
G01X14113Y19696D01*
G01X13363Y19696D02*
G01X13226Y19832D01*
G01X13158Y19969D01*
G01X13158Y20173D01*
G01X13226Y20310D01*
G01X13363Y20446D01*
G01X13567Y20514D01*
G01X13704Y20514D01*
G01X13908Y20446D01*
G01X14045Y20310D01*
G01X14113Y20173D01*
G01X14113Y19969D01*
G01X14045Y19832D01*
G01X13908Y19696D01*
G01X13158Y19246D02*
G01X13840Y19246D01*
G01X14045Y19178D01*
G01X14113Y19041D01*
G01X14113Y18837D01*
G01X14045Y18700D01*
G01X13840Y18496D01*
G01X13158Y18496D02*
G01X14113Y18496D01*
G01X13158Y17228D02*
G01X14249Y17228D01*
G01X14454Y17296D01*
G01X14522Y17364D01*
G01X14590Y17500D01*
G01X14590Y17705D01*
G01X14522Y17841D01*
G01X13363Y17228D02*
G01X13226Y17364D01*
G01X13158Y17500D01*
G01X13158Y17705D01*
G01X13226Y17841D01*
G01X13363Y17978D01*
G01X13567Y18046D01*
G01X13704Y18046D01*
G01X13908Y17978D01*
G01X14045Y17841D01*
G01X14113Y17705D01*
G01X14113Y17500D01*
G01X14045Y17364D01*
G01X13908Y17228D01*
G01X13567Y16778D02*
G01X13567Y15960D01*
G01X13431Y15960D01*
G01X13295Y16028D01*
G01X13226Y16096D01*
G01X13158Y16232D01*
G01X13158Y16437D01*
G01X13226Y16573D01*
G01X13363Y16709D01*
G01X13567Y16778D01*
G01X13704Y16778D01*
G01X13908Y16709D01*
G01X14045Y16573D01*
G01X14113Y16437D01*
G01X14113Y16232D01*
G01X14045Y16096D01*
G01X13908Y15960D01*
G01X15181Y35500D02*
G01X16613Y34955D01*
G01X15181Y34410D02*
G01X16613Y34955D01*
G01X16067Y33960D02*
G01X16067Y33141D01*
G01X15931Y33141D01*
G01X15795Y33210D01*
G01X15726Y33278D01*
G01X15658Y33414D01*
G01X15658Y33619D01*
G01X15726Y33755D01*
G01X15863Y33891D01*
G01X16067Y33960D01*
G01X16204Y33960D01*
G01X16408Y33891D01*
G01X16545Y33755D01*
G01X16613Y33619D01*
G01X16613Y33414D01*
G01X16545Y33278D01*
G01X16408Y33141D01*
G01X15658Y32691D02*
G01X16613Y32691D01*
G01X16067Y32691D02*
G01X15863Y32623D01*
G01X15726Y32487D01*
G01X15658Y32350D01*
G01X15658Y32146D01*
G01X15863Y30946D02*
G01X15726Y31014D01*
G01X15658Y31219D01*
G01X15658Y31423D01*
G01X15726Y31628D01*
G01X15863Y31696D01*
G01X15999Y31628D01*
G01X16067Y31491D01*
G01X16135Y31150D01*
G01X16204Y31014D01*
G01X16340Y30946D01*
G01X16408Y30946D01*
G01X16545Y31014D01*
G01X16613Y31219D01*
G01X16613Y31423D01*
G01X16545Y31628D01*
G01X16408Y31696D01*
G01X15181Y30496D02*
G01X15249Y30428D01*
G01X15181Y30360D01*
G01X15113Y30428D01*
G01X15181Y30496D01*
G01X15658Y30428D02*
G01X16613Y30428D01*
G01X15658Y29569D02*
G01X15726Y29705D01*
G01X15863Y29841D01*
G01X16067Y29909D01*
G01X16204Y29909D01*
G01X16408Y29841D01*
G01X16545Y29705D01*
G01X16613Y29569D01*
G01X16613Y29364D01*
G01X16545Y29228D01*
G01X16408Y29091D01*
G01X16204Y29023D01*
G01X16067Y29023D01*
G01X15863Y29091D01*
G01X15726Y29228D01*
G01X15658Y29364D01*
G01X15658Y29569D01*
G01X15658Y28573D02*
G01X16613Y28573D01*
G01X15931Y28573D02*
G01X15726Y28369D01*
G01X15658Y28232D01*
G01X15658Y28028D01*
G01X15726Y27891D01*
G01X15931Y27823D01*
G01X16613Y27823D01*
G01X15795Y27305D02*
G01X15863Y27373D01*
G01X15931Y27305D01*
G01X15863Y27237D01*
G01X15795Y27305D01*
G01X16272Y27305D02*
G01X16340Y27373D01*
G01X16408Y27305D01*
G01X16340Y27237D01*
G01X16272Y27305D01*
G01X15454Y25737D02*
G01X15385Y25600D01*
G01X15181Y25396D01*
G01X16613Y25396D01*
G01X16272Y24878D02*
G01X16340Y24946D01*
G01X16408Y24878D01*
G01X16340Y24810D01*
G01X16272Y24878D01*
G01X15181Y23950D02*
G01X15249Y24155D01*
G01X15454Y24291D01*
G01X15795Y24360D01*
G01X15999Y24360D01*
G01X16340Y24291D01*
G01X16545Y24155D01*
G01X16613Y23950D01*
G01X16613Y23814D01*
G01X16545Y23610D01*
G01X16340Y23473D01*
G01X15999Y23405D01*
G01X15795Y23405D01*
G01X15454Y23473D01*
G01X15249Y23610D01*
G01X15181Y23814D01*
G01X15181Y23950D01*
G01X10522Y35432D02*
G01X10454Y35432D01*
G01X10317Y35364D01*
G01X10249Y35296D01*
G01X10181Y35160D01*
G01X10181Y34887D01*
G01X10249Y34750D01*
G01X10317Y34682D01*
G01X10454Y34614D01*
G01X10590Y34614D01*
G01X10726Y34682D01*
G01X10931Y34819D01*
G01X11613Y35500D01*
G01X11613Y34546D01*
G01X10522Y33073D02*
G01X10385Y33141D01*
G01X10249Y33278D01*
G01X10181Y33414D01*
G01X10181Y33687D01*
G01X10249Y33823D01*
G01X10385Y33960D01*
G01X10522Y34028D01*
G01X10726Y34096D01*
G01X11067Y34096D01*
G01X11272Y34028D01*
G01X11408Y33960D01*
G01X11545Y33823D01*
G01X11613Y33687D01*
G01X11613Y33414D01*
G01X11545Y33278D01*
G01X11408Y33141D01*
G01X11272Y33073D01*
G01X10181Y32623D02*
G01X11613Y32623D01*
G01X10181Y31669D02*
G01X11613Y31669D01*
G01X10863Y32623D02*
G01X10863Y31669D01*
G01X10181Y30169D02*
G01X11613Y30169D01*
G01X10181Y30169D02*
G01X10181Y29555D01*
G01X10249Y29350D01*
G01X10317Y29282D01*
G01X10454Y29214D01*
G01X10590Y29214D01*
G01X10726Y29282D01*
G01X10795Y29350D01*
G01X10863Y29555D01*
G01X10863Y30169D01*
G01X10863Y29691D02*
G01X11613Y29214D01*
G01X10522Y27741D02*
G01X10385Y27810D01*
G01X10249Y27946D01*
G01X10181Y28082D01*
G01X10181Y28355D01*
G01X10249Y28491D01*
G01X10385Y28628D01*
G01X10522Y28696D01*
G01X10726Y28764D01*
G01X11067Y28764D01*
G01X11272Y28696D01*
G01X11408Y28628D01*
G01X11545Y28491D01*
G01X11613Y28355D01*
G01X11613Y28082D01*
G01X11545Y27946D01*
G01X11408Y27810D01*
G01X11272Y27741D01*
G01X11067Y27741D01*
G01X11067Y28082D02*
G01X11067Y27741D01*
G01X10181Y27291D02*
G01X11613Y27291D01*
G01X10181Y27291D02*
G01X10181Y26678D01*
G01X10249Y26473D01*
G01X10317Y26405D01*
G01X10454Y26337D01*
G01X10590Y26337D01*
G01X10726Y26405D01*
G01X10795Y26473D01*
G01X10863Y26678D01*
G01X10863Y27291D02*
G01X10863Y26678D01*
G01X10931Y26473D01*
G01X10999Y26405D01*
G01X11135Y26337D01*
G01X11340Y26337D01*
G01X11476Y26405D01*
G01X11545Y26473D01*
G01X11613Y26678D01*
G01X11613Y27291D01*
G01X10385Y24223D02*
G01X11613Y24223D01*
G01X10999Y24837D02*
G01X10999Y23610D01*
G01X10385Y21291D02*
G01X10249Y21360D01*
G01X10181Y21564D01*
G01X10181Y21700D01*
G01X10249Y21905D01*
G01X10454Y22041D01*
G01X10795Y22110D01*
G01X11135Y22110D01*
G01X11408Y22041D01*
G01X11545Y21905D01*
G01X11613Y21700D01*
G01X11613Y21632D01*
G01X11545Y21428D01*
G01X11408Y21291D01*
G01X11204Y21223D01*
G01X11135Y21223D01*
G01X10931Y21291D01*
G01X10795Y21428D01*
G01X10726Y21632D01*
G01X10726Y21700D01*
G01X10795Y21905D01*
G01X10931Y22041D01*
G01X11135Y22110D01*
G01X10181Y19723D02*
G01X11613Y19723D01*
G01X10181Y19723D02*
G01X10181Y19110D01*
G01X10249Y18905D01*
G01X10317Y18837D01*
G01X10454Y18769D01*
G01X10590Y18769D01*
G01X10726Y18837D01*
G01X10795Y18905D01*
G01X10863Y19110D01*
G01X10863Y19723D01*
G01X10863Y19246D02*
G01X11613Y18769D01*
G01X10522Y17296D02*
G01X10385Y17364D01*
G01X10249Y17500D01*
G01X10181Y17637D01*
G01X10181Y17910D01*
G01X10249Y18046D01*
G01X10385Y18182D01*
G01X10522Y18250D01*
G01X10726Y18319D01*
G01X11067Y18319D01*
G01X11272Y18250D01*
G01X11408Y18182D01*
G01X11545Y18046D01*
G01X11613Y17910D01*
G01X11613Y17637D01*
G01X11545Y17500D01*
G01X11408Y17364D01*
G01X11272Y17296D01*
G01X11067Y17296D01*
G01X11067Y17637D02*
G01X11067Y17296D01*
G01X10181Y16846D02*
G01X11613Y16846D01*
G01X10181Y16846D02*
G01X10181Y16232D01*
G01X10249Y16028D01*
G01X10317Y15960D01*
G01X10454Y15891D01*
G01X10590Y15891D01*
G01X10726Y15960D01*
G01X10795Y16028D01*
G01X10863Y16232D01*
G01X10863Y16846D02*
G01X10863Y16232D01*
G01X10931Y16028D01*
G01X10999Y15960D01*
G01X11135Y15891D01*
G01X11340Y15891D01*
G01X11476Y15960D01*
G01X11545Y16028D01*
G01X11613Y16232D01*
G01X11613Y16846D01*
G01X10181Y14391D02*
G01X11613Y14391D01*
G01X10181Y14391D02*
G01X10181Y13505D01*
G01X10863Y14391D02*
G01X10863Y13846D01*
G01X10658Y12237D02*
G01X11613Y12237D01*
G01X10863Y12237D02*
G01X10726Y12373D01*
G01X10658Y12510D01*
G01X10658Y12714D01*
G01X10726Y12850D01*
G01X10863Y12987D01*
G01X11067Y13055D01*
G01X11204Y13055D01*
G01X11408Y12987D01*
G01X11545Y12850D01*
G01X11613Y12714D01*
G01X11613Y12510D01*
G01X11545Y12373D01*
G01X11408Y12237D01*
G01X10658Y11787D02*
G01X11613Y11787D01*
G01X10931Y11787D02*
G01X10726Y11582D01*
G01X10658Y11446D01*
G01X10658Y11241D01*
G01X10726Y11105D01*
G01X10931Y11037D01*
G01X11613Y11037D01*
G01X24181Y35500D02*
G01X25613Y35500D01*
G01X24181Y35500D02*
G01X24181Y34887D01*
G01X24249Y34682D01*
G01X24317Y34614D01*
G01X24454Y34546D01*
G01X24590Y34546D01*
G01X24726Y34614D01*
G01X24795Y34682D01*
G01X24863Y34887D01*
G01X24863Y35500D01*
G01X24863Y35023D02*
G01X25613Y34546D01*
G01X24522Y33073D02*
G01X24385Y33141D01*
G01X24249Y33278D01*
G01X24181Y33414D01*
G01X24181Y33687D01*
G01X24249Y33823D01*
G01X24385Y33960D01*
G01X24522Y34028D01*
G01X24726Y34096D01*
G01X25067Y34096D01*
G01X25272Y34028D01*
G01X25408Y33960D01*
G01X25545Y33823D01*
G01X25613Y33687D01*
G01X25613Y33414D01*
G01X25545Y33278D01*
G01X25408Y33141D01*
G01X25272Y33073D01*
G01X25067Y33073D01*
G01X25067Y33414D02*
G01X25067Y33073D01*
G01X24181Y32623D02*
G01X25613Y32623D01*
G01X24181Y32623D02*
G01X24181Y32010D01*
G01X24249Y31805D01*
G01X24317Y31737D01*
G01X24454Y31669D01*
G01X24590Y31669D01*
G01X24726Y31737D01*
G01X24795Y31805D01*
G01X24863Y32010D01*
G01X24863Y32623D02*
G01X24863Y32010D01*
G01X24931Y31805D01*
G01X24999Y31737D01*
G01X25135Y31669D01*
G01X25340Y31669D01*
G01X25476Y31737D01*
G01X25545Y31805D01*
G01X25613Y32010D01*
G01X25613Y32623D01*
G01X24522Y29146D02*
G01X24385Y29214D01*
G01X24249Y29350D01*
G01X24181Y29487D01*
G01X24181Y29760D01*
G01X24249Y29896D01*
G01X24385Y30032D01*
G01X24522Y30100D01*
G01X24726Y30169D01*
G01X25067Y30169D01*
G01X25272Y30100D01*
G01X25408Y30032D01*
G01X25545Y29896D01*
G01X25613Y29760D01*
G01X25613Y29487D01*
G01X25545Y29350D01*
G01X25408Y29214D01*
G01X25272Y29146D01*
G01X24181Y28696D02*
G01X25613Y28696D01*
G01X24181Y27741D02*
G01X25613Y27741D01*
G01X24863Y28696D02*
G01X24863Y27741D01*
G01X24454Y27291D02*
G01X24385Y27155D01*
G01X24181Y26950D01*
G01X25613Y26950D01*
G01X24795Y25450D02*
G01X24795Y24223D01*
G01X25204Y25450D02*
G01X25204Y24223D01*
G01X24181Y22723D02*
G01X25613Y22723D01*
G01X24181Y22723D02*
G01X24181Y22246D01*
G01X24249Y22041D01*
G01X24385Y21905D01*
G01X24522Y21837D01*
G01X24726Y21769D01*
G01X25067Y21769D01*
G01X25272Y21837D01*
G01X25408Y21905D01*
G01X25545Y22041D01*
G01X25613Y22246D01*
G01X25613Y22723D01*
G01X24181Y20637D02*
G01X25135Y21319D01*
G01X25135Y20296D01*
G01X24181Y20637D02*
G01X25613Y20637D01*
G01X26681Y35500D02*
G01X28113Y35500D01*
G01X26681Y35500D02*
G01X26681Y34887D01*
G01X26749Y34682D01*
G01X26817Y34614D01*
G01X26954Y34546D01*
G01X27090Y34546D01*
G01X27226Y34614D01*
G01X27295Y34682D01*
G01X27363Y34887D01*
G01X27363Y35500D01*
G01X27363Y35023D02*
G01X28113Y34546D01*
G01X27022Y33073D02*
G01X26885Y33141D01*
G01X26749Y33278D01*
G01X26681Y33414D01*
G01X26681Y33687D01*
G01X26749Y33823D01*
G01X26885Y33960D01*
G01X27022Y34028D01*
G01X27226Y34096D01*
G01X27567Y34096D01*
G01X27772Y34028D01*
G01X27908Y33960D01*
G01X28045Y33823D01*
G01X28113Y33687D01*
G01X28113Y33414D01*
G01X28045Y33278D01*
G01X27908Y33141D01*
G01X27772Y33073D01*
G01X27567Y33073D01*
G01X27567Y33414D02*
G01X27567Y33073D01*
G01X26681Y32623D02*
G01X28113Y32623D01*
G01X26681Y32623D02*
G01X26681Y32010D01*
G01X26749Y31805D01*
G01X26817Y31737D01*
G01X26954Y31669D01*
G01X27090Y31669D01*
G01X27226Y31737D01*
G01X27295Y31805D01*
G01X27363Y32010D01*
G01X27363Y32623D02*
G01X27363Y32010D01*
G01X27431Y31805D01*
G01X27499Y31737D01*
G01X27635Y31669D01*
G01X27840Y31669D01*
G01X27976Y31737D01*
G01X28045Y31805D01*
G01X28113Y32010D01*
G01X28113Y32623D01*
G01X27022Y29146D02*
G01X26885Y29214D01*
G01X26749Y29350D01*
G01X26681Y29487D01*
G01X26681Y29760D01*
G01X26749Y29896D01*
G01X26885Y30032D01*
G01X27022Y30100D01*
G01X27226Y30169D01*
G01X27567Y30169D01*
G01X27772Y30100D01*
G01X27908Y30032D01*
G01X28045Y29896D01*
G01X28113Y29760D01*
G01X28113Y29487D01*
G01X28045Y29350D01*
G01X27908Y29214D01*
G01X27772Y29146D01*
G01X26681Y28696D02*
G01X28113Y28696D01*
G01X26681Y27741D02*
G01X28113Y27741D01*
G01X27363Y28696D02*
G01X27363Y27741D01*
G01X27022Y27223D02*
G01X26954Y27223D01*
G01X26817Y27155D01*
G01X26749Y27087D01*
G01X26681Y26950D01*
G01X26681Y26678D01*
G01X26749Y26541D01*
G01X26817Y26473D01*
G01X26954Y26405D01*
G01X27090Y26405D01*
G01X27226Y26473D01*
G01X27431Y26610D01*
G01X28113Y27291D01*
G01X28113Y26337D01*
G01X27295Y24837D02*
G01X27295Y23610D01*
G01X27704Y24837D02*
G01X27704Y23610D01*
G01X26681Y22110D02*
G01X28113Y22110D01*
G01X26681Y22110D02*
G01X26681Y21632D01*
G01X26749Y21428D01*
G01X26885Y21291D01*
G01X27022Y21223D01*
G01X27226Y21155D01*
G01X27567Y21155D01*
G01X27772Y21223D01*
G01X27908Y21291D01*
G01X28045Y21428D01*
G01X28113Y21632D01*
G01X28113Y22110D01*
G01X26954Y20705D02*
G01X26885Y20569D01*
G01X26681Y20364D01*
G01X28113Y20364D01*
G01X27022Y19846D02*
G01X26954Y19846D01*
G01X26817Y19778D01*
G01X26749Y19710D01*
G01X26681Y19573D01*
G01X26681Y19300D01*
G01X26749Y19164D01*
G01X26817Y19096D01*
G01X26954Y19028D01*
G01X27090Y19028D01*
G01X27226Y19096D01*
G01X27431Y19232D01*
G01X28113Y19914D01*
G01X28113Y18960D01*
G01X21681Y34955D02*
G01X23113Y35500D01*
G01X21681Y34955D02*
G01X23113Y34410D01*
G01X22635Y35296D02*
G01X22635Y34614D01*
G01X22158Y33960D02*
G01X23113Y33960D01*
G01X22567Y33960D02*
G01X22363Y33891D01*
G01X22226Y33755D01*
G01X22158Y33619D01*
G01X22158Y33414D01*
G01X21681Y32146D02*
G01X23113Y32146D01*
G01X22363Y32146D02*
G01X22226Y32282D01*
G01X22158Y32419D01*
G01X22158Y32623D01*
G01X22226Y32760D01*
G01X22363Y32896D01*
G01X22567Y32964D01*
G01X22704Y32964D01*
G01X22908Y32896D01*
G01X23045Y32760D01*
G01X23113Y32623D01*
G01X23113Y32419D01*
G01X23045Y32282D01*
G01X22908Y32146D01*
G01X22158Y31696D02*
G01X22840Y31696D01*
G01X23045Y31628D01*
G01X23113Y31491D01*
G01X23113Y31287D01*
G01X23045Y31150D01*
G01X22840Y30946D01*
G01X22158Y30946D02*
G01X23113Y30946D01*
G01X21681Y30496D02*
G01X21749Y30428D01*
G01X21681Y30360D01*
G01X21613Y30428D01*
G01X21681Y30496D01*
G01X22158Y30428D02*
G01X23113Y30428D01*
G01X22158Y29909D02*
G01X23113Y29909D01*
G01X22431Y29909D02*
G01X22226Y29705D01*
G01X22158Y29569D01*
G01X22158Y29364D01*
G01X22226Y29228D01*
G01X22431Y29160D01*
G01X23113Y29160D01*
G01X22158Y28369D02*
G01X22226Y28505D01*
G01X22363Y28641D01*
G01X22567Y28710D01*
G01X22704Y28710D01*
G01X22908Y28641D01*
G01X23045Y28505D01*
G01X23113Y28369D01*
G01X23113Y28164D01*
G01X23045Y28028D01*
G01X22908Y27891D01*
G01X22704Y27823D01*
G01X22567Y27823D01*
G01X22363Y27891D01*
G01X22226Y28028D01*
G01X22158Y28164D01*
G01X22158Y28369D01*
G01X21681Y26323D02*
G01X23113Y26323D01*
G01X21681Y26323D02*
G01X21681Y25710D01*
G01X21749Y25505D01*
G01X21817Y25437D01*
G01X21954Y25369D01*
G01X22158Y25369D01*
G01X22295Y25437D01*
G01X22363Y25505D01*
G01X22431Y25710D01*
G01X22431Y26323D01*
G01X21681Y24919D02*
G01X21749Y24850D01*
G01X21681Y24782D01*
G01X21613Y24850D01*
G01X21681Y24919D01*
G01X22158Y24850D02*
G01X23113Y24850D01*
G01X22158Y24332D02*
G01X23113Y24332D01*
G01X22431Y24332D02*
G01X22226Y24128D01*
G01X22158Y23991D01*
G01X22158Y23787D01*
G01X22226Y23650D01*
G01X22431Y23582D01*
G01X23113Y23582D01*
G01X22158Y22791D02*
G01X22226Y22928D01*
G01X22363Y23064D01*
G01X22567Y23132D01*
G01X22704Y23132D01*
G01X22908Y23064D01*
G01X23045Y22928D01*
G01X23113Y22791D01*
G01X23113Y22587D01*
G01X23045Y22450D01*
G01X22908Y22314D01*
G01X22704Y22246D01*
G01X22567Y22246D01*
G01X22363Y22314D01*
G01X22226Y22450D01*
G01X22158Y22587D01*
G01X22158Y22791D01*
G01X22158Y21796D02*
G01X22840Y21796D01*
G01X23045Y21728D01*
G01X23113Y21591D01*
G01X23113Y21387D01*
G01X23045Y21250D01*
G01X22840Y21046D01*
G01X22158Y21046D02*
G01X23113Y21046D01*
G01X21681Y20391D02*
G01X22840Y20391D01*
G01X23045Y20323D01*
G01X23113Y20187D01*
G01X23113Y20050D01*
G01X22158Y20596D02*
G01X22158Y20119D01*
G01X22295Y19532D02*
G01X22363Y19600D01*
G01X22431Y19532D01*
G01X22363Y19464D01*
G01X22295Y19532D01*
G01X22772Y19532D02*
G01X22840Y19600D01*
G01X22908Y19532D01*
G01X22840Y19464D01*
G01X22772Y19532D01*
G01X34954Y44000D02*
G01X35908Y44000D01*
G01X35454Y44000D02*
G01X35317Y43864D01*
G01X35272Y43773D01*
G01X35272Y43637D01*
G01X35317Y43546D01*
G01X35454Y43500D01*
G01X35908Y43500D01*
G01X34954Y43064D02*
G01X35726Y43064D01*
G01X35863Y43019D01*
G01X35908Y42928D01*
G01X35908Y42837D01*
G01X35272Y43200D02*
G01X35272Y42882D01*
G01X34954Y42400D02*
G01X35726Y42400D01*
G01X35863Y42355D01*
G01X35908Y42264D01*
G01X35908Y42173D01*
G01X35272Y42537D02*
G01X35272Y42219D01*
G01X35272Y41873D02*
G01X36226Y41873D01*
G01X35408Y41873D02*
G01X35317Y41782D01*
G01X35272Y41691D01*
G01X35272Y41555D01*
G01X35317Y41464D01*
G01X35408Y41373D01*
G01X35545Y41328D01*
G01X35635Y41328D01*
G01X35772Y41373D01*
G01X35863Y41464D01*
G01X35908Y41555D01*
G01X35908Y41691D01*
G01X35863Y41782D01*
G01X35772Y41873D01*
G01X35408Y40528D02*
G01X35317Y40573D01*
G01X35272Y40710D01*
G01X35272Y40846D01*
G01X35317Y40982D01*
G01X35408Y41028D01*
G01X35499Y40982D01*
G01X35545Y40891D01*
G01X35590Y40664D01*
G01X35635Y40573D01*
G01X35726Y40528D01*
G01X35772Y40528D01*
G01X35863Y40573D01*
G01X35908Y40710D01*
G01X35908Y40846D01*
G01X35863Y40982D01*
G01X35772Y41028D01*
G01X35363Y40182D02*
G01X35408Y40228D01*
G01X35454Y40182D01*
G01X35408Y40137D01*
G01X35363Y40182D01*
G01X35681Y40182D02*
G01X35726Y40228D01*
G01X35772Y40182D01*
G01X35726Y40137D01*
G01X35681Y40182D01*
G01X34772Y39019D02*
G01X36226Y39837D01*
G01X34772Y37900D02*
G01X36226Y38719D01*
G01X35272Y37055D02*
G01X35999Y37055D01*
G01X36135Y37100D01*
G01X36181Y37146D01*
G01X36226Y37237D01*
G01X36226Y37373D01*
G01X36181Y37464D01*
G01X35408Y37055D02*
G01X35317Y37146D01*
G01X35272Y37237D01*
G01X35272Y37373D01*
G01X35317Y37464D01*
G01X35408Y37555D01*
G01X35545Y37600D01*
G01X35635Y37600D01*
G01X35772Y37555D01*
G01X35863Y37464D01*
G01X35908Y37373D01*
G01X35908Y37237D01*
G01X35863Y37146D01*
G01X35772Y37055D01*
G01X34954Y36755D02*
G01X34999Y36710D01*
G01X34954Y36664D01*
G01X34908Y36710D01*
G01X34954Y36755D01*
G01X35272Y36710D02*
G01X35908Y36710D01*
G01X34954Y36228D02*
G01X35726Y36228D01*
G01X35863Y36182D01*
G01X35908Y36091D01*
G01X35908Y36000D01*
G01X35272Y36364D02*
G01X35272Y36046D01*
G01X34954Y35700D02*
G01X35908Y35700D01*
G01X35454Y35700D02*
G01X35317Y35564D01*
G01X35272Y35473D01*
G01X35272Y35337D01*
G01X35317Y35246D01*
G01X35454Y35200D01*
G01X35908Y35200D01*
G01X35272Y34900D02*
G01X35726Y34900D01*
G01X35863Y34855D01*
G01X35908Y34764D01*
G01X35908Y34628D01*
G01X35863Y34537D01*
G01X35726Y34400D01*
G01X35272Y34400D02*
G01X35908Y34400D01*
G01X34954Y34100D02*
G01X35908Y34100D01*
G01X35408Y34100D02*
G01X35317Y34010D01*
G01X35272Y33919D01*
G01X35272Y33782D01*
G01X35317Y33691D01*
G01X35408Y33600D01*
G01X35545Y33555D01*
G01X35635Y33555D01*
G01X35772Y33600D01*
G01X35863Y33691D01*
G01X35908Y33782D01*
G01X35908Y33919D01*
G01X35863Y34010D01*
G01X35772Y34100D01*
G01X35681Y33210D02*
G01X35726Y33255D01*
G01X35772Y33210D01*
G01X35726Y33164D01*
G01X35681Y33210D01*
G01X35408Y32319D02*
G01X35317Y32410D01*
G01X35272Y32500D01*
G01X35272Y32637D01*
G01X35317Y32728D01*
G01X35408Y32819D01*
G01X35545Y32864D01*
G01X35635Y32864D01*
G01X35772Y32819D01*
G01X35863Y32728D01*
G01X35908Y32637D01*
G01X35908Y32500D01*
G01X35863Y32410D01*
G01X35772Y32319D01*
G01X35272Y31791D02*
G01X35317Y31882D01*
G01X35408Y31973D01*
G01X35545Y32019D01*
G01X35635Y32019D01*
G01X35772Y31973D01*
G01X35863Y31882D01*
G01X35908Y31791D01*
G01X35908Y31655D01*
G01X35863Y31564D01*
G01X35772Y31473D01*
G01X35635Y31428D01*
G01X35545Y31428D01*
G01X35408Y31473D01*
G01X35317Y31564D01*
G01X35272Y31655D01*
G01X35272Y31791D01*
G01X35272Y31128D02*
G01X35908Y31128D01*
G01X35454Y31128D02*
G01X35317Y30991D01*
G01X35272Y30900D01*
G01X35272Y30764D01*
G01X35317Y30673D01*
G01X35454Y30628D01*
G01X35908Y30628D01*
G01X35454Y30628D02*
G01X35317Y30491D01*
G01X35272Y30400D01*
G01X35272Y30264D01*
G01X35317Y30173D01*
G01X35454Y30128D01*
G01X35908Y30128D01*
G01X34772Y29010D02*
G01X36226Y29828D01*
G01X34954Y28710D02*
G01X35908Y28710D01*
G01X34954Y28710D02*
G01X35908Y28346D01*
G01X34954Y27982D02*
G01X35908Y28346D01*
G01X34954Y27982D02*
G01X35908Y27982D01*
G01X35408Y27137D02*
G01X35317Y27228D01*
G01X35272Y27319D01*
G01X35272Y27455D01*
G01X35317Y27546D01*
G01X35408Y27637D01*
G01X35545Y27682D01*
G01X35635Y27682D01*
G01X35772Y27637D01*
G01X35863Y27546D01*
G01X35908Y27455D01*
G01X35908Y27319D01*
G01X35863Y27228D01*
G01X35772Y27137D01*
G01X34954Y26837D02*
G01X35908Y26837D01*
G01X34954Y26200D02*
G01X35908Y26200D01*
G01X35408Y26837D02*
G01X35408Y26200D01*
G01X35272Y25355D02*
G01X35908Y25355D01*
G01X35408Y25355D02*
G01X35317Y25446D01*
G01X35272Y25537D01*
G01X35272Y25673D01*
G01X35317Y25764D01*
G01X35408Y25855D01*
G01X35545Y25900D01*
G01X35635Y25900D01*
G01X35772Y25855D01*
G01X35863Y25764D01*
G01X35908Y25673D01*
G01X35908Y25537D01*
G01X35863Y25446D01*
G01X35772Y25355D01*
G01X35272Y25055D02*
G01X35726Y25055D01*
G01X35863Y25010D01*
G01X35908Y24919D01*
G01X35908Y24782D01*
G01X35863Y24691D01*
G01X35726Y24555D01*
G01X35272Y24555D02*
G01X35908Y24555D01*
G01X35272Y23710D02*
G01X35999Y23710D01*
G01X36135Y23755D01*
G01X36181Y23800D01*
G01X36226Y23891D01*
G01X36226Y24028D01*
G01X36181Y24119D01*
G01X35408Y23710D02*
G01X35317Y23800D01*
G01X35272Y23891D01*
G01X35272Y24028D01*
G01X35317Y24119D01*
G01X35408Y24210D01*
G01X35545Y24255D01*
G01X35635Y24255D01*
G01X35772Y24210D01*
G01X35863Y24119D01*
G01X35908Y24028D01*
G01X35908Y23891D01*
G01X35863Y23800D01*
G01X35772Y23710D01*
G01X35545Y23410D02*
G01X35545Y22864D01*
G01X35454Y22864D01*
G01X35363Y22910D01*
G01X35317Y22955D01*
G01X35272Y23046D01*
G01X35272Y23182D01*
G01X35317Y23273D01*
G01X35408Y23364D01*
G01X35545Y23410D01*
G01X35635Y23410D01*
G01X35772Y23364D01*
G01X35863Y23273D01*
G01X35908Y23182D01*
G01X35908Y23046D01*
G01X35863Y22955D01*
G01X35772Y22864D01*
G01X34772Y21746D02*
G01X36226Y22564D01*
G01X34954Y21173D02*
G01X34999Y21264D01*
G01X35090Y21355D01*
G01X35181Y21400D01*
G01X35317Y21446D01*
G01X35545Y21446D01*
G01X35681Y21400D01*
G01X35772Y21355D01*
G01X35863Y21264D01*
G01X35908Y21173D01*
G01X35908Y20991D01*
G01X35863Y20900D01*
G01X35772Y20810D01*
G01X35681Y20764D01*
G01X35545Y20719D01*
G01X35317Y20719D01*
G01X35181Y20764D01*
G01X35090Y20810D01*
G01X34999Y20900D01*
G01X34954Y20991D01*
G01X34954Y21173D01*
G01X35272Y20419D02*
G01X36226Y20419D01*
G01X35408Y20419D02*
G01X35317Y20328D01*
G01X35272Y20237D01*
G01X35272Y20100D01*
G01X35317Y20010D01*
G01X35408Y19919D01*
G01X35545Y19873D01*
G01X35635Y19873D01*
G01X35772Y19919D01*
G01X35863Y20010D01*
G01X35908Y20100D01*
G01X35908Y20237D01*
G01X35863Y20328D01*
G01X35772Y20419D01*
G01X35545Y19573D02*
G01X35545Y19028D01*
G01X35454Y19028D01*
G01X35363Y19073D01*
G01X35317Y19119D01*
G01X35272Y19210D01*
G01X35272Y19346D01*
G01X35317Y19437D01*
G01X35408Y19528D01*
G01X35545Y19573D01*
G01X35635Y19573D01*
G01X35772Y19528D01*
G01X35863Y19437D01*
G01X35908Y19346D01*
G01X35908Y19210D01*
G01X35863Y19119D01*
G01X35772Y19028D01*
G01X35272Y18728D02*
G01X35908Y18728D01*
G01X35454Y18728D02*
G01X35317Y18591D01*
G01X35272Y18500D01*
G01X35272Y18364D01*
G01X35317Y18273D01*
G01X35454Y18228D01*
G01X35908Y18228D01*
G01X35181Y17246D02*
G01X35090Y17291D01*
G01X34999Y17382D01*
G01X34954Y17473D01*
G01X34954Y17655D01*
G01X34999Y17746D01*
G01X35090Y17837D01*
G01X35181Y17882D01*
G01X35317Y17928D01*
G01X35545Y17928D01*
G01X35681Y17882D01*
G01X35772Y17837D01*
G01X35863Y17746D01*
G01X35908Y17655D01*
G01X35908Y17473D01*
G01X35863Y17382D01*
G01X35772Y17291D01*
G01X35681Y17246D01*
G01X35272Y16719D02*
G01X35317Y16810D01*
G01X35408Y16900D01*
G01X35545Y16946D01*
G01X35635Y16946D01*
G01X35772Y16900D01*
G01X35863Y16810D01*
G01X35908Y16719D01*
G01X35908Y16582D01*
G01X35863Y16491D01*
G01X35772Y16400D01*
G01X35635Y16355D01*
G01X35545Y16355D01*
G01X35408Y16400D01*
G01X35317Y16491D01*
G01X35272Y16582D01*
G01X35272Y16719D01*
G01X35272Y16055D02*
G01X35908Y16055D01*
G01X35545Y16055D02*
G01X35408Y16010D01*
G01X35317Y15919D01*
G01X35272Y15828D01*
G01X35272Y15691D01*
G01X35408Y14891D02*
G01X35317Y14937D01*
G01X35272Y15073D01*
G01X35272Y15210D01*
G01X35317Y15346D01*
G01X35408Y15391D01*
G01X35499Y15346D01*
G01X35545Y15255D01*
G01X35590Y15028D01*
G01X35635Y14937D01*
G01X35726Y14891D01*
G01X35772Y14891D01*
G01X35863Y14937D01*
G01X35908Y15073D01*
G01X35908Y15210D01*
G01X35863Y15346D01*
G01X35772Y15391D01*
G01X35272Y14046D02*
G01X35908Y14046D01*
G01X35408Y14046D02*
G01X35317Y14137D01*
G01X35272Y14228D01*
G01X35272Y14364D01*
G01X35317Y14455D01*
G01X35408Y14546D01*
G01X35545Y14591D01*
G01X35635Y14591D01*
G01X35772Y14546D01*
G01X35863Y14455D01*
G01X35908Y14364D01*
G01X35908Y14228D01*
G01X35863Y14137D01*
G01X35772Y14046D01*
G01X34954Y13746D02*
G01X34999Y13700D01*
G01X34954Y13655D01*
G01X34908Y13700D01*
G01X34954Y13746D01*
G01X35272Y13700D02*
G01X35908Y13700D01*
G01X35272Y13355D02*
G01X35908Y13355D01*
G01X35545Y13355D02*
G01X35408Y13310D01*
G01X35317Y13219D01*
G01X35272Y13128D01*
G01X35272Y12991D01*
G01X34954Y12691D02*
G01X35908Y12691D01*
G01X35908Y12691D02*
G01X35908Y12146D01*
G01X34954Y11846D02*
G01X34999Y11800D01*
G01X34954Y11755D01*
G01X34908Y11800D01*
G01X34954Y11846D01*
G01X35272Y11800D02*
G01X35908Y11800D01*
G01X35272Y10910D02*
G01X35999Y10910D01*
G01X36135Y10955D01*
G01X36181Y11000D01*
G01X36226Y11091D01*
G01X36226Y11228D01*
G01X36181Y11319D01*
G01X35408Y10910D02*
G01X35317Y11000D01*
G01X35272Y11091D01*
G01X35272Y11228D01*
G01X35317Y11319D01*
G01X35408Y11410D01*
G01X35545Y11455D01*
G01X35635Y11455D01*
G01X35772Y11410D01*
G01X35863Y11319D01*
G01X35908Y11228D01*
G01X35908Y11091D01*
G01X35863Y11000D01*
G01X35772Y10910D01*
G01X34954Y10610D02*
G01X35908Y10610D01*
G01X35454Y10610D02*
G01X35317Y10473D01*
G01X35272Y10382D01*
G01X35272Y10246D01*
G01X35317Y10155D01*
G01X35454Y10110D01*
G01X35908Y10110D01*
G01X34954Y9673D02*
G01X35726Y9673D01*
G01X35863Y9628D01*
G01X35908Y9537D01*
G01X35908Y9446D01*
G01X35272Y9810D02*
G01X35272Y9491D01*
G01X34954Y9146D02*
G01X34999Y9100D01*
G01X34954Y9055D01*
G01X34908Y9100D01*
G01X34954Y9146D01*
G01X35272Y9100D02*
G01X35908Y9100D01*
G01X35272Y8755D02*
G01X35908Y8755D01*
G01X35454Y8755D02*
G01X35317Y8619D01*
G01X35272Y8528D01*
G01X35272Y8391D01*
G01X35317Y8300D01*
G01X35454Y8255D01*
G01X35908Y8255D01*
G01X35272Y7410D02*
G01X35999Y7410D01*
G01X36135Y7455D01*
G01X36181Y7500D01*
G01X36226Y7591D01*
G01X36226Y7728D01*
G01X36181Y7819D01*
G01X35408Y7410D02*
G01X35317Y7500D01*
G01X35272Y7591D01*
G01X35272Y7728D01*
G01X35317Y7819D01*
G01X35408Y7910D01*
G01X35545Y7955D01*
G01X35635Y7955D01*
G01X35772Y7910D01*
G01X35863Y7819D01*
G01X35908Y7728D01*
G01X35908Y7591D01*
G01X35863Y7500D01*
G01X35772Y7410D01*
M00*
M02*
