;Layer: Drill PTH
;EasyEDA v6.2.44, 2019-10-08T14:21:55+02:00
;eb769dd03b8a4f4b8b9bb7d3164b0f61,d54f43e133bf43b298e367d61d3b1b7b,10
;Gerber Generator version 0.2
M48
METRIC,LZ,000.000
;Holesize 1 = 0.305 METRIC
T01C0.305
;Holesize 2 = 0.600 METRIC
T02C0.600
;Holesize 3 = 0.889 METRIC
T03C0.889
;Holesize 4 = 1.101 METRIC
T04C1.101
;Holesize 5 = 1.200 METRIC
T05C1.200
;Holesize 6 = 1.701 METRIC
T06C1.701
%
G05
G90
T01
X+016898Y+011805
X+011437Y+009265
X+020581Y+009900
X+014866Y+028061
X+014358Y+033776
X+015628Y+033776
X+015374Y+018536
X+015882Y+017901
X+030995Y+014599
X+030233Y+015361
X+033027Y+017647
X+029979Y+007487
X+033027Y+005836
X+017533Y+009011
X+021343Y+009138
X+028582Y+011932
X+024899Y+026029
X+022740Y+026029
X+009659Y+020568
X+010421Y+017520
X+009659Y+014345
X+013977Y+041777
X+007754Y+041777
X+009405Y+041777
X+018930Y+017774
X+019819Y+024251
X+026169Y+024124
X+022486Y+033014
X+028709Y+033141
X+017914Y+011297
X+006738Y+019171
T02
X+013699Y+046600G85X+013699Y+045400
X+007999Y+046600G85X+007999Y+045400
T03
X+027499Y+045040
X+027499Y+042500
X+027499Y+039960
X+019499Y+045040
X+019499Y+042500
X+019499Y+039960
X+032999Y+020460
X+032999Y+023000
X+032999Y+025540
X+010729Y+007040
X+013269Y+007040
X+010729Y+004500
X+013269Y+004500
X+010729Y+001960
X+013269Y+001960
T04
X+005269Y+027420
X+002729Y+027420
X+005269Y+029960
X+002729Y+029960
X+005269Y+032500
X+002729Y+032500
X+005269Y+035040
X+002729Y+035040
X+005269Y+037580
X+002729Y+037580
T05
X+038689Y+042000
X+041229Y+042000
X+043769Y+042000
X+046309Y+042000
X+038689Y+034500
X+041229Y+034500
X+043769Y+034500
X+046309Y+034500
X+038689Y+027000
X+041229Y+027000
X+043769Y+027000
X+046309Y+027000
X+038689Y+019500
X+041229Y+019500
X+043769Y+019500
X+046309Y+019500
X+038689Y+012000
X+041229Y+012000
X+043769Y+012000
X+046309Y+012000
X+038689Y+004500
X+041229Y+004500
X+043769Y+004500
X+046309Y+004500
T06
X+003999Y+003880
X+003999Y+008879
X+003999Y+014040
X+003999Y+019120
M30
