G04 Layer: TopSilkLayer*
G04 EasyEDA v6.2.44, 2019-10-08T14:21:55+02:00*
G04 eb769dd03b8a4f4b8b9bb7d3164b0f61,d54f43e133bf43b298e367d61d3b1b7b,10*
G04 Gerber Generator version 0.2*
G04 Scale: 100 percent, Rotated: No, Reflected: No *
G04 Dimensions in millimeters *
G04 leading zeros omitted , absolute positions ,3 integer and 3 decimal *
%FSLAX33Y33*%
%MOMM*%
G90*
G71D02*

%ADD10C,0.254000*%
%ADD11C,0.299999*%
%ADD33C,0.203200*%
%ADD34C,0.202999*%
%ADD35C,0.330200*%
%ADD36C,0.200000*%
%ADD37C,0.199898*%
%ADD38C,0.127000*%
%ADD39C,0.599999*%
%ADD40C,0.152400*%

%LPD*%
G54D10*
G01X299Y400D02*
G01X299Y22600D01*
G01X8099Y22600D01*
G01X8099Y400D01*
G01X299Y400D01*
G54D33*
G01X26229Y40595D02*
G01X26229Y38690D01*
G01X28769Y38690D01*
G01X28769Y46310D01*
G01X26229Y46310D01*
G54D34*
G01X26229Y46310D02*
G01X26229Y40595D01*
G54D35*
G01X23467Y34889D02*
G01X23467Y37810D01*
G01X27531Y37810D01*
G01X27531Y34889D01*
G01X23467Y32984D02*
G01X23467Y30190D01*
G01X27531Y30190D01*
G01X27531Y32984D01*
G01X17467Y34889D02*
G01X17467Y37810D01*
G01X21531Y37810D01*
G01X21531Y34889D01*
G01X17467Y32984D02*
G01X17467Y30190D01*
G01X21531Y30190D01*
G01X21531Y32984D01*
G54D33*
G01X18229Y40595D02*
G01X18229Y38690D01*
G01X20769Y38690D01*
G01X20769Y46310D01*
G01X18229Y46310D01*
G54D34*
G01X18229Y46310D02*
G01X18229Y40595D01*
G54D33*
G01X34269Y24905D02*
G01X34269Y26810D01*
G01X31729Y26810D01*
G01X31729Y19190D01*
G01X34269Y19190D01*
G54D34*
G01X34269Y19190D02*
G01X34269Y24905D01*
G54D36*
G01X27449Y21450D02*
G01X27449Y12550D01*
G01X18549Y12550D01*
G01X18549Y21450D01*
G01X27449Y21450D01*
G54D37*
G01X28054Y6466D02*
G01X29374Y6466D01*
G01X29374Y8536D01*
G01X28054Y8536D01*
G01X26922Y6466D02*
G01X25602Y6466D01*
G01X25602Y8536D01*
G01X26922Y8536D01*
G01X19054Y6466D02*
G01X20374Y6466D01*
G01X20374Y8536D01*
G01X19054Y8536D01*
G01X17922Y6466D02*
G01X16602Y6466D01*
G01X16602Y8536D01*
G01X17922Y8536D01*
G01X12444Y18535D02*
G01X11124Y18535D01*
G01X11124Y16465D01*
G01X12444Y16465D01*
G01X13576Y18535D02*
G01X14896Y18535D01*
G01X14896Y16465D01*
G01X13576Y16465D01*
G01X12054Y36466D02*
G01X13374Y36466D01*
G01X13374Y38536D01*
G01X12054Y38536D01*
G01X10922Y36466D02*
G01X9602Y36466D01*
G01X9602Y38536D01*
G01X10922Y38536D01*
G01X12038Y33966D02*
G01X13358Y33966D01*
G01X13358Y36036D01*
G01X12038Y36036D01*
G01X10906Y33966D02*
G01X9586Y33966D01*
G01X9586Y36036D01*
G01X10906Y36036D01*
G54D10*
G01X7163Y48165D02*
G01X6909Y48419D01*
G01X14532Y48156D02*
G01X14786Y48410D01*
G01X14549Y48200D02*
G01X14549Y43200D01*
G01X7149Y43200D01*
G01X7149Y48200D01*
G01X14549Y48200D01*
G01X37165Y43524D02*
G01X47833Y43524D01*
G01X47833Y40476D01*
G01X37165Y40476D01*
G01X37165Y43524D01*
G01X39959Y43524D02*
G01X39959Y40476D01*
G01X37165Y36024D02*
G01X47833Y36024D01*
G01X47833Y32976D01*
G01X37165Y32976D01*
G01X37165Y36024D01*
G01X39959Y36024D02*
G01X39959Y32976D01*
G01X37165Y28524D02*
G01X47833Y28524D01*
G01X47833Y25476D01*
G01X37165Y25476D01*
G01X37165Y28524D01*
G01X39959Y28524D02*
G01X39959Y25476D01*
G01X37165Y21024D02*
G01X47833Y21024D01*
G01X47833Y17976D01*
G01X37165Y17976D01*
G01X37165Y21024D01*
G01X39959Y21024D02*
G01X39959Y17976D01*
G01X37165Y13524D02*
G01X47833Y13524D01*
G01X47833Y10476D01*
G01X37165Y10476D01*
G01X37165Y13524D01*
G01X39959Y13524D02*
G01X39959Y10476D01*
G01X37165Y6024D02*
G01X47833Y6024D01*
G01X47833Y2976D01*
G01X37165Y2976D01*
G01X37165Y6024D01*
G01X39959Y6024D02*
G01X39959Y2976D01*
G01X14899Y24600D02*
G01X11099Y24600D01*
G01X13799Y27200D02*
G01X13799Y24701D01*
G54D38*
G01X13373Y26000D02*
G01X13373Y26381D01*
G01X12611Y26381D02*
G01X13373Y26000D01*
G01X12611Y26000D02*
G01X12611Y26381D01*
G01X13373Y26000D02*
G01X13373Y25619D01*
G01X12611Y25619D02*
G01X13373Y26000D01*
G01X12611Y26000D02*
G01X12611Y25619D01*
G01X12357Y26000D02*
G01X13627Y26000D01*
G54D10*
G01X14899Y27400D02*
G01X11099Y27400D01*
G01X14899Y24600D02*
G01X14899Y24869D01*
G01X14899Y27132D02*
G01X14899Y27400D01*
G01X11099Y24600D02*
G01X11099Y24869D01*
G01X11099Y27132D02*
G01X11099Y27400D01*
G01X22499Y41508D02*
G01X22906Y40492D01*
G01X22906Y40492D02*
G01X22093Y40492D01*
G01X22093Y40492D02*
G01X22499Y41508D01*
G01X23499Y42500D02*
G01X23499Y39500D01*
G01X21499Y42500D02*
G01X21499Y39500D01*
G01X23007Y41508D02*
G01X21991Y41508D01*
G01X22499Y41762D02*
G01X22499Y40238D01*
G01X30499Y41508D02*
G01X30906Y40492D01*
G01X30906Y40492D02*
G01X30093Y40492D01*
G01X30093Y40492D02*
G01X30499Y41508D01*
G01X31499Y42500D02*
G01X31499Y39500D01*
G01X29499Y42500D02*
G01X29499Y39500D01*
G01X31007Y41508D02*
G01X29991Y41508D01*
G01X30499Y41762D02*
G01X30499Y40238D01*
G01X31729Y8238D02*
G01X31729Y6390D01*
G01X34269Y6390D01*
G01X34269Y8238D01*
G01X34269Y9762D02*
G01X34269Y11620D01*
G01X31729Y11620D01*
G01X31729Y9762D01*
G01X27237Y27270D02*
G01X25389Y27270D01*
G01X25389Y24730D01*
G01X27237Y24730D01*
G01X28761Y24730D02*
G01X30619Y24730D01*
G01X30619Y27270D01*
G01X28761Y27270D01*
G01X20261Y24730D02*
G01X22109Y24730D01*
G01X22109Y27270D01*
G01X20261Y27270D01*
G01X18737Y27270D02*
G01X16879Y27270D01*
G01X16879Y24730D01*
G01X18737Y24730D01*
G54D37*
G01X34034Y15555D02*
G01X34034Y16875D01*
G01X31964Y16875D01*
G01X31964Y15555D01*
G01X34034Y14423D02*
G01X34034Y13103D01*
G01X31964Y13103D01*
G01X31964Y14423D01*
G54D33*
G01X9459Y690D02*
G01X9459Y8691D01*
G01X14539Y8691D01*
G01X14539Y690D01*
G01X9459Y690D01*
G54D10*
G01X12237Y15770D02*
G01X10389Y15770D01*
G01X10389Y13230D01*
G01X12237Y13230D01*
G01X13761Y13230D02*
G01X15619Y13230D01*
G01X15619Y15770D01*
G01X13761Y15770D01*
G01X12237Y21770D02*
G01X10389Y21770D01*
G01X10389Y19230D01*
G01X12237Y19230D01*
G01X13761Y19230D02*
G01X15619Y19230D01*
G01X15619Y21770D01*
G01X13761Y21770D01*
G01X12491Y11500D02*
G01X13507Y11907D01*
G01X13507Y11907D02*
G01X13507Y11094D01*
G01X13507Y11094D02*
G01X12491Y11500D01*
G01X11499Y12500D02*
G01X14499Y12500D01*
G01X11499Y10500D02*
G01X14499Y10500D01*
G01X12491Y12008D02*
G01X12491Y10992D01*
G01X12237Y11500D02*
G01X13761Y11500D01*
G01X28714Y4643D02*
G01X28714Y5659D01*
G01X26428Y2230D02*
G01X19570Y2230D01*
G01X26428Y1468D02*
G01X19570Y1468D01*
G01X19570Y4770D02*
G01X26428Y4770D01*
G01X28460Y1087D02*
G01X17538Y1087D01*
G01X28714Y1341D02*
G01X28714Y2357D01*
G01X23634Y3500D02*
G01X24015Y3500D01*
G01X17284Y1341D02*
G01X17284Y2357D01*
G01X23634Y3500D02*
G01X23634Y2865D01*
G01X19570Y5532D02*
G01X26428Y5532D01*
G01X23634Y4135D02*
G01X23634Y3500D01*
G01X28460Y5913D02*
G01X17538Y5913D01*
G01X22364Y3500D02*
G01X21983Y3500D01*
G01X22745Y4135D02*
G01X22745Y2865D01*
G01X22364Y3500D02*
G01X22364Y2865D01*
G01X22745Y2865D02*
G01X23253Y2865D01*
G01X22364Y4135D02*
G01X22364Y3500D01*
G01X23253Y2865D02*
G01X23253Y4135D01*
G01X23253Y4135D02*
G01X22745Y4135D01*
G01X17284Y4643D02*
G01X17284Y5659D01*
G54D37*
G01X22444Y8535D02*
G01X21124Y8535D01*
G01X21124Y6465D01*
G01X22444Y6465D01*
G01X23576Y8535D02*
G01X24897Y8535D01*
G01X24897Y6465D01*
G01X23576Y6465D01*
G54D10*
G01X33499Y41508D02*
G01X33906Y40492D01*
G01X33906Y40492D02*
G01X33093Y40492D01*
G01X33093Y40492D02*
G01X33499Y41508D01*
G01X34499Y42500D02*
G01X34499Y39500D01*
G01X32499Y42500D02*
G01X32499Y39500D01*
G01X34007Y41508D02*
G01X32991Y41508D01*
G01X33499Y41762D02*
G01X33499Y40238D01*
G54D35*
G01X29967Y34889D02*
G01X29967Y37810D01*
G01X34031Y37810D01*
G01X34031Y34889D01*
G01X29967Y32984D02*
G01X29967Y30190D01*
G01X34031Y30190D01*
G01X34031Y32984D01*
G54D10*
G01X2094Y38850D02*
G01X5904Y38850D01*
G01X2094Y26151D02*
G01X5904Y26151D01*
G01X2094Y26151D02*
G01X1459Y26786D01*
G01X1459Y28056D01*
G01X2094Y28691D01*
G01X5904Y26151D02*
G01X6539Y26786D01*
G01X6539Y28056D01*
G01X5904Y28691D01*
G01X2094Y28691D02*
G01X1459Y29326D01*
G01X1459Y30596D01*
G01X2094Y31231D01*
G01X5904Y28691D02*
G01X6539Y29326D01*
G01X6539Y30596D01*
G01X5904Y31231D01*
G01X2094Y31231D02*
G01X1459Y31866D01*
G01X1459Y33136D01*
G01X2094Y33771D01*
G01X5904Y31231D02*
G01X6539Y31866D01*
G01X6539Y33136D01*
G01X5904Y33771D01*
G01X2094Y33771D02*
G01X1459Y34406D01*
G01X1459Y35676D01*
G01X2094Y36311D01*
G01X5904Y33771D02*
G01X6539Y34406D01*
G01X6539Y35676D01*
G01X5904Y36311D01*
G01X2094Y36311D02*
G01X1459Y36946D01*
G01X1459Y38216D01*
G01X2094Y38851D01*
G01X5904Y36311D02*
G01X6539Y36946D01*
G01X6539Y38216D01*
G01X5904Y38851D01*
G54D37*
G01X10928Y33535D02*
G01X9608Y33535D01*
G01X9608Y31465D01*
G01X10928Y31465D01*
G01X12060Y33535D02*
G01X13380Y33535D01*
G01X13380Y31465D01*
G01X12060Y31465D01*
G01X10944Y31035D02*
G01X9624Y31035D01*
G01X9624Y28965D01*
G01X10944Y28965D01*
G01X12076Y31035D02*
G01X13397Y31035D01*
G01X13397Y28965D01*
G01X12076Y28965D01*
G54D40*
G01X1499Y24063D02*
G01X1499Y22974D01*
G01X1499Y24063D02*
G01X1966Y24063D01*
G01X2121Y24012D01*
G01X2175Y23959D01*
G01X2226Y23855D01*
G01X2226Y23700D01*
G01X2175Y23596D01*
G01X2121Y23545D01*
G01X1966Y23492D01*
G01X1499Y23492D01*
G01X3089Y24063D02*
G01X2568Y23337D01*
G01X3348Y23337D01*
G01X3089Y24063D02*
G01X3089Y22974D01*
G01X24480Y39745D02*
G01X25570Y39745D01*
G01X24480Y39745D02*
G01X24480Y40213D01*
G01X24531Y40368D01*
G01X24582Y40421D01*
G01X24686Y40472D01*
G01X24843Y40472D01*
G01X24947Y40421D01*
G01X24998Y40368D01*
G01X25052Y40213D01*
G01X25052Y39745D01*
G01X24480Y40919D02*
G01X24480Y41490D01*
G01X24894Y41181D01*
G01X24894Y41335D01*
G01X24947Y41440D01*
G01X24998Y41490D01*
G01X25153Y41544D01*
G01X25257Y41544D01*
G01X25415Y41490D01*
G01X25519Y41386D01*
G01X25570Y41231D01*
G01X25570Y41076D01*
G01X25519Y40919D01*
G01X25466Y40868D01*
G01X25361Y40815D01*
G01X24561Y34318D02*
G01X24561Y33228D01*
G01X24561Y34318D02*
G01X25237Y34318D01*
G01X24561Y33799D02*
G01X24978Y33799D01*
G01X25631Y34058D02*
G01X25631Y34112D01*
G01X25684Y34216D01*
G01X25735Y34267D01*
G01X25839Y34318D01*
G01X26047Y34318D01*
G01X26151Y34267D01*
G01X26202Y34216D01*
G01X26255Y34112D01*
G01X26255Y34008D01*
G01X26202Y33904D01*
G01X26098Y33746D01*
G01X25580Y33228D01*
G01X26306Y33228D01*
G01X18561Y34285D02*
G01X18561Y33195D01*
G01X18561Y34285D02*
G01X19237Y34285D01*
G01X18561Y33767D02*
G01X18978Y33767D01*
G01X19580Y34079D02*
G01X19684Y34130D01*
G01X19839Y34285D01*
G01X19839Y33195D01*
G01X16517Y39598D02*
G01X17607Y39598D01*
G01X16517Y39598D02*
G01X16517Y40065D01*
G01X16568Y40220D01*
G01X16619Y40274D01*
G01X16723Y40325D01*
G01X16880Y40325D01*
G01X16984Y40274D01*
G01X17035Y40220D01*
G01X17089Y40065D01*
G01X17089Y39598D01*
G01X16776Y40721D02*
G01X16723Y40721D01*
G01X16619Y40772D01*
G01X16568Y40825D01*
G01X16517Y40929D01*
G01X16517Y41135D01*
G01X16568Y41239D01*
G01X16619Y41292D01*
G01X16723Y41343D01*
G01X16827Y41343D01*
G01X16931Y41292D01*
G01X17089Y41188D01*
G01X17607Y40667D01*
G01X17607Y41396D01*
G01X29937Y19500D02*
G01X31027Y19500D01*
G01X29937Y19500D02*
G01X29937Y19968D01*
G01X29988Y20123D01*
G01X30039Y20176D01*
G01X30143Y20227D01*
G01X30300Y20227D01*
G01X30404Y20176D01*
G01X30455Y20123D01*
G01X30509Y19968D01*
G01X30509Y19500D01*
G01X30143Y20570D02*
G01X30092Y20674D01*
G01X29937Y20831D01*
G01X31027Y20831D01*
G01X22872Y24585D02*
G01X22872Y23805D01*
G01X22923Y23650D01*
G01X23027Y23546D01*
G01X23184Y23495D01*
G01X23289Y23495D01*
G01X23444Y23546D01*
G01X23548Y23650D01*
G01X23599Y23805D01*
G01X23599Y24585D01*
G01X23941Y24377D02*
G01X24046Y24430D01*
G01X24203Y24585D01*
G01X24203Y23495D01*
G01X27279Y9741D02*
G01X27226Y9845D01*
G01X27121Y9950D01*
G01X27020Y10000D01*
G01X26811Y10000D01*
G01X26707Y9950D01*
G01X26603Y9845D01*
G01X26550Y9741D01*
G01X26499Y9584D01*
G01X26499Y9325D01*
G01X26550Y9170D01*
G01X26603Y9066D01*
G01X26707Y8962D01*
G01X26811Y8908D01*
G01X27020Y8908D01*
G01X27121Y8962D01*
G01X27226Y9066D01*
G01X27279Y9170D01*
G01X28140Y10000D02*
G01X27622Y9274D01*
G01X28402Y9274D01*
G01X28140Y10000D02*
G01X28140Y8908D01*
G01X18279Y9741D02*
G01X18226Y9846D01*
G01X18121Y9950D01*
G01X18020Y10000D01*
G01X17812Y10000D01*
G01X17707Y9950D01*
G01X17603Y9846D01*
G01X17550Y9741D01*
G01X17499Y9584D01*
G01X17499Y9325D01*
G01X17550Y9170D01*
G01X17603Y9066D01*
G01X17707Y8962D01*
G01X17812Y8908D01*
G01X18020Y8908D01*
G01X18121Y8962D01*
G01X18226Y9066D01*
G01X18279Y9170D01*
G01X18726Y10000D02*
G01X19297Y10000D01*
G01X18985Y9584D01*
G01X19140Y9584D01*
G01X19244Y9533D01*
G01X19297Y9480D01*
G01X19348Y9325D01*
G01X19348Y9221D01*
G01X19297Y9066D01*
G01X19193Y8962D01*
G01X19036Y8908D01*
G01X18881Y8908D01*
G01X18726Y8962D01*
G01X18673Y9012D01*
G01X18622Y9117D01*
G01X9695Y17717D02*
G01X9591Y17664D01*
G01X9487Y17559D01*
G01X9436Y17458D01*
G01X9436Y17250D01*
G01X9487Y17145D01*
G01X9591Y17041D01*
G01X9695Y16988D01*
G01X9852Y16937D01*
G01X10111Y16937D01*
G01X10266Y16988D01*
G01X10370Y17041D01*
G01X10475Y17145D01*
G01X10528Y17250D01*
G01X10528Y17458D01*
G01X10475Y17559D01*
G01X10370Y17664D01*
G01X10266Y17717D01*
G01X9644Y18060D02*
G01X9591Y18164D01*
G01X9436Y18319D01*
G01X10528Y18319D01*
G01X13999Y38064D02*
G01X13999Y36972D01*
G01X13999Y38064D02*
G01X14466Y38064D01*
G01X14621Y38013D01*
G01X14675Y37960D01*
G01X14726Y37856D01*
G01X14726Y37751D01*
G01X14675Y37647D01*
G01X14621Y37596D01*
G01X14466Y37543D01*
G01X13999Y37543D01*
G01X14362Y37543D02*
G01X14726Y36972D01*
G01X15122Y37805D02*
G01X15122Y37856D01*
G01X15173Y37960D01*
G01X15226Y38013D01*
G01X15330Y38064D01*
G01X15536Y38064D01*
G01X15640Y38013D01*
G01X15693Y37960D01*
G01X15744Y37856D01*
G01X15744Y37751D01*
G01X15693Y37647D01*
G01X15589Y37492D01*
G01X15068Y36972D01*
G01X15797Y36972D01*
G01X13999Y35564D02*
G01X13999Y34472D01*
G01X13999Y35564D02*
G01X14466Y35564D01*
G01X14621Y35513D01*
G01X14675Y35460D01*
G01X14726Y35356D01*
G01X14726Y35251D01*
G01X14675Y35147D01*
G01X14621Y35096D01*
G01X14466Y35043D01*
G01X13999Y35043D01*
G01X14362Y35043D02*
G01X14726Y34472D01*
G01X15068Y35356D02*
G01X15173Y35409D01*
G01X15330Y35564D01*
G01X15330Y34472D01*
G01X5349Y43631D02*
G01X6127Y43631D01*
G01X6284Y43682D01*
G01X6388Y43786D01*
G01X6439Y43943D01*
G01X6439Y44047D01*
G01X6388Y44202D01*
G01X6284Y44306D01*
G01X6127Y44357D01*
G01X5349Y44357D01*
G01X5504Y45429D02*
G01X5400Y45325D01*
G01X5349Y45168D01*
G01X5349Y44962D01*
G01X5400Y44804D01*
G01X5504Y44700D01*
G01X5608Y44700D01*
G01X5713Y44753D01*
G01X5763Y44804D01*
G01X5817Y44908D01*
G01X5921Y45221D01*
G01X5972Y45325D01*
G01X6025Y45376D01*
G01X6127Y45429D01*
G01X6284Y45429D01*
G01X6388Y45325D01*
G01X6439Y45168D01*
G01X6439Y44962D01*
G01X6388Y44804D01*
G01X6284Y44700D01*
G01X5349Y45772D02*
G01X6439Y45772D01*
G01X5349Y45772D02*
G01X5349Y46239D01*
G01X5400Y46394D01*
G01X5453Y46448D01*
G01X5555Y46498D01*
G01X5659Y46498D01*
G01X5763Y46448D01*
G01X5817Y46394D01*
G01X5867Y46239D01*
G01X5867Y45772D02*
G01X5867Y46239D01*
G01X5921Y46394D01*
G01X5972Y46448D01*
G01X6076Y46498D01*
G01X6231Y46498D01*
G01X6335Y46448D01*
G01X6388Y46394D01*
G01X6439Y46239D01*
G01X6439Y45772D01*
G01X5555Y46841D02*
G01X5504Y46946D01*
G01X5349Y47100D01*
G01X6439Y47100D01*
G01X37499Y45063D02*
G01X37499Y43973D01*
G01X38226Y45063D02*
G01X38226Y43973D01*
G01X37499Y44544D02*
G01X38226Y44544D01*
G01X38568Y44857D02*
G01X38673Y44908D01*
G01X38830Y45063D01*
G01X38830Y43973D01*
G01X39691Y45063D02*
G01X39173Y44336D01*
G01X39950Y44336D01*
G01X39691Y45063D02*
G01X39691Y43973D01*
G01X37499Y37563D02*
G01X37499Y36473D01*
G01X38226Y37563D02*
G01X38226Y36473D01*
G01X37499Y37044D02*
G01X38226Y37044D01*
G01X38568Y37357D02*
G01X38673Y37408D01*
G01X38830Y37563D01*
G01X38830Y36473D01*
G01X39795Y37563D02*
G01X39277Y37563D01*
G01X39224Y37095D01*
G01X39277Y37149D01*
G01X39432Y37199D01*
G01X39587Y37199D01*
G01X39744Y37149D01*
G01X39849Y37044D01*
G01X39899Y36889D01*
G01X39899Y36785D01*
G01X39849Y36628D01*
G01X39744Y36524D01*
G01X39587Y36473D01*
G01X39432Y36473D01*
G01X39277Y36524D01*
G01X39224Y36577D01*
G01X39173Y36681D01*
G01X37499Y30063D02*
G01X37499Y28973D01*
G01X38226Y30063D02*
G01X38226Y28973D01*
G01X37499Y29544D02*
G01X38226Y29544D01*
G01X38568Y29857D02*
G01X38673Y29908D01*
G01X38830Y30063D01*
G01X38830Y28973D01*
G01X39795Y29908D02*
G01X39744Y30012D01*
G01X39587Y30063D01*
G01X39483Y30063D01*
G01X39328Y30012D01*
G01X39224Y29857D01*
G01X39173Y29595D01*
G01X39173Y29336D01*
G01X39224Y29128D01*
G01X39328Y29024D01*
G01X39483Y28973D01*
G01X39536Y28973D01*
G01X39691Y29024D01*
G01X39795Y29128D01*
G01X39849Y29285D01*
G01X39849Y29336D01*
G01X39795Y29491D01*
G01X39691Y29595D01*
G01X39536Y29649D01*
G01X39483Y29649D01*
G01X39328Y29595D01*
G01X39224Y29491D01*
G01X39173Y29336D01*
G01X37499Y22563D02*
G01X37499Y21473D01*
G01X38226Y22563D02*
G01X38226Y21473D01*
G01X37499Y22044D02*
G01X38226Y22044D01*
G01X38568Y22357D02*
G01X38673Y22408D01*
G01X38830Y22563D01*
G01X38830Y21473D01*
G01X39899Y22563D02*
G01X39379Y21473D01*
G01X39173Y22563D02*
G01X39899Y22563D01*
G01X37499Y15063D02*
G01X37499Y13973D01*
G01X38226Y15063D02*
G01X38226Y13973D01*
G01X37499Y14544D02*
G01X38226Y14544D01*
G01X38568Y14857D02*
G01X38673Y14908D01*
G01X38830Y15063D01*
G01X38830Y13973D01*
G01X39432Y15063D02*
G01X39277Y15012D01*
G01X39224Y14908D01*
G01X39224Y14803D01*
G01X39277Y14699D01*
G01X39379Y14649D01*
G01X39587Y14595D01*
G01X39744Y14544D01*
G01X39849Y14440D01*
G01X39899Y14336D01*
G01X39899Y14181D01*
G01X39849Y14077D01*
G01X39795Y14024D01*
G01X39640Y13973D01*
G01X39432Y13973D01*
G01X39277Y14024D01*
G01X39224Y14077D01*
G01X39173Y14181D01*
G01X39173Y14336D01*
G01X39224Y14440D01*
G01X39328Y14544D01*
G01X39483Y14595D01*
G01X39691Y14649D01*
G01X39795Y14699D01*
G01X39849Y14803D01*
G01X39849Y14908D01*
G01X39795Y15012D01*
G01X39640Y15063D01*
G01X39432Y15063D01*
G01X37499Y7563D02*
G01X37499Y6473D01*
G01X38226Y7563D02*
G01X38226Y6473D01*
G01X37499Y7044D02*
G01X38226Y7044D01*
G01X38568Y7357D02*
G01X38673Y7408D01*
G01X38830Y7563D01*
G01X38830Y6473D01*
G01X39849Y7199D02*
G01X39795Y7044D01*
G01X39691Y6940D01*
G01X39536Y6889D01*
G01X39483Y6889D01*
G01X39328Y6940D01*
G01X39224Y7044D01*
G01X39173Y7199D01*
G01X39173Y7253D01*
G01X39224Y7408D01*
G01X39328Y7512D01*
G01X39483Y7563D01*
G01X39536Y7563D01*
G01X39691Y7512D01*
G01X39795Y7408D01*
G01X39849Y7199D01*
G01X39849Y6940D01*
G01X39795Y6681D01*
G01X39691Y6524D01*
G01X39536Y6473D01*
G01X39432Y6473D01*
G01X39277Y6524D01*
G01X39224Y6628D01*
G01X11999Y29065D02*
G01X11999Y27972D01*
G01X11999Y29065D02*
G01X12362Y29065D01*
G01X12520Y29011D01*
G01X12621Y28907D01*
G01X12675Y28803D01*
G01X12726Y28648D01*
G01X12726Y28389D01*
G01X12675Y28231D01*
G01X12621Y28127D01*
G01X12520Y28026D01*
G01X12362Y27972D01*
G01X11999Y27972D01*
G01X13068Y28856D02*
G01X13173Y28907D01*
G01X13330Y29065D01*
G01X13330Y27972D01*
G01X21499Y45063D02*
G01X21499Y43974D01*
G01X21499Y45063D02*
G01X21862Y45063D01*
G01X22020Y45012D01*
G01X22121Y44908D01*
G01X22175Y44804D01*
G01X22226Y44649D01*
G01X22226Y44388D01*
G01X22175Y44233D01*
G01X22121Y44129D01*
G01X22020Y44024D01*
G01X21862Y43974D01*
G01X21499Y43974D01*
G01X22622Y44804D02*
G01X22622Y44855D01*
G01X22673Y44959D01*
G01X22726Y45012D01*
G01X22830Y45063D01*
G01X23036Y45063D01*
G01X23140Y45012D01*
G01X23193Y44959D01*
G01X23244Y44855D01*
G01X23244Y44751D01*
G01X23193Y44649D01*
G01X23089Y44492D01*
G01X22568Y43974D01*
G01X23297Y43974D01*
G01X29499Y45063D02*
G01X29499Y43974D01*
G01X29499Y45063D02*
G01X29862Y45063D01*
G01X30020Y45012D01*
G01X30121Y44908D01*
G01X30175Y44804D01*
G01X30226Y44649D01*
G01X30226Y44388D01*
G01X30175Y44233D01*
G01X30121Y44129D01*
G01X30020Y44024D01*
G01X29862Y43974D01*
G01X29499Y43974D01*
G01X30673Y45063D02*
G01X31244Y45063D01*
G01X30934Y44649D01*
G01X31089Y44649D01*
G01X31193Y44596D01*
G01X31244Y44545D01*
G01X31297Y44388D01*
G01X31297Y44284D01*
G01X31244Y44129D01*
G01X31140Y44024D01*
G01X30985Y43974D01*
G01X30830Y43974D01*
G01X30673Y44024D01*
G01X30622Y44078D01*
G01X30568Y44179D01*
G01X35196Y8718D02*
G01X35092Y8665D01*
G01X34988Y8561D01*
G01X34937Y8459D01*
G01X34937Y8251D01*
G01X34988Y8147D01*
G01X35092Y8042D01*
G01X35196Y7989D01*
G01X35351Y7938D01*
G01X35610Y7938D01*
G01X35768Y7989D01*
G01X35872Y8042D01*
G01X35976Y8147D01*
G01X36027Y8251D01*
G01X36027Y8459D01*
G01X35976Y8561D01*
G01X35872Y8665D01*
G01X35768Y8718D01*
G01X35196Y9112D02*
G01X35143Y9112D01*
G01X35039Y9165D01*
G01X34988Y9216D01*
G01X34937Y9320D01*
G01X34937Y9528D01*
G01X34988Y9633D01*
G01X35039Y9683D01*
G01X35143Y9737D01*
G01X35247Y9737D01*
G01X35351Y9683D01*
G01X35508Y9579D01*
G01X36027Y9061D01*
G01X36027Y9787D01*
G01X27779Y28741D02*
G01X27726Y28845D01*
G01X27621Y28950D01*
G01X27520Y29000D01*
G01X27312Y29000D01*
G01X27207Y28950D01*
G01X27103Y28845D01*
G01X27050Y28741D01*
G01X26999Y28586D01*
G01X26999Y28327D01*
G01X27050Y28170D01*
G01X27103Y28066D01*
G01X27207Y27962D01*
G01X27312Y27911D01*
G01X27520Y27911D01*
G01X27621Y27962D01*
G01X27726Y28066D01*
G01X27779Y28170D01*
G01X28744Y29000D02*
G01X28226Y29000D01*
G01X28173Y28533D01*
G01X28226Y28586D01*
G01X28381Y28637D01*
G01X28536Y28637D01*
G01X28693Y28586D01*
G01X28797Y28482D01*
G01X28848Y28327D01*
G01X28848Y28223D01*
G01X28797Y28066D01*
G01X28693Y27962D01*
G01X28536Y27911D01*
G01X28381Y27911D01*
G01X28226Y27962D01*
G01X28173Y28015D01*
G01X28122Y28119D01*
G01X19279Y28741D02*
G01X19226Y28845D01*
G01X19121Y28950D01*
G01X19020Y29000D01*
G01X18812Y29000D01*
G01X18707Y28950D01*
G01X18603Y28845D01*
G01X18550Y28741D01*
G01X18499Y28586D01*
G01X18499Y28327D01*
G01X18550Y28170D01*
G01X18603Y28066D01*
G01X18707Y27962D01*
G01X18812Y27911D01*
G01X19020Y27911D01*
G01X19121Y27962D01*
G01X19226Y28066D01*
G01X19279Y28170D01*
G01X20244Y28845D02*
G01X20193Y28950D01*
G01X20036Y29000D01*
G01X19934Y29000D01*
G01X19777Y28950D01*
G01X19673Y28795D01*
G01X19622Y28533D01*
G01X19622Y28274D01*
G01X19673Y28066D01*
G01X19777Y27962D01*
G01X19934Y27911D01*
G01X19985Y27911D01*
G01X20140Y27962D01*
G01X20244Y28066D01*
G01X20297Y28223D01*
G01X20297Y28274D01*
G01X20244Y28429D01*
G01X20140Y28533D01*
G01X19985Y28586D01*
G01X19934Y28586D01*
G01X19777Y28533D01*
G01X19673Y28429D01*
G01X19622Y28274D01*
G01X34695Y14717D02*
G01X34591Y14664D01*
G01X34487Y14559D01*
G01X34436Y14458D01*
G01X34436Y14249D01*
G01X34487Y14145D01*
G01X34591Y14041D01*
G01X34695Y13988D01*
G01X34852Y13937D01*
G01X35111Y13937D01*
G01X35266Y13988D01*
G01X35370Y14041D01*
G01X35475Y14145D01*
G01X35528Y14249D01*
G01X35528Y14458D01*
G01X35475Y14559D01*
G01X35370Y14664D01*
G01X35266Y14717D01*
G01X34436Y15786D02*
G01X35528Y15268D01*
G01X34436Y15060D02*
G01X34436Y15786D01*
G01X9499Y10063D02*
G01X9499Y8973D01*
G01X10226Y10063D02*
G01X10226Y8973D01*
G01X9499Y9544D02*
G01X10226Y9544D01*
G01X10568Y9857D02*
G01X10673Y9908D01*
G01X10830Y10063D01*
G01X10830Y8973D01*
G01X9196Y14218D02*
G01X9092Y14165D01*
G01X8988Y14061D01*
G01X8937Y13959D01*
G01X8937Y13751D01*
G01X8988Y13647D01*
G01X9092Y13543D01*
G01X9196Y13489D01*
G01X9351Y13438D01*
G01X9610Y13438D01*
G01X9768Y13489D01*
G01X9872Y13543D01*
G01X9976Y13647D01*
G01X10027Y13751D01*
G01X10027Y13959D01*
G01X9976Y14061D01*
G01X9872Y14165D01*
G01X9768Y14218D01*
G01X8937Y14820D02*
G01X8988Y14665D01*
G01X9092Y14612D01*
G01X9196Y14612D01*
G01X9300Y14665D01*
G01X9351Y14769D01*
G01X9404Y14975D01*
G01X9455Y15133D01*
G01X9559Y15237D01*
G01X9663Y15287D01*
G01X9818Y15287D01*
G01X9923Y15237D01*
G01X9976Y15183D01*
G01X10027Y15028D01*
G01X10027Y14820D01*
G01X9976Y14665D01*
G01X9923Y14612D01*
G01X9818Y14561D01*
G01X9663Y14561D01*
G01X9559Y14612D01*
G01X9455Y14716D01*
G01X9404Y14873D01*
G01X9351Y15079D01*
G01X9300Y15183D01*
G01X9196Y15237D01*
G01X9092Y15237D01*
G01X8988Y15183D01*
G01X8937Y15028D01*
G01X8937Y14820D01*
G01X9196Y20218D02*
G01X9092Y20165D01*
G01X8988Y20061D01*
G01X8937Y19959D01*
G01X8937Y19751D01*
G01X8988Y19647D01*
G01X9092Y19542D01*
G01X9196Y19489D01*
G01X9351Y19438D01*
G01X9610Y19438D01*
G01X9768Y19489D01*
G01X9872Y19542D01*
G01X9976Y19647D01*
G01X10027Y19751D01*
G01X10027Y19959D01*
G01X9976Y20061D01*
G01X9872Y20165D01*
G01X9768Y20218D01*
G01X9300Y21237D02*
G01X9455Y21183D01*
G01X9559Y21079D01*
G01X9610Y20924D01*
G01X9610Y20873D01*
G01X9559Y20716D01*
G01X9455Y20612D01*
G01X9300Y20561D01*
G01X9247Y20561D01*
G01X9092Y20612D01*
G01X8988Y20716D01*
G01X8937Y20873D01*
G01X8937Y20924D01*
G01X8988Y21079D01*
G01X9092Y21183D01*
G01X9300Y21237D01*
G01X9559Y21237D01*
G01X9818Y21183D01*
G01X9976Y21079D01*
G01X10027Y20924D01*
G01X10027Y20820D01*
G01X9976Y20665D01*
G01X9872Y20612D01*
G01X8936Y11000D02*
G01X10026Y11000D01*
G01X8936Y11000D02*
G01X8936Y11364D01*
G01X8987Y11521D01*
G01X9091Y11623D01*
G01X9195Y11676D01*
G01X9350Y11727D01*
G01X9612Y11727D01*
G01X9767Y11676D01*
G01X9871Y11623D01*
G01X9975Y11521D01*
G01X10026Y11364D01*
G01X10026Y11000D01*
G01X8936Y12590D02*
G01X9663Y12070D01*
G01X9663Y12850D01*
G01X8936Y12590D02*
G01X10026Y12590D01*
G01X29499Y1500D02*
G01X30226Y411D01*
G01X30226Y1500D02*
G01X29499Y411D01*
G01X30622Y1241D02*
G01X30622Y1295D01*
G01X30673Y1399D01*
G01X30726Y1450D01*
G01X30830Y1500D01*
G01X31036Y1500D01*
G01X31140Y1450D01*
G01X31193Y1399D01*
G01X31244Y1295D01*
G01X31244Y1191D01*
G01X31193Y1086D01*
G01X31089Y929D01*
G01X30568Y411D01*
G01X31297Y411D01*
G01X21999Y10000D02*
G01X21999Y8908D01*
G01X21999Y10000D02*
G01X22467Y10000D01*
G01X22621Y9950D01*
G01X22675Y9896D01*
G01X22726Y9792D01*
G01X22726Y9688D01*
G01X22675Y9584D01*
G01X22621Y9533D01*
G01X22467Y9480D01*
G01X21999Y9480D01*
G01X22362Y9480D02*
G01X22726Y8908D01*
G01X23173Y10000D02*
G01X23744Y10000D01*
G01X23434Y9584D01*
G01X23589Y9584D01*
G01X23693Y9533D01*
G01X23744Y9480D01*
G01X23797Y9325D01*
G01X23797Y9221D01*
G01X23744Y9066D01*
G01X23640Y8962D01*
G01X23485Y8908D01*
G01X23330Y8908D01*
G01X23173Y8962D01*
G01X23122Y9012D01*
G01X23069Y9116D01*
G01X32499Y45063D02*
G01X32499Y43974D01*
G01X32499Y45063D02*
G01X32862Y45063D01*
G01X33020Y45012D01*
G01X33121Y44908D01*
G01X33175Y44804D01*
G01X33226Y44649D01*
G01X33226Y44388D01*
G01X33175Y44233D01*
G01X33121Y44129D01*
G01X33020Y44024D01*
G01X32862Y43974D01*
G01X32499Y43974D01*
G01X34193Y45063D02*
G01X33673Y45063D01*
G01X33622Y44596D01*
G01X33673Y44649D01*
G01X33830Y44700D01*
G01X33985Y44700D01*
G01X34140Y44649D01*
G01X34244Y44545D01*
G01X34297Y44388D01*
G01X34297Y44284D01*
G01X34244Y44129D01*
G01X34140Y44024D01*
G01X33985Y43974D01*
G01X33830Y43974D01*
G01X33673Y44024D01*
G01X33622Y44078D01*
G01X33568Y44179D01*
G01X31061Y34318D02*
G01X31061Y33228D01*
G01X31061Y34318D02*
G01X31737Y34318D01*
G01X31061Y33799D02*
G01X31478Y33799D01*
G01X32184Y34318D02*
G01X32755Y34318D01*
G01X32443Y33904D01*
G01X32598Y33904D01*
G01X32702Y33850D01*
G01X32755Y33799D01*
G01X32806Y33644D01*
G01X32806Y33540D01*
G01X32755Y33383D01*
G01X32651Y33279D01*
G01X32496Y33228D01*
G01X32339Y33228D01*
G01X32184Y33279D01*
G01X32131Y33332D01*
G01X32080Y33436D01*
G01X1499Y40563D02*
G01X1499Y39473D01*
G01X2226Y40563D02*
G01X2226Y39473D01*
G01X1499Y40044D02*
G01X2226Y40044D01*
G01X2622Y40303D02*
G01X2622Y40357D01*
G01X2673Y40461D01*
G01X2726Y40512D01*
G01X2830Y40563D01*
G01X3036Y40563D01*
G01X3140Y40512D01*
G01X3193Y40461D01*
G01X3244Y40357D01*
G01X3244Y40253D01*
G01X3193Y40149D01*
G01X3089Y39991D01*
G01X2568Y39473D01*
G01X3297Y39473D01*
G01X13999Y33064D02*
G01X13999Y31972D01*
G01X13999Y33064D02*
G01X14466Y33064D01*
G01X14621Y33013D01*
G01X14675Y32960D01*
G01X14726Y32856D01*
G01X14726Y32751D01*
G01X14675Y32647D01*
G01X14621Y32596D01*
G01X14466Y32543D01*
G01X13999Y32543D01*
G01X14362Y32543D02*
G01X14726Y31972D01*
G01X15589Y33064D02*
G01X15068Y32337D01*
G01X15848Y32337D01*
G01X15589Y33064D02*
G01X15589Y31972D01*
G01X13999Y30564D02*
G01X13999Y29472D01*
G01X13999Y30564D02*
G01X14466Y30564D01*
G01X14621Y30513D01*
G01X14675Y30460D01*
G01X14726Y30356D01*
G01X14726Y30251D01*
G01X14675Y30147D01*
G01X14621Y30096D01*
G01X14466Y30043D01*
G01X13999Y30043D01*
G01X14362Y30043D02*
G01X14726Y29472D01*
G01X15693Y30564D02*
G01X15173Y30564D01*
G01X15122Y30096D01*
G01X15173Y30147D01*
G01X15330Y30201D01*
G01X15485Y30201D01*
G01X15640Y30147D01*
G01X15744Y30043D01*
G01X15797Y29888D01*
G01X15797Y29784D01*
G01X15744Y29629D01*
G01X15640Y29525D01*
G01X15485Y29472D01*
G01X15330Y29472D01*
G01X15173Y29525D01*
G01X15122Y29576D01*
G01X15068Y29680D01*
G54D33*
G01X16548Y42928D02*
G01X16411Y42859D01*
G01X16274Y42722D01*
G01X16208Y42587D01*
G01X16208Y42313D01*
G01X16274Y42178D01*
G01X16411Y42041D01*
G01X16548Y41973D01*
G01X16751Y41904D01*
G01X17094Y41904D01*
G01X17298Y41973D01*
G01X17435Y42041D01*
G01X17569Y42178D01*
G01X17638Y42313D01*
G01X17638Y42587D01*
G01X17569Y42722D01*
G01X17435Y42859D01*
G01X17298Y42928D01*
G01X16208Y43377D02*
G01X17638Y43377D01*
G01X16208Y44332D02*
G01X17638Y44332D01*
G01X16889Y43377D02*
G01X16889Y44332D01*
G01X16480Y45831D02*
G01X16411Y45968D01*
G01X16208Y46174D01*
G01X17638Y46174D01*
G01X24548Y43054D02*
G01X24413Y42986D01*
G01X24276Y42848D01*
G01X24208Y42714D01*
G01X24208Y42439D01*
G01X24276Y42305D01*
G01X24413Y42168D01*
G01X24548Y42099D01*
G01X24754Y42031D01*
G01X25094Y42031D01*
G01X25300Y42099D01*
G01X25435Y42168D01*
G01X25572Y42305D01*
G01X25640Y42439D01*
G01X25640Y42714D01*
G01X25572Y42848D01*
G01X25435Y42986D01*
G01X25300Y43054D01*
G01X24208Y43504D02*
G01X25640Y43504D01*
G01X24208Y44459D02*
G01X25640Y44459D01*
G01X24891Y43504D02*
G01X24891Y44459D01*
G01X24548Y46026D02*
G01X24480Y46026D01*
G01X24345Y46095D01*
G01X24276Y46163D01*
G01X24208Y46300D01*
G01X24208Y46572D01*
G01X24276Y46709D01*
G01X24345Y46778D01*
G01X24480Y46844D01*
G01X24617Y46844D01*
G01X24754Y46778D01*
G01X24957Y46641D01*
G01X25640Y45960D01*
G01X25640Y46912D01*
G01X41000Y45758D02*
G01X41000Y44325D01*
G01X41000Y45758D02*
G01X41886Y45758D01*
G01X41000Y45077D02*
G01X41543Y45077D01*
G01X42882Y45758D02*
G01X42336Y44325D01*
G01X42882Y45758D02*
G01X43425Y44325D01*
G01X42539Y44803D02*
G01X43222Y44803D01*
G01X43878Y45758D02*
G01X43878Y44325D01*
G01X43878Y45758D02*
G01X44830Y44325D01*
G01X44830Y45758D02*
G01X44830Y44325D01*
G01X46331Y45486D02*
G01X46468Y45555D01*
G01X46672Y45758D01*
G01X46672Y44325D01*
G01X41000Y38260D02*
G01X41000Y36827D01*
G01X41000Y38260D02*
G01X41887Y38260D01*
G01X41000Y37576D02*
G01X41544Y37576D01*
G01X42880Y38260D02*
G01X42336Y36827D01*
G01X42880Y38260D02*
G01X43426Y36827D01*
G01X42539Y37304D02*
G01X43223Y37304D01*
G01X43875Y38260D02*
G01X43875Y36827D01*
G01X43875Y38260D02*
G01X44831Y36827D01*
G01X44831Y38260D02*
G01X44831Y36827D01*
G01X46400Y37917D02*
G01X46400Y37985D01*
G01X46466Y38122D01*
G01X46535Y38191D01*
G01X46672Y38260D01*
G01X46944Y38260D01*
G01X47081Y38191D01*
G01X47150Y38122D01*
G01X47218Y37985D01*
G01X47218Y37848D01*
G01X47150Y37713D01*
G01X47012Y37508D01*
G01X46332Y36827D01*
G01X47287Y36827D01*
G01X41000Y30759D02*
G01X41000Y29326D01*
G01X41000Y30759D02*
G01X41887Y30759D01*
G01X41000Y30076D02*
G01X41544Y30076D01*
G01X42880Y30759D02*
G01X42336Y29326D01*
G01X42880Y30759D02*
G01X43426Y29326D01*
G01X42539Y29804D02*
G01X43223Y29804D01*
G01X43875Y30759D02*
G01X43875Y29326D01*
G01X43875Y30759D02*
G01X44831Y29326D01*
G01X44831Y30759D02*
G01X44831Y29326D01*
G01X46466Y30759D02*
G01X47218Y30759D01*
G01X46809Y30213D01*
G01X47012Y30213D01*
G01X47150Y30144D01*
G01X47218Y30076D01*
G01X47287Y29872D01*
G01X47287Y29735D01*
G01X47218Y29532D01*
G01X47081Y29395D01*
G01X46875Y29326D01*
G01X46672Y29326D01*
G01X46466Y29395D01*
G01X46400Y29464D01*
G01X46332Y29598D01*
G01X41000Y23258D02*
G01X41000Y21826D01*
G01X41000Y23258D02*
G01X41887Y23258D01*
G01X41000Y22578D02*
G01X41544Y22578D01*
G01X42880Y23258D02*
G01X42336Y21826D01*
G01X42880Y23258D02*
G01X43426Y21826D01*
G01X42539Y22303D02*
G01X43223Y22303D01*
G01X43875Y23258D02*
G01X43875Y21826D01*
G01X43875Y23258D02*
G01X44831Y21826D01*
G01X44831Y23258D02*
G01X44831Y21826D01*
G01X47012Y23258D02*
G01X46332Y22303D01*
G01X47353Y22303D01*
G01X47012Y23258D02*
G01X47012Y21826D01*
G01X41000Y15758D02*
G01X41000Y14328D01*
G01X41000Y15758D02*
G01X41887Y15758D01*
G01X41000Y15077D02*
G01X41544Y15077D01*
G01X42880Y15758D02*
G01X42336Y14328D01*
G01X42880Y15758D02*
G01X43426Y14328D01*
G01X42539Y14803D02*
G01X43223Y14803D01*
G01X43875Y15758D02*
G01X43875Y14328D01*
G01X43875Y15758D02*
G01X44831Y14328D01*
G01X44831Y15758D02*
G01X44831Y14328D01*
G01X47150Y15758D02*
G01X46466Y15758D01*
G01X46400Y15146D01*
G01X46466Y15214D01*
G01X46672Y15280D01*
G01X46875Y15280D01*
G01X47081Y15214D01*
G01X47218Y15077D01*
G01X47287Y14871D01*
G01X47287Y14737D01*
G01X47218Y14531D01*
G01X47081Y14394D01*
G01X46875Y14328D01*
G01X46672Y14328D01*
G01X46466Y14394D01*
G01X46400Y14462D01*
G01X46332Y14599D01*
G01X41000Y8260D02*
G01X41000Y6827D01*
G01X41000Y8260D02*
G01X41887Y8260D01*
G01X41000Y7576D02*
G01X41544Y7576D01*
G01X42880Y8260D02*
G01X42336Y6827D01*
G01X42880Y8260D02*
G01X43426Y6827D01*
G01X42539Y7305D02*
G01X43223Y7305D01*
G01X43875Y8260D02*
G01X43875Y6827D01*
G01X43875Y8260D02*
G01X44831Y6827D01*
G01X44831Y8260D02*
G01X44831Y6827D01*
G01X47150Y8054D02*
G01X47081Y8191D01*
G01X46875Y8260D01*
G01X46741Y8260D01*
G01X46535Y8191D01*
G01X46400Y7985D01*
G01X46332Y7645D01*
G01X46332Y7305D01*
G01X46400Y7030D01*
G01X46535Y6896D01*
G01X46741Y6827D01*
G01X46809Y6827D01*
G01X47012Y6896D01*
G01X47150Y7030D01*
G01X47218Y7236D01*
G01X47218Y7305D01*
G01X47150Y7508D01*
G01X47012Y7645D01*
G01X46809Y7713D01*
G01X46741Y7713D01*
G01X46535Y7645D01*
G01X46400Y7508D01*
G01X46332Y7305D01*
G01X21591Y16485D02*
G01X22091Y16485D01*
G01X21817Y16122D01*
G01X21954Y16122D01*
G01X22046Y16076D01*
G01X22091Y16030D01*
G01X22134Y15896D01*
G01X22134Y15804D01*
G01X22091Y15667D01*
G01X22000Y15576D01*
G01X21863Y15532D01*
G01X21726Y15532D01*
G01X21591Y15576D01*
G01X21545Y15621D01*
G01X21499Y15713D01*
G01X22480Y16259D02*
G01X22480Y16304D01*
G01X22526Y16396D01*
G01X22571Y16439D01*
G01X22663Y16485D01*
G01X22846Y16485D01*
G01X22935Y16439D01*
G01X22980Y16396D01*
G01X23026Y16304D01*
G01X23026Y16213D01*
G01X22980Y16122D01*
G01X22889Y15984D01*
G01X22437Y15532D01*
G01X23072Y15532D01*
G01X23371Y16485D02*
G01X23371Y15804D01*
G01X23417Y15667D01*
G01X23509Y15576D01*
G01X23646Y15532D01*
G01X23735Y15532D01*
G01X23872Y15576D01*
G01X23963Y15667D01*
G01X24009Y15804D01*
G01X24009Y16485D01*
G01X24763Y16485D02*
G01X24309Y15850D01*
G01X24989Y15850D01*
G01X24763Y16485D02*
G01X24763Y15532D01*
G01X20863Y18486D02*
G01X20500Y17531D01*
G01X20863Y18486D02*
G01X21227Y17531D01*
G01X20635Y17848D02*
G01X21089Y17848D01*
G01X21844Y18486D02*
G01X21844Y17531D01*
G01X21526Y18486D02*
G01X22164Y18486D01*
G01X22464Y18169D02*
G01X22464Y17531D01*
G01X22464Y17986D02*
G01X22598Y18123D01*
G01X22690Y18169D01*
G01X22827Y18169D01*
G01X22918Y18123D01*
G01X22964Y17986D01*
G01X22964Y17531D01*
G01X22964Y17986D02*
G01X23099Y18123D01*
G01X23190Y18169D01*
G01X23327Y18169D01*
G01X23416Y18123D01*
G01X23462Y17986D01*
G01X23462Y17531D01*
G01X23762Y17894D02*
G01X24308Y17894D01*
G01X24308Y17986D01*
G01X24262Y18077D01*
G01X24216Y18123D01*
G01X24127Y18169D01*
G01X23990Y18169D01*
G01X23899Y18123D01*
G01X23807Y18031D01*
G01X23762Y17894D01*
G01X23762Y17803D01*
G01X23807Y17668D01*
G01X23899Y17577D01*
G01X23990Y17531D01*
G01X24127Y17531D01*
G01X24216Y17577D01*
G01X24308Y17668D01*
G01X25153Y18169D02*
G01X25153Y17440D01*
G01X25108Y17305D01*
G01X25062Y17259D01*
G01X24973Y17213D01*
G01X24836Y17213D01*
G01X24744Y17259D01*
G01X25153Y18031D02*
G01X25062Y18123D01*
G01X24973Y18169D01*
G01X24836Y18169D01*
G01X24744Y18123D01*
G01X24653Y18031D01*
G01X24607Y17894D01*
G01X24607Y17803D01*
G01X24653Y17668D01*
G01X24744Y17577D01*
G01X24836Y17531D01*
G01X24973Y17531D01*
G01X25062Y17577D01*
G01X25153Y17668D01*
G01X25999Y18169D02*
G01X25999Y17531D01*
G01X25999Y18031D02*
G01X25908Y18123D01*
G01X25816Y18169D01*
G01X25682Y18169D01*
G01X25590Y18123D01*
G01X25499Y18031D01*
G01X25453Y17894D01*
G01X25453Y17803D01*
G01X25499Y17668D01*
G01X25590Y17577D01*
G01X25682Y17531D01*
G01X25816Y17531D01*
G01X25908Y17577D01*
G01X25999Y17668D01*
G01X6387Y1615D02*
G01X7613Y1615D01*
G01X6999Y1000D02*
G01X6999Y2227D01*
G01X6453Y2677D02*
G01X6387Y2814D01*
G01X6181Y3020D01*
G01X7613Y3020D01*
G01X6521Y3538D02*
G01X6453Y3538D01*
G01X6318Y3604D01*
G01X6249Y3673D01*
G01X6181Y3810D01*
G01X6181Y4081D01*
G01X6249Y4219D01*
G01X6318Y4287D01*
G01X6453Y4356D01*
G01X6590Y4356D01*
G01X6727Y4287D01*
G01X6930Y4150D01*
G01X7613Y3469D01*
G01X7613Y4424D01*
G01X6181Y4874D02*
G01X7613Y5418D01*
G01X6181Y5964D02*
G01X7613Y5418D01*
G01X6523Y8023D02*
G01X6385Y7954D01*
G01X6248Y7820D01*
G01X6180Y7683D01*
G01X6180Y7411D01*
G01X6248Y7274D01*
G01X6385Y7136D01*
G01X6523Y7068D01*
G01X6726Y6999D01*
G01X7066Y6999D01*
G01X7272Y7068D01*
G01X7409Y7136D01*
G01X7544Y7274D01*
G01X7612Y7411D01*
G01X7612Y7683D01*
G01X7544Y7820D01*
G01X7409Y7954D01*
G01X7272Y8023D01*
G01X7066Y8023D01*
G01X7066Y7683D02*
G01X7066Y8023D01*
G01X6180Y8472D02*
G01X7612Y8472D01*
G01X6180Y8472D02*
G01X7612Y9428D01*
G01X6180Y9428D02*
G01X7612Y9428D01*
G01X6180Y9877D02*
G01X7612Y9877D01*
G01X6180Y9877D02*
G01X6180Y10355D01*
G01X6248Y10560D01*
G01X6385Y10695D01*
G01X6523Y10764D01*
G01X6726Y10832D01*
G01X7066Y10832D01*
G01X7272Y10764D01*
G01X7409Y10695D01*
G01X7544Y10560D01*
G01X7612Y10355D01*
G01X7612Y9877D01*
G01X6523Y13023D02*
G01X6385Y12954D01*
G01X6248Y12820D01*
G01X6180Y12683D01*
G01X6180Y12411D01*
G01X6248Y12274D01*
G01X6385Y12136D01*
G01X6523Y12068D01*
G01X6726Y11999D01*
G01X7066Y11999D01*
G01X7272Y12068D01*
G01X7409Y12136D01*
G01X7544Y12274D01*
G01X7612Y12411D01*
G01X7612Y12683D01*
G01X7544Y12820D01*
G01X7409Y12954D01*
G01X7272Y13023D01*
G01X7066Y13023D01*
G01X7066Y12683D02*
G01X7066Y13023D01*
G01X6180Y13472D02*
G01X7612Y13472D01*
G01X6180Y13472D02*
G01X7612Y14428D01*
G01X6180Y14428D02*
G01X7612Y14428D01*
G01X6180Y14877D02*
G01X7612Y14877D01*
G01X6180Y14877D02*
G01X6180Y15355D01*
G01X6248Y15560D01*
G01X6385Y15695D01*
G01X6523Y15764D01*
G01X6726Y15832D01*
G01X7066Y15832D01*
G01X7272Y15764D01*
G01X7409Y15695D01*
G01X7544Y15560D01*
G01X7612Y15355D01*
G01X7612Y14877D01*
G01X6445Y17614D02*
G01X7674Y17614D01*
G01X7060Y17000D02*
G01X7060Y18227D01*
G01X6242Y19497D02*
G01X6242Y18813D01*
G01X6854Y18745D01*
G01X6788Y18813D01*
G01X6719Y19019D01*
G01X6719Y19222D01*
G01X6788Y19428D01*
G01X6922Y19565D01*
G01X7128Y19631D01*
G01X7263Y19631D01*
G01X7468Y19565D01*
G01X7606Y19428D01*
G01X7674Y19222D01*
G01X7674Y19019D01*
G01X7606Y18813D01*
G01X7537Y18745D01*
G01X7400Y18679D01*
G01X6242Y20083D02*
G01X7674Y20627D01*
G01X6242Y21173D02*
G01X7674Y20627D01*
G01X7499Y27345D02*
G01X8182Y27345D01*
G01X8317Y27390D01*
G01X8408Y27482D01*
G01X8454Y27619D01*
G01X8454Y27708D01*
G01X8408Y27845D01*
G01X8317Y27937D01*
G01X8182Y27982D01*
G01X7499Y27982D01*
G01X7636Y28917D02*
G01X7545Y28828D01*
G01X7499Y28691D01*
G01X7499Y28508D01*
G01X7545Y28373D01*
G01X7636Y28282D01*
G01X7728Y28282D01*
G01X7819Y28328D01*
G01X7862Y28373D01*
G01X7908Y28462D01*
G01X8000Y28737D01*
G01X8045Y28828D01*
G01X8091Y28871D01*
G01X8182Y28917D01*
G01X8317Y28917D01*
G01X8408Y28828D01*
G01X8454Y28691D01*
G01X8454Y28508D01*
G01X8408Y28373D01*
G01X8317Y28282D01*
G01X7499Y29217D02*
G01X8454Y29217D01*
G01X7499Y29217D02*
G01X7499Y29628D01*
G01X7545Y29763D01*
G01X7591Y29809D01*
G01X7682Y29854D01*
G01X7773Y29854D01*
G01X7862Y29809D01*
G01X7908Y29763D01*
G01X7954Y29628D01*
G01X7954Y29217D02*
G01X7954Y29628D01*
G01X8000Y29763D01*
G01X8045Y29809D01*
G01X8137Y29854D01*
G01X8271Y29854D01*
G01X8363Y29809D01*
G01X8408Y29763D01*
G01X8454Y29628D01*
G01X8454Y29217D01*
G01X7728Y30901D02*
G01X7682Y30901D01*
G01X7591Y30944D01*
G01X7545Y30990D01*
G01X7499Y31081D01*
G01X7499Y31264D01*
G01X7545Y31355D01*
G01X7591Y31399D01*
G01X7682Y31444D01*
G01X7773Y31444D01*
G01X7862Y31399D01*
G01X8000Y31310D01*
G01X8454Y30855D01*
G01X8454Y31490D01*
G01X8228Y31835D02*
G01X8271Y31790D01*
G01X8317Y31835D01*
G01X8271Y31881D01*
G01X8228Y31835D01*
G01X7499Y32455D02*
G01X7545Y32318D01*
G01X7682Y32227D01*
G01X7908Y32181D01*
G01X8045Y32181D01*
G01X8271Y32227D01*
G01X8408Y32318D01*
G01X8454Y32455D01*
G01X8454Y32544D01*
G01X8408Y32681D01*
G01X8271Y32773D01*
G01X8045Y32818D01*
G01X7908Y32818D01*
G01X7682Y32773D01*
G01X7545Y32681D01*
G01X7499Y32544D01*
G01X7499Y32455D01*
G01X7499Y33817D02*
G01X8454Y33817D01*
G01X7499Y34454D02*
G01X8454Y34454D01*
G01X7954Y33817D02*
G01X7954Y34454D01*
G01X8091Y34754D02*
G01X8091Y35300D01*
G01X8000Y35300D01*
G01X7908Y35254D01*
G01X7862Y35209D01*
G01X7819Y35117D01*
G01X7819Y34983D01*
G01X7862Y34891D01*
G01X7954Y34800D01*
G01X8091Y34754D01*
G01X8182Y34754D01*
G01X8317Y34800D01*
G01X8408Y34891D01*
G01X8454Y34983D01*
G01X8454Y35117D01*
G01X8408Y35209D01*
G01X8317Y35300D01*
G01X7819Y36146D02*
G01X8454Y36146D01*
G01X7954Y36146D02*
G01X7862Y36054D01*
G01X7819Y35963D01*
G01X7819Y35826D01*
G01X7862Y35737D01*
G01X7954Y35645D01*
G01X8091Y35600D01*
G01X8182Y35600D01*
G01X8317Y35645D01*
G01X8408Y35737D01*
G01X8454Y35826D01*
G01X8454Y35963D01*
G01X8408Y36054D01*
G01X8317Y36146D01*
G01X7499Y36992D02*
G01X8454Y36992D01*
G01X7954Y36992D02*
G01X7862Y36900D01*
G01X7819Y36809D01*
G01X7819Y36672D01*
G01X7862Y36583D01*
G01X7954Y36491D01*
G01X8091Y36446D01*
G01X8182Y36446D01*
G01X8317Y36491D01*
G01X8408Y36583D01*
G01X8454Y36672D01*
G01X8454Y36809D01*
G01X8408Y36900D01*
G01X8317Y36992D01*
G01X8091Y37291D02*
G01X8091Y37835D01*
G01X8000Y37835D01*
G01X7908Y37792D01*
G01X7862Y37746D01*
G01X7819Y37655D01*
G01X7819Y37517D01*
G01X7862Y37426D01*
G01X7954Y37337D01*
G01X8091Y37291D01*
G01X8182Y37291D01*
G01X8317Y37337D01*
G01X8408Y37426D01*
G01X8454Y37517D01*
G01X8454Y37655D01*
G01X8408Y37746D01*
G01X8317Y37835D01*
G01X7819Y38137D02*
G01X8454Y38137D01*
G01X8091Y38137D02*
G01X7954Y38180D01*
G01X7862Y38272D01*
G01X7819Y38363D01*
G01X7819Y38500D01*
G54D39*
G75*
G01X19850Y20450D02*
G03X19850Y20445I-300J-2D01*
G01*
G54D11*
G75*
G01X17224Y21725D02*
G03X17224Y21723I-150J-1D01*
G01*
G54D10*
G75*
G01X17285Y5660D02*
G02X17539Y5914I254J0D01*
G01*
G75*
G01X28461Y5914D02*
G02X28715Y5660I0J-254D01*
G01*
G75*
G01X17285Y1342D02*
G03X17539Y1088I254J0D01*
G01*
G75*
G01X19017Y4644D02*
G02X19571Y4771I554J-1143D01*
G01*
G75*
G01X19017Y2358D02*
G03X19571Y2231I554J1143D01*
G01*
G75*
G01X17891Y2358D02*
G03X19571Y1469I1680J1143D01*
G01*
G75*
G01X26429Y1469D02*
G03X28109Y2358I-1J2032D01*
G01*
G75*
G01X26429Y4771D02*
G02X26982Y4644I0J-1270D01*
G01*
G75*
G01X26429Y2231D02*
G03X26982Y2358I0J1270D01*
G01*
G75*
G01X28461Y1088D02*
G03X28715Y1342I0J254D01*
G01*
G75*
G01X26429Y5533D02*
G02X28109Y4644I0J-2032D01*
G01*
G75*
G01X17891Y4644D02*
G02X19571Y5533I1680J-1143D01*
G01*
G54D11*
G75*
G01X15756Y1265D02*
G03X15756Y1265I-381J0D01*
G01*
G75*
G01X5723Y25268D02*
G03X5723Y25268I-381J0D01*
G01*
G75*
G01X36584Y5583D02*
G03X36584Y5583I-381J0D01*
G01*
G75*
G01X36584Y13076D02*
G03X36584Y13076I-381J0D01*
G01*
G75*
G01X36711Y20569D02*
G03X36711Y20569I-381J0D01*
G01*
G75*
G01X36711Y28062D02*
G03X36711Y28062I-381J0D01*
G01*
G75*
G01X36711Y35555D02*
G03X36711Y35555I-381J0D01*
G01*
G75*
G01X36711Y43048D02*
G03X36711Y43048I-381J0D01*
G01*
G75*
G01X25662Y38730D02*
G03X25662Y38730I-381J0D01*
G01*
G75*
G01X17661Y38730D02*
G03X17661Y38730I-381J0D01*
G01*
G75*
G01X32647Y27554D02*
G03X32647Y27554I-381J0D01*
G01*
M00*
M02*
