G04 Layer: BottomSolderMaskLayer*
G04 EasyEDA v6.2.44, 2019-10-08T14:21:55+02:00*
G04 eb769dd03b8a4f4b8b9bb7d3164b0f61,d54f43e133bf43b298e367d61d3b1b7b,10*
G04 Gerber Generator version 0.2*
G04 Scale: 100 percent, Rotated: No, Reflected: No *
G04 Dimensions in millimeters *
G04 leading zeros omitted , absolute positions ,3 integer and 3 decimal *
%FSLAX33Y33*%
%MOMM*%
G90*
G71D02*

%ADD41C,3.203194*%
%ADD43C,1.403198*%
%ADD44C,1.778000*%
%ADD51C,2.003196*%
%ADD59C,1.827200*%

%LPD*%
G54D41*
G01X3499Y3880D02*
G01X4499Y3880D01*
G01X3499Y8879D02*
G01X4499Y8879D01*
G01X3499Y14040D02*
G01X4499Y14040D01*
G01X3499Y19120D02*
G01X4499Y19120D01*
G54D43*
G01X13699Y45300D02*
G01X13699Y46700D01*
G01X7999Y45300D02*
G01X7999Y46700D01*
G54D44*
G01X27499Y45040D03*
G01X27499Y42500D03*
G36*
G01X26611Y39072D02*
G01X26611Y40850D01*
G01X28389Y40850D01*
G01X28389Y39072D01*
G01X26611Y39072D01*
G37*
G01X19499Y45040D03*
G01X19499Y42500D03*
G36*
G01X18610Y39072D02*
G01X18610Y40850D01*
G01X20388Y40850D01*
G01X20388Y39072D01*
G01X18610Y39072D01*
G37*
G01X32999Y20460D03*
G01X32999Y23000D03*
G36*
G01X32110Y24650D02*
G01X32110Y26428D01*
G01X33888Y26428D01*
G01X33888Y24650D01*
G01X32110Y24650D01*
G37*
G36*
G01X37688Y40998D02*
G01X37688Y43002D01*
G01X39690Y43002D01*
G01X39690Y40998D01*
G01X37688Y40998D01*
G37*
G54D51*
G01X41229Y42000D03*
G01X43769Y42000D03*
G01X46309Y42000D03*
G36*
G01X37688Y33500D02*
G01X37688Y35501D01*
G01X39690Y35501D01*
G01X39690Y33500D01*
G01X37688Y33500D01*
G37*
G01X41229Y34500D03*
G01X43769Y34500D03*
G01X46309Y34500D03*
G36*
G01X37688Y25999D02*
G01X37688Y28003D01*
G01X39690Y28003D01*
G01X39690Y25999D01*
G01X37688Y25999D01*
G37*
G01X41229Y27000D03*
G01X43769Y27000D03*
G01X46309Y27000D03*
G36*
G01X37688Y18498D02*
G01X37688Y20502D01*
G01X39690Y20502D01*
G01X39690Y18498D01*
G01X37688Y18498D01*
G37*
G01X41229Y19500D03*
G01X43769Y19500D03*
G01X46309Y19500D03*
G36*
G01X37688Y10998D02*
G01X37688Y13002D01*
G01X39690Y13002D01*
G01X39690Y10998D01*
G01X37688Y10998D01*
G37*
G01X41229Y12000D03*
G01X43769Y12000D03*
G01X46309Y12000D03*
G36*
G01X37688Y3500D02*
G01X37688Y5501D01*
G01X39690Y5501D01*
G01X39690Y3500D01*
G01X37688Y3500D01*
G37*
G01X41229Y4500D03*
G01X43769Y4500D03*
G01X46309Y4500D03*
G54D44*
G01X10729Y7040D03*
G01X13269Y7040D03*
G01X10729Y4500D03*
G01X13269Y4500D03*
G01X10729Y1960D03*
G36*
G01X12379Y1071D02*
G01X12379Y2849D01*
G01X14157Y2849D01*
G01X14157Y1071D01*
G01X12379Y1071D01*
G37*
G54D59*
G01X5269Y27420D03*
G01X2729Y27420D03*
G01X5269Y29960D03*
G01X2729Y29960D03*
G01X5269Y32500D03*
G01X2729Y32500D03*
G01X5269Y35040D03*
G01X2729Y35040D03*
G01X5269Y37580D03*
G01X2729Y37580D03*
M00*
M02*
