G04 Layer: BottomLayer*
G04 EasyEDA v6.2.46, 2019-11-01T12:43:08+01:00*
G04 778d866c1a174c42a2ea303962b88bf4,d54f43e133bf43b298e367d61d3b1b7b,10*
G04 Gerber Generator version 0.2*
G04 Scale: 100 percent, Rotated: No, Reflected: No *
G04 Dimensions in millimeters *
G04 leading zeros omitted , absolute positions ,3 integer and 3 decimal *
%FSLAX33Y33*%
%MOMM*%
G90*
G71D02*

%ADD11C,0.299999*%
%ADD12C,0.999998*%
%ADD14C,0.609600*%
%ADD26C,1.574800*%
%ADD27R,1.574800X1.574800*%
%ADD28R,1.799996X1.799996*%
%ADD29C,1.799996*%
%ADD30C,1.624000*%
%ADD31C,2.999994*%
%ADD32C,1.199998*%

%LPD*%
G36*
G01X49141Y47744D02*
G01X358Y47744D01*
G01X343Y47743D01*
G01X329Y47740D01*
G01X315Y47735D01*
G01X303Y47728D01*
G01X291Y47719D01*
G01X281Y47709D01*
G01X272Y47697D01*
G01X265Y47684D01*
G01X260Y47671D01*
G01X257Y47657D01*
G01X256Y47642D01*
G01X256Y358D01*
G01X257Y343D01*
G01X260Y329D01*
G01X265Y315D01*
G01X272Y303D01*
G01X281Y291D01*
G01X291Y281D01*
G01X303Y272D01*
G01X315Y265D01*
G01X329Y260D01*
G01X343Y257D01*
G01X358Y256D01*
G01X49141Y256D01*
G01X49155Y257D01*
G01X49170Y260D01*
G01X49183Y265D01*
G01X49196Y272D01*
G01X49207Y281D01*
G01X49218Y291D01*
G01X49226Y303D01*
G01X49233Y315D01*
G01X49238Y329D01*
G01X49241Y343D01*
G01X49242Y358D01*
G01X49242Y47642D01*
G01X49241Y47657D01*
G01X49238Y47671D01*
G01X49233Y47684D01*
G01X49226Y47697D01*
G01X49218Y47709D01*
G01X49207Y47719D01*
G01X49196Y47728D01*
G01X49183Y47735D01*
G01X49170Y47740D01*
G01X49155Y47743D01*
G01X49141Y47744D01*
G37*

%LPC*%
G36*
G01X16009Y34945D02*
G01X15247Y34945D01*
G01X15218Y34944D01*
G01X15189Y34941D01*
G01X15161Y34936D01*
G01X15133Y34928D01*
G01X15105Y34919D01*
G01X15078Y34908D01*
G01X15052Y34895D01*
G01X15027Y34880D01*
G01X15003Y34864D01*
G01X14981Y34846D01*
G01X14960Y34826D01*
G01X14498Y34364D01*
G01X14486Y34354D01*
G01X14472Y34345D01*
G01X14457Y34339D01*
G01X14442Y34336D01*
G01X14426Y34334D01*
G01X14416Y34335D01*
G01X14358Y34338D01*
G01X14324Y34337D01*
G01X14290Y34334D01*
G01X14257Y34329D01*
G01X14224Y34321D01*
G01X14191Y34312D01*
G01X14159Y34301D01*
G01X14128Y34288D01*
G01X14097Y34273D01*
G01X14068Y34257D01*
G01X14039Y34238D01*
G01X14012Y34218D01*
G01X13986Y34197D01*
G01X13961Y34173D01*
G01X13938Y34149D01*
G01X13916Y34123D01*
G01X13896Y34095D01*
G01X13878Y34067D01*
G01X13861Y34037D01*
G01X13846Y34007D01*
G01X13833Y33975D01*
G01X13822Y33943D01*
G01X13813Y33911D01*
G01X13806Y33878D01*
G01X13801Y33844D01*
G01X13798Y33810D01*
G01X13797Y33776D01*
G01X13798Y33743D01*
G01X13801Y33709D01*
G01X13806Y33675D01*
G01X13813Y33642D01*
G01X13822Y33609D01*
G01X13833Y33577D01*
G01X13846Y33546D01*
G01X13861Y33516D01*
G01X13878Y33486D01*
G01X13896Y33458D01*
G01X13916Y33430D01*
G01X13938Y33404D01*
G01X13961Y33379D01*
G01X13986Y33356D01*
G01X14012Y33335D01*
G01X14039Y33314D01*
G01X14068Y33296D01*
G01X14097Y33279D01*
G01X14128Y33265D01*
G01X14159Y33252D01*
G01X14191Y33240D01*
G01X14224Y33231D01*
G01X14257Y33224D01*
G01X14290Y33219D01*
G01X14324Y33216D01*
G01X14358Y33215D01*
G01X14393Y33216D01*
G01X14427Y33219D01*
G01X14461Y33225D01*
G01X14495Y33232D01*
G01X14528Y33241D01*
G01X14561Y33253D01*
G01X14593Y33266D01*
G01X14624Y33282D01*
G01X14654Y33299D01*
G01X14682Y33318D01*
G01X14710Y33339D01*
G01X14736Y33362D01*
G01X14761Y33386D01*
G01X14784Y33411D01*
G01X14806Y33438D01*
G01X14826Y33466D01*
G01X14844Y33496D01*
G01X14861Y33526D01*
G01X14875Y33558D01*
G01X14888Y33590D01*
G01X14894Y33604D01*
G01X14902Y33616D01*
G01X14912Y33628D01*
G01X14926Y33642D01*
G01X14938Y33653D01*
G01X14952Y33661D01*
G01X14967Y33667D01*
G01X14982Y33671D01*
G01X14998Y33672D01*
G01X15014Y33671D01*
G01X15029Y33667D01*
G01X15044Y33661D01*
G01X15058Y33653D01*
G01X15070Y33643D01*
G01X15080Y33630D01*
G01X15088Y33617D01*
G01X15095Y33602D01*
G01X15107Y33568D01*
G01X15121Y33535D01*
G01X15138Y33503D01*
G01X15156Y33472D01*
G01X15177Y33443D01*
G01X15199Y33414D01*
G01X15223Y33387D01*
G01X15249Y33362D01*
G01X15277Y33339D01*
G01X15305Y33317D01*
G01X15318Y33307D01*
G01X15329Y33295D01*
G01X15337Y33281D01*
G01X15343Y33266D01*
G01X15347Y33250D01*
G01X15349Y33234D01*
G01X15349Y28830D01*
G01X15348Y28816D01*
G01X15344Y28802D01*
G01X15339Y28788D01*
G01X15332Y28775D01*
G01X15324Y28764D01*
G01X15314Y28754D01*
G01X15302Y28745D01*
G01X15289Y28738D01*
G01X15276Y28733D01*
G01X15261Y28730D01*
G01X15247Y28729D01*
G01X15231Y28730D01*
G01X15216Y28734D01*
G01X15202Y28739D01*
G01X15162Y28758D01*
G01X15122Y28773D01*
G01X15081Y28787D01*
G01X15039Y28798D01*
G01X14996Y28807D01*
G01X14953Y28813D01*
G01X14910Y28817D01*
G01X14866Y28818D01*
G01X13596Y28818D01*
G01X13557Y28817D01*
G01X13517Y28814D01*
G01X13478Y28809D01*
G01X13439Y28801D01*
G01X13400Y28792D01*
G01X13362Y28781D01*
G01X13325Y28768D01*
G01X13288Y28753D01*
G01X13253Y28736D01*
G01X13218Y28717D01*
G01X13184Y28696D01*
G01X13151Y28673D01*
G01X13120Y28649D01*
G01X13090Y28624D01*
G01X13061Y28596D01*
G01X6203Y21738D01*
G01X6176Y21710D01*
G01X6150Y21680D01*
G01X6126Y21648D01*
G01X6104Y21615D01*
G01X6083Y21582D01*
G01X6064Y21547D01*
G01X6047Y21511D01*
G01X6032Y21475D01*
G01X6019Y21437D01*
G01X6007Y21399D01*
G01X5998Y21361D01*
G01X5991Y21322D01*
G01X5986Y21282D01*
G01X5983Y21243D01*
G01X5982Y21203D01*
G01X5982Y20364D01*
G01X5981Y20349D01*
G01X5977Y20335D01*
G01X5972Y20322D01*
G01X5965Y20309D01*
G01X5957Y20297D01*
G01X5947Y20287D01*
G01X5935Y20278D01*
G01X5922Y20271D01*
G01X5909Y20266D01*
G01X5894Y20263D01*
G01X5880Y20262D01*
G01X5863Y20264D01*
G01X5847Y20268D01*
G01X5831Y20275D01*
G01X5817Y20284D01*
G01X5804Y20296D01*
G01X5763Y20341D01*
G01X5719Y20384D01*
G01X5674Y20426D01*
G01X5628Y20466D01*
G01X5581Y20505D01*
G01X5532Y20542D01*
G01X5481Y20577D01*
G01X5430Y20610D01*
G01X5377Y20642D01*
G01X5324Y20671D01*
G01X5269Y20699D01*
G01X5214Y20725D01*
G01X5157Y20749D01*
G01X5100Y20771D01*
G01X5042Y20791D01*
G01X4983Y20809D01*
G01X4924Y20825D01*
G01X4864Y20839D01*
G01X4804Y20850D01*
G01X4744Y20860D01*
G01X4683Y20867D01*
G01X4622Y20873D01*
G01X4561Y20876D01*
G01X4499Y20877D01*
G01X3499Y20877D01*
G01X3439Y20876D01*
G01X3379Y20873D01*
G01X3320Y20868D01*
G01X3260Y20861D01*
G01X3201Y20851D01*
G01X3142Y20840D01*
G01X3083Y20827D01*
G01X3025Y20812D01*
G01X2968Y20795D01*
G01X2911Y20775D01*
G01X2855Y20754D01*
G01X2799Y20731D01*
G01X2745Y20707D01*
G01X2691Y20680D01*
G01X2638Y20651D01*
G01X2587Y20621D01*
G01X2536Y20589D01*
G01X2486Y20555D01*
G01X2438Y20520D01*
G01X2391Y20483D01*
G01X2345Y20444D01*
G01X2300Y20404D01*
G01X2257Y20362D01*
G01X2215Y20319D01*
G01X2175Y20275D01*
G01X2137Y20229D01*
G01X2100Y20182D01*
G01X2064Y20133D01*
G01X2030Y20084D01*
G01X1998Y20033D01*
G01X1968Y19981D01*
G01X1940Y19928D01*
G01X1913Y19875D01*
G01X1888Y19820D01*
G01X1865Y19765D01*
G01X1844Y19709D01*
G01X1825Y19652D01*
G01X1808Y19594D01*
G01X1793Y19536D01*
G01X1779Y19478D01*
G01X1768Y19419D01*
G01X1759Y19360D01*
G01X1752Y19300D01*
G01X1747Y19240D01*
G01X1744Y19180D01*
G01X1743Y19120D01*
G01X1744Y19060D01*
G01X1747Y19000D01*
G01X1752Y18941D01*
G01X1759Y18881D01*
G01X1768Y18822D01*
G01X1779Y18763D01*
G01X1793Y18704D01*
G01X1808Y18646D01*
G01X1825Y18589D01*
G01X1844Y18532D01*
G01X1865Y18476D01*
G01X1888Y18421D01*
G01X1913Y18366D01*
G01X1940Y18312D01*
G01X1968Y18259D01*
G01X1998Y18208D01*
G01X2030Y18157D01*
G01X2064Y18107D01*
G01X2100Y18059D01*
G01X2137Y18012D01*
G01X2175Y17966D01*
G01X2215Y17921D01*
G01X2257Y17878D01*
G01X2300Y17837D01*
G01X2345Y17796D01*
G01X2391Y17758D01*
G01X2438Y17721D01*
G01X2486Y17685D01*
G01X2536Y17652D01*
G01X2587Y17620D01*
G01X2638Y17589D01*
G01X2691Y17561D01*
G01X2745Y17534D01*
G01X2799Y17509D01*
G01X2855Y17486D01*
G01X2911Y17465D01*
G01X2968Y17446D01*
G01X3025Y17429D01*
G01X3083Y17414D01*
G01X3142Y17401D01*
G01X3201Y17389D01*
G01X3260Y17380D01*
G01X3320Y17373D01*
G01X3379Y17368D01*
G01X3439Y17365D01*
G01X3499Y17364D01*
G01X4499Y17364D01*
G01X4559Y17365D01*
G01X4619Y17368D01*
G01X4679Y17373D01*
G01X4738Y17380D01*
G01X4797Y17389D01*
G01X4856Y17400D01*
G01X4914Y17414D01*
G01X4972Y17429D01*
G01X5030Y17446D01*
G01X5086Y17465D01*
G01X5143Y17486D01*
G01X5198Y17509D01*
G01X5252Y17533D01*
G01X5306Y17560D01*
G01X5359Y17588D01*
G01X5410Y17619D01*
G01X5461Y17651D01*
G01X5511Y17684D01*
G01X5559Y17720D01*
G01X5606Y17756D01*
G01X5652Y17795D01*
G01X5696Y17835D01*
G01X5740Y17877D01*
G01X5781Y17920D01*
G01X5821Y17964D01*
G01X5860Y18010D01*
G01X5897Y18057D01*
G01X5933Y18105D01*
G01X5966Y18154D01*
G01X5998Y18205D01*
G01X6029Y18257D01*
G01X6057Y18309D01*
G01X6066Y18323D01*
G01X6076Y18335D01*
G01X6088Y18345D01*
G01X6102Y18353D01*
G01X6116Y18359D01*
G01X6132Y18363D01*
G01X6147Y18364D01*
G01X6687Y18364D01*
G01X6727Y18365D01*
G01X6766Y18368D01*
G01X6805Y18373D01*
G01X6844Y18380D01*
G01X6883Y18390D01*
G01X6921Y18401D01*
G01X6958Y18414D01*
G01X6995Y18429D01*
G01X7031Y18446D01*
G01X7065Y18465D01*
G01X7099Y18486D01*
G01X7132Y18508D01*
G01X7163Y18533D01*
G01X7193Y18558D01*
G01X7222Y18585D01*
G01X7273Y18636D01*
G01X7300Y18665D01*
G01X7326Y18695D01*
G01X7350Y18727D01*
G01X7373Y18759D01*
G01X7393Y18793D01*
G01X7412Y18828D01*
G01X7429Y18864D01*
G01X7444Y18900D01*
G01X7458Y18938D01*
G01X7469Y18976D01*
G01X7478Y19014D01*
G01X7485Y19053D01*
G01X7491Y19092D01*
G01X7494Y19132D01*
G01X7495Y19171D01*
G01X7495Y20848D01*
G01X7496Y20864D01*
G01X7500Y20879D01*
G01X7506Y20894D01*
G01X7514Y20908D01*
G01X7524Y20920D01*
G01X13880Y27275D01*
G01X13892Y27285D01*
G01X13905Y27294D01*
G01X13920Y27300D01*
G01X13936Y27304D01*
G01X13952Y27305D01*
G01X14867Y27305D01*
G01X14881Y27304D01*
G01X14896Y27301D01*
G01X14909Y27296D01*
G01X14922Y27289D01*
G01X14933Y27280D01*
G01X14944Y27270D01*
G01X14952Y27258D01*
G01X14959Y27245D01*
G01X14964Y27232D01*
G01X14967Y27218D01*
G01X14969Y27203D01*
G01X14968Y27197D01*
G01X14968Y18962D01*
G01X14966Y18945D01*
G01X14961Y18927D01*
G01X14954Y18911D01*
G01X14944Y18897D01*
G01X14922Y18869D01*
G01X14902Y18840D01*
G01X14883Y18809D01*
G01X14867Y18777D01*
G01X14853Y18745D01*
G01X14841Y18711D01*
G01X14831Y18677D01*
G01X14823Y18643D01*
G01X14817Y18607D01*
G01X14814Y18572D01*
G01X14813Y18536D01*
G01X14814Y18502D01*
G01X14817Y18468D01*
G01X14822Y18435D01*
G01X14829Y18402D01*
G01X14838Y18369D01*
G01X14850Y18337D01*
G01X14863Y18305D01*
G01X14878Y18274D01*
G01X14894Y18245D01*
G01X14913Y18216D01*
G01X14933Y18189D01*
G01X14955Y18163D01*
G01X14979Y18138D01*
G01X15003Y18115D01*
G01X15030Y18093D01*
G01X15057Y18073D01*
G01X15086Y18055D01*
G01X15116Y18038D01*
G01X15146Y18023D01*
G01X15178Y18011D01*
G01X15210Y18000D01*
G01X15243Y17991D01*
G01X15257Y17986D01*
G01X15271Y17980D01*
G01X15283Y17971D01*
G01X15294Y17961D01*
G01X15303Y17949D01*
G01X15311Y17936D01*
G01X15316Y17923D01*
G01X15320Y17908D01*
G01X15321Y17893D01*
G01X15322Y17858D01*
G01X15326Y17824D01*
G01X15332Y17789D01*
G01X15340Y17755D01*
G01X15350Y17722D01*
G01X15363Y17689D01*
G01X15377Y17657D01*
G01X15393Y17626D01*
G01X15411Y17596D01*
G01X15431Y17568D01*
G01X15453Y17540D01*
G01X15476Y17514D01*
G01X15501Y17490D01*
G01X15527Y17467D01*
G01X15555Y17445D01*
G01X15584Y17426D01*
G01X15614Y17408D01*
G01X15645Y17393D01*
G01X15677Y17379D01*
G01X15710Y17367D01*
G01X15744Y17357D01*
G01X15778Y17350D01*
G01X15812Y17344D01*
G01X15847Y17341D01*
G01X15882Y17340D01*
G01X15917Y17341D01*
G01X15951Y17344D01*
G01X15986Y17350D01*
G01X16019Y17357D01*
G01X16053Y17367D01*
G01X16085Y17378D01*
G01X16117Y17392D01*
G01X16148Y17407D01*
G01X16178Y17425D01*
G01X16207Y17444D01*
G01X16235Y17465D01*
G01X16261Y17487D01*
G01X16286Y17512D01*
G01X16309Y17537D01*
G01X16331Y17564D01*
G01X16351Y17593D01*
G01X16369Y17622D01*
G01X16385Y17653D01*
G01X16400Y17684D01*
G01X16412Y17717D01*
G01X16423Y17750D01*
G01X16431Y17784D01*
G01X16437Y17818D01*
G01X16441Y17852D01*
G01X16444Y17870D01*
G01X16450Y17886D01*
G01X16459Y17901D01*
G01X16471Y17915D01*
G01X16551Y17995D01*
G01X16570Y18016D01*
G01X16589Y18039D01*
G01X16605Y18063D01*
G01X16620Y18088D01*
G01X16633Y18114D01*
G01X16644Y18140D01*
G01X16653Y18168D01*
G01X16660Y18196D01*
G01X16666Y18225D01*
G01X16669Y18253D01*
G01X16670Y18282D01*
G01X16670Y34284D01*
G01X16669Y34313D01*
G01X16666Y34342D01*
G01X16660Y34371D01*
G01X16653Y34399D01*
G01X16644Y34426D01*
G01X16633Y34453D01*
G01X16620Y34479D01*
G01X16605Y34504D01*
G01X16589Y34528D01*
G01X16570Y34551D01*
G01X16551Y34572D01*
G01X16297Y34826D01*
G01X16275Y34846D01*
G01X16253Y34864D01*
G01X16229Y34880D01*
G01X16204Y34895D01*
G01X16178Y34908D01*
G01X16151Y34919D01*
G01X16124Y34928D01*
G01X16096Y34936D01*
G01X16067Y34941D01*
G01X16038Y34944D01*
G01X16009Y34945D01*
G37*
G36*
G01X28743Y33702D02*
G01X28709Y33703D01*
G01X28675Y33702D01*
G01X28641Y33699D01*
G01X28608Y33694D01*
G01X28575Y33686D01*
G01X28542Y33677D01*
G01X28510Y33666D01*
G01X28479Y33653D01*
G01X28448Y33638D01*
G01X28419Y33622D01*
G01X28390Y33603D01*
G01X28363Y33583D01*
G01X28337Y33562D01*
G01X28312Y33538D01*
G01X28289Y33514D01*
G01X28267Y33488D01*
G01X28247Y33460D01*
G01X28229Y33432D01*
G01X28212Y33402D01*
G01X28197Y33372D01*
G01X28184Y33340D01*
G01X28173Y33308D01*
G01X28164Y33276D01*
G01X28157Y33243D01*
G01X28152Y33209D01*
G01X28149Y33175D01*
G01X28148Y33141D01*
G01X28149Y33107D01*
G01X28152Y33072D01*
G01X28157Y33038D01*
G01X28165Y33004D01*
G01X28174Y32971D01*
G01X28186Y32938D01*
G01X28200Y32906D01*
G01X28215Y32875D01*
G01X28233Y32845D01*
G01X28252Y32816D01*
G01X28273Y32788D01*
G01X28282Y32774D01*
G01X28290Y32758D01*
G01X28294Y32742D01*
G01X28295Y32724D01*
G01X28294Y32710D01*
G01X28291Y32696D01*
G01X28286Y32682D01*
G01X28279Y32669D01*
G01X28271Y32658D01*
G01X28260Y32648D01*
G01X28249Y32639D01*
G01X28236Y32632D01*
G01X28222Y32627D01*
G01X28208Y32624D01*
G01X28194Y32623D01*
G01X28178Y32624D01*
G01X28162Y32628D01*
G01X28148Y32634D01*
G01X28134Y32642D01*
G01X28122Y32652D01*
G01X27473Y33302D01*
G01X27451Y33322D01*
G01X27429Y33340D01*
G01X27405Y33356D01*
G01X27380Y33371D01*
G01X27354Y33384D01*
G01X27327Y33395D01*
G01X27300Y33404D01*
G01X27272Y33412D01*
G01X27243Y33417D01*
G01X27214Y33420D01*
G01X27185Y33421D01*
G01X22912Y33421D01*
G01X22894Y33423D01*
G01X22877Y33427D01*
G01X22861Y33435D01*
G01X22847Y33445D01*
G01X22819Y33467D01*
G01X22789Y33487D01*
G01X22759Y33505D01*
G01X22727Y33521D01*
G01X22695Y33536D01*
G01X22661Y33548D01*
G01X22627Y33558D01*
G01X22592Y33566D01*
G01X22557Y33571D01*
G01X22522Y33575D01*
G01X22486Y33576D01*
G01X22452Y33575D01*
G01X22418Y33572D01*
G01X22385Y33567D01*
G01X22352Y33559D01*
G01X22319Y33550D01*
G01X22287Y33539D01*
G01X22256Y33526D01*
G01X22225Y33511D01*
G01X22196Y33495D01*
G01X22167Y33476D01*
G01X22140Y33456D01*
G01X22114Y33435D01*
G01X22089Y33411D01*
G01X22066Y33387D01*
G01X22044Y33361D01*
G01X22024Y33333D01*
G01X22006Y33305D01*
G01X21989Y33275D01*
G01X21974Y33245D01*
G01X21961Y33213D01*
G01X21950Y33181D01*
G01X21941Y33149D01*
G01X21934Y33116D01*
G01X21929Y33082D01*
G01X21926Y33048D01*
G01X21925Y33014D01*
G01X21926Y32981D01*
G01X21929Y32947D01*
G01X21934Y32913D01*
G01X21941Y32880D01*
G01X21950Y32847D01*
G01X21961Y32815D01*
G01X21974Y32784D01*
G01X21989Y32754D01*
G01X22006Y32724D01*
G01X22024Y32696D01*
G01X22044Y32668D01*
G01X22066Y32642D01*
G01X22089Y32617D01*
G01X22114Y32594D01*
G01X22140Y32573D01*
G01X22167Y32552D01*
G01X22196Y32534D01*
G01X22225Y32517D01*
G01X22256Y32503D01*
G01X22287Y32490D01*
G01X22319Y32478D01*
G01X22352Y32469D01*
G01X22385Y32462D01*
G01X22418Y32457D01*
G01X22452Y32454D01*
G01X22486Y32453D01*
G01X22522Y32454D01*
G01X22557Y32458D01*
G01X22592Y32463D01*
G01X22627Y32471D01*
G01X22661Y32481D01*
G01X22695Y32493D01*
G01X22727Y32507D01*
G01X22759Y32524D01*
G01X22789Y32542D01*
G01X22819Y32562D01*
G01X22847Y32584D01*
G01X22861Y32594D01*
G01X22877Y32602D01*
G01X22894Y32606D01*
G01X22912Y32608D01*
G01X26975Y32608D01*
G01X26991Y32607D01*
G01X27006Y32603D01*
G01X27021Y32597D01*
G01X27034Y32588D01*
G01X27046Y32578D01*
G01X27511Y32114D01*
G01X27521Y32102D01*
G01X27530Y32088D01*
G01X27536Y32073D01*
G01X27539Y32058D01*
G01X27541Y32042D01*
G01X27541Y16377D01*
G01X27542Y16348D01*
G01X27545Y16320D01*
G01X27550Y16291D01*
G01X27557Y16263D01*
G01X27566Y16235D01*
G01X27577Y16209D01*
G01X27590Y16183D01*
G01X27605Y16158D01*
G01X27622Y16134D01*
G01X27640Y16111D01*
G01X27660Y16090D01*
G01X29438Y14312D01*
G01X29459Y14292D01*
G01X29481Y14274D01*
G01X29505Y14257D01*
G01X29530Y14243D01*
G01X29556Y14230D01*
G01X29583Y14219D01*
G01X29611Y14209D01*
G01X29639Y14202D01*
G01X29667Y14197D01*
G01X29696Y14194D01*
G01X29725Y14193D01*
G01X30569Y14193D01*
G01X30587Y14191D01*
G01X30604Y14187D01*
G01X30620Y14179D01*
G01X30635Y14169D01*
G01X30663Y14147D01*
G01X30692Y14127D01*
G01X30722Y14109D01*
G01X30754Y14092D01*
G01X30787Y14078D01*
G01X30820Y14066D01*
G01X30854Y14056D01*
G01X30889Y14048D01*
G01X30924Y14043D01*
G01X30960Y14039D01*
G01X30995Y14038D01*
G01X31029Y14039D01*
G01X31063Y14042D01*
G01X31096Y14047D01*
G01X31129Y14054D01*
G01X31162Y14063D01*
G01X31194Y14075D01*
G01X31226Y14088D01*
G01X31256Y14102D01*
G01X31286Y14119D01*
G01X31314Y14137D01*
G01X31341Y14158D01*
G01X31367Y14179D01*
G01X31392Y14202D01*
G01X31415Y14227D01*
G01X31437Y14253D01*
G01X31457Y14281D01*
G01X31476Y14309D01*
G01X31492Y14339D01*
G01X31507Y14369D01*
G01X31520Y14400D01*
G01X31531Y14432D01*
G01X31540Y14465D01*
G01X31547Y14498D01*
G01X31552Y14532D01*
G01X31555Y14566D01*
G01X31556Y14599D01*
G01X31555Y14633D01*
G01X31552Y14667D01*
G01X31547Y14701D01*
G01X31540Y14734D01*
G01X31531Y14766D01*
G01X31520Y14798D01*
G01X31507Y14830D01*
G01X31492Y14860D01*
G01X31476Y14890D01*
G01X31457Y14918D01*
G01X31437Y14946D01*
G01X31415Y14972D01*
G01X31392Y14996D01*
G01X31367Y15020D01*
G01X31341Y15041D01*
G01X31314Y15061D01*
G01X31286Y15080D01*
G01X31256Y15096D01*
G01X31226Y15111D01*
G01X31194Y15124D01*
G01X31162Y15135D01*
G01X31129Y15144D01*
G01X31096Y15152D01*
G01X31063Y15157D01*
G01X31029Y15160D01*
G01X30995Y15161D01*
G01X30949Y15159D01*
G01X30904Y15153D01*
G01X30887Y15152D01*
G01X30873Y15153D01*
G01X30859Y15156D01*
G01X30845Y15161D01*
G01X30832Y15168D01*
G01X30821Y15177D01*
G01X30810Y15187D01*
G01X30802Y15199D01*
G01X30795Y15211D01*
G01X30790Y15225D01*
G01X30787Y15239D01*
G01X30786Y15254D01*
G01X30787Y15270D01*
G01X30793Y15316D01*
G01X30794Y15361D01*
G01X30793Y15396D01*
G01X30790Y15431D01*
G01X30785Y15465D01*
G01X30777Y15499D01*
G01X30768Y15532D01*
G01X30756Y15565D01*
G01X30743Y15597D01*
G01X30727Y15628D01*
G01X30710Y15658D01*
G01X30691Y15687D01*
G01X30670Y15714D01*
G01X30647Y15741D01*
G01X30623Y15765D01*
G01X30597Y15789D01*
G01X30570Y15810D01*
G01X30542Y15830D01*
G01X30512Y15848D01*
G01X30482Y15865D01*
G01X30450Y15879D01*
G01X30418Y15892D01*
G01X30385Y15902D01*
G01X30351Y15910D01*
G01X30317Y15916D01*
G01X30282Y15921D01*
G01X30265Y15924D01*
G01X30248Y15930D01*
G01X30233Y15939D01*
G01X30220Y15950D01*
G01X29145Y17024D01*
G01X29135Y17036D01*
G01X29127Y17050D01*
G01X29121Y17065D01*
G01X29117Y17080D01*
G01X29116Y17096D01*
G01X29116Y32716D01*
G01X29117Y32733D01*
G01X29122Y32750D01*
G01X29129Y32766D01*
G01X29139Y32781D01*
G01X29161Y32809D01*
G01X29182Y32838D01*
G01X29200Y32869D01*
G01X29216Y32900D01*
G01X29230Y32933D01*
G01X29242Y32966D01*
G01X29253Y33001D01*
G01X29260Y33035D01*
G01X29266Y33070D01*
G01X29269Y33106D01*
G01X29270Y33141D01*
G01X29269Y33175D01*
G01X29266Y33209D01*
G01X29261Y33243D01*
G01X29254Y33276D01*
G01X29245Y33308D01*
G01X29234Y33340D01*
G01X29221Y33372D01*
G01X29206Y33402D01*
G01X29190Y33432D01*
G01X29171Y33460D01*
G01X29151Y33488D01*
G01X29129Y33514D01*
G01X29106Y33538D01*
G01X29081Y33562D01*
G01X29055Y33583D01*
G01X29028Y33603D01*
G01X29000Y33622D01*
G01X28970Y33638D01*
G01X28940Y33653D01*
G01X28908Y33666D01*
G01X28876Y33677D01*
G01X28843Y33686D01*
G01X28810Y33694D01*
G01X28777Y33699D01*
G01X28743Y33702D01*
G37*
G36*
G01X16933Y12366D02*
G01X16898Y12367D01*
G01X16863Y12366D01*
G01X16829Y12362D01*
G01X16795Y12357D01*
G01X16761Y12350D01*
G01X16727Y12340D01*
G01X16695Y12329D01*
G01X16663Y12315D01*
G01X16632Y12300D01*
G01X16602Y12282D01*
G01X16573Y12263D01*
G01X16545Y12242D01*
G01X16519Y12219D01*
G01X16494Y12195D01*
G01X16471Y12170D01*
G01X16449Y12142D01*
G01X16429Y12114D01*
G01X16411Y12085D01*
G01X16395Y12054D01*
G01X16380Y12022D01*
G01X16368Y11990D01*
G01X16358Y11957D01*
G01X16349Y11923D01*
G01X16343Y11889D01*
G01X16339Y11855D01*
G01X16336Y11837D01*
G01X16330Y11821D01*
G01X16321Y11805D01*
G01X16310Y11792D01*
G01X14219Y9702D01*
G01X14207Y9691D01*
G01X14194Y9683D01*
G01X14179Y9677D01*
G01X14164Y9673D01*
G01X14148Y9672D01*
G01X11863Y9672D01*
G01X11845Y9674D01*
G01X11828Y9678D01*
G01X11812Y9686D01*
G01X11798Y9696D01*
G01X11770Y9718D01*
G01X11740Y9738D01*
G01X11710Y9756D01*
G01X11678Y9772D01*
G01X11646Y9787D01*
G01X11612Y9799D01*
G01X11578Y9809D01*
G01X11543Y9817D01*
G01X11508Y9822D01*
G01X11473Y9826D01*
G01X11437Y9827D01*
G01X11403Y9826D01*
G01X11369Y9823D01*
G01X11336Y9818D01*
G01X11303Y9810D01*
G01X11270Y9801D01*
G01X11238Y9790D01*
G01X11207Y9777D01*
G01X11176Y9762D01*
G01X11147Y9746D01*
G01X11118Y9727D01*
G01X11091Y9707D01*
G01X11065Y9686D01*
G01X11040Y9662D01*
G01X11017Y9638D01*
G01X10995Y9612D01*
G01X10975Y9584D01*
G01X10957Y9556D01*
G01X10940Y9526D01*
G01X10925Y9496D01*
G01X10912Y9464D01*
G01X10901Y9432D01*
G01X10892Y9400D01*
G01X10885Y9367D01*
G01X10880Y9333D01*
G01X10877Y9299D01*
G01X10876Y9265D01*
G01X10877Y9232D01*
G01X10880Y9198D01*
G01X10885Y9164D01*
G01X10892Y9131D01*
G01X10901Y9098D01*
G01X10912Y9066D01*
G01X10925Y9035D01*
G01X10940Y9005D01*
G01X10957Y8975D01*
G01X10975Y8947D01*
G01X10995Y8919D01*
G01X11017Y8893D01*
G01X11040Y8868D01*
G01X11065Y8845D01*
G01X11091Y8824D01*
G01X11118Y8803D01*
G01X11147Y8785D01*
G01X11176Y8768D01*
G01X11207Y8754D01*
G01X11238Y8741D01*
G01X11270Y8729D01*
G01X11303Y8720D01*
G01X11336Y8713D01*
G01X11369Y8708D01*
G01X11403Y8705D01*
G01X11437Y8704D01*
G01X11473Y8705D01*
G01X11508Y8709D01*
G01X11543Y8714D01*
G01X11578Y8722D01*
G01X11612Y8732D01*
G01X11646Y8744D01*
G01X11678Y8758D01*
G01X11710Y8775D01*
G01X11740Y8793D01*
G01X11770Y8813D01*
G01X11798Y8835D01*
G01X11812Y8845D01*
G01X11828Y8853D01*
G01X11845Y8857D01*
G01X11863Y8859D01*
G01X14358Y8859D01*
G01X14387Y8860D01*
G01X14416Y8863D01*
G01X14445Y8868D01*
G01X14473Y8875D01*
G01X14500Y8885D01*
G01X14527Y8896D01*
G01X14553Y8909D01*
G01X14578Y8923D01*
G01X14602Y8940D01*
G01X14624Y8958D01*
G01X14646Y8978D01*
G01X16885Y11217D01*
G01X16898Y11228D01*
G01X16913Y11237D01*
G01X16930Y11243D01*
G01X16947Y11246D01*
G01X16985Y11251D01*
G01X17023Y11258D01*
G01X17060Y11268D01*
G01X17096Y11280D01*
G01X17132Y11295D01*
G01X17166Y11312D01*
G01X17199Y11331D01*
G01X17211Y11338D01*
G01X17225Y11343D01*
G01X17239Y11346D01*
G01X17253Y11347D01*
G01X17268Y11346D01*
G01X17283Y11343D01*
G01X17297Y11337D01*
G01X17310Y11330D01*
G01X17322Y11320D01*
G01X17333Y11309D01*
G01X17341Y11297D01*
G01X17348Y11283D01*
G01X17352Y11269D01*
G01X17354Y11254D01*
G01X17356Y11240D01*
G01X17356Y11230D01*
G01X17355Y11214D01*
G01X17351Y11198D01*
G01X17345Y11183D01*
G01X17337Y11170D01*
G01X17327Y11158D01*
G01X15468Y9299D01*
G01X15448Y9278D01*
G01X15430Y9255D01*
G01X15413Y9231D01*
G01X15398Y9206D01*
G01X15385Y9180D01*
G01X15374Y9153D01*
G01X15365Y9126D01*
G01X15358Y9098D01*
G01X15353Y9069D01*
G01X15350Y9040D01*
G01X15349Y9011D01*
G01X15349Y7444D01*
G01X15347Y7428D01*
G01X15344Y7413D01*
G01X15338Y7398D01*
G01X15329Y7384D01*
G01X15319Y7372D01*
G01X14319Y6373D01*
G01X14307Y6362D01*
G01X14294Y6354D01*
G01X14279Y6348D01*
G01X14263Y6344D01*
G01X14248Y6343D01*
G01X14233Y6344D01*
G01X14219Y6347D01*
G01X14205Y6352D01*
G01X14193Y6359D01*
G01X14181Y6368D01*
G01X14171Y6378D01*
G01X14162Y6390D01*
G01X14155Y6402D01*
G01X14150Y6416D01*
G01X14147Y6430D01*
G01X14146Y6445D01*
G01X14148Y6463D01*
G01X14153Y6481D01*
G01X14161Y6497D01*
G01X14185Y6539D01*
G01X14207Y6581D01*
G01X14227Y6624D01*
G01X14245Y6668D01*
G01X14260Y6713D01*
G01X14274Y6758D01*
G01X14286Y6804D01*
G01X14296Y6851D01*
G01X14303Y6898D01*
G01X14309Y6945D01*
G01X14312Y6993D01*
G01X14313Y7040D01*
G01X14312Y7087D01*
G01X14309Y7134D01*
G01X14304Y7181D01*
G01X14296Y7227D01*
G01X14287Y7273D01*
G01X14276Y7318D01*
G01X14262Y7363D01*
G01X14247Y7407D01*
G01X14229Y7451D01*
G01X14210Y7493D01*
G01X14189Y7535D01*
G01X14165Y7576D01*
G01X14140Y7615D01*
G01X14114Y7654D01*
G01X14085Y7691D01*
G01X14055Y7727D01*
G01X14024Y7762D01*
G01X13991Y7795D01*
G01X13956Y7827D01*
G01X13920Y7857D01*
G01X13883Y7885D01*
G01X13844Y7912D01*
G01X13805Y7937D01*
G01X13764Y7960D01*
G01X13722Y7981D01*
G01X13680Y8000D01*
G01X13636Y8018D01*
G01X13592Y8033D01*
G01X13547Y8047D01*
G01X13502Y8058D01*
G01X13456Y8068D01*
G01X13409Y8075D01*
G01X13363Y8080D01*
G01X13316Y8083D01*
G01X13269Y8084D01*
G01X13222Y8083D01*
G01X13176Y8080D01*
G01X13129Y8075D01*
G01X13083Y8068D01*
G01X13037Y8058D01*
G01X12991Y8047D01*
G01X12947Y8033D01*
G01X12902Y8018D01*
G01X12859Y8000D01*
G01X12816Y7981D01*
G01X12775Y7960D01*
G01X12734Y7937D01*
G01X12694Y7912D01*
G01X12656Y7885D01*
G01X12618Y7857D01*
G01X12582Y7827D01*
G01X12548Y7795D01*
G01X12515Y7762D01*
G01X12483Y7727D01*
G01X12453Y7691D01*
G01X12425Y7654D01*
G01X12398Y7615D01*
G01X12373Y7576D01*
G01X12350Y7535D01*
G01X12329Y7493D01*
G01X12309Y7451D01*
G01X12292Y7407D01*
G01X12276Y7363D01*
G01X12263Y7318D01*
G01X12251Y7273D01*
G01X12242Y7227D01*
G01X12235Y7181D01*
G01X12229Y7134D01*
G01X12226Y7087D01*
G01X12225Y7040D01*
G01X12226Y6992D01*
G01X12230Y6943D01*
G01X12235Y6895D01*
G01X12243Y6847D01*
G01X12254Y6799D01*
G01X12266Y6752D01*
G01X12280Y6706D01*
G01X12297Y6660D01*
G01X12316Y6615D01*
G01X12337Y6571D01*
G01X12360Y6528D01*
G01X12384Y6486D01*
G01X12411Y6446D01*
G01X12440Y6406D01*
G01X12449Y6392D01*
G01X12455Y6377D01*
G01X12459Y6361D01*
G01X12461Y6345D01*
G01X12460Y6330D01*
G01X12457Y6316D01*
G01X12452Y6302D01*
G01X12445Y6290D01*
G01X12436Y6278D01*
G01X12426Y6268D01*
G01X12414Y6259D01*
G01X12401Y6252D01*
G01X12388Y6247D01*
G01X12374Y6244D01*
G01X12359Y6243D01*
G01X12065Y6243D01*
G01X12036Y6242D01*
G01X12007Y6239D01*
G01X11979Y6234D01*
G01X11951Y6226D01*
G01X11923Y6217D01*
G01X11896Y6206D01*
G01X11870Y6193D01*
G01X11845Y6178D01*
G01X11821Y6162D01*
G01X11799Y6144D01*
G01X11778Y6124D01*
G01X11168Y5514D01*
G01X11155Y5503D01*
G01X11142Y5495D01*
G01X11127Y5489D01*
G01X11112Y5485D01*
G01X11096Y5484D01*
G01X11079Y5485D01*
G01X11063Y5489D01*
G01X11017Y5504D01*
G01X10970Y5516D01*
G01X10922Y5526D01*
G01X10874Y5534D01*
G01X10826Y5540D01*
G01X10778Y5543D01*
G01X10729Y5544D01*
G01X10682Y5543D01*
G01X10636Y5540D01*
G01X10589Y5535D01*
G01X10543Y5528D01*
G01X10497Y5518D01*
G01X10451Y5507D01*
G01X10407Y5493D01*
G01X10362Y5478D01*
G01X10319Y5460D01*
G01X10276Y5441D01*
G01X10235Y5420D01*
G01X10194Y5397D01*
G01X10154Y5372D01*
G01X10116Y5345D01*
G01X10078Y5317D01*
G01X10042Y5287D01*
G01X10008Y5255D01*
G01X9975Y5222D01*
G01X9943Y5187D01*
G01X9913Y5151D01*
G01X9885Y5114D01*
G01X9858Y5075D01*
G01X9833Y5036D01*
G01X9810Y4995D01*
G01X9789Y4953D01*
G01X9769Y4911D01*
G01X9752Y4867D01*
G01X9736Y4823D01*
G01X9723Y4778D01*
G01X9711Y4733D01*
G01X9702Y4687D01*
G01X9695Y4641D01*
G01X9689Y4594D01*
G01X9686Y4547D01*
G01X9685Y4500D01*
G01X9686Y4454D01*
G01X9689Y4407D01*
G01X9695Y4360D01*
G01X9702Y4314D01*
G01X9711Y4268D01*
G01X9723Y4223D01*
G01X9736Y4178D01*
G01X9752Y4134D01*
G01X9769Y4090D01*
G01X9789Y4047D01*
G01X9810Y4006D01*
G01X9833Y3965D01*
G01X9858Y3925D01*
G01X9885Y3887D01*
G01X9913Y3849D01*
G01X9943Y3814D01*
G01X9975Y3779D01*
G01X10008Y3746D01*
G01X10042Y3714D01*
G01X10078Y3684D01*
G01X10116Y3656D01*
G01X10154Y3629D01*
G01X10194Y3604D01*
G01X10235Y3581D01*
G01X10276Y3560D01*
G01X10319Y3540D01*
G01X10362Y3523D01*
G01X10407Y3508D01*
G01X10451Y3494D01*
G01X10497Y3483D01*
G01X10543Y3473D01*
G01X10589Y3466D01*
G01X10636Y3461D01*
G01X10682Y3457D01*
G01X10729Y3456D01*
G01X10776Y3457D01*
G01X10823Y3461D01*
G01X10869Y3466D01*
G01X10916Y3473D01*
G01X10962Y3483D01*
G01X11007Y3494D01*
G01X11052Y3508D01*
G01X11096Y3523D01*
G01X11140Y3540D01*
G01X11182Y3560D01*
G01X11224Y3581D01*
G01X11265Y3604D01*
G01X11304Y3629D01*
G01X11343Y3656D01*
G01X11380Y3684D01*
G01X11416Y3714D01*
G01X11451Y3746D01*
G01X11484Y3779D01*
G01X11515Y3814D01*
G01X11545Y3849D01*
G01X11574Y3887D01*
G01X11600Y3925D01*
G01X11625Y3965D01*
G01X11649Y4006D01*
G01X11670Y4047D01*
G01X11689Y4090D01*
G01X11707Y4134D01*
G01X11722Y4178D01*
G01X11736Y4223D01*
G01X11747Y4268D01*
G01X11756Y4314D01*
G01X11764Y4360D01*
G01X11769Y4407D01*
G01X11772Y4454D01*
G01X11773Y4500D01*
G01X11772Y4549D01*
G01X11769Y4597D01*
G01X11763Y4646D01*
G01X11755Y4694D01*
G01X11745Y4741D01*
G01X11733Y4788D01*
G01X11718Y4835D01*
G01X11714Y4851D01*
G01X11713Y4867D01*
G01X11714Y4883D01*
G01X11718Y4899D01*
G01X11724Y4913D01*
G01X11732Y4927D01*
G01X11743Y4939D01*
G01X12204Y5400D01*
G01X12216Y5410D01*
G01X12229Y5419D01*
G01X12244Y5425D01*
G01X12260Y5429D01*
G01X12276Y5430D01*
G01X12477Y5430D01*
G01X12492Y5429D01*
G01X12506Y5426D01*
G01X12520Y5421D01*
G01X12532Y5414D01*
G01X12544Y5405D01*
G01X12554Y5395D01*
G01X12563Y5383D01*
G01X12570Y5370D01*
G01X12575Y5357D01*
G01X12578Y5343D01*
G01X12579Y5328D01*
G01X12578Y5312D01*
G01X12574Y5296D01*
G01X12567Y5281D01*
G01X12559Y5267D01*
G01X12548Y5255D01*
G01X12515Y5222D01*
G01X12483Y5187D01*
G01X12453Y5151D01*
G01X12425Y5114D01*
G01X12398Y5075D01*
G01X12373Y5036D01*
G01X12350Y4995D01*
G01X12329Y4953D01*
G01X12309Y4911D01*
G01X12292Y4867D01*
G01X12276Y4823D01*
G01X12263Y4778D01*
G01X12251Y4733D01*
G01X12242Y4687D01*
G01X12235Y4640D01*
G01X12229Y4594D01*
G01X12226Y4547D01*
G01X12225Y4500D01*
G01X12226Y4454D01*
G01X12229Y4407D01*
G01X12235Y4360D01*
G01X12242Y4314D01*
G01X12251Y4268D01*
G01X12263Y4223D01*
G01X12276Y4178D01*
G01X12292Y4134D01*
G01X12309Y4090D01*
G01X12329Y4047D01*
G01X12350Y4006D01*
G01X12373Y3965D01*
G01X12398Y3925D01*
G01X12425Y3887D01*
G01X12453Y3849D01*
G01X12483Y3814D01*
G01X12515Y3779D01*
G01X12548Y3746D01*
G01X12582Y3714D01*
G01X12618Y3684D01*
G01X12656Y3656D01*
G01X12694Y3629D01*
G01X12734Y3604D01*
G01X12775Y3581D01*
G01X12816Y3560D01*
G01X12859Y3540D01*
G01X12902Y3523D01*
G01X12947Y3508D01*
G01X12991Y3494D01*
G01X13037Y3483D01*
G01X13083Y3473D01*
G01X13129Y3466D01*
G01X13176Y3461D01*
G01X13222Y3457D01*
G01X13269Y3456D01*
G01X13316Y3457D01*
G01X13363Y3461D01*
G01X13409Y3466D01*
G01X13456Y3473D01*
G01X13502Y3483D01*
G01X13547Y3494D01*
G01X13592Y3508D01*
G01X13636Y3523D01*
G01X13680Y3540D01*
G01X13722Y3560D01*
G01X13764Y3581D01*
G01X13805Y3604D01*
G01X13844Y3629D01*
G01X13883Y3656D01*
G01X13920Y3684D01*
G01X13956Y3714D01*
G01X13991Y3746D01*
G01X14024Y3779D01*
G01X14055Y3814D01*
G01X14085Y3849D01*
G01X14114Y3887D01*
G01X14140Y3925D01*
G01X14165Y3965D01*
G01X14189Y4006D01*
G01X14210Y4047D01*
G01X14229Y4090D01*
G01X14247Y4134D01*
G01X14262Y4178D01*
G01X14276Y4223D01*
G01X14287Y4268D01*
G01X14296Y4314D01*
G01X14304Y4360D01*
G01X14309Y4407D01*
G01X14312Y4454D01*
G01X14313Y4500D01*
G01X14312Y4547D01*
G01X14309Y4594D01*
G01X14304Y4640D01*
G01X14296Y4687D01*
G01X14287Y4733D01*
G01X14276Y4778D01*
G01X14262Y4823D01*
G01X14247Y4867D01*
G01X14229Y4911D01*
G01X14210Y4953D01*
G01X14189Y4995D01*
G01X14165Y5036D01*
G01X14141Y5075D01*
G01X14114Y5114D01*
G01X14085Y5151D01*
G01X14055Y5187D01*
G01X14024Y5222D01*
G01X13991Y5255D01*
G01X13980Y5267D01*
G01X13971Y5281D01*
G01X13965Y5296D01*
G01X13961Y5312D01*
G01X13959Y5328D01*
G01X13960Y5343D01*
G01X13963Y5357D01*
G01X13975Y5383D01*
G01X13984Y5395D01*
G01X13994Y5405D01*
G01X14006Y5414D01*
G01X14019Y5421D01*
G01X14032Y5426D01*
G01X14046Y5429D01*
G01X14061Y5430D01*
G01X14358Y5430D01*
G01X14387Y5431D01*
G01X14416Y5434D01*
G01X14445Y5439D01*
G01X14473Y5446D01*
G01X14500Y5456D01*
G01X14527Y5467D01*
G01X14553Y5480D01*
G01X14578Y5494D01*
G01X14602Y5511D01*
G01X14624Y5529D01*
G01X14646Y5549D01*
G01X16043Y6946D01*
G01X16062Y6967D01*
G01X16081Y6990D01*
G01X16097Y7014D01*
G01X16112Y7039D01*
G01X16125Y7065D01*
G01X16136Y7091D01*
G01X16145Y7119D01*
G01X16152Y7147D01*
G01X16158Y7176D01*
G01X16161Y7204D01*
G01X16162Y7233D01*
G01X16162Y8801D01*
G01X16163Y8817D01*
G01X16167Y8832D01*
G01X16173Y8847D01*
G01X16181Y8861D01*
G01X16191Y8873D01*
G01X18063Y10744D01*
G01X18074Y10754D01*
G01X18087Y10762D01*
G01X18101Y10768D01*
G01X18133Y10780D01*
G01X18164Y10795D01*
G01X18195Y10811D01*
G01X18224Y10830D01*
G01X18252Y10849D01*
G01X18279Y10871D01*
G01X18305Y10894D01*
G01X18329Y10919D01*
G01X18351Y10946D01*
G01X18372Y10973D01*
G01X18391Y11002D01*
G01X18409Y11032D01*
G01X18424Y11063D01*
G01X18438Y11095D01*
G01X18449Y11127D01*
G01X18459Y11161D01*
G01X18466Y11194D01*
G01X18471Y11228D01*
G01X18474Y11263D01*
G01X18475Y11297D01*
G01X18474Y11331D01*
G01X18471Y11365D01*
G01X18466Y11399D01*
G01X18459Y11432D01*
G01X18450Y11464D01*
G01X18439Y11496D01*
G01X18426Y11528D01*
G01X18411Y11558D01*
G01X18395Y11588D01*
G01X18376Y11616D01*
G01X18356Y11644D01*
G01X18334Y11670D01*
G01X18311Y11694D01*
G01X18286Y11718D01*
G01X18260Y11739D01*
G01X18233Y11759D01*
G01X18205Y11778D01*
G01X18175Y11794D01*
G01X18145Y11809D01*
G01X18113Y11822D01*
G01X18081Y11833D01*
G01X18048Y11842D01*
G01X18015Y11850D01*
G01X17982Y11855D01*
G01X17948Y11858D01*
G01X17914Y11859D01*
G01X17879Y11858D01*
G01X17844Y11854D01*
G01X17809Y11849D01*
G01X17775Y11841D01*
G01X17741Y11831D01*
G01X17708Y11819D01*
G01X17675Y11805D01*
G01X17644Y11789D01*
G01X17613Y11771D01*
G01X17601Y11765D01*
G01X17587Y11760D01*
G01X17573Y11757D01*
G01X17559Y11756D01*
G01X17544Y11757D01*
G01X17529Y11760D01*
G01X17515Y11766D01*
G01X17502Y11773D01*
G01X17490Y11783D01*
G01X17480Y11794D01*
G01X17471Y11806D01*
G01X17465Y11820D01*
G01X17460Y11834D01*
G01X17458Y11849D01*
G01X17454Y11884D01*
G01X17448Y11918D01*
G01X17440Y11952D01*
G01X17430Y11986D01*
G01X17417Y12018D01*
G01X17403Y12050D01*
G01X17387Y12081D01*
G01X17369Y12111D01*
G01X17349Y12140D01*
G01X17327Y12167D01*
G01X17304Y12193D01*
G01X17279Y12218D01*
G01X17253Y12240D01*
G01X17225Y12262D01*
G01X17196Y12281D01*
G01X17166Y12299D01*
G01X17135Y12314D01*
G01X17103Y12328D01*
G01X17070Y12340D01*
G01X17036Y12349D01*
G01X17002Y12357D01*
G01X16968Y12362D01*
G01X16933Y12366D01*
G37*
G36*
G01X4499Y5637D02*
G01X3499Y5637D01*
G01X3439Y5636D01*
G01X3379Y5633D01*
G01X3320Y5628D01*
G01X3260Y5621D01*
G01X3201Y5611D01*
G01X3142Y5600D01*
G01X3083Y5587D01*
G01X3025Y5572D01*
G01X2968Y5555D01*
G01X2911Y5535D01*
G01X2855Y5514D01*
G01X2799Y5491D01*
G01X2745Y5467D01*
G01X2691Y5440D01*
G01X2638Y5411D01*
G01X2587Y5381D01*
G01X2536Y5349D01*
G01X2486Y5315D01*
G01X2438Y5280D01*
G01X2391Y5243D01*
G01X2345Y5204D01*
G01X2300Y5164D01*
G01X2257Y5122D01*
G01X2215Y5079D01*
G01X2175Y5035D01*
G01X2137Y4989D01*
G01X2100Y4942D01*
G01X2064Y4893D01*
G01X2030Y4844D01*
G01X1998Y4793D01*
G01X1968Y4741D01*
G01X1940Y4688D01*
G01X1913Y4635D01*
G01X1888Y4580D01*
G01X1865Y4525D01*
G01X1844Y4469D01*
G01X1825Y4412D01*
G01X1808Y4354D01*
G01X1793Y4296D01*
G01X1779Y4238D01*
G01X1768Y4179D01*
G01X1759Y4120D01*
G01X1752Y4060D01*
G01X1747Y4000D01*
G01X1744Y3940D01*
G01X1743Y3880D01*
G01X1744Y3820D01*
G01X1747Y3760D01*
G01X1752Y3701D01*
G01X1759Y3641D01*
G01X1768Y3582D01*
G01X1779Y3523D01*
G01X1793Y3464D01*
G01X1808Y3406D01*
G01X1825Y3349D01*
G01X1844Y3292D01*
G01X1865Y3236D01*
G01X1888Y3181D01*
G01X1913Y3126D01*
G01X1940Y3072D01*
G01X1968Y3019D01*
G01X1998Y2968D01*
G01X2030Y2917D01*
G01X2064Y2867D01*
G01X2100Y2819D01*
G01X2137Y2772D01*
G01X2175Y2726D01*
G01X2215Y2681D01*
G01X2257Y2638D01*
G01X2300Y2597D01*
G01X2345Y2556D01*
G01X2391Y2518D01*
G01X2438Y2481D01*
G01X2486Y2445D01*
G01X2536Y2412D01*
G01X2587Y2380D01*
G01X2638Y2349D01*
G01X2691Y2321D01*
G01X2745Y2294D01*
G01X2799Y2269D01*
G01X2855Y2246D01*
G01X2911Y2225D01*
G01X2968Y2206D01*
G01X3025Y2189D01*
G01X3083Y2174D01*
G01X3142Y2161D01*
G01X3201Y2149D01*
G01X3260Y2140D01*
G01X3320Y2133D01*
G01X3379Y2128D01*
G01X3439Y2125D01*
G01X3499Y2124D01*
G01X4499Y2124D01*
G01X4559Y2125D01*
G01X4619Y2128D01*
G01X4679Y2133D01*
G01X4738Y2140D01*
G01X4798Y2149D01*
G01X4857Y2161D01*
G01X4915Y2174D01*
G01X4973Y2189D01*
G01X5031Y2206D01*
G01X5087Y2225D01*
G01X5144Y2246D01*
G01X5199Y2269D01*
G01X5254Y2294D01*
G01X5307Y2321D01*
G01X5360Y2349D01*
G01X5412Y2380D01*
G01X5463Y2412D01*
G01X5512Y2445D01*
G01X5561Y2481D01*
G01X5608Y2518D01*
G01X5654Y2556D01*
G01X5698Y2597D01*
G01X5741Y2638D01*
G01X5783Y2681D01*
G01X5823Y2726D01*
G01X5862Y2772D01*
G01X5899Y2819D01*
G01X5934Y2867D01*
G01X5968Y2917D01*
G01X6000Y2968D01*
G01X6030Y3019D01*
G01X6059Y3072D01*
G01X6086Y3126D01*
G01X6110Y3181D01*
G01X6133Y3236D01*
G01X6154Y3292D01*
G01X6173Y3349D01*
G01X6191Y3406D01*
G01X6206Y3464D01*
G01X6219Y3523D01*
G01X6230Y3582D01*
G01X6239Y3641D01*
G01X6247Y3701D01*
G01X6252Y3760D01*
G01X6255Y3820D01*
G01X6256Y3880D01*
G01X6255Y3940D01*
G01X6252Y4000D01*
G01X6247Y4060D01*
G01X6239Y4120D01*
G01X6230Y4179D01*
G01X6219Y4238D01*
G01X6206Y4296D01*
G01X6191Y4354D01*
G01X6173Y4412D01*
G01X6154Y4469D01*
G01X6133Y4525D01*
G01X6110Y4580D01*
G01X6086Y4635D01*
G01X6059Y4688D01*
G01X6030Y4741D01*
G01X6000Y4793D01*
G01X5968Y4844D01*
G01X5934Y4893D01*
G01X5899Y4942D01*
G01X5862Y4989D01*
G01X5823Y5035D01*
G01X5783Y5079D01*
G01X5741Y5122D01*
G01X5698Y5164D01*
G01X5654Y5204D01*
G01X5608Y5243D01*
G01X5561Y5280D01*
G01X5512Y5315D01*
G01X5463Y5349D01*
G01X5412Y5381D01*
G01X5360Y5411D01*
G01X5307Y5440D01*
G01X5254Y5467D01*
G01X5199Y5491D01*
G01X5144Y5514D01*
G01X5087Y5535D01*
G01X5031Y5555D01*
G01X4973Y5572D01*
G01X4915Y5587D01*
G01X4857Y5600D01*
G01X4798Y5611D01*
G01X4738Y5621D01*
G01X4679Y5628D01*
G01X4619Y5633D01*
G01X4559Y5636D01*
G01X4499Y5637D01*
G37*
G36*
G01X34059Y4256D02*
G01X33999Y4257D01*
G01X33939Y4256D01*
G01X33879Y4253D01*
G01X33820Y4248D01*
G01X33760Y4241D01*
G01X33701Y4231D01*
G01X33642Y4220D01*
G01X33583Y4207D01*
G01X33525Y4192D01*
G01X33468Y4175D01*
G01X33411Y4156D01*
G01X33355Y4134D01*
G01X33299Y4111D01*
G01X33245Y4087D01*
G01X33191Y4060D01*
G01X33138Y4031D01*
G01X33087Y4001D01*
G01X33036Y3969D01*
G01X32986Y3935D01*
G01X32938Y3900D01*
G01X32891Y3863D01*
G01X32845Y3824D01*
G01X32800Y3784D01*
G01X32757Y3742D01*
G01X32715Y3699D01*
G01X32675Y3655D01*
G01X32637Y3609D01*
G01X32600Y3562D01*
G01X32564Y3513D01*
G01X32530Y3464D01*
G01X32498Y3413D01*
G01X32468Y3361D01*
G01X32440Y3309D01*
G01X32413Y3255D01*
G01X32388Y3200D01*
G01X32365Y3145D01*
G01X32344Y3089D01*
G01X32325Y3032D01*
G01X32308Y2974D01*
G01X32293Y2916D01*
G01X32279Y2858D01*
G01X32268Y2799D01*
G01X32259Y2740D01*
G01X32252Y2680D01*
G01X32247Y2620D01*
G01X32244Y2560D01*
G01X32243Y2500D01*
G01X32244Y2440D01*
G01X32247Y2381D01*
G01X32252Y2321D01*
G01X32259Y2261D01*
G01X32268Y2202D01*
G01X32279Y2143D01*
G01X32293Y2084D01*
G01X32308Y2026D01*
G01X32325Y1969D01*
G01X32344Y1912D01*
G01X32365Y1856D01*
G01X32388Y1801D01*
G01X32413Y1746D01*
G01X32440Y1692D01*
G01X32468Y1639D01*
G01X32498Y1588D01*
G01X32530Y1537D01*
G01X32564Y1487D01*
G01X32600Y1439D01*
G01X32637Y1392D01*
G01X32675Y1346D01*
G01X32715Y1301D01*
G01X32757Y1258D01*
G01X32800Y1217D01*
G01X32845Y1176D01*
G01X32891Y1138D01*
G01X32938Y1101D01*
G01X32986Y1065D01*
G01X33036Y1032D01*
G01X33087Y1000D01*
G01X33138Y969D01*
G01X33191Y941D01*
G01X33245Y914D01*
G01X33299Y889D01*
G01X33355Y866D01*
G01X33411Y845D01*
G01X33468Y826D01*
G01X33525Y809D01*
G01X33583Y794D01*
G01X33642Y781D01*
G01X33701Y769D01*
G01X33760Y760D01*
G01X33820Y753D01*
G01X33879Y748D01*
G01X33939Y745D01*
G01X33999Y744D01*
G01X34059Y745D01*
G01X34119Y748D01*
G01X34179Y753D01*
G01X34238Y760D01*
G01X34298Y769D01*
G01X34357Y781D01*
G01X34415Y794D01*
G01X34473Y809D01*
G01X34531Y826D01*
G01X34587Y845D01*
G01X34644Y866D01*
G01X34699Y889D01*
G01X34754Y914D01*
G01X34807Y941D01*
G01X34860Y969D01*
G01X34912Y1000D01*
G01X34963Y1032D01*
G01X35012Y1065D01*
G01X35061Y1101D01*
G01X35108Y1138D01*
G01X35154Y1176D01*
G01X35198Y1217D01*
G01X35241Y1258D01*
G01X35283Y1301D01*
G01X35323Y1346D01*
G01X35362Y1392D01*
G01X35399Y1439D01*
G01X35434Y1487D01*
G01X35468Y1537D01*
G01X35500Y1588D01*
G01X35530Y1639D01*
G01X35559Y1692D01*
G01X35585Y1746D01*
G01X35610Y1801D01*
G01X35633Y1856D01*
G01X35654Y1912D01*
G01X35673Y1969D01*
G01X35691Y2026D01*
G01X35706Y2084D01*
G01X35719Y2143D01*
G01X35730Y2202D01*
G01X35739Y2261D01*
G01X35747Y2321D01*
G01X35752Y2381D01*
G01X35755Y2440D01*
G01X35756Y2500D01*
G01X35755Y2560D01*
G01X35752Y2620D01*
G01X35747Y2680D01*
G01X35739Y2740D01*
G01X35730Y2799D01*
G01X35719Y2858D01*
G01X35706Y2916D01*
G01X35691Y2974D01*
G01X35673Y3032D01*
G01X35654Y3089D01*
G01X35633Y3145D01*
G01X35610Y3200D01*
G01X35585Y3255D01*
G01X35559Y3309D01*
G01X35530Y3361D01*
G01X35500Y3413D01*
G01X35468Y3464D01*
G01X35434Y3513D01*
G01X35399Y3562D01*
G01X35362Y3609D01*
G01X35323Y3655D01*
G01X35283Y3699D01*
G01X35241Y3742D01*
G01X35198Y3784D01*
G01X35154Y3824D01*
G01X35108Y3863D01*
G01X35061Y3900D01*
G01X35012Y3935D01*
G01X34963Y3969D01*
G01X34912Y4001D01*
G01X34860Y4031D01*
G01X34807Y4060D01*
G01X34754Y4087D01*
G01X34699Y4111D01*
G01X34644Y4134D01*
G01X34587Y4156D01*
G01X34531Y4175D01*
G01X34473Y4192D01*
G01X34415Y4207D01*
G01X34357Y4220D01*
G01X34298Y4231D01*
G01X34238Y4241D01*
G01X34179Y4248D01*
G01X34119Y4253D01*
G01X34059Y4256D01*
G37*
G36*
G01X2559Y47256D02*
G01X2499Y47257D01*
G01X2439Y47256D01*
G01X2379Y47253D01*
G01X2319Y47248D01*
G01X2260Y47240D01*
G01X2201Y47231D01*
G01X2142Y47220D01*
G01X2083Y47207D01*
G01X2025Y47192D01*
G01X1968Y47175D01*
G01X1911Y47155D01*
G01X1855Y47134D01*
G01X1799Y47111D01*
G01X1745Y47087D01*
G01X1691Y47060D01*
G01X1638Y47031D01*
G01X1586Y47001D01*
G01X1536Y46969D01*
G01X1486Y46935D01*
G01X1438Y46900D01*
G01X1391Y46863D01*
G01X1345Y46824D01*
G01X1300Y46784D01*
G01X1257Y46742D01*
G01X1215Y46699D01*
G01X1175Y46655D01*
G01X1137Y46609D01*
G01X1099Y46562D01*
G01X1064Y46513D01*
G01X1030Y46464D01*
G01X998Y46413D01*
G01X968Y46361D01*
G01X940Y46308D01*
G01X913Y46255D01*
G01X888Y46200D01*
G01X865Y46145D01*
G01X844Y46089D01*
G01X825Y46032D01*
G01X808Y45974D01*
G01X793Y45916D01*
G01X779Y45858D01*
G01X768Y45799D01*
G01X759Y45739D01*
G01X752Y45680D01*
G01X747Y45620D01*
G01X744Y45560D01*
G01X743Y45500D01*
G01X744Y45440D01*
G01X747Y45380D01*
G01X752Y45321D01*
G01X759Y45261D01*
G01X768Y45202D01*
G01X779Y45143D01*
G01X793Y45084D01*
G01X808Y45026D01*
G01X825Y44969D01*
G01X844Y44912D01*
G01X865Y44856D01*
G01X888Y44800D01*
G01X913Y44746D01*
G01X940Y44692D01*
G01X968Y44639D01*
G01X998Y44588D01*
G01X1030Y44537D01*
G01X1064Y44487D01*
G01X1099Y44439D01*
G01X1137Y44392D01*
G01X1175Y44346D01*
G01X1215Y44301D01*
G01X1257Y44258D01*
G01X1300Y44217D01*
G01X1345Y44176D01*
G01X1391Y44138D01*
G01X1438Y44101D01*
G01X1486Y44065D01*
G01X1586Y43999D01*
G01X1638Y43969D01*
G01X1691Y43941D01*
G01X1745Y43914D01*
G01X1799Y43889D01*
G01X1855Y43866D01*
G01X1911Y43845D01*
G01X1968Y43826D01*
G01X2025Y43809D01*
G01X2083Y43794D01*
G01X2142Y43781D01*
G01X2201Y43769D01*
G01X2260Y43760D01*
G01X2319Y43753D01*
G01X2379Y43748D01*
G01X2439Y43745D01*
G01X2499Y43744D01*
G01X2559Y43745D01*
G01X2619Y43748D01*
G01X2679Y43753D01*
G01X2738Y43760D01*
G01X2798Y43769D01*
G01X2856Y43781D01*
G01X2915Y43794D01*
G01X2973Y43809D01*
G01X3030Y43826D01*
G01X3087Y43845D01*
G01X3144Y43866D01*
G01X3199Y43889D01*
G01X3254Y43914D01*
G01X3307Y43941D01*
G01X3360Y43969D01*
G01X3412Y43999D01*
G01X3512Y44065D01*
G01X3560Y44101D01*
G01X3608Y44138D01*
G01X3654Y44176D01*
G01X3698Y44217D01*
G01X3741Y44258D01*
G01X3783Y44301D01*
G01X3823Y44346D01*
G01X3862Y44392D01*
G01X3899Y44439D01*
G01X3934Y44487D01*
G01X3968Y44537D01*
G01X4000Y44588D01*
G01X4030Y44639D01*
G01X4059Y44692D01*
G01X4085Y44746D01*
G01X4110Y44800D01*
G01X4133Y44856D01*
G01X4154Y44912D01*
G01X4173Y44969D01*
G01X4191Y45026D01*
G01X4206Y45084D01*
G01X4219Y45143D01*
G01X4230Y45202D01*
G01X4239Y45261D01*
G01X4246Y45321D01*
G01X4252Y45380D01*
G01X4255Y45440D01*
G01X4256Y45500D01*
G01X4255Y45560D01*
G01X4252Y45620D01*
G01X4246Y45680D01*
G01X4239Y45739D01*
G01X4230Y45799D01*
G01X4219Y45858D01*
G01X4206Y45916D01*
G01X4191Y45974D01*
G01X4173Y46032D01*
G01X4154Y46089D01*
G01X4133Y46145D01*
G01X4110Y46200D01*
G01X4085Y46255D01*
G01X4059Y46308D01*
G01X4030Y46361D01*
G01X4000Y46413D01*
G01X3968Y46464D01*
G01X3934Y46513D01*
G01X3899Y46562D01*
G01X3862Y46609D01*
G01X3823Y46655D01*
G01X3783Y46699D01*
G01X3741Y46742D01*
G01X3698Y46784D01*
G01X3654Y46824D01*
G01X3608Y46863D01*
G01X3560Y46900D01*
G01X3512Y46935D01*
G01X3462Y46969D01*
G01X3412Y47001D01*
G01X3360Y47031D01*
G01X3307Y47060D01*
G01X3254Y47087D01*
G01X3199Y47111D01*
G01X3144Y47134D01*
G01X3087Y47155D01*
G01X3030Y47175D01*
G01X2973Y47192D01*
G01X2915Y47207D01*
G01X2856Y47220D01*
G01X2798Y47231D01*
G01X2738Y47240D01*
G01X2679Y47248D01*
G01X2619Y47253D01*
G01X2559Y47256D01*
G37*
G36*
G01X39589Y43157D02*
G01X37789Y43157D01*
G01X37765Y43156D01*
G01X37742Y43153D01*
G01X37719Y43147D01*
G01X37696Y43140D01*
G01X37675Y43130D01*
G01X37654Y43119D01*
G01X37635Y43105D01*
G01X37616Y43090D01*
G01X37600Y43073D01*
G01X37584Y43055D01*
G01X37571Y43035D01*
G01X37559Y43015D01*
G01X37550Y42993D01*
G01X37542Y42971D01*
G01X37537Y42948D01*
G01X37534Y42924D01*
G01X37533Y42900D01*
G01X37533Y41100D01*
G01X37534Y41077D01*
G01X37537Y41053D01*
G01X37542Y41030D01*
G01X37550Y41008D01*
G01X37559Y40986D01*
G01X37571Y40965D01*
G01X37584Y40946D01*
G01X37600Y40928D01*
G01X37616Y40911D01*
G01X37635Y40896D01*
G01X37654Y40882D01*
G01X37675Y40871D01*
G01X37696Y40861D01*
G01X37719Y40854D01*
G01X37742Y40848D01*
G01X37765Y40845D01*
G01X37789Y40844D01*
G01X39589Y40844D01*
G01X39613Y40845D01*
G01X39636Y40848D01*
G01X39659Y40854D01*
G01X39682Y40861D01*
G01X39703Y40871D01*
G01X39724Y40882D01*
G01X39744Y40896D01*
G01X39762Y40911D01*
G01X39779Y40928D01*
G01X39794Y40946D01*
G01X39807Y40965D01*
G01X39819Y40986D01*
G01X39828Y41008D01*
G01X39836Y41030D01*
G01X39841Y41053D01*
G01X39845Y41077D01*
G01X39846Y41100D01*
G01X39846Y42900D01*
G01X39845Y42924D01*
G01X39841Y42948D01*
G01X39836Y42971D01*
G01X39828Y42993D01*
G01X39819Y43015D01*
G01X39807Y43035D01*
G01X39794Y43055D01*
G01X39779Y43073D01*
G01X39762Y43090D01*
G01X39744Y43105D01*
G01X39724Y43119D01*
G01X39703Y43130D01*
G01X39682Y43140D01*
G01X39659Y43147D01*
G01X39636Y43153D01*
G01X39613Y43156D01*
G01X39589Y43157D01*
G37*
G36*
G01X39589Y5657D02*
G01X37789Y5657D01*
G01X37765Y5656D01*
G01X37742Y5653D01*
G01X37719Y5647D01*
G01X37696Y5640D01*
G01X37675Y5630D01*
G01X37654Y5619D01*
G01X37635Y5605D01*
G01X37616Y5590D01*
G01X37600Y5573D01*
G01X37584Y5555D01*
G01X37571Y5535D01*
G01X37559Y5515D01*
G01X37550Y5493D01*
G01X37542Y5471D01*
G01X37537Y5448D01*
G01X37534Y5424D01*
G01X37533Y5400D01*
G01X37533Y3600D01*
G01X37534Y3577D01*
G01X37537Y3553D01*
G01X37542Y3530D01*
G01X37550Y3508D01*
G01X37559Y3486D01*
G01X37571Y3465D01*
G01X37584Y3446D01*
G01X37600Y3428D01*
G01X37616Y3411D01*
G01X37635Y3396D01*
G01X37654Y3382D01*
G01X37675Y3371D01*
G01X37696Y3361D01*
G01X37719Y3354D01*
G01X37742Y3348D01*
G01X37765Y3345D01*
G01X37789Y3344D01*
G01X39589Y3344D01*
G01X39613Y3345D01*
G01X39636Y3348D01*
G01X39659Y3354D01*
G01X39682Y3361D01*
G01X39703Y3371D01*
G01X39724Y3382D01*
G01X39744Y3396D01*
G01X39762Y3411D01*
G01X39779Y3428D01*
G01X39794Y3446D01*
G01X39807Y3465D01*
G01X39819Y3486D01*
G01X39828Y3508D01*
G01X39836Y3530D01*
G01X39841Y3553D01*
G01X39845Y3577D01*
G01X39846Y3600D01*
G01X39846Y5400D01*
G01X39845Y5424D01*
G01X39841Y5448D01*
G01X39836Y5471D01*
G01X39828Y5493D01*
G01X39819Y5515D01*
G01X39807Y5535D01*
G01X39794Y5555D01*
G01X39779Y5573D01*
G01X39762Y5590D01*
G01X39744Y5605D01*
G01X39724Y5619D01*
G01X39703Y5630D01*
G01X39682Y5640D01*
G01X39659Y5647D01*
G01X39636Y5653D01*
G01X39613Y5656D01*
G01X39589Y5657D01*
G37*
G36*
G01X39589Y28157D02*
G01X37789Y28157D01*
G01X37765Y28156D01*
G01X37742Y28153D01*
G01X37719Y28147D01*
G01X37696Y28140D01*
G01X37675Y28130D01*
G01X37654Y28119D01*
G01X37635Y28105D01*
G01X37616Y28090D01*
G01X37600Y28073D01*
G01X37584Y28055D01*
G01X37571Y28035D01*
G01X37559Y28015D01*
G01X37550Y27993D01*
G01X37542Y27971D01*
G01X37537Y27948D01*
G01X37534Y27924D01*
G01X37533Y27900D01*
G01X37533Y26100D01*
G01X37534Y26077D01*
G01X37537Y26053D01*
G01X37542Y26030D01*
G01X37550Y26008D01*
G01X37559Y25986D01*
G01X37571Y25965D01*
G01X37584Y25946D01*
G01X37600Y25928D01*
G01X37616Y25911D01*
G01X37635Y25896D01*
G01X37654Y25882D01*
G01X37675Y25871D01*
G01X37696Y25861D01*
G01X37719Y25854D01*
G01X37742Y25848D01*
G01X37765Y25845D01*
G01X37789Y25844D01*
G01X39589Y25844D01*
G01X39613Y25845D01*
G01X39636Y25848D01*
G01X39659Y25854D01*
G01X39682Y25861D01*
G01X39703Y25871D01*
G01X39724Y25882D01*
G01X39744Y25896D01*
G01X39762Y25911D01*
G01X39779Y25928D01*
G01X39794Y25946D01*
G01X39807Y25965D01*
G01X39819Y25986D01*
G01X39828Y26008D01*
G01X39836Y26030D01*
G01X39841Y26053D01*
G01X39845Y26077D01*
G01X39846Y26100D01*
G01X39846Y27900D01*
G01X39845Y27924D01*
G01X39841Y27948D01*
G01X39836Y27971D01*
G01X39828Y27993D01*
G01X39819Y28015D01*
G01X39807Y28035D01*
G01X39794Y28055D01*
G01X39779Y28073D01*
G01X39762Y28090D01*
G01X39744Y28105D01*
G01X39724Y28119D01*
G01X39703Y28130D01*
G01X39682Y28140D01*
G01X39659Y28147D01*
G01X39636Y28153D01*
G01X39613Y28156D01*
G01X39589Y28157D01*
G37*
G36*
G01X39589Y20657D02*
G01X37789Y20657D01*
G01X37765Y20656D01*
G01X37742Y20653D01*
G01X37719Y20647D01*
G01X37696Y20640D01*
G01X37675Y20630D01*
G01X37654Y20619D01*
G01X37635Y20605D01*
G01X37616Y20590D01*
G01X37600Y20573D01*
G01X37584Y20555D01*
G01X37571Y20535D01*
G01X37559Y20515D01*
G01X37550Y20493D01*
G01X37542Y20471D01*
G01X37537Y20448D01*
G01X37534Y20424D01*
G01X37533Y20400D01*
G01X37533Y18600D01*
G01X37534Y18577D01*
G01X37537Y18553D01*
G01X37542Y18530D01*
G01X37550Y18508D01*
G01X37559Y18486D01*
G01X37571Y18465D01*
G01X37584Y18446D01*
G01X37600Y18428D01*
G01X37616Y18411D01*
G01X37635Y18396D01*
G01X37654Y18382D01*
G01X37675Y18371D01*
G01X37696Y18361D01*
G01X37719Y18354D01*
G01X37742Y18348D01*
G01X37765Y18345D01*
G01X37789Y18344D01*
G01X39589Y18344D01*
G01X39613Y18345D01*
G01X39636Y18348D01*
G01X39659Y18354D01*
G01X39682Y18361D01*
G01X39703Y18371D01*
G01X39724Y18382D01*
G01X39744Y18396D01*
G01X39762Y18411D01*
G01X39779Y18428D01*
G01X39794Y18446D01*
G01X39807Y18465D01*
G01X39819Y18486D01*
G01X39828Y18508D01*
G01X39836Y18530D01*
G01X39841Y18553D01*
G01X39845Y18577D01*
G01X39846Y18600D01*
G01X39846Y20400D01*
G01X39845Y20424D01*
G01X39841Y20448D01*
G01X39836Y20471D01*
G01X39828Y20493D01*
G01X39819Y20515D01*
G01X39807Y20535D01*
G01X39794Y20555D01*
G01X39779Y20573D01*
G01X39762Y20590D01*
G01X39744Y20605D01*
G01X39724Y20619D01*
G01X39703Y20630D01*
G01X39682Y20640D01*
G01X39659Y20647D01*
G01X39636Y20653D01*
G01X39613Y20656D01*
G01X39589Y20657D01*
G37*
G36*
G01X39589Y13157D02*
G01X37789Y13157D01*
G01X37765Y13156D01*
G01X37742Y13153D01*
G01X37719Y13147D01*
G01X37696Y13140D01*
G01X37675Y13130D01*
G01X37654Y13119D01*
G01X37635Y13105D01*
G01X37616Y13090D01*
G01X37600Y13073D01*
G01X37584Y13055D01*
G01X37571Y13035D01*
G01X37559Y13015D01*
G01X37550Y12993D01*
G01X37542Y12971D01*
G01X37537Y12948D01*
G01X37534Y12924D01*
G01X37533Y12900D01*
G01X37533Y11100D01*
G01X37534Y11077D01*
G01X37537Y11053D01*
G01X37542Y11030D01*
G01X37550Y11008D01*
G01X37559Y10986D01*
G01X37571Y10965D01*
G01X37584Y10946D01*
G01X37600Y10928D01*
G01X37616Y10911D01*
G01X37635Y10896D01*
G01X37654Y10882D01*
G01X37675Y10871D01*
G01X37696Y10861D01*
G01X37719Y10854D01*
G01X37742Y10848D01*
G01X37765Y10845D01*
G01X37789Y10844D01*
G01X39589Y10844D01*
G01X39613Y10845D01*
G01X39636Y10848D01*
G01X39659Y10854D01*
G01X39682Y10861D01*
G01X39703Y10871D01*
G01X39724Y10882D01*
G01X39744Y10896D01*
G01X39762Y10911D01*
G01X39779Y10928D01*
G01X39794Y10946D01*
G01X39807Y10965D01*
G01X39819Y10986D01*
G01X39828Y11008D01*
G01X39836Y11030D01*
G01X39841Y11053D01*
G01X39845Y11077D01*
G01X39846Y11100D01*
G01X39846Y12900D01*
G01X39845Y12924D01*
G01X39841Y12948D01*
G01X39836Y12971D01*
G01X39828Y12993D01*
G01X39819Y13015D01*
G01X39807Y13035D01*
G01X39794Y13055D01*
G01X39779Y13073D01*
G01X39762Y13090D01*
G01X39744Y13105D01*
G01X39724Y13119D01*
G01X39703Y13130D01*
G01X39682Y13140D01*
G01X39659Y13147D01*
G01X39636Y13153D01*
G01X39613Y13156D01*
G01X39589Y13157D01*
G37*
G36*
G01X39589Y35657D02*
G01X37789Y35657D01*
G01X37765Y35656D01*
G01X37742Y35653D01*
G01X37719Y35647D01*
G01X37696Y35640D01*
G01X37675Y35630D01*
G01X37654Y35619D01*
G01X37635Y35605D01*
G01X37616Y35590D01*
G01X37600Y35573D01*
G01X37584Y35555D01*
G01X37571Y35535D01*
G01X37559Y35515D01*
G01X37550Y35493D01*
G01X37542Y35471D01*
G01X37537Y35448D01*
G01X37534Y35424D01*
G01X37533Y35400D01*
G01X37533Y33600D01*
G01X37534Y33577D01*
G01X37537Y33553D01*
G01X37542Y33530D01*
G01X37550Y33508D01*
G01X37559Y33486D01*
G01X37571Y33465D01*
G01X37584Y33446D01*
G01X37600Y33428D01*
G01X37616Y33411D01*
G01X37635Y33396D01*
G01X37654Y33382D01*
G01X37675Y33371D01*
G01X37696Y33361D01*
G01X37719Y33354D01*
G01X37742Y33348D01*
G01X37765Y33345D01*
G01X37789Y33344D01*
G01X39589Y33344D01*
G01X39613Y33345D01*
G01X39636Y33348D01*
G01X39659Y33354D01*
G01X39682Y33361D01*
G01X39703Y33371D01*
G01X39724Y33382D01*
G01X39744Y33396D01*
G01X39762Y33411D01*
G01X39779Y33428D01*
G01X39794Y33446D01*
G01X39807Y33465D01*
G01X39819Y33486D01*
G01X39828Y33508D01*
G01X39836Y33530D01*
G01X39841Y33553D01*
G01X39845Y33577D01*
G01X39846Y33600D01*
G01X39846Y35400D01*
G01X39845Y35424D01*
G01X39841Y35448D01*
G01X39836Y35471D01*
G01X39828Y35493D01*
G01X39819Y35515D01*
G01X39807Y35535D01*
G01X39794Y35555D01*
G01X39779Y35573D01*
G01X39762Y35590D01*
G01X39744Y35605D01*
G01X39724Y35619D01*
G01X39703Y35630D01*
G01X39682Y35640D01*
G01X39659Y35647D01*
G01X39636Y35653D01*
G01X39613Y35656D01*
G01X39589Y35657D01*
G37*
G36*
G01X43818Y5656D02*
G01X43769Y5657D01*
G01X43720Y5656D01*
G01X43671Y5653D01*
G01X43622Y5648D01*
G01X43574Y5640D01*
G01X43525Y5631D01*
G01X43478Y5620D01*
G01X43430Y5606D01*
G01X43384Y5591D01*
G01X43338Y5574D01*
G01X43293Y5554D01*
G01X43248Y5533D01*
G01X43205Y5510D01*
G01X43163Y5485D01*
G01X43121Y5459D01*
G01X43081Y5430D01*
G01X43042Y5400D01*
G01X43005Y5369D01*
G01X42969Y5335D01*
G01X42934Y5301D01*
G01X42901Y5264D01*
G01X42869Y5227D01*
G01X42839Y5188D01*
G01X42811Y5148D01*
G01X42784Y5107D01*
G01X42759Y5064D01*
G01X42736Y5021D01*
G01X42715Y4977D01*
G01X42696Y4932D01*
G01X42679Y4886D01*
G01X42663Y4839D01*
G01X42650Y4792D01*
G01X42638Y4744D01*
G01X42629Y4696D01*
G01X42622Y4647D01*
G01X42617Y4598D01*
G01X42614Y4549D01*
G01X42612Y4500D01*
G01X42614Y4451D01*
G01X42617Y4402D01*
G01X42622Y4353D01*
G01X42629Y4305D01*
G01X42638Y4257D01*
G01X42650Y4209D01*
G01X42663Y4162D01*
G01X42679Y4115D01*
G01X42696Y4069D01*
G01X42715Y4024D01*
G01X42736Y3980D01*
G01X42759Y3936D01*
G01X42784Y3894D01*
G01X42811Y3853D01*
G01X42839Y3813D01*
G01X42869Y3774D01*
G01X42901Y3736D01*
G01X42934Y3700D01*
G01X42969Y3665D01*
G01X43005Y3632D01*
G01X43042Y3601D01*
G01X43081Y3571D01*
G01X43121Y3542D01*
G01X43163Y3516D01*
G01X43205Y3491D01*
G01X43248Y3468D01*
G01X43293Y3447D01*
G01X43338Y3427D01*
G01X43384Y3410D01*
G01X43430Y3395D01*
G01X43478Y3381D01*
G01X43525Y3370D01*
G01X43574Y3360D01*
G01X43622Y3353D01*
G01X43671Y3348D01*
G01X43720Y3345D01*
G01X43769Y3344D01*
G01X43818Y3345D01*
G01X43867Y3348D01*
G01X43916Y3353D01*
G01X43964Y3360D01*
G01X44013Y3370D01*
G01X44060Y3381D01*
G01X44108Y3395D01*
G01X44154Y3410D01*
G01X44200Y3427D01*
G01X44245Y3447D01*
G01X44290Y3468D01*
G01X44333Y3491D01*
G01X44375Y3516D01*
G01X44417Y3542D01*
G01X44457Y3571D01*
G01X44496Y3601D01*
G01X44533Y3632D01*
G01X44569Y3665D01*
G01X44604Y3700D01*
G01X44637Y3736D01*
G01X44669Y3774D01*
G01X44699Y3813D01*
G01X44727Y3853D01*
G01X44754Y3894D01*
G01X44779Y3936D01*
G01X44802Y3980D01*
G01X44823Y4024D01*
G01X44842Y4069D01*
G01X44860Y4115D01*
G01X44875Y4162D01*
G01X44888Y4209D01*
G01X44900Y4257D01*
G01X44909Y4305D01*
G01X44916Y4353D01*
G01X44921Y4402D01*
G01X44925Y4451D01*
G01X44926Y4500D01*
G01X44925Y4549D01*
G01X44921Y4598D01*
G01X44916Y4647D01*
G01X44909Y4696D01*
G01X44900Y4744D01*
G01X44888Y4792D01*
G01X44875Y4839D01*
G01X44860Y4886D01*
G01X44842Y4932D01*
G01X44823Y4977D01*
G01X44802Y5021D01*
G01X44779Y5064D01*
G01X44754Y5107D01*
G01X44727Y5148D01*
G01X44699Y5188D01*
G01X44669Y5227D01*
G01X44637Y5264D01*
G01X44604Y5301D01*
G01X44569Y5335D01*
G01X44533Y5369D01*
G01X44496Y5400D01*
G01X44457Y5430D01*
G01X44417Y5459D01*
G01X44375Y5485D01*
G01X44333Y5510D01*
G01X44290Y5533D01*
G01X44245Y5554D01*
G01X44200Y5574D01*
G01X44154Y5591D01*
G01X44108Y5606D01*
G01X44060Y5620D01*
G01X44013Y5631D01*
G01X43964Y5640D01*
G01X43916Y5648D01*
G01X43867Y5653D01*
G01X43818Y5656D01*
G37*
G36*
G01X41278Y5656D02*
G01X41229Y5657D01*
G01X41180Y5656D01*
G01X41131Y5653D01*
G01X41082Y5648D01*
G01X41034Y5640D01*
G01X40985Y5631D01*
G01X40938Y5620D01*
G01X40890Y5606D01*
G01X40844Y5591D01*
G01X40798Y5574D01*
G01X40753Y5554D01*
G01X40708Y5533D01*
G01X40665Y5510D01*
G01X40623Y5485D01*
G01X40581Y5459D01*
G01X40541Y5430D01*
G01X40502Y5400D01*
G01X40465Y5369D01*
G01X40429Y5335D01*
G01X40394Y5301D01*
G01X40361Y5264D01*
G01X40329Y5227D01*
G01X40299Y5188D01*
G01X40271Y5148D01*
G01X40244Y5107D01*
G01X40219Y5064D01*
G01X40196Y5021D01*
G01X40175Y4977D01*
G01X40156Y4932D01*
G01X40139Y4886D01*
G01X40123Y4839D01*
G01X40110Y4792D01*
G01X40098Y4744D01*
G01X40089Y4696D01*
G01X40082Y4647D01*
G01X40077Y4598D01*
G01X40074Y4549D01*
G01X40072Y4500D01*
G01X40074Y4451D01*
G01X40077Y4402D01*
G01X40082Y4353D01*
G01X40089Y4305D01*
G01X40098Y4257D01*
G01X40110Y4209D01*
G01X40123Y4162D01*
G01X40139Y4115D01*
G01X40156Y4069D01*
G01X40175Y4024D01*
G01X40196Y3980D01*
G01X40219Y3936D01*
G01X40244Y3894D01*
G01X40271Y3853D01*
G01X40299Y3813D01*
G01X40329Y3774D01*
G01X40361Y3736D01*
G01X40394Y3700D01*
G01X40429Y3665D01*
G01X40465Y3632D01*
G01X40502Y3601D01*
G01X40541Y3571D01*
G01X40581Y3542D01*
G01X40623Y3516D01*
G01X40665Y3491D01*
G01X40708Y3468D01*
G01X40753Y3447D01*
G01X40798Y3427D01*
G01X40844Y3410D01*
G01X40890Y3395D01*
G01X40938Y3381D01*
G01X40985Y3370D01*
G01X41034Y3360D01*
G01X41082Y3353D01*
G01X41131Y3348D01*
G01X41180Y3345D01*
G01X41229Y3344D01*
G01X41278Y3345D01*
G01X41327Y3348D01*
G01X41376Y3353D01*
G01X41424Y3360D01*
G01X41473Y3370D01*
G01X41520Y3381D01*
G01X41568Y3395D01*
G01X41614Y3410D01*
G01X41660Y3427D01*
G01X41705Y3447D01*
G01X41750Y3468D01*
G01X41793Y3491D01*
G01X41835Y3516D01*
G01X41877Y3542D01*
G01X41917Y3571D01*
G01X41956Y3601D01*
G01X41993Y3632D01*
G01X42029Y3665D01*
G01X42064Y3700D01*
G01X42097Y3736D01*
G01X42129Y3774D01*
G01X42159Y3813D01*
G01X42187Y3853D01*
G01X42214Y3894D01*
G01X42239Y3936D01*
G01X42262Y3980D01*
G01X42283Y4024D01*
G01X42302Y4069D01*
G01X42320Y4115D01*
G01X42335Y4162D01*
G01X42348Y4209D01*
G01X42360Y4257D01*
G01X42369Y4305D01*
G01X42376Y4353D01*
G01X42381Y4402D01*
G01X42385Y4451D01*
G01X42386Y4500D01*
G01X42385Y4549D01*
G01X42381Y4598D01*
G01X42376Y4647D01*
G01X42369Y4696D01*
G01X42360Y4744D01*
G01X42348Y4792D01*
G01X42335Y4839D01*
G01X42320Y4886D01*
G01X42302Y4932D01*
G01X42283Y4977D01*
G01X42262Y5021D01*
G01X42239Y5064D01*
G01X42214Y5107D01*
G01X42187Y5148D01*
G01X42159Y5188D01*
G01X42129Y5227D01*
G01X42097Y5264D01*
G01X42064Y5301D01*
G01X42029Y5335D01*
G01X41993Y5369D01*
G01X41956Y5400D01*
G01X41917Y5430D01*
G01X41877Y5459D01*
G01X41835Y5485D01*
G01X41793Y5510D01*
G01X41750Y5533D01*
G01X41705Y5554D01*
G01X41660Y5574D01*
G01X41614Y5591D01*
G01X41568Y5606D01*
G01X41520Y5620D01*
G01X41473Y5631D01*
G01X41424Y5640D01*
G01X41376Y5648D01*
G01X41327Y5653D01*
G01X41278Y5656D01*
G37*
G36*
G01X43818Y28156D02*
G01X43769Y28157D01*
G01X43720Y28156D01*
G01X43671Y28153D01*
G01X43622Y28148D01*
G01X43574Y28140D01*
G01X43525Y28131D01*
G01X43478Y28120D01*
G01X43430Y28106D01*
G01X43384Y28091D01*
G01X43338Y28074D01*
G01X43293Y28054D01*
G01X43248Y28033D01*
G01X43205Y28010D01*
G01X43163Y27985D01*
G01X43121Y27959D01*
G01X43081Y27930D01*
G01X43042Y27900D01*
G01X43005Y27869D01*
G01X42969Y27835D01*
G01X42934Y27801D01*
G01X42901Y27765D01*
G01X42869Y27727D01*
G01X42839Y27688D01*
G01X42811Y27648D01*
G01X42784Y27607D01*
G01X42759Y27564D01*
G01X42736Y27521D01*
G01X42715Y27477D01*
G01X42696Y27432D01*
G01X42679Y27386D01*
G01X42663Y27339D01*
G01X42650Y27292D01*
G01X42638Y27244D01*
G01X42629Y27196D01*
G01X42622Y27147D01*
G01X42617Y27099D01*
G01X42614Y27050D01*
G01X42612Y27000D01*
G01X42614Y26951D01*
G01X42617Y26902D01*
G01X42622Y26854D01*
G01X42629Y26805D01*
G01X42638Y26757D01*
G01X42650Y26709D01*
G01X42663Y26662D01*
G01X42679Y26615D01*
G01X42696Y26569D01*
G01X42715Y26524D01*
G01X42736Y26480D01*
G01X42759Y26436D01*
G01X42784Y26394D01*
G01X42811Y26353D01*
G01X42839Y26313D01*
G01X42869Y26274D01*
G01X42901Y26236D01*
G01X42934Y26200D01*
G01X42969Y26165D01*
G01X43005Y26132D01*
G01X43042Y26101D01*
G01X43081Y26071D01*
G01X43121Y26042D01*
G01X43163Y26016D01*
G01X43205Y25991D01*
G01X43248Y25968D01*
G01X43293Y25947D01*
G01X43338Y25927D01*
G01X43384Y25910D01*
G01X43430Y25895D01*
G01X43478Y25881D01*
G01X43525Y25870D01*
G01X43574Y25861D01*
G01X43622Y25853D01*
G01X43671Y25848D01*
G01X43720Y25845D01*
G01X43769Y25844D01*
G01X43818Y25845D01*
G01X43867Y25848D01*
G01X43916Y25853D01*
G01X43964Y25861D01*
G01X44013Y25870D01*
G01X44060Y25881D01*
G01X44108Y25895D01*
G01X44154Y25910D01*
G01X44200Y25927D01*
G01X44245Y25947D01*
G01X44290Y25968D01*
G01X44333Y25991D01*
G01X44375Y26016D01*
G01X44417Y26042D01*
G01X44457Y26071D01*
G01X44496Y26101D01*
G01X44533Y26132D01*
G01X44569Y26165D01*
G01X44604Y26200D01*
G01X44637Y26236D01*
G01X44669Y26274D01*
G01X44699Y26313D01*
G01X44727Y26353D01*
G01X44754Y26394D01*
G01X44779Y26436D01*
G01X44802Y26480D01*
G01X44823Y26524D01*
G01X44842Y26569D01*
G01X44860Y26615D01*
G01X44875Y26662D01*
G01X44888Y26709D01*
G01X44900Y26757D01*
G01X44909Y26805D01*
G01X44916Y26854D01*
G01X44921Y26902D01*
G01X44925Y26951D01*
G01X44926Y27000D01*
G01X44925Y27050D01*
G01X44921Y27099D01*
G01X44916Y27147D01*
G01X44909Y27196D01*
G01X44900Y27244D01*
G01X44888Y27292D01*
G01X44875Y27339D01*
G01X44860Y27386D01*
G01X44842Y27432D01*
G01X44823Y27477D01*
G01X44802Y27521D01*
G01X44779Y27564D01*
G01X44754Y27607D01*
G01X44727Y27648D01*
G01X44699Y27688D01*
G01X44669Y27727D01*
G01X44637Y27765D01*
G01X44604Y27801D01*
G01X44569Y27835D01*
G01X44533Y27869D01*
G01X44496Y27900D01*
G01X44457Y27930D01*
G01X44417Y27959D01*
G01X44375Y27985D01*
G01X44333Y28010D01*
G01X44290Y28033D01*
G01X44245Y28054D01*
G01X44200Y28074D01*
G01X44154Y28091D01*
G01X44108Y28106D01*
G01X44060Y28120D01*
G01X44013Y28131D01*
G01X43964Y28140D01*
G01X43916Y28148D01*
G01X43867Y28153D01*
G01X43818Y28156D01*
G37*
G36*
G01X41278Y43156D02*
G01X41229Y43157D01*
G01X41180Y43156D01*
G01X41131Y43153D01*
G01X41082Y43148D01*
G01X41034Y43140D01*
G01X40985Y43131D01*
G01X40938Y43120D01*
G01X40890Y43106D01*
G01X40844Y43091D01*
G01X40798Y43074D01*
G01X40753Y43054D01*
G01X40708Y43033D01*
G01X40665Y43010D01*
G01X40623Y42985D01*
G01X40581Y42959D01*
G01X40541Y42930D01*
G01X40502Y42900D01*
G01X40465Y42869D01*
G01X40429Y42835D01*
G01X40394Y42801D01*
G01X40361Y42765D01*
G01X40329Y42727D01*
G01X40299Y42688D01*
G01X40271Y42648D01*
G01X40244Y42607D01*
G01X40219Y42564D01*
G01X40196Y42521D01*
G01X40175Y42477D01*
G01X40156Y42432D01*
G01X40139Y42386D01*
G01X40123Y42339D01*
G01X40110Y42292D01*
G01X40098Y42244D01*
G01X40089Y42196D01*
G01X40082Y42147D01*
G01X40077Y42099D01*
G01X40074Y42050D01*
G01X40072Y42000D01*
G01X40074Y41951D01*
G01X40077Y41902D01*
G01X40082Y41854D01*
G01X40089Y41805D01*
G01X40098Y41757D01*
G01X40110Y41709D01*
G01X40123Y41662D01*
G01X40139Y41615D01*
G01X40156Y41569D01*
G01X40175Y41524D01*
G01X40196Y41480D01*
G01X40219Y41436D01*
G01X40244Y41394D01*
G01X40271Y41353D01*
G01X40299Y41313D01*
G01X40329Y41274D01*
G01X40361Y41236D01*
G01X40394Y41200D01*
G01X40429Y41165D01*
G01X40465Y41132D01*
G01X40502Y41101D01*
G01X40541Y41071D01*
G01X40581Y41042D01*
G01X40623Y41016D01*
G01X40665Y40991D01*
G01X40708Y40968D01*
G01X40753Y40947D01*
G01X40798Y40927D01*
G01X40844Y40910D01*
G01X40890Y40895D01*
G01X40938Y40881D01*
G01X40985Y40870D01*
G01X41034Y40861D01*
G01X41082Y40853D01*
G01X41131Y40848D01*
G01X41180Y40845D01*
G01X41229Y40844D01*
G01X41278Y40845D01*
G01X41327Y40848D01*
G01X41376Y40853D01*
G01X41424Y40861D01*
G01X41473Y40870D01*
G01X41520Y40881D01*
G01X41568Y40895D01*
G01X41614Y40910D01*
G01X41660Y40927D01*
G01X41705Y40947D01*
G01X41750Y40968D01*
G01X41793Y40991D01*
G01X41835Y41016D01*
G01X41877Y41042D01*
G01X41917Y41071D01*
G01X41956Y41101D01*
G01X41993Y41132D01*
G01X42029Y41165D01*
G01X42064Y41200D01*
G01X42097Y41236D01*
G01X42129Y41274D01*
G01X42159Y41313D01*
G01X42187Y41353D01*
G01X42214Y41394D01*
G01X42239Y41436D01*
G01X42262Y41480D01*
G01X42283Y41524D01*
G01X42302Y41569D01*
G01X42320Y41615D01*
G01X42335Y41662D01*
G01X42348Y41709D01*
G01X42360Y41757D01*
G01X42369Y41805D01*
G01X42376Y41854D01*
G01X42381Y41902D01*
G01X42385Y41951D01*
G01X42386Y42000D01*
G01X42385Y42050D01*
G01X42381Y42099D01*
G01X42376Y42147D01*
G01X42369Y42196D01*
G01X42360Y42244D01*
G01X42348Y42292D01*
G01X42335Y42339D01*
G01X42320Y42386D01*
G01X42302Y42432D01*
G01X42283Y42477D01*
G01X42262Y42521D01*
G01X42239Y42564D01*
G01X42214Y42607D01*
G01X42187Y42648D01*
G01X42159Y42688D01*
G01X42129Y42727D01*
G01X42097Y42765D01*
G01X42064Y42801D01*
G01X42029Y42835D01*
G01X41993Y42869D01*
G01X41956Y42900D01*
G01X41917Y42930D01*
G01X41877Y42959D01*
G01X41835Y42985D01*
G01X41793Y43010D01*
G01X41750Y43033D01*
G01X41705Y43054D01*
G01X41660Y43074D01*
G01X41614Y43091D01*
G01X41568Y43106D01*
G01X41520Y43120D01*
G01X41473Y43131D01*
G01X41424Y43140D01*
G01X41376Y43148D01*
G01X41327Y43153D01*
G01X41278Y43156D01*
G37*
G36*
G01X43818Y13156D02*
G01X43769Y13157D01*
G01X43720Y13156D01*
G01X43671Y13153D01*
G01X43622Y13148D01*
G01X43574Y13140D01*
G01X43525Y13131D01*
G01X43478Y13120D01*
G01X43430Y13106D01*
G01X43384Y13091D01*
G01X43338Y13074D01*
G01X43293Y13054D01*
G01X43248Y13033D01*
G01X43205Y13010D01*
G01X43163Y12985D01*
G01X43121Y12959D01*
G01X43081Y12930D01*
G01X43042Y12900D01*
G01X43005Y12869D01*
G01X42969Y12835D01*
G01X42934Y12801D01*
G01X42901Y12765D01*
G01X42869Y12727D01*
G01X42839Y12688D01*
G01X42811Y12648D01*
G01X42784Y12607D01*
G01X42759Y12565D01*
G01X42736Y12521D01*
G01X42715Y12477D01*
G01X42696Y12432D01*
G01X42679Y12386D01*
G01X42663Y12339D01*
G01X42650Y12292D01*
G01X42638Y12244D01*
G01X42629Y12196D01*
G01X42622Y12147D01*
G01X42617Y12099D01*
G01X42614Y12050D01*
G01X42612Y12000D01*
G01X42614Y11951D01*
G01X42617Y11902D01*
G01X42622Y11854D01*
G01X42629Y11805D01*
G01X42638Y11757D01*
G01X42650Y11709D01*
G01X42663Y11662D01*
G01X42679Y11615D01*
G01X42696Y11569D01*
G01X42715Y11524D01*
G01X42736Y11480D01*
G01X42759Y11436D01*
G01X42784Y11394D01*
G01X42811Y11353D01*
G01X42839Y11313D01*
G01X42869Y11274D01*
G01X42901Y11236D01*
G01X42934Y11200D01*
G01X42969Y11166D01*
G01X43005Y11132D01*
G01X43042Y11101D01*
G01X43081Y11071D01*
G01X43121Y11042D01*
G01X43163Y11016D01*
G01X43205Y10991D01*
G01X43248Y10968D01*
G01X43293Y10947D01*
G01X43338Y10927D01*
G01X43384Y10910D01*
G01X43430Y10895D01*
G01X43478Y10881D01*
G01X43525Y10870D01*
G01X43574Y10861D01*
G01X43622Y10853D01*
G01X43671Y10848D01*
G01X43720Y10845D01*
G01X43769Y10844D01*
G01X43818Y10845D01*
G01X43867Y10848D01*
G01X43916Y10853D01*
G01X43964Y10861D01*
G01X44013Y10870D01*
G01X44060Y10881D01*
G01X44108Y10895D01*
G01X44154Y10910D01*
G01X44200Y10927D01*
G01X44245Y10947D01*
G01X44290Y10968D01*
G01X44333Y10991D01*
G01X44375Y11016D01*
G01X44417Y11042D01*
G01X44457Y11071D01*
G01X44496Y11101D01*
G01X44533Y11132D01*
G01X44569Y11166D01*
G01X44604Y11200D01*
G01X44637Y11236D01*
G01X44669Y11274D01*
G01X44699Y11313D01*
G01X44727Y11353D01*
G01X44754Y11394D01*
G01X44779Y11436D01*
G01X44802Y11480D01*
G01X44823Y11524D01*
G01X44842Y11569D01*
G01X44860Y11615D01*
G01X44875Y11662D01*
G01X44888Y11709D01*
G01X44900Y11757D01*
G01X44909Y11805D01*
G01X44916Y11854D01*
G01X44921Y11902D01*
G01X44925Y11951D01*
G01X44926Y12000D01*
G01X44925Y12050D01*
G01X44921Y12099D01*
G01X44916Y12147D01*
G01X44909Y12196D01*
G01X44900Y12244D01*
G01X44888Y12292D01*
G01X44875Y12339D01*
G01X44860Y12386D01*
G01X44842Y12432D01*
G01X44823Y12477D01*
G01X44802Y12521D01*
G01X44779Y12565D01*
G01X44754Y12607D01*
G01X44727Y12648D01*
G01X44699Y12688D01*
G01X44669Y12727D01*
G01X44637Y12765D01*
G01X44604Y12801D01*
G01X44569Y12835D01*
G01X44533Y12869D01*
G01X44496Y12900D01*
G01X44457Y12930D01*
G01X44417Y12959D01*
G01X44375Y12985D01*
G01X44333Y13010D01*
G01X44290Y13033D01*
G01X44245Y13054D01*
G01X44200Y13074D01*
G01X44154Y13091D01*
G01X44108Y13106D01*
G01X44060Y13120D01*
G01X44013Y13131D01*
G01X43964Y13140D01*
G01X43916Y13148D01*
G01X43867Y13153D01*
G01X43818Y13156D01*
G37*
G36*
G01X41278Y20656D02*
G01X41229Y20657D01*
G01X41180Y20656D01*
G01X41131Y20653D01*
G01X41082Y20648D01*
G01X41034Y20640D01*
G01X40985Y20631D01*
G01X40938Y20620D01*
G01X40890Y20606D01*
G01X40844Y20591D01*
G01X40798Y20573D01*
G01X40753Y20554D01*
G01X40708Y20533D01*
G01X40665Y20510D01*
G01X40623Y20485D01*
G01X40581Y20459D01*
G01X40541Y20430D01*
G01X40502Y20400D01*
G01X40465Y20369D01*
G01X40429Y20335D01*
G01X40394Y20301D01*
G01X40361Y20264D01*
G01X40329Y20227D01*
G01X40299Y20188D01*
G01X40271Y20148D01*
G01X40244Y20107D01*
G01X40219Y20064D01*
G01X40196Y20021D01*
G01X40175Y19977D01*
G01X40156Y19932D01*
G01X40139Y19886D01*
G01X40123Y19839D01*
G01X40110Y19792D01*
G01X40098Y19744D01*
G01X40089Y19696D01*
G01X40082Y19647D01*
G01X40077Y19598D01*
G01X40074Y19549D01*
G01X40072Y19500D01*
G01X40074Y19451D01*
G01X40077Y19402D01*
G01X40082Y19353D01*
G01X40089Y19305D01*
G01X40098Y19257D01*
G01X40110Y19209D01*
G01X40123Y19162D01*
G01X40139Y19115D01*
G01X40156Y19069D01*
G01X40175Y19024D01*
G01X40196Y18980D01*
G01X40219Y18936D01*
G01X40244Y18894D01*
G01X40271Y18853D01*
G01X40299Y18813D01*
G01X40329Y18774D01*
G01X40361Y18736D01*
G01X40394Y18700D01*
G01X40429Y18665D01*
G01X40465Y18632D01*
G01X40502Y18601D01*
G01X40541Y18570D01*
G01X40581Y18542D01*
G01X40623Y18516D01*
G01X40665Y18491D01*
G01X40708Y18468D01*
G01X40753Y18446D01*
G01X40798Y18427D01*
G01X40844Y18410D01*
G01X40890Y18395D01*
G01X40938Y18381D01*
G01X40985Y18370D01*
G01X41034Y18360D01*
G01X41082Y18353D01*
G01X41131Y18348D01*
G01X41180Y18345D01*
G01X41229Y18344D01*
G01X41278Y18345D01*
G01X41327Y18348D01*
G01X41376Y18353D01*
G01X41424Y18360D01*
G01X41473Y18370D01*
G01X41520Y18381D01*
G01X41568Y18395D01*
G01X41614Y18410D01*
G01X41660Y18427D01*
G01X41705Y18446D01*
G01X41750Y18468D01*
G01X41793Y18491D01*
G01X41835Y18516D01*
G01X41877Y18542D01*
G01X41917Y18570D01*
G01X41956Y18601D01*
G01X41993Y18632D01*
G01X42029Y18665D01*
G01X42064Y18700D01*
G01X42097Y18736D01*
G01X42129Y18774D01*
G01X42159Y18813D01*
G01X42187Y18853D01*
G01X42214Y18894D01*
G01X42239Y18936D01*
G01X42262Y18980D01*
G01X42283Y19024D01*
G01X42302Y19069D01*
G01X42320Y19115D01*
G01X42335Y19162D01*
G01X42348Y19209D01*
G01X42360Y19257D01*
G01X42369Y19305D01*
G01X42376Y19353D01*
G01X42381Y19402D01*
G01X42385Y19451D01*
G01X42386Y19500D01*
G01X42385Y19549D01*
G01X42381Y19598D01*
G01X42376Y19647D01*
G01X42369Y19696D01*
G01X42360Y19744D01*
G01X42348Y19792D01*
G01X42335Y19839D01*
G01X42320Y19886D01*
G01X42302Y19932D01*
G01X42283Y19977D01*
G01X42262Y20021D01*
G01X42239Y20064D01*
G01X42214Y20107D01*
G01X42187Y20148D01*
G01X42159Y20188D01*
G01X42129Y20227D01*
G01X42097Y20264D01*
G01X42064Y20301D01*
G01X42029Y20335D01*
G01X41993Y20369D01*
G01X41956Y20400D01*
G01X41917Y20430D01*
G01X41877Y20459D01*
G01X41835Y20485D01*
G01X41793Y20510D01*
G01X41750Y20533D01*
G01X41705Y20554D01*
G01X41660Y20573D01*
G01X41614Y20591D01*
G01X41568Y20606D01*
G01X41520Y20620D01*
G01X41473Y20631D01*
G01X41424Y20640D01*
G01X41376Y20648D01*
G01X41327Y20653D01*
G01X41278Y20656D01*
G37*
G36*
G01X43818Y43156D02*
G01X43769Y43157D01*
G01X43720Y43156D01*
G01X43671Y43153D01*
G01X43622Y43148D01*
G01X43574Y43140D01*
G01X43525Y43131D01*
G01X43478Y43120D01*
G01X43430Y43106D01*
G01X43384Y43091D01*
G01X43338Y43074D01*
G01X43293Y43054D01*
G01X43248Y43033D01*
G01X43205Y43010D01*
G01X43163Y42985D01*
G01X43121Y42959D01*
G01X43081Y42930D01*
G01X43042Y42900D01*
G01X43005Y42869D01*
G01X42969Y42835D01*
G01X42934Y42801D01*
G01X42901Y42765D01*
G01X42869Y42727D01*
G01X42839Y42688D01*
G01X42811Y42648D01*
G01X42784Y42607D01*
G01X42759Y42564D01*
G01X42736Y42521D01*
G01X42715Y42477D01*
G01X42696Y42432D01*
G01X42679Y42386D01*
G01X42663Y42339D01*
G01X42650Y42292D01*
G01X42638Y42244D01*
G01X42629Y42196D01*
G01X42622Y42147D01*
G01X42617Y42099D01*
G01X42614Y42050D01*
G01X42612Y42000D01*
G01X42614Y41951D01*
G01X42617Y41902D01*
G01X42622Y41854D01*
G01X42629Y41805D01*
G01X42638Y41757D01*
G01X42650Y41709D01*
G01X42663Y41662D01*
G01X42679Y41615D01*
G01X42696Y41569D01*
G01X42715Y41524D01*
G01X42736Y41480D01*
G01X42759Y41436D01*
G01X42784Y41394D01*
G01X42811Y41353D01*
G01X42839Y41313D01*
G01X42869Y41274D01*
G01X42901Y41236D01*
G01X42934Y41200D01*
G01X42969Y41165D01*
G01X43005Y41132D01*
G01X43042Y41101D01*
G01X43081Y41071D01*
G01X43121Y41042D01*
G01X43163Y41016D01*
G01X43205Y40991D01*
G01X43248Y40968D01*
G01X43293Y40947D01*
G01X43338Y40927D01*
G01X43384Y40910D01*
G01X43430Y40895D01*
G01X43478Y40881D01*
G01X43525Y40870D01*
G01X43574Y40861D01*
G01X43622Y40853D01*
G01X43671Y40848D01*
G01X43720Y40845D01*
G01X43769Y40844D01*
G01X43818Y40845D01*
G01X43867Y40848D01*
G01X43916Y40853D01*
G01X43964Y40861D01*
G01X44013Y40870D01*
G01X44060Y40881D01*
G01X44108Y40895D01*
G01X44154Y40910D01*
G01X44200Y40927D01*
G01X44245Y40947D01*
G01X44290Y40968D01*
G01X44333Y40991D01*
G01X44375Y41016D01*
G01X44417Y41042D01*
G01X44457Y41071D01*
G01X44496Y41101D01*
G01X44533Y41132D01*
G01X44569Y41165D01*
G01X44604Y41200D01*
G01X44637Y41236D01*
G01X44669Y41274D01*
G01X44699Y41313D01*
G01X44727Y41353D01*
G01X44754Y41394D01*
G01X44779Y41436D01*
G01X44802Y41480D01*
G01X44823Y41524D01*
G01X44842Y41569D01*
G01X44860Y41615D01*
G01X44875Y41662D01*
G01X44888Y41709D01*
G01X44900Y41757D01*
G01X44909Y41805D01*
G01X44916Y41854D01*
G01X44921Y41902D01*
G01X44925Y41951D01*
G01X44926Y42000D01*
G01X44925Y42050D01*
G01X44921Y42099D01*
G01X44916Y42147D01*
G01X44909Y42196D01*
G01X44900Y42244D01*
G01X44888Y42292D01*
G01X44875Y42339D01*
G01X44860Y42386D01*
G01X44842Y42432D01*
G01X44823Y42477D01*
G01X44802Y42521D01*
G01X44779Y42564D01*
G01X44754Y42607D01*
G01X44727Y42648D01*
G01X44699Y42688D01*
G01X44669Y42727D01*
G01X44637Y42765D01*
G01X44604Y42801D01*
G01X44569Y42835D01*
G01X44533Y42869D01*
G01X44496Y42900D01*
G01X44457Y42930D01*
G01X44417Y42959D01*
G01X44375Y42985D01*
G01X44333Y43010D01*
G01X44290Y43033D01*
G01X44245Y43054D01*
G01X44200Y43074D01*
G01X44154Y43091D01*
G01X44108Y43106D01*
G01X44060Y43120D01*
G01X44013Y43131D01*
G01X43964Y43140D01*
G01X43916Y43148D01*
G01X43867Y43153D01*
G01X43818Y43156D01*
G37*
G36*
G01X41278Y28156D02*
G01X41229Y28157D01*
G01X41180Y28156D01*
G01X41131Y28153D01*
G01X41082Y28148D01*
G01X41034Y28140D01*
G01X40985Y28131D01*
G01X40938Y28120D01*
G01X40890Y28106D01*
G01X40844Y28091D01*
G01X40798Y28074D01*
G01X40753Y28054D01*
G01X40708Y28033D01*
G01X40665Y28010D01*
G01X40623Y27985D01*
G01X40581Y27959D01*
G01X40541Y27930D01*
G01X40502Y27900D01*
G01X40465Y27869D01*
G01X40429Y27835D01*
G01X40394Y27801D01*
G01X40361Y27765D01*
G01X40329Y27727D01*
G01X40299Y27688D01*
G01X40271Y27648D01*
G01X40244Y27607D01*
G01X40219Y27564D01*
G01X40196Y27521D01*
G01X40175Y27477D01*
G01X40156Y27432D01*
G01X40139Y27386D01*
G01X40123Y27339D01*
G01X40110Y27292D01*
G01X40098Y27244D01*
G01X40089Y27196D01*
G01X40082Y27147D01*
G01X40077Y27099D01*
G01X40074Y27050D01*
G01X40072Y27000D01*
G01X40074Y26951D01*
G01X40077Y26902D01*
G01X40082Y26854D01*
G01X40089Y26805D01*
G01X40098Y26757D01*
G01X40110Y26709D01*
G01X40123Y26662D01*
G01X40139Y26615D01*
G01X40156Y26569D01*
G01X40175Y26524D01*
G01X40196Y26480D01*
G01X40219Y26436D01*
G01X40244Y26394D01*
G01X40271Y26353D01*
G01X40299Y26313D01*
G01X40329Y26274D01*
G01X40361Y26236D01*
G01X40394Y26200D01*
G01X40429Y26165D01*
G01X40465Y26132D01*
G01X40502Y26101D01*
G01X40541Y26071D01*
G01X40581Y26042D01*
G01X40623Y26016D01*
G01X40665Y25991D01*
G01X40708Y25968D01*
G01X40753Y25947D01*
G01X40798Y25927D01*
G01X40844Y25910D01*
G01X40890Y25895D01*
G01X40938Y25881D01*
G01X40985Y25870D01*
G01X41034Y25861D01*
G01X41082Y25853D01*
G01X41131Y25848D01*
G01X41180Y25845D01*
G01X41229Y25844D01*
G01X41278Y25845D01*
G01X41327Y25848D01*
G01X41376Y25853D01*
G01X41424Y25861D01*
G01X41473Y25870D01*
G01X41520Y25881D01*
G01X41568Y25895D01*
G01X41614Y25910D01*
G01X41660Y25927D01*
G01X41705Y25947D01*
G01X41750Y25968D01*
G01X41793Y25991D01*
G01X41835Y26016D01*
G01X41877Y26042D01*
G01X41917Y26071D01*
G01X41956Y26101D01*
G01X41993Y26132D01*
G01X42029Y26165D01*
G01X42064Y26200D01*
G01X42097Y26236D01*
G01X42129Y26274D01*
G01X42159Y26313D01*
G01X42187Y26353D01*
G01X42214Y26394D01*
G01X42239Y26436D01*
G01X42262Y26480D01*
G01X42283Y26524D01*
G01X42302Y26569D01*
G01X42320Y26615D01*
G01X42335Y26662D01*
G01X42348Y26709D01*
G01X42360Y26757D01*
G01X42369Y26805D01*
G01X42376Y26854D01*
G01X42381Y26902D01*
G01X42385Y26951D01*
G01X42386Y27000D01*
G01X42385Y27050D01*
G01X42381Y27099D01*
G01X42376Y27147D01*
G01X42369Y27196D01*
G01X42360Y27244D01*
G01X42348Y27292D01*
G01X42335Y27339D01*
G01X42320Y27386D01*
G01X42302Y27432D01*
G01X42283Y27477D01*
G01X42262Y27521D01*
G01X42239Y27564D01*
G01X42214Y27607D01*
G01X42187Y27648D01*
G01X42159Y27688D01*
G01X42129Y27727D01*
G01X42097Y27765D01*
G01X42064Y27801D01*
G01X42029Y27835D01*
G01X41993Y27869D01*
G01X41956Y27900D01*
G01X41917Y27930D01*
G01X41877Y27959D01*
G01X41835Y27985D01*
G01X41793Y28010D01*
G01X41750Y28033D01*
G01X41705Y28054D01*
G01X41660Y28074D01*
G01X41614Y28091D01*
G01X41568Y28106D01*
G01X41520Y28120D01*
G01X41473Y28131D01*
G01X41424Y28140D01*
G01X41376Y28148D01*
G01X41327Y28153D01*
G01X41278Y28156D01*
G37*
G36*
G01X43818Y20656D02*
G01X43769Y20657D01*
G01X43720Y20656D01*
G01X43671Y20653D01*
G01X43622Y20648D01*
G01X43574Y20640D01*
G01X43525Y20631D01*
G01X43478Y20620D01*
G01X43430Y20606D01*
G01X43384Y20591D01*
G01X43338Y20573D01*
G01X43293Y20554D01*
G01X43248Y20533D01*
G01X43205Y20510D01*
G01X43163Y20485D01*
G01X43121Y20459D01*
G01X43081Y20430D01*
G01X43042Y20400D01*
G01X43005Y20369D01*
G01X42969Y20335D01*
G01X42934Y20301D01*
G01X42901Y20264D01*
G01X42869Y20227D01*
G01X42839Y20188D01*
G01X42811Y20148D01*
G01X42784Y20107D01*
G01X42759Y20064D01*
G01X42736Y20021D01*
G01X42715Y19977D01*
G01X42696Y19932D01*
G01X42679Y19886D01*
G01X42663Y19839D01*
G01X42650Y19792D01*
G01X42638Y19744D01*
G01X42629Y19696D01*
G01X42622Y19647D01*
G01X42617Y19598D01*
G01X42614Y19549D01*
G01X42612Y19500D01*
G01X42614Y19451D01*
G01X42617Y19402D01*
G01X42622Y19353D01*
G01X42629Y19305D01*
G01X42638Y19257D01*
G01X42650Y19209D01*
G01X42663Y19162D01*
G01X42679Y19115D01*
G01X42696Y19069D01*
G01X42715Y19024D01*
G01X42736Y18980D01*
G01X42759Y18936D01*
G01X42784Y18894D01*
G01X42811Y18853D01*
G01X42839Y18813D01*
G01X42869Y18774D01*
G01X42901Y18736D01*
G01X42934Y18700D01*
G01X42969Y18665D01*
G01X43005Y18632D01*
G01X43042Y18601D01*
G01X43081Y18570D01*
G01X43121Y18542D01*
G01X43163Y18516D01*
G01X43205Y18491D01*
G01X43248Y18468D01*
G01X43293Y18446D01*
G01X43338Y18427D01*
G01X43384Y18410D01*
G01X43430Y18395D01*
G01X43478Y18381D01*
G01X43525Y18370D01*
G01X43574Y18360D01*
G01X43622Y18353D01*
G01X43671Y18348D01*
G01X43720Y18345D01*
G01X43769Y18344D01*
G01X43818Y18345D01*
G01X43867Y18348D01*
G01X43916Y18353D01*
G01X43964Y18360D01*
G01X44013Y18370D01*
G01X44060Y18381D01*
G01X44108Y18395D01*
G01X44154Y18410D01*
G01X44200Y18427D01*
G01X44245Y18446D01*
G01X44290Y18468D01*
G01X44333Y18491D01*
G01X44375Y18516D01*
G01X44417Y18542D01*
G01X44457Y18570D01*
G01X44496Y18601D01*
G01X44533Y18632D01*
G01X44569Y18665D01*
G01X44604Y18700D01*
G01X44637Y18736D01*
G01X44669Y18774D01*
G01X44699Y18813D01*
G01X44727Y18853D01*
G01X44754Y18894D01*
G01X44779Y18936D01*
G01X44802Y18980D01*
G01X44823Y19024D01*
G01X44842Y19069D01*
G01X44860Y19115D01*
G01X44875Y19162D01*
G01X44888Y19209D01*
G01X44900Y19257D01*
G01X44909Y19305D01*
G01X44916Y19353D01*
G01X44921Y19402D01*
G01X44925Y19451D01*
G01X44926Y19500D01*
G01X44925Y19549D01*
G01X44921Y19598D01*
G01X44916Y19647D01*
G01X44909Y19696D01*
G01X44900Y19744D01*
G01X44888Y19792D01*
G01X44875Y19839D01*
G01X44860Y19886D01*
G01X44842Y19932D01*
G01X44823Y19977D01*
G01X44802Y20021D01*
G01X44779Y20064D01*
G01X44754Y20107D01*
G01X44727Y20148D01*
G01X44699Y20188D01*
G01X44669Y20227D01*
G01X44637Y20264D01*
G01X44604Y20301D01*
G01X44569Y20335D01*
G01X44533Y20369D01*
G01X44496Y20400D01*
G01X44457Y20430D01*
G01X44417Y20459D01*
G01X44375Y20485D01*
G01X44333Y20510D01*
G01X44290Y20533D01*
G01X44245Y20554D01*
G01X44200Y20573D01*
G01X44154Y20591D01*
G01X44108Y20606D01*
G01X44060Y20620D01*
G01X44013Y20631D01*
G01X43964Y20640D01*
G01X43916Y20648D01*
G01X43867Y20653D01*
G01X43818Y20656D01*
G37*
G36*
G01X41278Y35656D02*
G01X41229Y35657D01*
G01X41180Y35656D01*
G01X41131Y35653D01*
G01X41082Y35647D01*
G01X41034Y35640D01*
G01X40985Y35631D01*
G01X40938Y35620D01*
G01X40890Y35606D01*
G01X40844Y35591D01*
G01X40798Y35573D01*
G01X40753Y35554D01*
G01X40708Y35533D01*
G01X40665Y35510D01*
G01X40623Y35485D01*
G01X40581Y35459D01*
G01X40541Y35430D01*
G01X40502Y35400D01*
G01X40465Y35369D01*
G01X40429Y35335D01*
G01X40394Y35301D01*
G01X40361Y35264D01*
G01X40329Y35227D01*
G01X40299Y35188D01*
G01X40271Y35148D01*
G01X40244Y35107D01*
G01X40219Y35064D01*
G01X40196Y35021D01*
G01X40175Y34977D01*
G01X40156Y34932D01*
G01X40139Y34886D01*
G01X40123Y34839D01*
G01X40110Y34792D01*
G01X40098Y34744D01*
G01X40089Y34696D01*
G01X40082Y34647D01*
G01X40077Y34598D01*
G01X40074Y34549D01*
G01X40072Y34500D01*
G01X40074Y34451D01*
G01X40077Y34402D01*
G01X40082Y34353D01*
G01X40089Y34305D01*
G01X40098Y34257D01*
G01X40110Y34209D01*
G01X40123Y34162D01*
G01X40139Y34115D01*
G01X40156Y34069D01*
G01X40175Y34024D01*
G01X40196Y33980D01*
G01X40219Y33936D01*
G01X40244Y33894D01*
G01X40271Y33853D01*
G01X40299Y33813D01*
G01X40329Y33774D01*
G01X40361Y33736D01*
G01X40394Y33700D01*
G01X40429Y33665D01*
G01X40465Y33632D01*
G01X40502Y33600D01*
G01X40541Y33570D01*
G01X40581Y33542D01*
G01X40623Y33515D01*
G01X40665Y33491D01*
G01X40708Y33468D01*
G01X40753Y33446D01*
G01X40798Y33427D01*
G01X40844Y33410D01*
G01X40890Y33394D01*
G01X40938Y33381D01*
G01X40985Y33370D01*
G01X41034Y33360D01*
G01X41082Y33353D01*
G01X41131Y33348D01*
G01X41180Y33345D01*
G01X41229Y33344D01*
G01X41278Y33345D01*
G01X41327Y33348D01*
G01X41376Y33353D01*
G01X41424Y33360D01*
G01X41473Y33370D01*
G01X41520Y33381D01*
G01X41568Y33394D01*
G01X41614Y33410D01*
G01X41660Y33427D01*
G01X41705Y33446D01*
G01X41750Y33468D01*
G01X41793Y33491D01*
G01X41835Y33515D01*
G01X41877Y33542D01*
G01X41917Y33570D01*
G01X41956Y33600D01*
G01X41993Y33632D01*
G01X42029Y33665D01*
G01X42064Y33700D01*
G01X42097Y33736D01*
G01X42129Y33774D01*
G01X42159Y33813D01*
G01X42187Y33853D01*
G01X42214Y33894D01*
G01X42239Y33936D01*
G01X42262Y33980D01*
G01X42283Y34024D01*
G01X42302Y34069D01*
G01X42320Y34115D01*
G01X42335Y34162D01*
G01X42348Y34209D01*
G01X42360Y34257D01*
G01X42369Y34305D01*
G01X42376Y34353D01*
G01X42381Y34402D01*
G01X42385Y34451D01*
G01X42386Y34500D01*
G01X42385Y34549D01*
G01X42381Y34598D01*
G01X42376Y34647D01*
G01X42369Y34696D01*
G01X42360Y34744D01*
G01X42348Y34792D01*
G01X42335Y34839D01*
G01X42320Y34886D01*
G01X42302Y34932D01*
G01X42283Y34977D01*
G01X42262Y35021D01*
G01X42239Y35064D01*
G01X42214Y35107D01*
G01X42187Y35148D01*
G01X42159Y35188D01*
G01X42129Y35227D01*
G01X42097Y35264D01*
G01X42064Y35301D01*
G01X42029Y35335D01*
G01X41993Y35369D01*
G01X41956Y35400D01*
G01X41917Y35430D01*
G01X41877Y35459D01*
G01X41835Y35485D01*
G01X41793Y35510D01*
G01X41750Y35533D01*
G01X41705Y35554D01*
G01X41660Y35573D01*
G01X41614Y35591D01*
G01X41568Y35606D01*
G01X41520Y35620D01*
G01X41473Y35631D01*
G01X41424Y35640D01*
G01X41376Y35647D01*
G01X41327Y35653D01*
G01X41278Y35656D01*
G37*
G36*
G01X43818Y35656D02*
G01X43769Y35657D01*
G01X43720Y35656D01*
G01X43671Y35653D01*
G01X43622Y35647D01*
G01X43574Y35640D01*
G01X43525Y35631D01*
G01X43478Y35620D01*
G01X43430Y35606D01*
G01X43384Y35591D01*
G01X43338Y35573D01*
G01X43293Y35554D01*
G01X43248Y35533D01*
G01X43205Y35510D01*
G01X43163Y35485D01*
G01X43121Y35459D01*
G01X43081Y35430D01*
G01X43042Y35400D01*
G01X43005Y35369D01*
G01X42969Y35335D01*
G01X42934Y35301D01*
G01X42901Y35264D01*
G01X42869Y35227D01*
G01X42839Y35188D01*
G01X42811Y35148D01*
G01X42784Y35107D01*
G01X42759Y35064D01*
G01X42736Y35021D01*
G01X42715Y34977D01*
G01X42696Y34932D01*
G01X42679Y34886D01*
G01X42663Y34839D01*
G01X42650Y34792D01*
G01X42638Y34744D01*
G01X42629Y34696D01*
G01X42622Y34647D01*
G01X42617Y34598D01*
G01X42614Y34549D01*
G01X42612Y34500D01*
G01X42614Y34451D01*
G01X42617Y34402D01*
G01X42622Y34353D01*
G01X42629Y34305D01*
G01X42638Y34257D01*
G01X42650Y34209D01*
G01X42663Y34162D01*
G01X42679Y34115D01*
G01X42696Y34069D01*
G01X42715Y34024D01*
G01X42736Y33980D01*
G01X42759Y33936D01*
G01X42784Y33894D01*
G01X42811Y33853D01*
G01X42839Y33813D01*
G01X42869Y33774D01*
G01X42901Y33736D01*
G01X42934Y33700D01*
G01X42969Y33665D01*
G01X43005Y33632D01*
G01X43042Y33600D01*
G01X43081Y33570D01*
G01X43121Y33542D01*
G01X43163Y33515D01*
G01X43205Y33491D01*
G01X43248Y33468D01*
G01X43293Y33446D01*
G01X43338Y33427D01*
G01X43384Y33410D01*
G01X43430Y33394D01*
G01X43478Y33381D01*
G01X43525Y33370D01*
G01X43574Y33360D01*
G01X43622Y33353D01*
G01X43671Y33348D01*
G01X43720Y33345D01*
G01X43769Y33344D01*
G01X43818Y33345D01*
G01X43867Y33348D01*
G01X43916Y33353D01*
G01X43964Y33360D01*
G01X44013Y33370D01*
G01X44060Y33381D01*
G01X44108Y33394D01*
G01X44154Y33410D01*
G01X44200Y33427D01*
G01X44245Y33446D01*
G01X44290Y33468D01*
G01X44333Y33491D01*
G01X44375Y33515D01*
G01X44417Y33542D01*
G01X44457Y33570D01*
G01X44496Y33600D01*
G01X44533Y33632D01*
G01X44569Y33665D01*
G01X44604Y33700D01*
G01X44637Y33736D01*
G01X44669Y33774D01*
G01X44699Y33813D01*
G01X44727Y33853D01*
G01X44754Y33894D01*
G01X44779Y33936D01*
G01X44802Y33980D01*
G01X44823Y34024D01*
G01X44842Y34069D01*
G01X44860Y34115D01*
G01X44875Y34162D01*
G01X44888Y34209D01*
G01X44900Y34257D01*
G01X44909Y34305D01*
G01X44916Y34353D01*
G01X44921Y34402D01*
G01X44925Y34451D01*
G01X44926Y34500D01*
G01X44925Y34549D01*
G01X44921Y34598D01*
G01X44916Y34647D01*
G01X44909Y34696D01*
G01X44900Y34744D01*
G01X44888Y34792D01*
G01X44875Y34839D01*
G01X44860Y34886D01*
G01X44842Y34932D01*
G01X44823Y34977D01*
G01X44802Y35021D01*
G01X44779Y35064D01*
G01X44754Y35107D01*
G01X44727Y35148D01*
G01X44699Y35188D01*
G01X44669Y35227D01*
G01X44637Y35264D01*
G01X44604Y35301D01*
G01X44569Y35335D01*
G01X44533Y35369D01*
G01X44496Y35400D01*
G01X44457Y35430D01*
G01X44417Y35459D01*
G01X44375Y35485D01*
G01X44333Y35510D01*
G01X44290Y35533D01*
G01X44245Y35554D01*
G01X44200Y35573D01*
G01X44154Y35591D01*
G01X44108Y35606D01*
G01X44060Y35620D01*
G01X44013Y35631D01*
G01X43964Y35640D01*
G01X43916Y35647D01*
G01X43867Y35653D01*
G01X43818Y35656D01*
G37*
G36*
G01X41278Y13156D02*
G01X41229Y13157D01*
G01X41180Y13156D01*
G01X41131Y13153D01*
G01X41082Y13148D01*
G01X41034Y13140D01*
G01X40985Y13131D01*
G01X40938Y13120D01*
G01X40890Y13106D01*
G01X40844Y13091D01*
G01X40798Y13074D01*
G01X40753Y13054D01*
G01X40708Y13033D01*
G01X40665Y13010D01*
G01X40623Y12985D01*
G01X40581Y12959D01*
G01X40541Y12930D01*
G01X40502Y12900D01*
G01X40465Y12869D01*
G01X40429Y12835D01*
G01X40394Y12801D01*
G01X40361Y12765D01*
G01X40329Y12727D01*
G01X40299Y12688D01*
G01X40271Y12648D01*
G01X40244Y12607D01*
G01X40219Y12565D01*
G01X40196Y12521D01*
G01X40175Y12477D01*
G01X40156Y12432D01*
G01X40139Y12386D01*
G01X40123Y12339D01*
G01X40110Y12292D01*
G01X40098Y12244D01*
G01X40089Y12196D01*
G01X40082Y12147D01*
G01X40077Y12099D01*
G01X40074Y12050D01*
G01X40072Y12000D01*
G01X40074Y11951D01*
G01X40077Y11902D01*
G01X40082Y11854D01*
G01X40089Y11805D01*
G01X40098Y11757D01*
G01X40110Y11709D01*
G01X40123Y11662D01*
G01X40139Y11615D01*
G01X40156Y11569D01*
G01X40175Y11524D01*
G01X40196Y11480D01*
G01X40219Y11436D01*
G01X40244Y11394D01*
G01X40271Y11353D01*
G01X40299Y11313D01*
G01X40329Y11274D01*
G01X40361Y11236D01*
G01X40394Y11200D01*
G01X40429Y11166D01*
G01X40465Y11132D01*
G01X40502Y11101D01*
G01X40541Y11071D01*
G01X40581Y11042D01*
G01X40623Y11016D01*
G01X40665Y10991D01*
G01X40708Y10968D01*
G01X40753Y10947D01*
G01X40798Y10927D01*
G01X40844Y10910D01*
G01X40890Y10895D01*
G01X40938Y10881D01*
G01X40985Y10870D01*
G01X41034Y10861D01*
G01X41082Y10853D01*
G01X41131Y10848D01*
G01X41180Y10845D01*
G01X41229Y10844D01*
G01X41278Y10845D01*
G01X41327Y10848D01*
G01X41376Y10853D01*
G01X41424Y10861D01*
G01X41473Y10870D01*
G01X41520Y10881D01*
G01X41568Y10895D01*
G01X41614Y10910D01*
G01X41660Y10927D01*
G01X41705Y10947D01*
G01X41750Y10968D01*
G01X41793Y10991D01*
G01X41835Y11016D01*
G01X41877Y11042D01*
G01X41917Y11071D01*
G01X41956Y11101D01*
G01X41993Y11132D01*
G01X42029Y11166D01*
G01X42064Y11200D01*
G01X42097Y11236D01*
G01X42129Y11274D01*
G01X42159Y11313D01*
G01X42187Y11353D01*
G01X42214Y11394D01*
G01X42239Y11436D01*
G01X42262Y11480D01*
G01X42283Y11524D01*
G01X42302Y11569D01*
G01X42320Y11615D01*
G01X42335Y11662D01*
G01X42348Y11709D01*
G01X42360Y11757D01*
G01X42369Y11805D01*
G01X42376Y11854D01*
G01X42381Y11902D01*
G01X42385Y11951D01*
G01X42386Y12000D01*
G01X42385Y12050D01*
G01X42381Y12099D01*
G01X42376Y12147D01*
G01X42369Y12196D01*
G01X42360Y12244D01*
G01X42348Y12292D01*
G01X42335Y12339D01*
G01X42320Y12386D01*
G01X42302Y12432D01*
G01X42283Y12477D01*
G01X42262Y12521D01*
G01X42239Y12565D01*
G01X42214Y12607D01*
G01X42187Y12648D01*
G01X42159Y12688D01*
G01X42129Y12727D01*
G01X42097Y12765D01*
G01X42064Y12801D01*
G01X42029Y12835D01*
G01X41993Y12869D01*
G01X41956Y12900D01*
G01X41917Y12930D01*
G01X41877Y12959D01*
G01X41835Y12985D01*
G01X41793Y13010D01*
G01X41750Y13033D01*
G01X41705Y13054D01*
G01X41660Y13074D01*
G01X41614Y13091D01*
G01X41568Y13106D01*
G01X41520Y13120D01*
G01X41473Y13131D01*
G01X41424Y13140D01*
G01X41376Y13148D01*
G01X41327Y13153D01*
G01X41278Y13156D01*
G37*
G36*
G01X2776Y33568D02*
G01X2729Y33569D01*
G01X2683Y33568D01*
G01X2636Y33565D01*
G01X2590Y33560D01*
G01X2544Y33553D01*
G01X2498Y33544D01*
G01X2453Y33532D01*
G01X2408Y33519D01*
G01X2364Y33504D01*
G01X2320Y33488D01*
G01X2278Y33469D01*
G01X2236Y33448D01*
G01X2195Y33426D01*
G01X2155Y33402D01*
G01X2116Y33376D01*
G01X2079Y33348D01*
G01X2042Y33319D01*
G01X2007Y33288D01*
G01X1974Y33256D01*
G01X1941Y33222D01*
G01X1911Y33187D01*
G01X1882Y33151D01*
G01X1854Y33113D01*
G01X1828Y33074D01*
G01X1804Y33035D01*
G01X1781Y32994D01*
G01X1761Y32952D01*
G01X1742Y32909D01*
G01X1725Y32866D01*
G01X1710Y32822D01*
G01X1697Y32777D01*
G01X1686Y32732D01*
G01X1677Y32686D01*
G01X1670Y32640D01*
G01X1665Y32593D01*
G01X1662Y32547D01*
G01X1661Y32500D01*
G01X1662Y32454D01*
G01X1665Y32407D01*
G01X1670Y32361D01*
G01X1677Y32315D01*
G01X1686Y32269D01*
G01X1697Y32224D01*
G01X1710Y32179D01*
G01X1725Y32135D01*
G01X1742Y32091D01*
G01X1761Y32049D01*
G01X1781Y32007D01*
G01X1804Y31966D01*
G01X1828Y31926D01*
G01X1854Y31887D01*
G01X1882Y31850D01*
G01X1911Y31813D01*
G01X1941Y31778D01*
G01X1974Y31745D01*
G01X2007Y31713D01*
G01X2042Y31682D01*
G01X2079Y31653D01*
G01X2116Y31625D01*
G01X2155Y31599D01*
G01X2195Y31575D01*
G01X2236Y31553D01*
G01X2278Y31532D01*
G01X2320Y31513D01*
G01X2364Y31496D01*
G01X2408Y31481D01*
G01X2453Y31468D01*
G01X2498Y31457D01*
G01X2544Y31448D01*
G01X2590Y31441D01*
G01X2636Y31436D01*
G01X2683Y31433D01*
G01X2729Y31432D01*
G01X2776Y31433D01*
G01X2822Y31436D01*
G01X2869Y31441D01*
G01X2915Y31448D01*
G01X2961Y31457D01*
G01X3006Y31468D01*
G01X3051Y31481D01*
G01X3095Y31496D01*
G01X3138Y31513D01*
G01X3181Y31532D01*
G01X3223Y31553D01*
G01X3264Y31575D01*
G01X3303Y31599D01*
G01X3342Y31625D01*
G01X3380Y31653D01*
G01X3416Y31682D01*
G01X3451Y31713D01*
G01X3485Y31745D01*
G01X3517Y31778D01*
G01X3548Y31813D01*
G01X3577Y31850D01*
G01X3605Y31887D01*
G01X3630Y31926D01*
G01X3655Y31966D01*
G01X3677Y32007D01*
G01X3698Y32049D01*
G01X3716Y32091D01*
G01X3733Y32135D01*
G01X3748Y32179D01*
G01X3761Y32224D01*
G01X3772Y32269D01*
G01X3782Y32315D01*
G01X3789Y32361D01*
G01X3794Y32407D01*
G01X3797Y32454D01*
G01X3798Y32500D01*
G01X3797Y32547D01*
G01X3794Y32593D01*
G01X3789Y32640D01*
G01X3782Y32686D01*
G01X3772Y32732D01*
G01X3761Y32777D01*
G01X3748Y32822D01*
G01X3733Y32866D01*
G01X3716Y32909D01*
G01X3698Y32952D01*
G01X3677Y32994D01*
G01X3655Y33035D01*
G01X3605Y33113D01*
G01X3577Y33151D01*
G01X3548Y33187D01*
G01X3517Y33222D01*
G01X3485Y33256D01*
G01X3451Y33288D01*
G01X3416Y33319D01*
G01X3380Y33348D01*
G01X3342Y33376D01*
G01X3303Y33402D01*
G01X3264Y33426D01*
G01X3223Y33448D01*
G01X3181Y33469D01*
G01X3138Y33488D01*
G01X3095Y33504D01*
G01X3051Y33519D01*
G01X3006Y33532D01*
G01X2961Y33544D01*
G01X2915Y33553D01*
G01X2869Y33560D01*
G01X2822Y33565D01*
G01X2776Y33568D01*
G37*
G36*
G01X5316Y31028D02*
G01X5269Y31029D01*
G01X5223Y31028D01*
G01X5176Y31025D01*
G01X5130Y31020D01*
G01X5084Y31013D01*
G01X5038Y31004D01*
G01X4993Y30992D01*
G01X4948Y30979D01*
G01X4904Y30964D01*
G01X4860Y30948D01*
G01X4818Y30929D01*
G01X4776Y30908D01*
G01X4735Y30886D01*
G01X4695Y30862D01*
G01X4656Y30836D01*
G01X4619Y30808D01*
G01X4582Y30779D01*
G01X4547Y30748D01*
G01X4514Y30716D01*
G01X4481Y30682D01*
G01X4451Y30647D01*
G01X4422Y30611D01*
G01X4394Y30573D01*
G01X4368Y30534D01*
G01X4344Y30495D01*
G01X4321Y30454D01*
G01X4301Y30412D01*
G01X4282Y30369D01*
G01X4265Y30326D01*
G01X4250Y30282D01*
G01X4237Y30237D01*
G01X4226Y30192D01*
G01X4217Y30146D01*
G01X4210Y30100D01*
G01X4205Y30053D01*
G01X4202Y30007D01*
G01X4201Y29960D01*
G01X4202Y29914D01*
G01X4205Y29867D01*
G01X4210Y29821D01*
G01X4217Y29775D01*
G01X4226Y29729D01*
G01X4237Y29684D01*
G01X4250Y29639D01*
G01X4265Y29595D01*
G01X4282Y29551D01*
G01X4301Y29509D01*
G01X4321Y29467D01*
G01X4344Y29426D01*
G01X4368Y29386D01*
G01X4394Y29347D01*
G01X4422Y29310D01*
G01X4451Y29273D01*
G01X4481Y29238D01*
G01X4514Y29205D01*
G01X4547Y29173D01*
G01X4582Y29142D01*
G01X4619Y29113D01*
G01X4656Y29085D01*
G01X4695Y29059D01*
G01X4735Y29035D01*
G01X4776Y29013D01*
G01X4818Y28992D01*
G01X4860Y28973D01*
G01X4904Y28956D01*
G01X4948Y28941D01*
G01X4993Y28928D01*
G01X5038Y28917D01*
G01X5084Y28908D01*
G01X5130Y28901D01*
G01X5176Y28896D01*
G01X5223Y28893D01*
G01X5269Y28892D01*
G01X5316Y28893D01*
G01X5362Y28896D01*
G01X5409Y28901D01*
G01X5455Y28908D01*
G01X5501Y28917D01*
G01X5546Y28928D01*
G01X5591Y28941D01*
G01X5635Y28956D01*
G01X5678Y28973D01*
G01X5721Y28992D01*
G01X5763Y29013D01*
G01X5804Y29035D01*
G01X5843Y29059D01*
G01X5882Y29085D01*
G01X5920Y29113D01*
G01X5956Y29142D01*
G01X5991Y29173D01*
G01X6025Y29205D01*
G01X6057Y29238D01*
G01X6088Y29273D01*
G01X6117Y29310D01*
G01X6145Y29347D01*
G01X6170Y29386D01*
G01X6195Y29426D01*
G01X6217Y29467D01*
G01X6238Y29509D01*
G01X6256Y29551D01*
G01X6273Y29595D01*
G01X6288Y29639D01*
G01X6301Y29684D01*
G01X6312Y29729D01*
G01X6322Y29775D01*
G01X6329Y29821D01*
G01X6334Y29867D01*
G01X6337Y29914D01*
G01X6338Y29960D01*
G01X6337Y30007D01*
G01X6334Y30053D01*
G01X6329Y30100D01*
G01X6322Y30146D01*
G01X6312Y30192D01*
G01X6301Y30237D01*
G01X6288Y30282D01*
G01X6273Y30326D01*
G01X6256Y30369D01*
G01X6238Y30412D01*
G01X6217Y30454D01*
G01X6195Y30495D01*
G01X6145Y30573D01*
G01X6117Y30611D01*
G01X6088Y30647D01*
G01X6057Y30682D01*
G01X6025Y30716D01*
G01X5991Y30748D01*
G01X5956Y30779D01*
G01X5920Y30808D01*
G01X5882Y30836D01*
G01X5843Y30862D01*
G01X5804Y30886D01*
G01X5763Y30908D01*
G01X5721Y30929D01*
G01X5678Y30948D01*
G01X5635Y30964D01*
G01X5591Y30979D01*
G01X5546Y30992D01*
G01X5501Y31004D01*
G01X5455Y31013D01*
G01X5409Y31020D01*
G01X5362Y31025D01*
G01X5316Y31028D01*
G37*
G36*
G01X2776Y31028D02*
G01X2729Y31029D01*
G01X2683Y31028D01*
G01X2636Y31025D01*
G01X2590Y31020D01*
G01X2544Y31013D01*
G01X2498Y31004D01*
G01X2453Y30992D01*
G01X2408Y30979D01*
G01X2364Y30964D01*
G01X2320Y30948D01*
G01X2278Y30929D01*
G01X2236Y30908D01*
G01X2195Y30886D01*
G01X2155Y30862D01*
G01X2116Y30836D01*
G01X2079Y30808D01*
G01X2042Y30779D01*
G01X2007Y30748D01*
G01X1974Y30716D01*
G01X1941Y30682D01*
G01X1911Y30647D01*
G01X1882Y30611D01*
G01X1854Y30573D01*
G01X1828Y30534D01*
G01X1804Y30495D01*
G01X1781Y30454D01*
G01X1761Y30412D01*
G01X1742Y30369D01*
G01X1725Y30326D01*
G01X1710Y30282D01*
G01X1697Y30237D01*
G01X1686Y30192D01*
G01X1677Y30146D01*
G01X1670Y30100D01*
G01X1665Y30053D01*
G01X1662Y30007D01*
G01X1661Y29960D01*
G01X1662Y29914D01*
G01X1665Y29867D01*
G01X1670Y29821D01*
G01X1677Y29775D01*
G01X1686Y29729D01*
G01X1697Y29684D01*
G01X1710Y29639D01*
G01X1725Y29595D01*
G01X1742Y29551D01*
G01X1761Y29509D01*
G01X1781Y29467D01*
G01X1804Y29426D01*
G01X1828Y29386D01*
G01X1854Y29347D01*
G01X1882Y29310D01*
G01X1911Y29273D01*
G01X1941Y29238D01*
G01X1974Y29205D01*
G01X2007Y29173D01*
G01X2042Y29142D01*
G01X2079Y29113D01*
G01X2116Y29085D01*
G01X2155Y29059D01*
G01X2195Y29035D01*
G01X2236Y29013D01*
G01X2278Y28992D01*
G01X2320Y28973D01*
G01X2364Y28956D01*
G01X2408Y28941D01*
G01X2453Y28928D01*
G01X2498Y28917D01*
G01X2544Y28908D01*
G01X2590Y28901D01*
G01X2636Y28896D01*
G01X2683Y28893D01*
G01X2729Y28892D01*
G01X2776Y28893D01*
G01X2822Y28896D01*
G01X2869Y28901D01*
G01X2915Y28908D01*
G01X2961Y28917D01*
G01X3006Y28928D01*
G01X3051Y28941D01*
G01X3095Y28956D01*
G01X3138Y28973D01*
G01X3181Y28992D01*
G01X3223Y29013D01*
G01X3264Y29035D01*
G01X3303Y29059D01*
G01X3342Y29085D01*
G01X3380Y29113D01*
G01X3416Y29142D01*
G01X3451Y29173D01*
G01X3485Y29205D01*
G01X3517Y29238D01*
G01X3548Y29273D01*
G01X3577Y29310D01*
G01X3605Y29347D01*
G01X3630Y29386D01*
G01X3655Y29426D01*
G01X3677Y29467D01*
G01X3698Y29509D01*
G01X3716Y29551D01*
G01X3733Y29595D01*
G01X3748Y29639D01*
G01X3761Y29684D01*
G01X3772Y29729D01*
G01X3782Y29775D01*
G01X3789Y29821D01*
G01X3794Y29867D01*
G01X3797Y29914D01*
G01X3798Y29960D01*
G01X3797Y30007D01*
G01X3794Y30053D01*
G01X3789Y30100D01*
G01X3782Y30146D01*
G01X3772Y30192D01*
G01X3761Y30237D01*
G01X3748Y30282D01*
G01X3733Y30326D01*
G01X3716Y30369D01*
G01X3698Y30412D01*
G01X3677Y30454D01*
G01X3655Y30495D01*
G01X3605Y30573D01*
G01X3577Y30611D01*
G01X3548Y30647D01*
G01X3517Y30682D01*
G01X3485Y30716D01*
G01X3451Y30748D01*
G01X3416Y30779D01*
G01X3380Y30808D01*
G01X3342Y30836D01*
G01X3303Y30862D01*
G01X3264Y30886D01*
G01X3223Y30908D01*
G01X3181Y30929D01*
G01X3138Y30948D01*
G01X3095Y30964D01*
G01X3051Y30979D01*
G01X3006Y30992D01*
G01X2961Y31004D01*
G01X2915Y31013D01*
G01X2869Y31020D01*
G01X2822Y31025D01*
G01X2776Y31028D01*
G37*
G36*
G01X5316Y33568D02*
G01X5269Y33569D01*
G01X5223Y33568D01*
G01X5176Y33565D01*
G01X5130Y33560D01*
G01X5084Y33553D01*
G01X5038Y33544D01*
G01X4993Y33532D01*
G01X4948Y33519D01*
G01X4904Y33504D01*
G01X4860Y33488D01*
G01X4818Y33469D01*
G01X4776Y33448D01*
G01X4735Y33426D01*
G01X4695Y33402D01*
G01X4656Y33376D01*
G01X4619Y33348D01*
G01X4582Y33319D01*
G01X4547Y33288D01*
G01X4514Y33256D01*
G01X4481Y33222D01*
G01X4451Y33187D01*
G01X4422Y33151D01*
G01X4394Y33113D01*
G01X4368Y33074D01*
G01X4344Y33035D01*
G01X4321Y32994D01*
G01X4301Y32952D01*
G01X4282Y32909D01*
G01X4265Y32866D01*
G01X4250Y32822D01*
G01X4237Y32777D01*
G01X4226Y32732D01*
G01X4217Y32686D01*
G01X4210Y32640D01*
G01X4205Y32593D01*
G01X4202Y32547D01*
G01X4201Y32500D01*
G01X4202Y32454D01*
G01X4205Y32407D01*
G01X4210Y32361D01*
G01X4217Y32315D01*
G01X4226Y32269D01*
G01X4237Y32224D01*
G01X4250Y32179D01*
G01X4265Y32135D01*
G01X4282Y32091D01*
G01X4301Y32049D01*
G01X4321Y32007D01*
G01X4344Y31966D01*
G01X4368Y31926D01*
G01X4394Y31887D01*
G01X4422Y31850D01*
G01X4451Y31813D01*
G01X4481Y31778D01*
G01X4514Y31745D01*
G01X4547Y31713D01*
G01X4582Y31682D01*
G01X4619Y31653D01*
G01X4656Y31625D01*
G01X4695Y31599D01*
G01X4735Y31575D01*
G01X4776Y31553D01*
G01X4818Y31532D01*
G01X4860Y31513D01*
G01X4904Y31496D01*
G01X4948Y31481D01*
G01X4993Y31468D01*
G01X5038Y31457D01*
G01X5084Y31448D01*
G01X5130Y31441D01*
G01X5176Y31436D01*
G01X5223Y31433D01*
G01X5269Y31432D01*
G01X5316Y31433D01*
G01X5362Y31436D01*
G01X5409Y31441D01*
G01X5455Y31448D01*
G01X5501Y31457D01*
G01X5546Y31468D01*
G01X5591Y31481D01*
G01X5635Y31496D01*
G01X5678Y31513D01*
G01X5721Y31532D01*
G01X5763Y31553D01*
G01X5804Y31575D01*
G01X5843Y31599D01*
G01X5882Y31625D01*
G01X5920Y31653D01*
G01X5956Y31682D01*
G01X5991Y31713D01*
G01X6025Y31745D01*
G01X6057Y31778D01*
G01X6088Y31813D01*
G01X6117Y31850D01*
G01X6145Y31887D01*
G01X6170Y31926D01*
G01X6195Y31966D01*
G01X6217Y32007D01*
G01X6238Y32049D01*
G01X6256Y32091D01*
G01X6273Y32135D01*
G01X6288Y32179D01*
G01X6301Y32224D01*
G01X6312Y32269D01*
G01X6322Y32315D01*
G01X6329Y32361D01*
G01X6334Y32407D01*
G01X6337Y32454D01*
G01X6338Y32500D01*
G01X6337Y32547D01*
G01X6334Y32593D01*
G01X6329Y32640D01*
G01X6322Y32686D01*
G01X6312Y32732D01*
G01X6301Y32777D01*
G01X6288Y32822D01*
G01X6273Y32866D01*
G01X6256Y32909D01*
G01X6238Y32952D01*
G01X6217Y32994D01*
G01X6195Y33035D01*
G01X6145Y33113D01*
G01X6117Y33151D01*
G01X6088Y33187D01*
G01X6057Y33222D01*
G01X6025Y33256D01*
G01X5991Y33288D01*
G01X5956Y33319D01*
G01X5920Y33348D01*
G01X5882Y33376D01*
G01X5843Y33402D01*
G01X5804Y33426D01*
G01X5763Y33448D01*
G01X5721Y33469D01*
G01X5678Y33488D01*
G01X5635Y33504D01*
G01X5591Y33519D01*
G01X5546Y33532D01*
G01X5501Y33544D01*
G01X5455Y33553D01*
G01X5409Y33560D01*
G01X5362Y33565D01*
G01X5316Y33568D01*
G37*
G36*
G01X2776Y28488D02*
G01X2729Y28489D01*
G01X2683Y28488D01*
G01X2636Y28485D01*
G01X2590Y28480D01*
G01X2544Y28473D01*
G01X2498Y28464D01*
G01X2453Y28452D01*
G01X2408Y28439D01*
G01X2364Y28424D01*
G01X2320Y28408D01*
G01X2278Y28389D01*
G01X2236Y28368D01*
G01X2195Y28346D01*
G01X2155Y28322D01*
G01X2116Y28296D01*
G01X2079Y28268D01*
G01X2042Y28239D01*
G01X2007Y28208D01*
G01X1974Y28176D01*
G01X1941Y28142D01*
G01X1911Y28107D01*
G01X1882Y28071D01*
G01X1854Y28033D01*
G01X1828Y27994D01*
G01X1804Y27955D01*
G01X1781Y27914D01*
G01X1761Y27872D01*
G01X1742Y27829D01*
G01X1725Y27786D01*
G01X1710Y27742D01*
G01X1697Y27697D01*
G01X1686Y27652D01*
G01X1677Y27606D01*
G01X1670Y27560D01*
G01X1665Y27513D01*
G01X1662Y27467D01*
G01X1661Y27420D01*
G01X1662Y27374D01*
G01X1665Y27327D01*
G01X1670Y27281D01*
G01X1677Y27235D01*
G01X1686Y27189D01*
G01X1697Y27144D01*
G01X1710Y27099D01*
G01X1725Y27055D01*
G01X1742Y27011D01*
G01X1761Y26969D01*
G01X1781Y26927D01*
G01X1804Y26886D01*
G01X1828Y26846D01*
G01X1854Y26807D01*
G01X1882Y26770D01*
G01X1911Y26733D01*
G01X1941Y26698D01*
G01X1974Y26665D01*
G01X2007Y26633D01*
G01X2042Y26602D01*
G01X2079Y26573D01*
G01X2116Y26545D01*
G01X2155Y26519D01*
G01X2195Y26495D01*
G01X2236Y26473D01*
G01X2278Y26452D01*
G01X2320Y26433D01*
G01X2364Y26416D01*
G01X2408Y26401D01*
G01X2453Y26388D01*
G01X2498Y26377D01*
G01X2544Y26368D01*
G01X2590Y26361D01*
G01X2636Y26356D01*
G01X2683Y26353D01*
G01X2729Y26352D01*
G01X2776Y26353D01*
G01X2822Y26356D01*
G01X2869Y26361D01*
G01X2915Y26368D01*
G01X2961Y26377D01*
G01X3006Y26388D01*
G01X3051Y26401D01*
G01X3095Y26416D01*
G01X3138Y26433D01*
G01X3181Y26452D01*
G01X3223Y26473D01*
G01X3264Y26495D01*
G01X3303Y26519D01*
G01X3342Y26545D01*
G01X3380Y26573D01*
G01X3416Y26602D01*
G01X3451Y26633D01*
G01X3485Y26665D01*
G01X3517Y26698D01*
G01X3548Y26733D01*
G01X3577Y26770D01*
G01X3605Y26807D01*
G01X3630Y26846D01*
G01X3655Y26886D01*
G01X3677Y26927D01*
G01X3698Y26969D01*
G01X3716Y27011D01*
G01X3733Y27055D01*
G01X3748Y27099D01*
G01X3761Y27144D01*
G01X3772Y27189D01*
G01X3782Y27235D01*
G01X3789Y27281D01*
G01X3794Y27327D01*
G01X3797Y27374D01*
G01X3798Y27420D01*
G01X3797Y27467D01*
G01X3794Y27513D01*
G01X3789Y27560D01*
G01X3782Y27606D01*
G01X3772Y27652D01*
G01X3761Y27697D01*
G01X3748Y27742D01*
G01X3733Y27786D01*
G01X3716Y27829D01*
G01X3698Y27872D01*
G01X3677Y27914D01*
G01X3655Y27955D01*
G01X3605Y28033D01*
G01X3577Y28071D01*
G01X3548Y28107D01*
G01X3517Y28142D01*
G01X3485Y28176D01*
G01X3451Y28208D01*
G01X3416Y28239D01*
G01X3380Y28268D01*
G01X3342Y28296D01*
G01X3303Y28322D01*
G01X3264Y28346D01*
G01X3223Y28368D01*
G01X3181Y28389D01*
G01X3138Y28408D01*
G01X3095Y28424D01*
G01X3051Y28439D01*
G01X3006Y28452D01*
G01X2961Y28464D01*
G01X2915Y28473D01*
G01X2869Y28480D01*
G01X2822Y28485D01*
G01X2776Y28488D01*
G37*
G36*
G01X5316Y28488D02*
G01X5269Y28489D01*
G01X5223Y28488D01*
G01X5176Y28485D01*
G01X5130Y28480D01*
G01X5084Y28473D01*
G01X5038Y28464D01*
G01X4993Y28452D01*
G01X4948Y28439D01*
G01X4904Y28424D01*
G01X4860Y28408D01*
G01X4818Y28389D01*
G01X4776Y28368D01*
G01X4735Y28346D01*
G01X4695Y28322D01*
G01X4656Y28296D01*
G01X4619Y28268D01*
G01X4582Y28239D01*
G01X4547Y28208D01*
G01X4514Y28176D01*
G01X4481Y28142D01*
G01X4451Y28107D01*
G01X4422Y28071D01*
G01X4394Y28033D01*
G01X4368Y27994D01*
G01X4344Y27955D01*
G01X4321Y27914D01*
G01X4301Y27872D01*
G01X4282Y27829D01*
G01X4265Y27786D01*
G01X4250Y27742D01*
G01X4237Y27697D01*
G01X4226Y27652D01*
G01X4217Y27606D01*
G01X4210Y27560D01*
G01X4205Y27513D01*
G01X4202Y27467D01*
G01X4201Y27420D01*
G01X4202Y27374D01*
G01X4205Y27327D01*
G01X4210Y27281D01*
G01X4217Y27235D01*
G01X4226Y27189D01*
G01X4237Y27144D01*
G01X4250Y27099D01*
G01X4265Y27055D01*
G01X4282Y27011D01*
G01X4301Y26969D01*
G01X4321Y26927D01*
G01X4344Y26886D01*
G01X4368Y26846D01*
G01X4394Y26807D01*
G01X4422Y26770D01*
G01X4451Y26733D01*
G01X4481Y26698D01*
G01X4514Y26665D01*
G01X4547Y26633D01*
G01X4582Y26602D01*
G01X4619Y26573D01*
G01X4656Y26545D01*
G01X4695Y26519D01*
G01X4735Y26495D01*
G01X4776Y26473D01*
G01X4818Y26452D01*
G01X4860Y26433D01*
G01X4904Y26416D01*
G01X4948Y26401D01*
G01X4993Y26388D01*
G01X5038Y26377D01*
G01X5084Y26368D01*
G01X5130Y26361D01*
G01X5176Y26356D01*
G01X5223Y26353D01*
G01X5269Y26352D01*
G01X5316Y26353D01*
G01X5362Y26356D01*
G01X5409Y26361D01*
G01X5455Y26368D01*
G01X5501Y26377D01*
G01X5546Y26388D01*
G01X5591Y26401D01*
G01X5635Y26416D01*
G01X5678Y26433D01*
G01X5721Y26452D01*
G01X5763Y26473D01*
G01X5804Y26495D01*
G01X5843Y26519D01*
G01X5882Y26545D01*
G01X5920Y26573D01*
G01X5956Y26602D01*
G01X5991Y26633D01*
G01X6025Y26665D01*
G01X6057Y26698D01*
G01X6088Y26733D01*
G01X6117Y26770D01*
G01X6145Y26807D01*
G01X6170Y26846D01*
G01X6195Y26886D01*
G01X6217Y26927D01*
G01X6238Y26969D01*
G01X6256Y27011D01*
G01X6273Y27055D01*
G01X6288Y27099D01*
G01X6301Y27144D01*
G01X6312Y27189D01*
G01X6322Y27235D01*
G01X6329Y27281D01*
G01X6334Y27327D01*
G01X6337Y27374D01*
G01X6338Y27420D01*
G01X6337Y27467D01*
G01X6334Y27513D01*
G01X6329Y27560D01*
G01X6322Y27606D01*
G01X6312Y27652D01*
G01X6301Y27697D01*
G01X6288Y27742D01*
G01X6273Y27786D01*
G01X6256Y27829D01*
G01X6238Y27872D01*
G01X6217Y27914D01*
G01X6195Y27955D01*
G01X6145Y28033D01*
G01X6117Y28071D01*
G01X6088Y28107D01*
G01X6057Y28142D01*
G01X6025Y28176D01*
G01X5991Y28208D01*
G01X5956Y28239D01*
G01X5920Y28268D01*
G01X5882Y28296D01*
G01X5843Y28322D01*
G01X5804Y28346D01*
G01X5763Y28368D01*
G01X5721Y28389D01*
G01X5678Y28408D01*
G01X5635Y28424D01*
G01X5591Y28439D01*
G01X5546Y28452D01*
G01X5501Y28464D01*
G01X5455Y28473D01*
G01X5409Y28480D01*
G01X5362Y28485D01*
G01X5316Y28488D01*
G37*
G36*
G01X2776Y36108D02*
G01X2729Y36109D01*
G01X2683Y36108D01*
G01X2636Y36105D01*
G01X2590Y36100D01*
G01X2544Y36093D01*
G01X2498Y36084D01*
G01X2453Y36072D01*
G01X2408Y36059D01*
G01X2364Y36044D01*
G01X2320Y36028D01*
G01X2278Y36009D01*
G01X2236Y35988D01*
G01X2195Y35966D01*
G01X2155Y35942D01*
G01X2116Y35916D01*
G01X2079Y35888D01*
G01X2042Y35859D01*
G01X2007Y35828D01*
G01X1974Y35796D01*
G01X1941Y35762D01*
G01X1911Y35727D01*
G01X1882Y35691D01*
G01X1854Y35653D01*
G01X1828Y35614D01*
G01X1804Y35575D01*
G01X1781Y35534D01*
G01X1761Y35492D01*
G01X1742Y35449D01*
G01X1725Y35406D01*
G01X1710Y35362D01*
G01X1697Y35317D01*
G01X1686Y35272D01*
G01X1677Y35226D01*
G01X1670Y35180D01*
G01X1665Y35133D01*
G01X1662Y35087D01*
G01X1661Y35040D01*
G01X1662Y34994D01*
G01X1665Y34947D01*
G01X1670Y34901D01*
G01X1677Y34855D01*
G01X1686Y34809D01*
G01X1697Y34764D01*
G01X1710Y34719D01*
G01X1725Y34675D01*
G01X1742Y34631D01*
G01X1761Y34589D01*
G01X1781Y34547D01*
G01X1804Y34506D01*
G01X1828Y34466D01*
G01X1854Y34427D01*
G01X1882Y34390D01*
G01X1911Y34353D01*
G01X1941Y34318D01*
G01X1974Y34285D01*
G01X2007Y34253D01*
G01X2042Y34222D01*
G01X2079Y34193D01*
G01X2116Y34165D01*
G01X2155Y34139D01*
G01X2195Y34115D01*
G01X2236Y34093D01*
G01X2278Y34072D01*
G01X2320Y34053D01*
G01X2364Y34036D01*
G01X2408Y34021D01*
G01X2453Y34008D01*
G01X2498Y33997D01*
G01X2544Y33988D01*
G01X2590Y33981D01*
G01X2636Y33976D01*
G01X2683Y33973D01*
G01X2729Y33972D01*
G01X2776Y33973D01*
G01X2822Y33976D01*
G01X2869Y33981D01*
G01X2915Y33988D01*
G01X2961Y33997D01*
G01X3006Y34008D01*
G01X3051Y34021D01*
G01X3095Y34036D01*
G01X3138Y34053D01*
G01X3181Y34072D01*
G01X3223Y34093D01*
G01X3264Y34115D01*
G01X3303Y34139D01*
G01X3342Y34165D01*
G01X3380Y34193D01*
G01X3416Y34222D01*
G01X3451Y34253D01*
G01X3485Y34285D01*
G01X3517Y34318D01*
G01X3548Y34353D01*
G01X3577Y34390D01*
G01X3605Y34427D01*
G01X3630Y34466D01*
G01X3655Y34506D01*
G01X3677Y34547D01*
G01X3698Y34589D01*
G01X3716Y34631D01*
G01X3733Y34675D01*
G01X3748Y34719D01*
G01X3761Y34764D01*
G01X3772Y34809D01*
G01X3782Y34855D01*
G01X3789Y34901D01*
G01X3794Y34947D01*
G01X3797Y34994D01*
G01X3798Y35040D01*
G01X3797Y35087D01*
G01X3794Y35133D01*
G01X3789Y35180D01*
G01X3782Y35226D01*
G01X3772Y35272D01*
G01X3761Y35317D01*
G01X3748Y35362D01*
G01X3733Y35406D01*
G01X3716Y35449D01*
G01X3698Y35492D01*
G01X3677Y35534D01*
G01X3655Y35575D01*
G01X3605Y35653D01*
G01X3577Y35691D01*
G01X3548Y35727D01*
G01X3517Y35762D01*
G01X3485Y35796D01*
G01X3451Y35828D01*
G01X3416Y35859D01*
G01X3380Y35888D01*
G01X3342Y35916D01*
G01X3303Y35942D01*
G01X3264Y35966D01*
G01X3223Y35988D01*
G01X3181Y36009D01*
G01X3138Y36028D01*
G01X3095Y36044D01*
G01X3051Y36059D01*
G01X3006Y36072D01*
G01X2961Y36084D01*
G01X2915Y36093D01*
G01X2869Y36100D01*
G01X2822Y36105D01*
G01X2776Y36108D01*
G37*
G36*
G01X2776Y38648D02*
G01X2729Y38649D01*
G01X2683Y38648D01*
G01X2636Y38645D01*
G01X2590Y38640D01*
G01X2544Y38633D01*
G01X2498Y38624D01*
G01X2453Y38612D01*
G01X2408Y38599D01*
G01X2364Y38584D01*
G01X2320Y38568D01*
G01X2278Y38549D01*
G01X2236Y38528D01*
G01X2195Y38506D01*
G01X2155Y38482D01*
G01X2116Y38456D01*
G01X2079Y38428D01*
G01X2042Y38399D01*
G01X2007Y38368D01*
G01X1974Y38336D01*
G01X1941Y38302D01*
G01X1911Y38267D01*
G01X1882Y38231D01*
G01X1854Y38193D01*
G01X1828Y38154D01*
G01X1804Y38115D01*
G01X1781Y38074D01*
G01X1761Y38032D01*
G01X1742Y37989D01*
G01X1725Y37946D01*
G01X1710Y37902D01*
G01X1697Y37857D01*
G01X1686Y37812D01*
G01X1677Y37766D01*
G01X1670Y37720D01*
G01X1665Y37673D01*
G01X1662Y37627D01*
G01X1661Y37580D01*
G01X1662Y37534D01*
G01X1665Y37487D01*
G01X1670Y37441D01*
G01X1677Y37395D01*
G01X1686Y37349D01*
G01X1697Y37304D01*
G01X1710Y37259D01*
G01X1725Y37215D01*
G01X1742Y37171D01*
G01X1761Y37129D01*
G01X1781Y37087D01*
G01X1804Y37046D01*
G01X1828Y37006D01*
G01X1854Y36967D01*
G01X1882Y36930D01*
G01X1911Y36893D01*
G01X1941Y36858D01*
G01X1974Y36825D01*
G01X2007Y36793D01*
G01X2042Y36762D01*
G01X2079Y36733D01*
G01X2116Y36705D01*
G01X2155Y36679D01*
G01X2195Y36655D01*
G01X2236Y36633D01*
G01X2278Y36612D01*
G01X2320Y36593D01*
G01X2364Y36576D01*
G01X2408Y36561D01*
G01X2453Y36548D01*
G01X2498Y36537D01*
G01X2544Y36528D01*
G01X2590Y36521D01*
G01X2636Y36516D01*
G01X2683Y36513D01*
G01X2729Y36512D01*
G01X2776Y36513D01*
G01X2822Y36516D01*
G01X2869Y36521D01*
G01X2915Y36528D01*
G01X2961Y36537D01*
G01X3006Y36548D01*
G01X3051Y36561D01*
G01X3095Y36576D01*
G01X3138Y36593D01*
G01X3181Y36612D01*
G01X3223Y36633D01*
G01X3264Y36655D01*
G01X3303Y36679D01*
G01X3342Y36705D01*
G01X3380Y36733D01*
G01X3416Y36762D01*
G01X3451Y36793D01*
G01X3485Y36825D01*
G01X3517Y36858D01*
G01X3548Y36893D01*
G01X3577Y36930D01*
G01X3605Y36967D01*
G01X3630Y37006D01*
G01X3655Y37046D01*
G01X3677Y37087D01*
G01X3698Y37129D01*
G01X3716Y37171D01*
G01X3733Y37215D01*
G01X3748Y37259D01*
G01X3761Y37304D01*
G01X3772Y37349D01*
G01X3782Y37395D01*
G01X3789Y37441D01*
G01X3794Y37487D01*
G01X3797Y37534D01*
G01X3798Y37580D01*
G01X3797Y37627D01*
G01X3794Y37673D01*
G01X3789Y37720D01*
G01X3782Y37766D01*
G01X3772Y37812D01*
G01X3761Y37857D01*
G01X3748Y37902D01*
G01X3733Y37946D01*
G01X3716Y37989D01*
G01X3698Y38032D01*
G01X3677Y38074D01*
G01X3655Y38115D01*
G01X3605Y38193D01*
G01X3577Y38231D01*
G01X3548Y38267D01*
G01X3517Y38302D01*
G01X3485Y38336D01*
G01X3451Y38368D01*
G01X3416Y38399D01*
G01X3380Y38428D01*
G01X3342Y38456D01*
G01X3303Y38482D01*
G01X3264Y38506D01*
G01X3223Y38528D01*
G01X3181Y38549D01*
G01X3138Y38568D01*
G01X3095Y38584D01*
G01X3051Y38599D01*
G01X3006Y38612D01*
G01X2961Y38624D01*
G01X2915Y38633D01*
G01X2869Y38640D01*
G01X2822Y38645D01*
G01X2776Y38648D01*
G37*
G36*
G01X5316Y38648D02*
G01X5269Y38649D01*
G01X5223Y38648D01*
G01X5176Y38645D01*
G01X5130Y38640D01*
G01X5084Y38633D01*
G01X5038Y38624D01*
G01X4993Y38612D01*
G01X4948Y38599D01*
G01X4904Y38584D01*
G01X4860Y38568D01*
G01X4818Y38549D01*
G01X4776Y38528D01*
G01X4735Y38506D01*
G01X4695Y38482D01*
G01X4656Y38456D01*
G01X4619Y38428D01*
G01X4582Y38399D01*
G01X4547Y38368D01*
G01X4514Y38336D01*
G01X4481Y38302D01*
G01X4451Y38267D01*
G01X4422Y38231D01*
G01X4394Y38193D01*
G01X4368Y38154D01*
G01X4344Y38115D01*
G01X4321Y38074D01*
G01X4301Y38032D01*
G01X4282Y37989D01*
G01X4265Y37946D01*
G01X4250Y37902D01*
G01X4237Y37857D01*
G01X4226Y37812D01*
G01X4217Y37766D01*
G01X4210Y37720D01*
G01X4205Y37673D01*
G01X4202Y37627D01*
G01X4201Y37580D01*
G01X4202Y37534D01*
G01X4205Y37487D01*
G01X4210Y37441D01*
G01X4217Y37395D01*
G01X4226Y37349D01*
G01X4237Y37304D01*
G01X4250Y37259D01*
G01X4265Y37215D01*
G01X4282Y37171D01*
G01X4301Y37129D01*
G01X4321Y37087D01*
G01X4344Y37046D01*
G01X4368Y37006D01*
G01X4394Y36967D01*
G01X4422Y36930D01*
G01X4451Y36893D01*
G01X4481Y36858D01*
G01X4514Y36825D01*
G01X4547Y36793D01*
G01X4582Y36762D01*
G01X4619Y36733D01*
G01X4656Y36705D01*
G01X4695Y36679D01*
G01X4735Y36655D01*
G01X4776Y36633D01*
G01X4818Y36612D01*
G01X4860Y36593D01*
G01X4904Y36576D01*
G01X4948Y36561D01*
G01X4993Y36548D01*
G01X5038Y36537D01*
G01X5084Y36528D01*
G01X5130Y36521D01*
G01X5176Y36516D01*
G01X5223Y36513D01*
G01X5269Y36512D01*
G01X5316Y36513D01*
G01X5362Y36516D01*
G01X5409Y36521D01*
G01X5455Y36528D01*
G01X5501Y36537D01*
G01X5546Y36548D01*
G01X5591Y36561D01*
G01X5635Y36576D01*
G01X5678Y36593D01*
G01X5721Y36612D01*
G01X5763Y36633D01*
G01X5804Y36655D01*
G01X5843Y36679D01*
G01X5882Y36705D01*
G01X5920Y36733D01*
G01X5956Y36762D01*
G01X5991Y36793D01*
G01X6025Y36825D01*
G01X6057Y36858D01*
G01X6088Y36893D01*
G01X6117Y36930D01*
G01X6145Y36967D01*
G01X6170Y37006D01*
G01X6195Y37046D01*
G01X6217Y37087D01*
G01X6238Y37129D01*
G01X6256Y37171D01*
G01X6273Y37215D01*
G01X6288Y37259D01*
G01X6301Y37304D01*
G01X6312Y37349D01*
G01X6322Y37395D01*
G01X6329Y37441D01*
G01X6334Y37487D01*
G01X6337Y37534D01*
G01X6338Y37580D01*
G01X6337Y37627D01*
G01X6334Y37673D01*
G01X6329Y37720D01*
G01X6322Y37766D01*
G01X6312Y37812D01*
G01X6301Y37857D01*
G01X6288Y37902D01*
G01X6273Y37946D01*
G01X6256Y37989D01*
G01X6238Y38032D01*
G01X6217Y38074D01*
G01X6195Y38115D01*
G01X6145Y38193D01*
G01X6117Y38231D01*
G01X6088Y38267D01*
G01X6057Y38302D01*
G01X6025Y38336D01*
G01X5991Y38368D01*
G01X5956Y38399D01*
G01X5920Y38428D01*
G01X5882Y38456D01*
G01X5843Y38482D01*
G01X5804Y38506D01*
G01X5763Y38528D01*
G01X5721Y38549D01*
G01X5678Y38568D01*
G01X5635Y38584D01*
G01X5591Y38599D01*
G01X5546Y38612D01*
G01X5501Y38624D01*
G01X5455Y38633D01*
G01X5409Y38640D01*
G01X5362Y38645D01*
G01X5316Y38648D01*
G37*
G36*
G01X20287Y41004D02*
G01X18712Y41004D01*
G01X18688Y41003D01*
G01X18665Y41000D01*
G01X18642Y40995D01*
G01X18619Y40987D01*
G01X18597Y40977D01*
G01X18577Y40966D01*
G01X18557Y40953D01*
G01X18539Y40937D01*
G01X18522Y40921D01*
G01X18507Y40902D01*
G01X18494Y40883D01*
G01X18482Y40862D01*
G01X18473Y40841D01*
G01X18465Y40818D01*
G01X18460Y40795D01*
G01X18456Y40772D01*
G01X18455Y40748D01*
G01X18455Y39173D01*
G01X18456Y39149D01*
G01X18460Y39126D01*
G01X18465Y39103D01*
G01X18473Y39080D01*
G01X18482Y39059D01*
G01X18494Y39038D01*
G01X18507Y39018D01*
G01X18522Y39000D01*
G01X18539Y38983D01*
G01X18557Y38968D01*
G01X18577Y38955D01*
G01X18597Y38943D01*
G01X18619Y38934D01*
G01X18642Y38926D01*
G01X18665Y38921D01*
G01X18688Y38918D01*
G01X18712Y38916D01*
G01X20287Y38916D01*
G01X20310Y38918D01*
G01X20334Y38921D01*
G01X20357Y38926D01*
G01X20379Y38934D01*
G01X20401Y38943D01*
G01X20422Y38955D01*
G01X20441Y38968D01*
G01X20459Y38983D01*
G01X20476Y39000D01*
G01X20491Y39018D01*
G01X20505Y39038D01*
G01X20516Y39059D01*
G01X20526Y39080D01*
G01X20533Y39103D01*
G01X20539Y39126D01*
G01X20542Y39149D01*
G01X20543Y39173D01*
G01X20543Y40748D01*
G01X20542Y40772D01*
G01X20539Y40795D01*
G01X20533Y40818D01*
G01X20526Y40841D01*
G01X20516Y40862D01*
G01X20505Y40883D01*
G01X20491Y40902D01*
G01X20476Y40921D01*
G01X20459Y40937D01*
G01X20441Y40953D01*
G01X20422Y40966D01*
G01X20401Y40977D01*
G01X20379Y40987D01*
G01X20357Y40995D01*
G01X20334Y41000D01*
G01X20310Y41003D01*
G01X20287Y41004D01*
G37*
G36*
G01X10776Y3003D02*
G01X10729Y3004D01*
G01X10682Y3003D01*
G01X10636Y3000D01*
G01X10589Y2995D01*
G01X10543Y2988D01*
G01X10497Y2978D01*
G01X10451Y2967D01*
G01X10407Y2953D01*
G01X10362Y2938D01*
G01X10319Y2920D01*
G01X10276Y2901D01*
G01X10235Y2880D01*
G01X10194Y2857D01*
G01X10154Y2832D01*
G01X10116Y2805D01*
G01X10078Y2777D01*
G01X10042Y2747D01*
G01X10008Y2715D01*
G01X9975Y2682D01*
G01X9943Y2647D01*
G01X9913Y2611D01*
G01X9885Y2574D01*
G01X9858Y2535D01*
G01X9833Y2496D01*
G01X9810Y2455D01*
G01X9789Y2413D01*
G01X9769Y2371D01*
G01X9752Y2327D01*
G01X9736Y2283D01*
G01X9723Y2238D01*
G01X9711Y2193D01*
G01X9702Y2147D01*
G01X9695Y2101D01*
G01X9689Y2054D01*
G01X9686Y2007D01*
G01X9685Y1960D01*
G01X9686Y1914D01*
G01X9689Y1867D01*
G01X9695Y1820D01*
G01X9702Y1774D01*
G01X9711Y1728D01*
G01X9723Y1683D01*
G01X9736Y1638D01*
G01X9752Y1594D01*
G01X9769Y1550D01*
G01X9789Y1507D01*
G01X9810Y1466D01*
G01X9833Y1425D01*
G01X9858Y1385D01*
G01X9885Y1347D01*
G01X9913Y1309D01*
G01X9943Y1274D01*
G01X9975Y1239D01*
G01X10008Y1206D01*
G01X10042Y1174D01*
G01X10078Y1144D01*
G01X10116Y1116D01*
G01X10154Y1089D01*
G01X10194Y1064D01*
G01X10235Y1041D01*
G01X10276Y1020D01*
G01X10319Y1000D01*
G01X10362Y983D01*
G01X10407Y968D01*
G01X10451Y954D01*
G01X10497Y943D01*
G01X10543Y933D01*
G01X10589Y926D01*
G01X10636Y921D01*
G01X10682Y917D01*
G01X10729Y916D01*
G01X10776Y917D01*
G01X10823Y921D01*
G01X10869Y926D01*
G01X10916Y933D01*
G01X10962Y943D01*
G01X11007Y954D01*
G01X11052Y968D01*
G01X11096Y983D01*
G01X11140Y1000D01*
G01X11182Y1020D01*
G01X11224Y1041D01*
G01X11265Y1064D01*
G01X11304Y1089D01*
G01X11343Y1116D01*
G01X11380Y1144D01*
G01X11416Y1174D01*
G01X11451Y1206D01*
G01X11484Y1239D01*
G01X11515Y1274D01*
G01X11545Y1309D01*
G01X11574Y1347D01*
G01X11600Y1385D01*
G01X11625Y1425D01*
G01X11649Y1466D01*
G01X11670Y1507D01*
G01X11689Y1550D01*
G01X11707Y1594D01*
G01X11722Y1638D01*
G01X11736Y1683D01*
G01X11747Y1728D01*
G01X11756Y1774D01*
G01X11764Y1820D01*
G01X11769Y1867D01*
G01X11772Y1914D01*
G01X11773Y1960D01*
G01X11772Y2007D01*
G01X11769Y2054D01*
G01X11764Y2101D01*
G01X11756Y2147D01*
G01X11747Y2193D01*
G01X11736Y2238D01*
G01X11722Y2283D01*
G01X11707Y2327D01*
G01X11689Y2371D01*
G01X11670Y2413D01*
G01X11649Y2455D01*
G01X11625Y2496D01*
G01X11600Y2535D01*
G01X11574Y2574D01*
G01X11545Y2611D01*
G01X11515Y2647D01*
G01X11484Y2682D01*
G01X11451Y2715D01*
G01X11416Y2747D01*
G01X11380Y2777D01*
G01X11343Y2805D01*
G01X11304Y2832D01*
G01X11265Y2857D01*
G01X11224Y2880D01*
G01X11182Y2901D01*
G01X11140Y2920D01*
G01X11096Y2938D01*
G01X11052Y2953D01*
G01X11007Y2967D01*
G01X10962Y2978D01*
G01X10916Y2988D01*
G01X10869Y2995D01*
G01X10823Y3000D01*
G01X10776Y3003D01*
G37*
G36*
G01X19546Y43543D02*
G01X19499Y43544D01*
G01X19452Y43543D01*
G01X19406Y43540D01*
G01X19359Y43535D01*
G01X19313Y43527D01*
G01X19267Y43518D01*
G01X19221Y43507D01*
G01X19176Y43493D01*
G01X19132Y43478D01*
G01X19089Y43460D01*
G01X19046Y43441D01*
G01X19004Y43420D01*
G01X18924Y43372D01*
G01X18885Y43345D01*
G01X18848Y43316D01*
G01X18812Y43286D01*
G01X18778Y43255D01*
G01X18745Y43222D01*
G01X18713Y43187D01*
G01X18683Y43151D01*
G01X18655Y43114D01*
G01X18628Y43075D01*
G01X18603Y43036D01*
G01X18580Y42995D01*
G01X18559Y42953D01*
G01X18539Y42911D01*
G01X18522Y42867D01*
G01X18506Y42823D01*
G01X18493Y42778D01*
G01X18481Y42733D01*
G01X18472Y42687D01*
G01X18465Y42640D01*
G01X18459Y42594D01*
G01X18456Y42547D01*
G01X18455Y42500D01*
G01X18456Y42453D01*
G01X18459Y42407D01*
G01X18465Y42360D01*
G01X18472Y42314D01*
G01X18481Y42268D01*
G01X18493Y42223D01*
G01X18506Y42178D01*
G01X18522Y42133D01*
G01X18539Y42090D01*
G01X18559Y42047D01*
G01X18580Y42006D01*
G01X18603Y41965D01*
G01X18628Y41925D01*
G01X18655Y41887D01*
G01X18683Y41849D01*
G01X18713Y41813D01*
G01X18745Y41779D01*
G01X18778Y41746D01*
G01X18812Y41714D01*
G01X18848Y41684D01*
G01X18885Y41656D01*
G01X18924Y41629D01*
G01X18964Y41604D01*
G01X19004Y41581D01*
G01X19046Y41560D01*
G01X19089Y41540D01*
G01X19132Y41523D01*
G01X19176Y41507D01*
G01X19221Y41494D01*
G01X19267Y41483D01*
G01X19313Y41473D01*
G01X19359Y41466D01*
G01X19406Y41461D01*
G01X19452Y41457D01*
G01X19499Y41456D01*
G01X19546Y41457D01*
G01X19593Y41461D01*
G01X19639Y41466D01*
G01X19685Y41473D01*
G01X19731Y41483D01*
G01X19777Y41494D01*
G01X19822Y41507D01*
G01X19866Y41523D01*
G01X19909Y41540D01*
G01X19952Y41560D01*
G01X19994Y41581D01*
G01X20035Y41604D01*
G01X20074Y41629D01*
G01X20113Y41656D01*
G01X20150Y41684D01*
G01X20186Y41714D01*
G01X20221Y41746D01*
G01X20254Y41779D01*
G01X20285Y41813D01*
G01X20315Y41849D01*
G01X20344Y41887D01*
G01X20370Y41925D01*
G01X20395Y41965D01*
G01X20418Y42006D01*
G01X20440Y42047D01*
G01X20459Y42090D01*
G01X20476Y42133D01*
G01X20492Y42178D01*
G01X20505Y42223D01*
G01X20517Y42268D01*
G01X20526Y42314D01*
G01X20534Y42360D01*
G01X20539Y42407D01*
G01X20542Y42453D01*
G01X20543Y42500D01*
G01X20542Y42547D01*
G01X20539Y42594D01*
G01X20534Y42640D01*
G01X20526Y42687D01*
G01X20517Y42733D01*
G01X20505Y42778D01*
G01X20492Y42823D01*
G01X20476Y42867D01*
G01X20459Y42911D01*
G01X20440Y42953D01*
G01X20418Y42995D01*
G01X20395Y43036D01*
G01X20370Y43075D01*
G01X20344Y43114D01*
G01X20315Y43151D01*
G01X20285Y43187D01*
G01X20254Y43222D01*
G01X20221Y43255D01*
G01X20186Y43286D01*
G01X20150Y43316D01*
G01X20113Y43345D01*
G01X20074Y43372D01*
G01X20035Y43396D01*
G01X19994Y43420D01*
G01X19952Y43441D01*
G01X19909Y43460D01*
G01X19866Y43478D01*
G01X19822Y43493D01*
G01X19777Y43507D01*
G01X19731Y43518D01*
G01X19685Y43527D01*
G01X19639Y43535D01*
G01X19593Y43540D01*
G01X19546Y43543D01*
G37*
G36*
G01X10776Y8083D02*
G01X10729Y8084D01*
G01X10682Y8083D01*
G01X10636Y8080D01*
G01X10589Y8075D01*
G01X10543Y8068D01*
G01X10497Y8058D01*
G01X10451Y8047D01*
G01X10407Y8033D01*
G01X10362Y8018D01*
G01X10319Y8000D01*
G01X10276Y7981D01*
G01X10235Y7960D01*
G01X10194Y7937D01*
G01X10154Y7912D01*
G01X10116Y7885D01*
G01X10078Y7857D01*
G01X10042Y7827D01*
G01X10008Y7795D01*
G01X9975Y7762D01*
G01X9943Y7727D01*
G01X9913Y7691D01*
G01X9885Y7654D01*
G01X9858Y7615D01*
G01X9833Y7576D01*
G01X9810Y7535D01*
G01X9789Y7493D01*
G01X9769Y7451D01*
G01X9752Y7407D01*
G01X9736Y7363D01*
G01X9723Y7318D01*
G01X9711Y7273D01*
G01X9702Y7227D01*
G01X9695Y7181D01*
G01X9689Y7134D01*
G01X9686Y7087D01*
G01X9685Y7040D01*
G01X9686Y6994D01*
G01X9689Y6947D01*
G01X9695Y6900D01*
G01X9702Y6854D01*
G01X9711Y6808D01*
G01X9723Y6763D01*
G01X9736Y6718D01*
G01X9752Y6674D01*
G01X9769Y6630D01*
G01X9789Y6587D01*
G01X9810Y6546D01*
G01X9833Y6505D01*
G01X9858Y6465D01*
G01X9885Y6427D01*
G01X9913Y6389D01*
G01X9943Y6354D01*
G01X9975Y6319D01*
G01X10008Y6286D01*
G01X10042Y6254D01*
G01X10078Y6224D01*
G01X10116Y6196D01*
G01X10154Y6169D01*
G01X10194Y6144D01*
G01X10235Y6121D01*
G01X10276Y6100D01*
G01X10319Y6080D01*
G01X10362Y6063D01*
G01X10407Y6048D01*
G01X10451Y6034D01*
G01X10497Y6023D01*
G01X10543Y6013D01*
G01X10589Y6006D01*
G01X10636Y6001D01*
G01X10682Y5997D01*
G01X10729Y5996D01*
G01X10776Y5997D01*
G01X10823Y6001D01*
G01X10869Y6006D01*
G01X10916Y6013D01*
G01X10962Y6023D01*
G01X11007Y6034D01*
G01X11052Y6048D01*
G01X11096Y6063D01*
G01X11140Y6080D01*
G01X11182Y6100D01*
G01X11224Y6121D01*
G01X11265Y6144D01*
G01X11304Y6169D01*
G01X11343Y6196D01*
G01X11380Y6224D01*
G01X11416Y6254D01*
G01X11451Y6286D01*
G01X11484Y6319D01*
G01X11515Y6354D01*
G01X11545Y6389D01*
G01X11574Y6427D01*
G01X11600Y6465D01*
G01X11625Y6505D01*
G01X11649Y6546D01*
G01X11670Y6587D01*
G01X11689Y6630D01*
G01X11707Y6674D01*
G01X11722Y6718D01*
G01X11736Y6763D01*
G01X11747Y6808D01*
G01X11756Y6854D01*
G01X11764Y6900D01*
G01X11769Y6947D01*
G01X11772Y6994D01*
G01X11773Y7040D01*
G01X11772Y7087D01*
G01X11769Y7134D01*
G01X11764Y7181D01*
G01X11756Y7227D01*
G01X11747Y7273D01*
G01X11736Y7318D01*
G01X11722Y7363D01*
G01X11707Y7407D01*
G01X11689Y7451D01*
G01X11670Y7493D01*
G01X11649Y7535D01*
G01X11625Y7576D01*
G01X11600Y7615D01*
G01X11574Y7654D01*
G01X11545Y7691D01*
G01X11515Y7727D01*
G01X11484Y7762D01*
G01X11451Y7795D01*
G01X11416Y7827D01*
G01X11380Y7857D01*
G01X11343Y7885D01*
G01X11304Y7912D01*
G01X11265Y7937D01*
G01X11224Y7960D01*
G01X11182Y7981D01*
G01X11140Y8000D01*
G01X11096Y8018D01*
G01X11052Y8033D01*
G01X11007Y8047D01*
G01X10962Y8058D01*
G01X10916Y8068D01*
G01X10869Y8075D01*
G01X10823Y8080D01*
G01X10776Y8083D01*
G37*
G36*
G01X28287Y41004D02*
G01X26712Y41004D01*
G01X26688Y41003D01*
G01X26665Y41000D01*
G01X26642Y40995D01*
G01X26619Y40987D01*
G01X26597Y40977D01*
G01X26577Y40966D01*
G01X26557Y40953D01*
G01X26539Y40937D01*
G01X26522Y40921D01*
G01X26507Y40902D01*
G01X26494Y40883D01*
G01X26482Y40862D01*
G01X26472Y40841D01*
G01X26465Y40818D01*
G01X26460Y40795D01*
G01X26456Y40772D01*
G01X26455Y40748D01*
G01X26455Y39173D01*
G01X26456Y39149D01*
G01X26460Y39126D01*
G01X26465Y39103D01*
G01X26472Y39080D01*
G01X26482Y39059D01*
G01X26494Y39038D01*
G01X26507Y39018D01*
G01X26522Y39000D01*
G01X26539Y38983D01*
G01X26557Y38968D01*
G01X26577Y38955D01*
G01X26597Y38943D01*
G01X26619Y38934D01*
G01X26642Y38926D01*
G01X26665Y38921D01*
G01X26688Y38918D01*
G01X26712Y38916D01*
G01X28287Y38916D01*
G01X28310Y38918D01*
G01X28334Y38921D01*
G01X28357Y38926D01*
G01X28379Y38934D01*
G01X28401Y38943D01*
G01X28422Y38955D01*
G01X28441Y38968D01*
G01X28459Y38983D01*
G01X28476Y39000D01*
G01X28491Y39018D01*
G01X28505Y39038D01*
G01X28516Y39059D01*
G01X28526Y39080D01*
G01X28533Y39103D01*
G01X28539Y39126D01*
G01X28542Y39149D01*
G01X28543Y39173D01*
G01X28543Y40748D01*
G01X28542Y40772D01*
G01X28539Y40795D01*
G01X28533Y40818D01*
G01X28526Y40841D01*
G01X28516Y40862D01*
G01X28505Y40883D01*
G01X28491Y40902D01*
G01X28476Y40921D01*
G01X28459Y40937D01*
G01X28441Y40953D01*
G01X28422Y40966D01*
G01X28401Y40977D01*
G01X28379Y40987D01*
G01X28357Y40995D01*
G01X28334Y41000D01*
G01X28310Y41003D01*
G01X28287Y41004D01*
G37*
G36*
G01X33046Y21503D02*
G01X32999Y21504D01*
G01X32952Y21503D01*
G01X32906Y21500D01*
G01X32859Y21495D01*
G01X32813Y21488D01*
G01X32767Y21478D01*
G01X32721Y21467D01*
G01X32677Y21453D01*
G01X32632Y21438D01*
G01X32589Y21420D01*
G01X32546Y21401D01*
G01X32504Y21380D01*
G01X32464Y21357D01*
G01X32424Y21332D01*
G01X32386Y21305D01*
G01X32348Y21277D01*
G01X32312Y21247D01*
G01X32278Y21215D01*
G01X32245Y21182D01*
G01X32213Y21147D01*
G01X32183Y21111D01*
G01X32155Y21074D01*
G01X32128Y21036D01*
G01X32103Y20996D01*
G01X32080Y20955D01*
G01X32059Y20913D01*
G01X32039Y20871D01*
G01X32022Y20827D01*
G01X32006Y20783D01*
G01X31993Y20738D01*
G01X31981Y20693D01*
G01X31972Y20647D01*
G01X31965Y20601D01*
G01X31959Y20554D01*
G01X31956Y20507D01*
G01X31955Y20460D01*
G01X31956Y20414D01*
G01X31959Y20367D01*
G01X31965Y20320D01*
G01X31972Y20274D01*
G01X31981Y20228D01*
G01X31993Y20183D01*
G01X32006Y20138D01*
G01X32022Y20094D01*
G01X32039Y20050D01*
G01X32059Y20008D01*
G01X32080Y19966D01*
G01X32103Y19925D01*
G01X32128Y19885D01*
G01X32155Y19847D01*
G01X32183Y19810D01*
G01X32213Y19774D01*
G01X32245Y19739D01*
G01X32278Y19706D01*
G01X32312Y19674D01*
G01X32348Y19644D01*
G01X32386Y19616D01*
G01X32424Y19589D01*
G01X32464Y19564D01*
G01X32504Y19541D01*
G01X32546Y19520D01*
G01X32589Y19501D01*
G01X32632Y19483D01*
G01X32677Y19468D01*
G01X32721Y19454D01*
G01X32767Y19443D01*
G01X32813Y19433D01*
G01X32859Y19426D01*
G01X32906Y19421D01*
G01X32952Y19418D01*
G01X32999Y19417D01*
G01X33046Y19418D01*
G01X33093Y19421D01*
G01X33139Y19426D01*
G01X33186Y19433D01*
G01X33231Y19443D01*
G01X33277Y19454D01*
G01X33322Y19468D01*
G01X33366Y19483D01*
G01X33409Y19501D01*
G01X33452Y19520D01*
G01X33494Y19541D01*
G01X33535Y19564D01*
G01X33574Y19589D01*
G01X33613Y19616D01*
G01X33650Y19644D01*
G01X33686Y19674D01*
G01X33721Y19706D01*
G01X33754Y19739D01*
G01X33785Y19774D01*
G01X33815Y19810D01*
G01X33844Y19847D01*
G01X33870Y19885D01*
G01X33895Y19925D01*
G01X33918Y19966D01*
G01X33940Y20008D01*
G01X33959Y20050D01*
G01X33977Y20094D01*
G01X33992Y20138D01*
G01X34005Y20183D01*
G01X34017Y20228D01*
G01X34026Y20274D01*
G01X34034Y20320D01*
G01X34039Y20367D01*
G01X34042Y20414D01*
G01X34043Y20460D01*
G01X34042Y20507D01*
G01X34039Y20554D01*
G01X34034Y20601D01*
G01X34026Y20647D01*
G01X34017Y20693D01*
G01X34005Y20738D01*
G01X33992Y20783D01*
G01X33977Y20827D01*
G01X33959Y20871D01*
G01X33940Y20913D01*
G01X33918Y20955D01*
G01X33895Y20996D01*
G01X33870Y21036D01*
G01X33844Y21074D01*
G01X33815Y21111D01*
G01X33785Y21147D01*
G01X33754Y21182D01*
G01X33721Y21215D01*
G01X33686Y21247D01*
G01X33650Y21277D01*
G01X33613Y21305D01*
G01X33574Y21332D01*
G01X33535Y21357D01*
G01X33494Y21380D01*
G01X33452Y21401D01*
G01X33409Y21420D01*
G01X33366Y21438D01*
G01X33322Y21453D01*
G01X33277Y21467D01*
G01X33231Y21478D01*
G01X33186Y21488D01*
G01X33139Y21495D01*
G01X33093Y21500D01*
G01X33046Y21503D01*
G37*
G36*
G01X27546Y43543D02*
G01X27499Y43544D01*
G01X27452Y43543D01*
G01X27405Y43540D01*
G01X27359Y43535D01*
G01X27313Y43527D01*
G01X27267Y43518D01*
G01X27221Y43507D01*
G01X27176Y43493D01*
G01X27132Y43478D01*
G01X27089Y43460D01*
G01X27046Y43441D01*
G01X27004Y43420D01*
G01X26924Y43372D01*
G01X26885Y43345D01*
G01X26848Y43316D01*
G01X26812Y43286D01*
G01X26778Y43255D01*
G01X26745Y43222D01*
G01X26713Y43187D01*
G01X26683Y43151D01*
G01X26654Y43114D01*
G01X26628Y43075D01*
G01X26603Y43036D01*
G01X26580Y42995D01*
G01X26559Y42953D01*
G01X26539Y42911D01*
G01X26522Y42867D01*
G01X26506Y42823D01*
G01X26493Y42778D01*
G01X26481Y42733D01*
G01X26472Y42687D01*
G01X26465Y42640D01*
G01X26459Y42594D01*
G01X26456Y42547D01*
G01X26455Y42500D01*
G01X26456Y42453D01*
G01X26459Y42407D01*
G01X26465Y42360D01*
G01X26472Y42314D01*
G01X26481Y42268D01*
G01X26493Y42223D01*
G01X26506Y42178D01*
G01X26522Y42133D01*
G01X26539Y42090D01*
G01X26559Y42047D01*
G01X26580Y42006D01*
G01X26603Y41965D01*
G01X26628Y41925D01*
G01X26654Y41887D01*
G01X26683Y41849D01*
G01X26713Y41813D01*
G01X26745Y41779D01*
G01X26778Y41746D01*
G01X26812Y41714D01*
G01X26848Y41684D01*
G01X26885Y41656D01*
G01X26924Y41629D01*
G01X26964Y41604D01*
G01X27004Y41581D01*
G01X27046Y41560D01*
G01X27089Y41540D01*
G01X27132Y41523D01*
G01X27176Y41507D01*
G01X27221Y41494D01*
G01X27267Y41483D01*
G01X27313Y41473D01*
G01X27359Y41466D01*
G01X27405Y41461D01*
G01X27452Y41457D01*
G01X27499Y41456D01*
G01X27546Y41457D01*
G01X27593Y41461D01*
G01X27639Y41466D01*
G01X27685Y41473D01*
G01X27731Y41483D01*
G01X27777Y41494D01*
G01X27822Y41507D01*
G01X27866Y41523D01*
G01X27909Y41540D01*
G01X27952Y41560D01*
G01X27994Y41581D01*
G01X28035Y41604D01*
G01X28074Y41629D01*
G01X28113Y41656D01*
G01X28150Y41684D01*
G01X28186Y41714D01*
G01X28220Y41746D01*
G01X28254Y41779D01*
G01X28285Y41813D01*
G01X28315Y41849D01*
G01X28344Y41887D01*
G01X28370Y41925D01*
G01X28395Y41965D01*
G01X28418Y42006D01*
G01X28440Y42047D01*
G01X28459Y42090D01*
G01X28476Y42133D01*
G01X28492Y42178D01*
G01X28505Y42223D01*
G01X28517Y42268D01*
G01X28526Y42314D01*
G01X28534Y42360D01*
G01X28539Y42407D01*
G01X28542Y42453D01*
G01X28543Y42500D01*
G01X28542Y42547D01*
G01X28539Y42594D01*
G01X28534Y42640D01*
G01X28526Y42687D01*
G01X28517Y42733D01*
G01X28505Y42778D01*
G01X28492Y42823D01*
G01X28476Y42867D01*
G01X28459Y42911D01*
G01X28440Y42953D01*
G01X28418Y42995D01*
G01X28395Y43036D01*
G01X28370Y43075D01*
G01X28344Y43114D01*
G01X28315Y43151D01*
G01X28285Y43187D01*
G01X28254Y43222D01*
G01X28220Y43255D01*
G01X28186Y43286D01*
G01X28150Y43316D01*
G01X28113Y43345D01*
G01X28074Y43372D01*
G01X28035Y43396D01*
G01X27994Y43420D01*
G01X27952Y43441D01*
G01X27909Y43460D01*
G01X27866Y43478D01*
G01X27822Y43493D01*
G01X27777Y43507D01*
G01X27731Y43518D01*
G01X27685Y43527D01*
G01X27639Y43535D01*
G01X27593Y43540D01*
G01X27546Y43543D01*
G37*
G36*
G01X33046Y24043D02*
G01X32999Y24044D01*
G01X32952Y24043D01*
G01X32906Y24040D01*
G01X32859Y24035D01*
G01X32813Y24028D01*
G01X32767Y24018D01*
G01X32721Y24007D01*
G01X32677Y23993D01*
G01X32632Y23978D01*
G01X32589Y23960D01*
G01X32546Y23941D01*
G01X32504Y23920D01*
G01X32464Y23897D01*
G01X32424Y23872D01*
G01X32386Y23845D01*
G01X32348Y23817D01*
G01X32312Y23787D01*
G01X32278Y23755D01*
G01X32245Y23722D01*
G01X32213Y23687D01*
G01X32183Y23651D01*
G01X32155Y23614D01*
G01X32128Y23576D01*
G01X32103Y23536D01*
G01X32080Y23495D01*
G01X32059Y23453D01*
G01X32039Y23411D01*
G01X32022Y23367D01*
G01X32006Y23323D01*
G01X31993Y23278D01*
G01X31981Y23233D01*
G01X31972Y23187D01*
G01X31965Y23141D01*
G01X31959Y23094D01*
G01X31956Y23047D01*
G01X31955Y23000D01*
G01X31956Y22954D01*
G01X31959Y22907D01*
G01X31965Y22860D01*
G01X31972Y22814D01*
G01X31981Y22768D01*
G01X31993Y22723D01*
G01X32006Y22678D01*
G01X32022Y22634D01*
G01X32039Y22590D01*
G01X32059Y22548D01*
G01X32080Y22506D01*
G01X32103Y22465D01*
G01X32128Y22425D01*
G01X32155Y22387D01*
G01X32183Y22350D01*
G01X32213Y22314D01*
G01X32245Y22279D01*
G01X32278Y22246D01*
G01X32312Y22214D01*
G01X32348Y22184D01*
G01X32386Y22156D01*
G01X32424Y22129D01*
G01X32464Y22104D01*
G01X32504Y22081D01*
G01X32546Y22060D01*
G01X32589Y22041D01*
G01X32632Y22023D01*
G01X32677Y22008D01*
G01X32721Y21994D01*
G01X32767Y21983D01*
G01X32813Y21973D01*
G01X32859Y21966D01*
G01X32906Y21961D01*
G01X32952Y21958D01*
G01X32999Y21957D01*
G01X33046Y21958D01*
G01X33093Y21961D01*
G01X33139Y21966D01*
G01X33186Y21973D01*
G01X33231Y21983D01*
G01X33277Y21994D01*
G01X33322Y22008D01*
G01X33366Y22023D01*
G01X33409Y22041D01*
G01X33452Y22060D01*
G01X33494Y22081D01*
G01X33535Y22104D01*
G01X33574Y22129D01*
G01X33613Y22156D01*
G01X33650Y22184D01*
G01X33686Y22214D01*
G01X33721Y22246D01*
G01X33754Y22279D01*
G01X33785Y22314D01*
G01X33815Y22350D01*
G01X33844Y22387D01*
G01X33870Y22425D01*
G01X33895Y22465D01*
G01X33918Y22506D01*
G01X33940Y22548D01*
G01X33959Y22590D01*
G01X33977Y22634D01*
G01X33992Y22678D01*
G01X34005Y22723D01*
G01X34017Y22768D01*
G01X34026Y22814D01*
G01X34034Y22860D01*
G01X34039Y22907D01*
G01X34042Y22954D01*
G01X34043Y23000D01*
G01X34042Y23047D01*
G01X34039Y23094D01*
G01X34034Y23141D01*
G01X34026Y23187D01*
G01X34017Y23233D01*
G01X34005Y23278D01*
G01X33992Y23323D01*
G01X33977Y23367D01*
G01X33959Y23411D01*
G01X33940Y23453D01*
G01X33918Y23495D01*
G01X33895Y23536D01*
G01X33870Y23576D01*
G01X33844Y23614D01*
G01X33815Y23651D01*
G01X33785Y23687D01*
G01X33754Y23722D01*
G01X33721Y23755D01*
G01X33686Y23787D01*
G01X33650Y23817D01*
G01X33613Y23845D01*
G01X33574Y23872D01*
G01X33535Y23897D01*
G01X33494Y23920D01*
G01X33452Y23941D01*
G01X33409Y23960D01*
G01X33366Y23978D01*
G01X33322Y23993D01*
G01X33277Y24007D01*
G01X33231Y24018D01*
G01X33186Y24028D01*
G01X33139Y24035D01*
G01X33093Y24040D01*
G01X33046Y24043D01*
G37*
G36*
G01X20615Y10461D02*
G01X20581Y10462D01*
G01X20547Y10461D01*
G01X20513Y10458D01*
G01X20480Y10453D01*
G01X20447Y10445D01*
G01X20414Y10436D01*
G01X20382Y10425D01*
G01X20351Y10412D01*
G01X20320Y10397D01*
G01X20291Y10381D01*
G01X20262Y10362D01*
G01X20235Y10342D01*
G01X20209Y10321D01*
G01X20184Y10297D01*
G01X20161Y10273D01*
G01X20139Y10247D01*
G01X20119Y10219D01*
G01X20101Y10191D01*
G01X20084Y10161D01*
G01X20069Y10131D01*
G01X20056Y10099D01*
G01X20045Y10067D01*
G01X20036Y10035D01*
G01X20029Y10002D01*
G01X20024Y9968D01*
G01X20021Y9934D01*
G01X20020Y9900D01*
G01X20021Y9867D01*
G01X20024Y9833D01*
G01X20029Y9799D01*
G01X20036Y9766D01*
G01X20045Y9733D01*
G01X20056Y9701D01*
G01X20069Y9670D01*
G01X20084Y9640D01*
G01X20101Y9610D01*
G01X20119Y9582D01*
G01X20139Y9554D01*
G01X20161Y9528D01*
G01X20184Y9503D01*
G01X20209Y9480D01*
G01X20235Y9459D01*
G01X20262Y9438D01*
G01X20291Y9420D01*
G01X20320Y9403D01*
G01X20351Y9389D01*
G01X20382Y9376D01*
G01X20414Y9364D01*
G01X20447Y9355D01*
G01X20480Y9348D01*
G01X20513Y9343D01*
G01X20547Y9340D01*
G01X20581Y9339D01*
G01X20615Y9340D01*
G01X20649Y9343D01*
G01X20682Y9348D01*
G01X20715Y9355D01*
G01X20748Y9364D01*
G01X20780Y9376D01*
G01X20812Y9389D01*
G01X20842Y9403D01*
G01X20872Y9420D01*
G01X20900Y9438D01*
G01X20927Y9459D01*
G01X20953Y9480D01*
G01X20978Y9503D01*
G01X21001Y9528D01*
G01X21023Y9554D01*
G01X21043Y9582D01*
G01X21062Y9610D01*
G01X21078Y9640D01*
G01X21093Y9670D01*
G01X21106Y9701D01*
G01X21117Y9733D01*
G01X21126Y9766D01*
G01X21133Y9799D01*
G01X21138Y9833D01*
G01X21141Y9867D01*
G01X21142Y9900D01*
G01X21141Y9934D01*
G01X21138Y9968D01*
G01X21133Y10002D01*
G01X21126Y10035D01*
G01X21117Y10067D01*
G01X21106Y10099D01*
G01X21093Y10131D01*
G01X21078Y10161D01*
G01X21062Y10191D01*
G01X21043Y10219D01*
G01X21023Y10247D01*
G01X21001Y10273D01*
G01X20978Y10297D01*
G01X20953Y10321D01*
G01X20927Y10342D01*
G01X20900Y10362D01*
G01X20872Y10381D01*
G01X20842Y10397D01*
G01X20812Y10412D01*
G01X20780Y10425D01*
G01X20748Y10436D01*
G01X20715Y10445D01*
G01X20682Y10453D01*
G01X20649Y10458D01*
G01X20615Y10461D01*
G37*
G36*
G01X2972Y13227D02*
G01X1942Y13227D01*
G01X1971Y13174D01*
G01X2002Y13123D01*
G01X2034Y13072D01*
G01X2068Y13023D01*
G01X2103Y12974D01*
G01X2140Y12927D01*
G01X2179Y12882D01*
G01X2219Y12837D01*
G01X2261Y12794D01*
G01X2304Y12753D01*
G01X2349Y12713D01*
G01X2395Y12674D01*
G01X2442Y12638D01*
G01X2491Y12602D01*
G01X2540Y12569D01*
G01X2591Y12537D01*
G01X2643Y12507D01*
G01X2696Y12478D01*
G01X2749Y12452D01*
G01X2804Y12427D01*
G01X2859Y12404D01*
G01X2916Y12384D01*
G01X2972Y12365D01*
G01X2972Y13227D01*
G37*
G36*
G01X6056Y13227D02*
G01X5026Y13227D01*
G01X5026Y12365D01*
G01X5083Y12384D01*
G01X5139Y12404D01*
G01X5194Y12427D01*
G01X5249Y12452D01*
G01X5303Y12478D01*
G01X5356Y12507D01*
G01X5407Y12537D01*
G01X5458Y12569D01*
G01X5508Y12602D01*
G01X5604Y12674D01*
G01X5650Y12713D01*
G01X5694Y12753D01*
G01X5737Y12794D01*
G01X5779Y12837D01*
G01X5819Y12882D01*
G01X5858Y12927D01*
G01X5895Y12974D01*
G01X5931Y13023D01*
G01X5965Y13072D01*
G01X5997Y13123D01*
G01X6027Y13174D01*
G01X6056Y13227D01*
G37*
G36*
G01X2972Y9693D02*
G01X2972Y10555D01*
G01X2916Y10536D01*
G01X2859Y10515D01*
G01X2804Y10492D01*
G01X2749Y10468D01*
G01X2696Y10441D01*
G01X2643Y10413D01*
G01X2591Y10383D01*
G01X2540Y10351D01*
G01X2491Y10317D01*
G01X2442Y10282D01*
G01X2395Y10245D01*
G01X2349Y10207D01*
G01X2304Y10167D01*
G01X2261Y10125D01*
G01X2219Y10082D01*
G01X2179Y10038D01*
G01X2140Y9992D01*
G01X2103Y9945D01*
G01X2068Y9897D01*
G01X2034Y9847D01*
G01X2002Y9797D01*
G01X1971Y9745D01*
G01X1942Y9693D01*
G01X2972Y9693D01*
G37*
G36*
G01X6056Y8066D02*
G01X5026Y8066D01*
G01X5026Y7203D01*
G01X5083Y7222D01*
G01X5139Y7243D01*
G01X5194Y7266D01*
G01X5249Y7291D01*
G01X5303Y7317D01*
G01X5356Y7345D01*
G01X5458Y7407D01*
G01X5508Y7441D01*
G01X5556Y7476D01*
G01X5604Y7513D01*
G01X5650Y7552D01*
G01X5694Y7592D01*
G01X5737Y7633D01*
G01X5779Y7676D01*
G01X5819Y7720D01*
G01X5858Y7766D01*
G01X5895Y7813D01*
G01X5931Y7861D01*
G01X5965Y7911D01*
G01X5997Y7961D01*
G01X6027Y8013D01*
G01X6056Y8066D01*
G37*
G36*
G01X2972Y8066D02*
G01X1942Y8066D01*
G01X1971Y8013D01*
G01X2002Y7961D01*
G01X2034Y7911D01*
G01X2068Y7861D01*
G01X2103Y7813D01*
G01X2140Y7766D01*
G01X2179Y7720D01*
G01X2219Y7676D01*
G01X2261Y7633D01*
G01X2304Y7592D01*
G01X2349Y7552D01*
G01X2395Y7513D01*
G01X2442Y7476D01*
G01X2491Y7441D01*
G01X2540Y7407D01*
G01X2591Y7376D01*
G01X2643Y7345D01*
G01X2696Y7317D01*
G01X2749Y7291D01*
G01X2804Y7266D01*
G01X2859Y7243D01*
G01X2916Y7222D01*
G01X2972Y7203D01*
G01X2972Y8066D01*
G37*
G36*
G01X5083Y10536D02*
G01X5026Y10555D01*
G01X5026Y9693D01*
G01X6056Y9693D01*
G01X6027Y9745D01*
G01X5997Y9797D01*
G01X5965Y9847D01*
G01X5931Y9897D01*
G01X5895Y9945D01*
G01X5858Y9992D01*
G01X5819Y10038D01*
G01X5779Y10082D01*
G01X5737Y10125D01*
G01X5694Y10167D01*
G01X5650Y10207D01*
G01X5604Y10245D01*
G01X5556Y10282D01*
G01X5508Y10317D01*
G01X5458Y10351D01*
G01X5407Y10383D01*
G01X5356Y10413D01*
G01X5303Y10441D01*
G01X5249Y10468D01*
G01X5194Y10492D01*
G01X5139Y10515D01*
G01X5083Y10536D01*
G37*
G36*
G01X2972Y14854D02*
G01X2972Y15716D01*
G01X2916Y15697D01*
G01X2859Y15676D01*
G01X2804Y15653D01*
G01X2749Y15629D01*
G01X2696Y15602D01*
G01X2643Y15574D01*
G01X2591Y15544D01*
G01X2540Y15512D01*
G01X2491Y15478D01*
G01X2442Y15443D01*
G01X2395Y15406D01*
G01X2349Y15368D01*
G01X2304Y15328D01*
G01X2261Y15286D01*
G01X2219Y15243D01*
G01X2179Y15199D01*
G01X2140Y15153D01*
G01X2103Y15106D01*
G01X2068Y15058D01*
G01X2034Y15009D01*
G01X2002Y14958D01*
G01X1971Y14906D01*
G01X1942Y14854D01*
G01X2972Y14854D01*
G37*
G36*
G01X5083Y15697D02*
G01X5026Y15716D01*
G01X5026Y14854D01*
G01X6056Y14854D01*
G01X6027Y14906D01*
G01X5997Y14958D01*
G01X5965Y15009D01*
G01X5931Y15058D01*
G01X5895Y15106D01*
G01X5858Y15153D01*
G01X5819Y15199D01*
G01X5779Y15243D01*
G01X5737Y15286D01*
G01X5694Y15328D01*
G01X5650Y15368D01*
G01X5604Y15406D01*
G01X5556Y15443D01*
G01X5508Y15478D01*
G01X5458Y15512D01*
G01X5407Y15544D01*
G01X5356Y15574D01*
G01X5303Y15602D01*
G01X5249Y15629D01*
G01X5194Y15653D01*
G01X5139Y15676D01*
G01X5083Y15697D01*
G37*
G36*
G01X7636Y45302D02*
G01X7143Y45302D01*
G01X7143Y45300D01*
G01X7144Y45258D01*
G01X7147Y45216D01*
G01X7152Y45174D01*
G01X7159Y45133D01*
G01X7169Y45092D01*
G01X7180Y45051D01*
G01X7193Y45011D01*
G01X7208Y44972D01*
G01X7225Y44933D01*
G01X7244Y44896D01*
G01X7265Y44859D01*
G01X7288Y44823D01*
G01X7312Y44789D01*
G01X7338Y44756D01*
G01X7366Y44724D01*
G01X7395Y44693D01*
G01X7426Y44664D01*
G01X7458Y44637D01*
G01X7491Y44611D01*
G01X7526Y44587D01*
G01X7561Y44564D01*
G01X7598Y44544D01*
G01X7636Y44525D01*
G01X7636Y45302D01*
G37*
G36*
G01X13336Y45302D02*
G01X12843Y45302D01*
G01X12843Y45300D01*
G01X12844Y45258D01*
G01X12847Y45216D01*
G01X12852Y45174D01*
G01X12859Y45133D01*
G01X12869Y45092D01*
G01X12880Y45051D01*
G01X12893Y45011D01*
G01X12908Y44972D01*
G01X12925Y44933D01*
G01X12944Y44896D01*
G01X12965Y44859D01*
G01X12988Y44823D01*
G01X13012Y44789D01*
G01X13038Y44756D01*
G01X13066Y44724D01*
G01X13095Y44693D01*
G01X13126Y44664D01*
G01X13158Y44637D01*
G01X13191Y44611D01*
G01X13226Y44587D01*
G01X13261Y44564D01*
G01X13298Y44544D01*
G01X13336Y44525D01*
G01X13336Y45302D01*
G37*
G36*
G01X13336Y46699D02*
G01X13336Y47476D01*
G01X13298Y47457D01*
G01X13261Y47437D01*
G01X13226Y47414D01*
G01X13191Y47390D01*
G01X13158Y47364D01*
G01X13126Y47337D01*
G01X13095Y47308D01*
G01X13066Y47277D01*
G01X13038Y47245D01*
G01X13012Y47212D01*
G01X12988Y47178D01*
G01X12965Y47142D01*
G01X12944Y47105D01*
G01X12925Y47068D01*
G01X12908Y47029D01*
G01X12893Y46990D01*
G01X12880Y46950D01*
G01X12869Y46909D01*
G01X12859Y46868D01*
G01X12852Y46826D01*
G01X12847Y46785D01*
G01X12844Y46743D01*
G01X12843Y46700D01*
G01X12843Y46699D01*
G01X13336Y46699D01*
G37*
G36*
G01X7636Y46699D02*
G01X7636Y47476D01*
G01X7598Y47457D01*
G01X7561Y47437D01*
G01X7526Y47414D01*
G01X7491Y47390D01*
G01X7458Y47364D01*
G01X7426Y47337D01*
G01X7395Y47308D01*
G01X7366Y47277D01*
G01X7338Y47245D01*
G01X7312Y47212D01*
G01X7288Y47178D01*
G01X7265Y47142D01*
G01X7244Y47105D01*
G01X7225Y47068D01*
G01X7208Y47029D01*
G01X7193Y46990D01*
G01X7180Y46950D01*
G01X7169Y46909D01*
G01X7159Y46868D01*
G01X7152Y46826D01*
G01X7147Y46785D01*
G01X7144Y46743D01*
G01X7143Y46700D01*
G01X7143Y46699D01*
G01X7636Y46699D01*
G37*
G36*
G01X14556Y45302D02*
G01X14063Y45302D01*
G01X14063Y44525D01*
G01X14100Y44544D01*
G01X14137Y44564D01*
G01X14173Y44587D01*
G01X14207Y44611D01*
G01X14241Y44637D01*
G01X14273Y44664D01*
G01X14303Y44693D01*
G01X14333Y44724D01*
G01X14360Y44756D01*
G01X14386Y44789D01*
G01X14411Y44823D01*
G01X14433Y44859D01*
G01X14454Y44896D01*
G01X14473Y44933D01*
G01X14490Y44972D01*
G01X14505Y45011D01*
G01X14519Y45051D01*
G01X14530Y45092D01*
G01X14539Y45133D01*
G01X14546Y45174D01*
G01X14552Y45216D01*
G01X14555Y45258D01*
G01X14556Y45300D01*
G01X14556Y45302D01*
G37*
G36*
G01X8856Y45302D02*
G01X8363Y45302D01*
G01X8363Y44525D01*
G01X8400Y44544D01*
G01X8437Y44564D01*
G01X8473Y44587D01*
G01X8507Y44611D01*
G01X8541Y44637D01*
G01X8573Y44664D01*
G01X8603Y44693D01*
G01X8633Y44724D01*
G01X8660Y44756D01*
G01X8686Y44789D01*
G01X8711Y44823D01*
G01X8733Y44859D01*
G01X8754Y44896D01*
G01X8773Y44933D01*
G01X8790Y44972D01*
G01X8805Y45011D01*
G01X8819Y45051D01*
G01X8830Y45092D01*
G01X8839Y45133D01*
G01X8846Y45174D01*
G01X8852Y45216D01*
G01X8855Y45258D01*
G01X8856Y45300D01*
G01X8856Y45302D01*
G37*
G36*
G01X14100Y47457D02*
G01X14063Y47476D01*
G01X14063Y46699D01*
G01X14556Y46699D01*
G01X14556Y46700D01*
G01X14555Y46743D01*
G01X14552Y46785D01*
G01X14546Y46826D01*
G01X14539Y46868D01*
G01X14530Y46909D01*
G01X14519Y46950D01*
G01X14505Y46990D01*
G01X14490Y47029D01*
G01X14473Y47068D01*
G01X14454Y47105D01*
G01X14433Y47142D01*
G01X14411Y47178D01*
G01X14386Y47212D01*
G01X14360Y47245D01*
G01X14333Y47277D01*
G01X14303Y47308D01*
G01X14273Y47337D01*
G01X14241Y47364D01*
G01X14207Y47390D01*
G01X14173Y47414D01*
G01X14137Y47437D01*
G01X14100Y47457D01*
G37*
G36*
G01X8400Y47457D02*
G01X8363Y47476D01*
G01X8363Y46699D01*
G01X8856Y46699D01*
G01X8856Y46700D01*
G01X8855Y46743D01*
G01X8852Y46785D01*
G01X8846Y46826D01*
G01X8839Y46868D01*
G01X8830Y46909D01*
G01X8819Y46950D01*
G01X8805Y46990D01*
G01X8790Y47029D01*
G01X8773Y47068D01*
G01X8754Y47105D01*
G01X8733Y47142D01*
G01X8711Y47178D01*
G01X8686Y47212D01*
G01X8660Y47245D01*
G01X8633Y47277D01*
G01X8603Y47308D01*
G01X8573Y47337D01*
G01X8541Y47364D01*
G01X8507Y47390D01*
G01X8473Y47414D01*
G01X8437Y47437D01*
G01X8400Y47457D01*
G37*
G36*
G01X12812Y3004D02*
G01X12482Y3004D01*
G01X12458Y3003D01*
G01X12435Y3000D01*
G01X12412Y2995D01*
G01X12389Y2987D01*
G01X12367Y2977D01*
G01X12347Y2966D01*
G01X12327Y2953D01*
G01X12309Y2937D01*
G01X12292Y2921D01*
G01X12277Y2902D01*
G01X12264Y2883D01*
G01X12252Y2862D01*
G01X12243Y2841D01*
G01X12235Y2818D01*
G01X12230Y2795D01*
G01X12226Y2772D01*
G01X12225Y2748D01*
G01X12225Y2418D01*
G01X12812Y2418D01*
G01X12812Y3004D01*
G37*
G36*
G01X32542Y25083D02*
G01X31955Y25083D01*
G01X31955Y24753D01*
G01X31956Y24729D01*
G01X31960Y24706D01*
G01X31965Y24683D01*
G01X31973Y24660D01*
G01X31982Y24639D01*
G01X31994Y24618D01*
G01X32007Y24598D01*
G01X32022Y24580D01*
G01X32039Y24563D01*
G01X32057Y24548D01*
G01X32077Y24535D01*
G01X32097Y24523D01*
G01X32119Y24514D01*
G01X32142Y24506D01*
G01X32165Y24501D01*
G01X32188Y24498D01*
G01X32212Y24496D01*
G01X32542Y24496D01*
G01X32542Y25083D01*
G37*
G36*
G01X12812Y1503D02*
G01X12225Y1503D01*
G01X12225Y1173D01*
G01X12226Y1149D01*
G01X12230Y1126D01*
G01X12235Y1103D01*
G01X12243Y1080D01*
G01X12252Y1059D01*
G01X12264Y1038D01*
G01X12277Y1018D01*
G01X12292Y1000D01*
G01X12309Y983D01*
G01X12327Y968D01*
G01X12347Y955D01*
G01X12367Y943D01*
G01X12389Y934D01*
G01X12412Y926D01*
G01X12435Y921D01*
G01X12458Y918D01*
G01X12482Y916D01*
G01X12812Y916D01*
G01X12812Y1503D01*
G37*
G36*
G01X32542Y26584D02*
G01X32212Y26584D01*
G01X32188Y26583D01*
G01X32165Y26580D01*
G01X32142Y26575D01*
G01X32119Y26567D01*
G01X32097Y26557D01*
G01X32077Y26546D01*
G01X32057Y26533D01*
G01X32039Y26517D01*
G01X32022Y26501D01*
G01X32007Y26482D01*
G01X31994Y26463D01*
G01X31982Y26442D01*
G01X31973Y26420D01*
G01X31965Y26398D01*
G01X31960Y26375D01*
G01X31956Y26351D01*
G01X31955Y26328D01*
G01X31955Y25998D01*
G01X32542Y25998D01*
G01X32542Y26584D01*
G37*
G36*
G01X34043Y25083D02*
G01X33456Y25083D01*
G01X33456Y24496D01*
G01X33787Y24496D01*
G01X33810Y24498D01*
G01X33834Y24501D01*
G01X33857Y24506D01*
G01X33879Y24514D01*
G01X33901Y24523D01*
G01X33922Y24535D01*
G01X33941Y24548D01*
G01X33959Y24563D01*
G01X33976Y24580D01*
G01X33991Y24598D01*
G01X34005Y24618D01*
G01X34016Y24639D01*
G01X34026Y24660D01*
G01X34033Y24683D01*
G01X34039Y24706D01*
G01X34042Y24729D01*
G01X34043Y24753D01*
G01X34043Y25083D01*
G37*
G36*
G01X14057Y3004D02*
G01X13726Y3004D01*
G01X13726Y2418D01*
G01X14313Y2418D01*
G01X14313Y2748D01*
G01X14312Y2772D01*
G01X14309Y2795D01*
G01X14303Y2818D01*
G01X14296Y2841D01*
G01X14286Y2862D01*
G01X14275Y2883D01*
G01X14261Y2902D01*
G01X14246Y2921D01*
G01X14229Y2937D01*
G01X14211Y2953D01*
G01X14192Y2966D01*
G01X14171Y2977D01*
G01X14149Y2987D01*
G01X14127Y2995D01*
G01X14104Y3000D01*
G01X14080Y3003D01*
G01X14057Y3004D01*
G37*
G36*
G01X33787Y26584D02*
G01X33456Y26584D01*
G01X33456Y25998D01*
G01X34043Y25998D01*
G01X34043Y26328D01*
G01X34042Y26351D01*
G01X34039Y26375D01*
G01X34033Y26398D01*
G01X34026Y26420D01*
G01X34016Y26442D01*
G01X34005Y26463D01*
G01X33991Y26482D01*
G01X33976Y26501D01*
G01X33959Y26517D01*
G01X33941Y26533D01*
G01X33922Y26546D01*
G01X33901Y26557D01*
G01X33879Y26567D01*
G01X33857Y26575D01*
G01X33834Y26580D01*
G01X33810Y26583D01*
G01X33787Y26584D01*
G37*
G36*
G01X14313Y1503D02*
G01X13726Y1503D01*
G01X13726Y916D01*
G01X14057Y916D01*
G01X14080Y918D01*
G01X14104Y921D01*
G01X14127Y926D01*
G01X14149Y934D01*
G01X14171Y943D01*
G01X14192Y955D01*
G01X14211Y968D01*
G01X14229Y983D01*
G01X14246Y1000D01*
G01X14261Y1018D01*
G01X14275Y1038D01*
G01X14286Y1059D01*
G01X14296Y1080D01*
G01X14303Y1103D01*
G01X14309Y1126D01*
G01X14312Y1149D01*
G01X14313Y1173D01*
G01X14313Y1503D01*
G37*
G36*
G01X46867Y13014D02*
G01X46823Y13037D01*
G01X46823Y12514D01*
G01X47345Y12514D01*
G01X47322Y12558D01*
G01X47297Y12602D01*
G01X47270Y12644D01*
G01X47241Y12685D01*
G01X47211Y12725D01*
G01X47178Y12763D01*
G01X47144Y12800D01*
G01X47109Y12836D01*
G01X47072Y12870D01*
G01X47034Y12902D01*
G01X46994Y12933D01*
G01X46953Y12961D01*
G01X46910Y12988D01*
G01X46867Y13014D01*
G37*
G36*
G01X45796Y12514D02*
G01X45796Y13037D01*
G01X45751Y13014D01*
G01X45708Y12988D01*
G01X45665Y12961D01*
G01X45624Y12933D01*
G01X45585Y12902D01*
G01X45546Y12870D01*
G01X45509Y12836D01*
G01X45474Y12800D01*
G01X45440Y12763D01*
G01X45408Y12725D01*
G01X45377Y12685D01*
G01X45348Y12644D01*
G01X45321Y12602D01*
G01X45296Y12558D01*
G01X45273Y12514D01*
G01X45796Y12514D01*
G37*
G36*
G01X46867Y43013D02*
G01X46823Y43037D01*
G01X46823Y42514D01*
G01X47345Y42514D01*
G01X47322Y42558D01*
G01X47297Y42602D01*
G01X47270Y42644D01*
G01X47241Y42685D01*
G01X47211Y42725D01*
G01X47178Y42763D01*
G01X47144Y42800D01*
G01X47109Y42836D01*
G01X47072Y42870D01*
G01X47034Y42902D01*
G01X46994Y42933D01*
G01X46953Y42961D01*
G01X46910Y42988D01*
G01X46867Y43013D01*
G37*
G36*
G01X45796Y41487D02*
G01X45273Y41487D01*
G01X45296Y41442D01*
G01X45321Y41399D01*
G01X45348Y41357D01*
G01X45377Y41316D01*
G01X45408Y41276D01*
G01X45440Y41238D01*
G01X45474Y41201D01*
G01X45509Y41165D01*
G01X45546Y41131D01*
G01X45585Y41099D01*
G01X45624Y41068D01*
G01X45665Y41040D01*
G01X45708Y41013D01*
G01X45751Y40987D01*
G01X45796Y40964D01*
G01X45796Y41487D01*
G37*
G36*
G01X47345Y18987D02*
G01X46823Y18987D01*
G01X46823Y18464D01*
G01X46867Y18487D01*
G01X46910Y18512D01*
G01X46953Y18539D01*
G01X46994Y18568D01*
G01X47034Y18599D01*
G01X47072Y18631D01*
G01X47109Y18665D01*
G01X47144Y18700D01*
G01X47178Y18737D01*
G01X47211Y18776D01*
G01X47241Y18816D01*
G01X47270Y18857D01*
G01X47297Y18899D01*
G01X47322Y18942D01*
G01X47345Y18987D01*
G37*
G36*
G01X45796Y11487D02*
G01X45273Y11487D01*
G01X45296Y11443D01*
G01X45321Y11399D01*
G01X45348Y11357D01*
G01X45377Y11316D01*
G01X45408Y11276D01*
G01X45440Y11238D01*
G01X45474Y11201D01*
G01X45509Y11165D01*
G01X45546Y11131D01*
G01X45585Y11099D01*
G01X45624Y11068D01*
G01X45665Y11040D01*
G01X45708Y11013D01*
G01X45751Y10987D01*
G01X45796Y10964D01*
G01X45796Y11487D01*
G37*
G36*
G01X47345Y26487D02*
G01X46823Y26487D01*
G01X46823Y25964D01*
G01X46867Y25987D01*
G01X46910Y26013D01*
G01X46953Y26040D01*
G01X46994Y26068D01*
G01X47034Y26099D01*
G01X47072Y26131D01*
G01X47109Y26165D01*
G01X47144Y26201D01*
G01X47178Y26238D01*
G01X47211Y26276D01*
G01X47241Y26316D01*
G01X47270Y26357D01*
G01X47297Y26399D01*
G01X47322Y26443D01*
G01X47345Y26487D01*
G37*
G36*
G01X45796Y42514D02*
G01X45796Y43037D01*
G01X45751Y43013D01*
G01X45708Y42988D01*
G01X45665Y42961D01*
G01X45624Y42933D01*
G01X45585Y42902D01*
G01X45546Y42870D01*
G01X45509Y42836D01*
G01X45474Y42800D01*
G01X45440Y42763D01*
G01X45408Y42725D01*
G01X45377Y42685D01*
G01X45348Y42644D01*
G01X45321Y42602D01*
G01X45296Y42558D01*
G01X45273Y42514D01*
G01X45796Y42514D01*
G37*
G36*
G01X47345Y11487D02*
G01X46823Y11487D01*
G01X46823Y10964D01*
G01X46867Y10987D01*
G01X46910Y11013D01*
G01X46953Y11040D01*
G01X46994Y11068D01*
G01X47034Y11099D01*
G01X47072Y11131D01*
G01X47109Y11165D01*
G01X47144Y11201D01*
G01X47178Y11238D01*
G01X47211Y11276D01*
G01X47241Y11316D01*
G01X47270Y11357D01*
G01X47297Y11399D01*
G01X47322Y11443D01*
G01X47345Y11487D01*
G37*
G36*
G01X45796Y5014D02*
G01X45796Y5537D01*
G01X45751Y5513D01*
G01X45708Y5488D01*
G01X45665Y5461D01*
G01X45624Y5432D01*
G01X45585Y5402D01*
G01X45546Y5370D01*
G01X45509Y5336D01*
G01X45474Y5300D01*
G01X45440Y5263D01*
G01X45408Y5225D01*
G01X45377Y5185D01*
G01X45348Y5144D01*
G01X45321Y5102D01*
G01X45296Y5058D01*
G01X45273Y5014D01*
G01X45796Y5014D01*
G37*
G36*
G01X47345Y41487D02*
G01X46823Y41487D01*
G01X46823Y40964D01*
G01X46867Y40987D01*
G01X46910Y41013D01*
G01X46953Y41040D01*
G01X46994Y41068D01*
G01X47034Y41099D01*
G01X47072Y41131D01*
G01X47109Y41165D01*
G01X47144Y41201D01*
G01X47178Y41238D01*
G01X47211Y41276D01*
G01X47241Y41316D01*
G01X47270Y41357D01*
G01X47297Y41399D01*
G01X47322Y41442D01*
G01X47345Y41487D01*
G37*
G36*
G01X45796Y35014D02*
G01X45796Y35537D01*
G01X45751Y35513D01*
G01X45708Y35488D01*
G01X45665Y35461D01*
G01X45624Y35432D01*
G01X45585Y35402D01*
G01X45546Y35370D01*
G01X45509Y35336D01*
G01X45474Y35300D01*
G01X45440Y35263D01*
G01X45408Y35225D01*
G01X45377Y35185D01*
G01X45348Y35144D01*
G01X45321Y35102D01*
G01X45296Y35058D01*
G01X45273Y35014D01*
G01X45796Y35014D01*
G37*
G36*
G01X46867Y20513D02*
G01X46823Y20537D01*
G01X46823Y20014D01*
G01X47345Y20014D01*
G01X47322Y20058D01*
G01X47297Y20102D01*
G01X47270Y20144D01*
G01X47241Y20185D01*
G01X47211Y20225D01*
G01X47178Y20263D01*
G01X47144Y20300D01*
G01X47109Y20336D01*
G01X47072Y20370D01*
G01X47034Y20402D01*
G01X46994Y20432D01*
G01X46953Y20461D01*
G01X46910Y20488D01*
G01X46867Y20513D01*
G37*
G36*
G01X45796Y18987D02*
G01X45273Y18987D01*
G01X45296Y18942D01*
G01X45321Y18899D01*
G01X45348Y18857D01*
G01X45377Y18816D01*
G01X45408Y18776D01*
G01X45440Y18737D01*
G01X45474Y18700D01*
G01X45509Y18665D01*
G01X45546Y18631D01*
G01X45585Y18599D01*
G01X45624Y18568D01*
G01X45665Y18539D01*
G01X45708Y18512D01*
G01X45751Y18487D01*
G01X45796Y18464D01*
G01X45796Y18987D01*
G37*
G36*
G01X46867Y35513D02*
G01X46823Y35537D01*
G01X46823Y35014D01*
G01X47345Y35014D01*
G01X47322Y35058D01*
G01X47297Y35102D01*
G01X47270Y35144D01*
G01X47241Y35185D01*
G01X47211Y35225D01*
G01X47178Y35263D01*
G01X47144Y35300D01*
G01X47109Y35336D01*
G01X47072Y35370D01*
G01X47034Y35402D01*
G01X46994Y35432D01*
G01X46953Y35461D01*
G01X46910Y35488D01*
G01X46867Y35513D01*
G37*
G36*
G01X45796Y33987D02*
G01X45273Y33987D01*
G01X45296Y33942D01*
G01X45321Y33899D01*
G01X45348Y33857D01*
G01X45377Y33816D01*
G01X45408Y33776D01*
G01X45440Y33737D01*
G01X45474Y33700D01*
G01X45509Y33665D01*
G01X45546Y33631D01*
G01X45585Y33599D01*
G01X45624Y33568D01*
G01X45665Y33539D01*
G01X45708Y33512D01*
G01X45751Y33487D01*
G01X45796Y33464D01*
G01X45796Y33987D01*
G37*
G36*
G01X46867Y5513D02*
G01X46823Y5537D01*
G01X46823Y5014D01*
G01X47345Y5014D01*
G01X47322Y5058D01*
G01X47297Y5102D01*
G01X47270Y5144D01*
G01X47241Y5185D01*
G01X47211Y5225D01*
G01X47178Y5263D01*
G01X47144Y5300D01*
G01X47109Y5336D01*
G01X47072Y5370D01*
G01X47034Y5402D01*
G01X46994Y5432D01*
G01X46953Y5461D01*
G01X46910Y5488D01*
G01X46867Y5513D01*
G37*
G36*
G01X45796Y3987D02*
G01X45273Y3987D01*
G01X45296Y3942D01*
G01X45321Y3899D01*
G01X45348Y3857D01*
G01X45377Y3816D01*
G01X45408Y3776D01*
G01X45440Y3737D01*
G01X45474Y3701D01*
G01X45509Y3665D01*
G01X45546Y3631D01*
G01X45585Y3599D01*
G01X45624Y3568D01*
G01X45665Y3539D01*
G01X45708Y3512D01*
G01X45751Y3487D01*
G01X45796Y3464D01*
G01X45796Y3987D01*
G37*
G36*
G01X47345Y33987D02*
G01X46823Y33987D01*
G01X46823Y33464D01*
G01X46867Y33487D01*
G01X46910Y33512D01*
G01X46953Y33539D01*
G01X46994Y33568D01*
G01X47034Y33599D01*
G01X47072Y33631D01*
G01X47109Y33665D01*
G01X47144Y33700D01*
G01X47178Y33737D01*
G01X47211Y33776D01*
G01X47241Y33816D01*
G01X47270Y33857D01*
G01X47297Y33899D01*
G01X47322Y33942D01*
G01X47345Y33987D01*
G37*
G36*
G01X45796Y27514D02*
G01X45796Y28037D01*
G01X45751Y28014D01*
G01X45708Y27988D01*
G01X45665Y27961D01*
G01X45624Y27933D01*
G01X45585Y27902D01*
G01X45546Y27870D01*
G01X45509Y27836D01*
G01X45474Y27800D01*
G01X45440Y27763D01*
G01X45408Y27725D01*
G01X45377Y27685D01*
G01X45348Y27644D01*
G01X45321Y27602D01*
G01X45296Y27558D01*
G01X45273Y27514D01*
G01X45796Y27514D01*
G37*
G36*
G01X47345Y3987D02*
G01X46823Y3987D01*
G01X46823Y3464D01*
G01X46867Y3487D01*
G01X46910Y3512D01*
G01X46953Y3539D01*
G01X46994Y3568D01*
G01X47034Y3599D01*
G01X47072Y3631D01*
G01X47109Y3665D01*
G01X47144Y3701D01*
G01X47178Y3737D01*
G01X47211Y3776D01*
G01X47241Y3816D01*
G01X47270Y3857D01*
G01X47297Y3899D01*
G01X47322Y3942D01*
G01X47345Y3987D01*
G37*
G36*
G01X45796Y26487D02*
G01X45273Y26487D01*
G01X45296Y26443D01*
G01X45321Y26399D01*
G01X45348Y26357D01*
G01X45377Y26316D01*
G01X45408Y26276D01*
G01X45440Y26238D01*
G01X45474Y26201D01*
G01X45509Y26165D01*
G01X45546Y26131D01*
G01X45585Y26099D01*
G01X45624Y26068D01*
G01X45665Y26040D01*
G01X45708Y26013D01*
G01X45751Y25987D01*
G01X45796Y25964D01*
G01X45796Y26487D01*
G37*
G36*
G01X46867Y28014D02*
G01X46823Y28037D01*
G01X46823Y27514D01*
G01X47345Y27514D01*
G01X47322Y27558D01*
G01X47297Y27602D01*
G01X47270Y27644D01*
G01X47241Y27685D01*
G01X47211Y27725D01*
G01X47178Y27763D01*
G01X47144Y27800D01*
G01X47109Y27836D01*
G01X47072Y27870D01*
G01X47034Y27902D01*
G01X46994Y27933D01*
G01X46953Y27961D01*
G01X46910Y27988D01*
G01X46867Y28014D01*
G37*
G36*
G01X45796Y20014D02*
G01X45796Y20537D01*
G01X45751Y20513D01*
G01X45708Y20488D01*
G01X45665Y20461D01*
G01X45624Y20432D01*
G01X45585Y20402D01*
G01X45546Y20370D01*
G01X45509Y20336D01*
G01X45474Y20300D01*
G01X45440Y20263D01*
G01X45408Y20225D01*
G01X45377Y20185D01*
G01X45348Y20144D01*
G01X45321Y20102D01*
G01X45296Y20058D01*
G01X45273Y20014D01*
G01X45796Y20014D01*
G37*
G36*
G01X6229Y34571D02*
G01X5739Y34571D01*
G01X5739Y34080D01*
G01X5781Y34102D01*
G01X5821Y34126D01*
G01X5861Y34151D01*
G01X5900Y34178D01*
G01X5937Y34206D01*
G01X5973Y34236D01*
G01X6008Y34268D01*
G01X6041Y34302D01*
G01X6073Y34336D01*
G01X6103Y34372D01*
G01X6132Y34410D01*
G01X6159Y34448D01*
G01X6184Y34488D01*
G01X6207Y34529D01*
G01X6229Y34571D01*
G37*
G36*
G01X4800Y34571D02*
G01X4309Y34571D01*
G01X4331Y34529D01*
G01X4354Y34488D01*
G01X4380Y34448D01*
G01X4407Y34410D01*
G01X4435Y34372D01*
G01X4465Y34336D01*
G01X4497Y34302D01*
G01X4530Y34268D01*
G01X4565Y34236D01*
G01X4601Y34206D01*
G01X4639Y34178D01*
G01X4677Y34151D01*
G01X4717Y34126D01*
G01X4758Y34102D01*
G01X4800Y34080D01*
G01X4800Y34571D01*
G37*
G36*
G01X5781Y35979D02*
G01X5739Y36000D01*
G01X5739Y35510D01*
G01X6229Y35510D01*
G01X6207Y35552D01*
G01X6184Y35592D01*
G01X6159Y35632D01*
G01X6132Y35671D01*
G01X6103Y35708D01*
G01X6073Y35744D01*
G01X6041Y35779D01*
G01X6008Y35812D01*
G01X5973Y35844D01*
G01X5937Y35874D01*
G01X5900Y35903D01*
G01X5861Y35930D01*
G01X5821Y35955D01*
G01X5781Y35979D01*
G37*
G36*
G01X4800Y35510D02*
G01X4800Y36000D01*
G01X4758Y35979D01*
G01X4717Y35955D01*
G01X4677Y35930D01*
G01X4639Y35903D01*
G01X4601Y35874D01*
G01X4565Y35844D01*
G01X4530Y35812D01*
G01X4497Y35779D01*
G01X4465Y35744D01*
G01X4435Y35708D01*
G01X4407Y35671D01*
G01X4380Y35632D01*
G01X4354Y35592D01*
G01X4331Y35552D01*
G01X4309Y35510D01*
G01X4800Y35510D01*
G37*
G36*
G01X27997Y45958D02*
G01X27956Y45979D01*
G01X27956Y45498D01*
G01X28438Y45498D01*
G01X28416Y45539D01*
G01X28393Y45579D01*
G01X28369Y45618D01*
G01X28342Y45656D01*
G01X28314Y45692D01*
G01X28285Y45728D01*
G01X28253Y45762D01*
G01X28221Y45795D01*
G01X28187Y45826D01*
G01X28151Y45856D01*
G01X28114Y45884D01*
G01X28077Y45910D01*
G01X28037Y45935D01*
G01X27997Y45958D01*
G37*
G36*
G01X27042Y45498D02*
G01X27042Y45979D01*
G01X27001Y45958D01*
G01X26961Y45935D01*
G01X26922Y45910D01*
G01X26884Y45884D01*
G01X26847Y45856D01*
G01X26812Y45826D01*
G01X26777Y45795D01*
G01X26745Y45762D01*
G01X26714Y45728D01*
G01X26684Y45692D01*
G01X26656Y45656D01*
G01X26629Y45618D01*
G01X26605Y45579D01*
G01X26582Y45539D01*
G01X26561Y45498D01*
G01X27042Y45498D01*
G37*
G36*
G01X28438Y44583D02*
G01X27956Y44583D01*
G01X27956Y44102D01*
G01X27997Y44123D01*
G01X28037Y44146D01*
G01X28077Y44171D01*
G01X28114Y44197D01*
G01X28151Y44225D01*
G01X28187Y44255D01*
G01X28221Y44286D01*
G01X28253Y44319D01*
G01X28285Y44353D01*
G01X28314Y44388D01*
G01X28342Y44425D01*
G01X28369Y44463D01*
G01X28393Y44502D01*
G01X28416Y44542D01*
G01X28438Y44583D01*
G37*
G36*
G01X27042Y44583D02*
G01X26561Y44583D01*
G01X26582Y44542D01*
G01X26605Y44502D01*
G01X26629Y44463D01*
G01X26656Y44425D01*
G01X26684Y44388D01*
G01X26714Y44353D01*
G01X26745Y44319D01*
G01X26777Y44286D01*
G01X26812Y44255D01*
G01X26847Y44225D01*
G01X26884Y44197D01*
G01X26922Y44171D01*
G01X26961Y44146D01*
G01X27001Y44123D01*
G01X27042Y44102D01*
G01X27042Y44583D01*
G37*
G36*
G01X20438Y44583D02*
G01X19956Y44583D01*
G01X19956Y44102D01*
G01X19997Y44123D01*
G01X20037Y44146D01*
G01X20077Y44171D01*
G01X20114Y44197D01*
G01X20151Y44225D01*
G01X20187Y44255D01*
G01X20221Y44286D01*
G01X20253Y44319D01*
G01X20285Y44353D01*
G01X20314Y44388D01*
G01X20342Y44425D01*
G01X20369Y44463D01*
G01X20393Y44502D01*
G01X20416Y44542D01*
G01X20438Y44583D01*
G37*
G36*
G01X19042Y44583D02*
G01X18561Y44583D01*
G01X18582Y44542D01*
G01X18605Y44502D01*
G01X18629Y44463D01*
G01X18656Y44425D01*
G01X18684Y44388D01*
G01X18714Y44353D01*
G01X18745Y44319D01*
G01X18777Y44286D01*
G01X18812Y44255D01*
G01X18847Y44225D01*
G01X18884Y44197D01*
G01X18922Y44171D01*
G01X18961Y44146D01*
G01X19001Y44123D01*
G01X19042Y44102D01*
G01X19042Y44583D01*
G37*
G36*
G01X19997Y45958D02*
G01X19956Y45979D01*
G01X19956Y45498D01*
G01X20438Y45498D01*
G01X20416Y45539D01*
G01X20393Y45579D01*
G01X20369Y45618D01*
G01X20342Y45656D01*
G01X20314Y45692D01*
G01X20285Y45728D01*
G01X20253Y45762D01*
G01X20221Y45795D01*
G01X20187Y45826D01*
G01X20151Y45856D01*
G01X20114Y45884D01*
G01X20077Y45910D01*
G01X20037Y45935D01*
G01X19997Y45958D01*
G37*
G36*
G01X19042Y45498D02*
G01X19042Y45979D01*
G01X19001Y45958D01*
G01X18961Y45935D01*
G01X18922Y45910D01*
G01X18884Y45884D01*
G01X18847Y45856D01*
G01X18812Y45826D01*
G01X18777Y45795D01*
G01X18745Y45762D01*
G01X18714Y45728D01*
G01X18684Y45692D01*
G01X18656Y45656D01*
G01X18629Y45618D01*
G01X18605Y45579D01*
G01X18582Y45539D01*
G01X18561Y45498D01*
G01X19042Y45498D01*
G37*

%LPD*%
G54D12*
G01X6738Y19171D02*
G01X6738Y19832D01*
G01X6738Y21203D01*
G01X13596Y28061D01*
G01X14866Y28061D01*
G54D11*
G01X11437Y9265D02*
G01X14358Y9265D01*
G01X16898Y11805D01*
G54D12*
G01X3999Y19120D02*
G01X6687Y19120D01*
G01X6738Y19171D01*
G54D11*
G01X15374Y18536D02*
G01X15374Y27172D01*
G01X15755Y27553D01*
G01X15755Y33649D01*
G01X15628Y33776D01*
G01X14358Y33776D02*
G01X14485Y33776D01*
G01X15247Y34538D01*
G01X16009Y34538D01*
G01X16263Y34284D01*
G01X16263Y18282D01*
G01X15882Y17901D01*
G01X28709Y33141D02*
G01X28709Y16885D01*
G01X30233Y15361D01*
G01X22486Y33014D02*
G01X27185Y33014D01*
G01X27947Y32252D01*
G01X27947Y16377D01*
G01X29725Y14599D01*
G01X30995Y14599D01*
G01X17914Y11297D02*
G01X17914Y11170D01*
G01X15755Y9011D01*
G01X15755Y7233D01*
G01X14358Y5836D01*
G01X12065Y5836D01*
G01X10729Y4500D01*
G54D26*
G01X27499Y45040D03*
G01X27499Y42500D03*
G54D27*
G01X27499Y39960D03*
G54D26*
G01X19499Y45040D03*
G01X19499Y42500D03*
G54D27*
G01X19499Y39960D03*
G54D26*
G01X32999Y20460D03*
G01X32999Y23000D03*
G54D27*
G01X32999Y25540D03*
G54D28*
G01X38689Y42000D03*
G54D29*
G01X41229Y42000D03*
G01X43769Y42000D03*
G01X46309Y42000D03*
G54D28*
G01X38689Y34500D03*
G54D29*
G01X41229Y34500D03*
G01X43769Y34500D03*
G01X46309Y34500D03*
G54D28*
G01X38689Y27000D03*
G54D29*
G01X41229Y27000D03*
G01X43769Y27000D03*
G01X46309Y27000D03*
G54D28*
G01X38689Y19500D03*
G54D29*
G01X41229Y19500D03*
G01X43769Y19500D03*
G01X46309Y19500D03*
G54D28*
G01X38689Y12000D03*
G54D29*
G01X41229Y12000D03*
G01X43769Y12000D03*
G01X46309Y12000D03*
G54D28*
G01X38689Y4500D03*
G54D29*
G01X41229Y4500D03*
G01X43769Y4500D03*
G01X46309Y4500D03*
G54D26*
G01X10729Y7040D03*
G01X13269Y7040D03*
G01X10729Y4500D03*
G01X13269Y4500D03*
G01X10729Y1960D03*
G54D27*
G01X13269Y1960D03*
G54D30*
G01X5269Y27420D03*
G01X2729Y27420D03*
G01X5269Y29960D03*
G01X2729Y29960D03*
G01X5269Y32500D03*
G01X2729Y32500D03*
G01X5269Y35040D03*
G01X2729Y35040D03*
G01X5269Y37580D03*
G01X2729Y37580D03*
G54D14*
G01X16898Y11805D03*
G01X11437Y9265D03*
G01X20581Y9900D03*
G01X14866Y28061D03*
G01X14358Y33776D03*
G01X15628Y33776D03*
G01X15374Y18536D03*
G01X15882Y17901D03*
G01X30995Y14599D03*
G01X30233Y15361D03*
G01X33027Y17647D03*
G01X29979Y7487D03*
G01X33027Y5836D03*
G01X17533Y9011D03*
G01X21343Y9138D03*
G01X28582Y11932D03*
G01X24899Y26029D03*
G01X22740Y26029D03*
G01X9659Y20568D03*
G01X10421Y17520D03*
G01X9659Y14345D03*
G01X13977Y41777D03*
G01X7754Y41777D03*
G01X9405Y41777D03*
G01X18930Y17774D03*
G01X19819Y24251D03*
G01X26169Y24124D03*
G01X22486Y33014D03*
G01X28709Y33141D03*
G01X17914Y11297D03*
G01X6738Y19171D03*
G54D31*
G01X3499Y3880D02*
G01X4499Y3880D01*
G01X3499Y8879D02*
G01X4499Y8879D01*
G01X3499Y14040D02*
G01X4499Y14040D01*
G01X3499Y19120D02*
G01X4499Y19120D01*
G54D32*
G01X13699Y45300D02*
G01X13699Y46700D01*
G01X7999Y45300D02*
G01X7999Y46700D01*
M00*
M02*
