G04 Layer: TopSolderMaskLayer*
G04 EasyEDA v6.2.46, 2019-11-01T12:43:08+01:00*
G04 778d866c1a174c42a2ea303962b88bf4,d54f43e133bf43b298e367d61d3b1b7b,10*
G04 Gerber Generator version 0.2*
G04 Scale: 100 percent, Rotated: No, Reflected: No *
G04 Dimensions in millimeters *
G04 leading zeros omitted , absolute positions ,3 integer and 3 decimal *
%FSLAX33Y33*%
%MOMM*%
G90*
G71D02*

%ADD41C,3.203194*%
%ADD42C,0.623189*%
%ADD43C,1.403198*%
%ADD44C,1.778000*%
%ADD51C,2.003196*%
%ADD58C,1.827200*%

%LPD*%
G54D41*
G01X3499Y3880D02*
G01X4499Y3880D01*
G01X3499Y8879D02*
G01X4499Y8879D01*
G01X3499Y14040D02*
G01X4499Y14040D01*
G01X3499Y19120D02*
G01X4499Y19120D01*
G54D42*
G01X16759Y21000D02*
G01X17939Y21000D01*
G01X16759Y20200D02*
G01X17939Y20200D01*
G01X16759Y19401D02*
G01X17939Y19401D01*
G01X16759Y18600D02*
G01X17939Y18600D01*
G01X16759Y17801D02*
G01X17939Y17801D01*
G01X16759Y17000D02*
G01X17939Y17000D01*
G01X16759Y16200D02*
G01X17939Y16200D01*
G01X16759Y15401D02*
G01X17939Y15401D01*
G01X16759Y14600D02*
G01X17939Y14600D01*
G01X16759Y13801D02*
G01X17939Y13801D01*
G01X16759Y13000D02*
G01X17939Y13000D01*
G01X18999Y11940D02*
G01X18999Y10760D01*
G01X19799Y11940D02*
G01X19799Y10760D01*
G01X20599Y11940D02*
G01X20599Y10760D01*
G01X21399Y11940D02*
G01X21399Y10760D01*
G01X22199Y11940D02*
G01X22199Y10760D01*
G01X22999Y11940D02*
G01X22999Y10760D01*
G01X23799Y11940D02*
G01X23799Y10760D01*
G01X24599Y11940D02*
G01X24599Y10760D01*
G01X25399Y11940D02*
G01X25399Y10760D01*
G01X26199Y11940D02*
G01X26199Y10760D01*
G01X26999Y11940D02*
G01X26999Y10760D01*
G01X28059Y13000D02*
G01X29239Y13000D01*
G01X28059Y13801D02*
G01X29239Y13801D01*
G01X28059Y14600D02*
G01X29239Y14600D01*
G01X28059Y15401D02*
G01X29239Y15401D01*
G01X28059Y16200D02*
G01X29239Y16200D01*
G01X28059Y17000D02*
G01X29239Y17000D01*
G01X28059Y17801D02*
G01X29239Y17801D01*
G01X28059Y18600D02*
G01X29239Y18600D01*
G01X28059Y19401D02*
G01X29239Y19401D01*
G01X28059Y20200D02*
G01X29239Y20200D01*
G01X28059Y21000D02*
G01X29239Y21000D01*
G01X26999Y23240D02*
G01X26999Y22060D01*
G01X26199Y23240D02*
G01X26199Y22060D01*
G01X25399Y23240D02*
G01X25399Y22060D01*
G01X24599Y23240D02*
G01X24599Y22060D01*
G01X23799Y23240D02*
G01X23799Y22060D01*
G01X22999Y23240D02*
G01X22999Y22060D01*
G01X22199Y23240D02*
G01X22199Y22060D01*
G01X21399Y23240D02*
G01X21399Y22060D01*
G01X20599Y23240D02*
G01X20599Y22060D01*
G01X19799Y23240D02*
G01X19799Y22060D01*
G01X18999Y23240D02*
G01X18999Y22060D01*
G54D43*
G01X13699Y45300D02*
G01X13699Y46700D01*
G01X7999Y45300D02*
G01X7999Y46700D01*
G54D44*
G01X27499Y45040D03*
G01X27499Y42500D03*
G36*
G01X26611Y39072D02*
G01X26611Y40850D01*
G01X28389Y40850D01*
G01X28389Y39072D01*
G01X26611Y39072D01*
G37*
G36*
G01X23698Y30520D02*
G01X23698Y33009D01*
G01X27302Y33009D01*
G01X27302Y30520D01*
G01X23698Y30520D01*
G37*
G36*
G01X23698Y34991D02*
G01X23698Y37480D01*
G01X27302Y37480D01*
G01X27302Y34991D01*
G01X23698Y34991D01*
G37*
G36*
G01X17698Y30520D02*
G01X17698Y33009D01*
G01X21300Y33009D01*
G01X21300Y30520D01*
G01X17698Y30520D01*
G37*
G36*
G01X17698Y34991D02*
G01X17698Y37480D01*
G01X21300Y37480D01*
G01X21300Y34991D01*
G01X17698Y34991D01*
G37*
G01X19499Y45040D03*
G01X19499Y42500D03*
G36*
G01X18610Y39072D02*
G01X18610Y40850D01*
G01X20388Y40850D01*
G01X20388Y39072D01*
G01X18610Y39072D01*
G37*
G01X32999Y20460D03*
G01X32999Y23000D03*
G36*
G01X32110Y24650D02*
G01X32110Y26428D01*
G01X33888Y26428D01*
G01X33888Y24650D01*
G01X32110Y24650D01*
G37*
G36*
G01X25801Y6675D02*
G01X25801Y8328D01*
G01X27165Y8328D01*
G01X27165Y6675D01*
G01X25801Y6675D01*
G37*
G36*
G01X27833Y6675D02*
G01X27833Y8328D01*
G01X29197Y8328D01*
G01X29197Y6675D01*
G01X27833Y6675D01*
G37*
G36*
G01X16802Y6675D02*
G01X16802Y8328D01*
G01X18166Y8328D01*
G01X18166Y6675D01*
G01X16802Y6675D01*
G37*
G36*
G01X18834Y6675D02*
G01X18834Y8328D01*
G01X20198Y8328D01*
G01X20198Y6675D01*
G01X18834Y6675D01*
G37*
G36*
G01X13335Y16675D02*
G01X13335Y18328D01*
G01X14696Y18328D01*
G01X14696Y16675D01*
G01X13335Y16675D01*
G37*
G36*
G01X11303Y16675D02*
G01X11303Y18328D01*
G01X12664Y18328D01*
G01X12664Y16675D01*
G01X11303Y16675D01*
G37*
G36*
G01X9801Y36675D02*
G01X9801Y38328D01*
G01X11165Y38328D01*
G01X11165Y36675D01*
G01X9801Y36675D01*
G37*
G36*
G01X11833Y36675D02*
G01X11833Y38328D01*
G01X13197Y38328D01*
G01X13197Y36675D01*
G01X11833Y36675D01*
G37*
G36*
G01X9786Y34173D02*
G01X9786Y35826D01*
G01X11148Y35826D01*
G01X11148Y34173D01*
G01X9786Y34173D01*
G37*
G36*
G01X11818Y34173D02*
G01X11818Y35826D01*
G01X13180Y35826D01*
G01X13180Y34173D01*
G01X11818Y34173D01*
G37*
G36*
G01X11948Y42499D02*
G01X11948Y43901D01*
G01X12550Y43901D01*
G01X12550Y42499D01*
G01X11948Y42499D01*
G37*
G36*
G01X11247Y42499D02*
G01X11247Y43901D01*
G01X11851Y43901D01*
G01X11851Y42499D01*
G01X11247Y42499D01*
G37*
G36*
G01X10548Y42499D02*
G01X10548Y43901D01*
G01X11150Y43901D01*
G01X11150Y42499D01*
G01X10548Y42499D01*
G37*
G36*
G01X9847Y42499D02*
G01X9847Y43901D01*
G01X10452Y43901D01*
G01X10452Y42499D01*
G01X9847Y42499D01*
G37*
G36*
G01X9149Y42499D02*
G01X9149Y43901D01*
G01X9751Y43901D01*
G01X9751Y42499D01*
G01X9149Y42499D01*
G37*
G36*
G01X12799Y42499D02*
G01X12799Y44302D01*
G01X15100Y44302D01*
G01X15100Y42499D01*
G01X12799Y42499D01*
G37*
G36*
G01X6598Y42499D02*
G01X6598Y44302D01*
G01X8900Y44302D01*
G01X8900Y42499D01*
G01X6598Y42499D01*
G37*
G36*
G01X37688Y40998D02*
G01X37688Y43002D01*
G01X39690Y43002D01*
G01X39690Y40998D01*
G01X37688Y40998D01*
G37*
G54D51*
G01X41229Y42000D03*
G01X43769Y42000D03*
G01X46309Y42000D03*
G36*
G01X37688Y33500D02*
G01X37688Y35501D01*
G01X39690Y35501D01*
G01X39690Y33500D01*
G01X37688Y33500D01*
G37*
G01X41229Y34500D03*
G01X43769Y34500D03*
G01X46309Y34500D03*
G36*
G01X37688Y25999D02*
G01X37688Y28003D01*
G01X39690Y28003D01*
G01X39690Y25999D01*
G01X37688Y25999D01*
G37*
G01X41229Y27000D03*
G01X43769Y27000D03*
G01X46309Y27000D03*
G36*
G01X37688Y18498D02*
G01X37688Y20502D01*
G01X39690Y20502D01*
G01X39690Y18498D01*
G01X37688Y18498D01*
G37*
G01X41229Y19500D03*
G01X43769Y19500D03*
G01X46309Y19500D03*
G36*
G01X37688Y10998D02*
G01X37688Y13002D01*
G01X39690Y13002D01*
G01X39690Y10998D01*
G01X37688Y10998D01*
G37*
G01X41229Y12000D03*
G01X43769Y12000D03*
G01X46309Y12000D03*
G36*
G01X37688Y3500D02*
G01X37688Y5501D01*
G01X39690Y5501D01*
G01X39690Y3500D01*
G01X37688Y3500D01*
G37*
G01X41229Y4500D03*
G01X43769Y4500D03*
G01X46309Y4500D03*
G36*
G01X10198Y24998D02*
G01X10198Y27002D01*
G01X12001Y27002D01*
G01X12001Y24998D01*
G01X10198Y24998D01*
G37*
G36*
G01X13997Y24998D02*
G01X13997Y27002D01*
G01X15801Y27002D01*
G01X15801Y24998D01*
G01X13997Y24998D01*
G37*
G36*
G01X31897Y6499D02*
G01X31897Y8303D01*
G01X34102Y8303D01*
G01X34102Y6499D01*
G01X31897Y6499D01*
G37*
G36*
G01X31897Y9700D02*
G01X31897Y11503D01*
G01X34102Y11503D01*
G01X34102Y9700D01*
G01X31897Y9700D01*
G37*
G36*
G01X25499Y24899D02*
G01X25499Y27101D01*
G01X27302Y27101D01*
G01X27302Y24899D01*
G01X25499Y24899D01*
G37*
G36*
G01X28696Y24899D02*
G01X28696Y27101D01*
G01X30500Y27101D01*
G01X30500Y24899D01*
G01X28696Y24899D01*
G37*
G36*
G01X20198Y24899D02*
G01X20198Y27101D01*
G01X22001Y27101D01*
G01X22001Y24899D01*
G01X20198Y24899D01*
G37*
G36*
G01X16997Y24899D02*
G01X16997Y27101D01*
G01X18801Y27101D01*
G01X18801Y24899D01*
G01X16997Y24899D01*
G37*
G36*
G01X32174Y13304D02*
G01X32174Y14665D01*
G01X33825Y14665D01*
G01X33825Y13304D01*
G01X32174Y13304D01*
G37*
G36*
G01X32174Y15336D02*
G01X32174Y16697D01*
G01X33825Y16697D01*
G01X33825Y15336D01*
G01X32174Y15336D01*
G37*
G54D44*
G01X10729Y7040D03*
G01X13269Y7040D03*
G01X10729Y4500D03*
G01X13269Y4500D03*
G01X10729Y1960D03*
G36*
G01X12379Y1071D02*
G01X12379Y2849D01*
G01X14157Y2849D01*
G01X14157Y1071D01*
G01X12379Y1071D01*
G37*
G36*
G01X10497Y13398D02*
G01X10497Y15603D01*
G01X12301Y15603D01*
G01X12301Y13398D01*
G01X10497Y13398D01*
G37*
G36*
G01X13698Y13398D02*
G01X13698Y15603D01*
G01X15501Y15603D01*
G01X15501Y13398D01*
G01X13698Y13398D01*
G37*
G36*
G01X10497Y19400D02*
G01X10497Y21602D01*
G01X12301Y21602D01*
G01X12301Y19400D01*
G01X10497Y19400D01*
G37*
G36*
G01X13698Y19400D02*
G01X13698Y21602D01*
G01X15501Y21602D01*
G01X15501Y19400D01*
G01X13698Y19400D01*
G37*
G36*
G01X10596Y10698D02*
G01X10596Y12303D01*
G01X12001Y12303D01*
G01X12001Y10698D01*
G01X10596Y10698D01*
G37*
G36*
G01X13997Y10698D02*
G01X13997Y12303D01*
G01X15400Y12303D01*
G01X15400Y10698D01*
G01X13997Y10698D01*
G37*
G36*
G01X24897Y2400D02*
G01X24897Y4602D01*
G01X30601Y4602D01*
G01X30601Y2400D01*
G01X24897Y2400D01*
G37*
G36*
G01X15397Y2400D02*
G01X15397Y4602D01*
G01X21102Y4602D01*
G01X21102Y2400D01*
G01X15397Y2400D01*
G37*
G36*
G01X23334Y6675D02*
G01X23334Y8328D01*
G01X24696Y8328D01*
G01X24696Y6675D01*
G01X23334Y6675D01*
G37*
G36*
G01X21302Y6675D02*
G01X21302Y8328D01*
G01X22664Y8328D01*
G01X22664Y6675D01*
G01X21302Y6675D01*
G37*
G36*
G01X30198Y30520D02*
G01X30198Y33009D01*
G01X33802Y33009D01*
G01X33802Y30520D01*
G01X30198Y30520D01*
G37*
G36*
G01X30198Y34991D02*
G01X30198Y37480D01*
G01X33802Y37480D01*
G01X33802Y34991D01*
G01X30198Y34991D01*
G37*
G54D58*
G01X5269Y27420D03*
G01X2729Y27420D03*
G01X5269Y29960D03*
G01X2729Y29960D03*
G01X5269Y32500D03*
G01X2729Y32500D03*
G01X5269Y35040D03*
G01X2729Y35040D03*
G01X5269Y37580D03*
G01X2729Y37580D03*
G36*
G01X11818Y31673D02*
G01X11818Y33327D01*
G01X13180Y33327D01*
G01X13180Y31673D01*
G01X11818Y31673D01*
G37*
G36*
G01X9786Y31673D02*
G01X9786Y33327D01*
G01X11148Y33327D01*
G01X11148Y31673D01*
G01X9786Y31673D01*
G37*
G36*
G01X11833Y29174D02*
G01X11833Y30827D01*
G01X13197Y30827D01*
G01X13197Y29174D01*
G01X11833Y29174D01*
G37*
G36*
G01X9801Y29174D02*
G01X9801Y30827D01*
G01X11165Y30827D01*
G01X11165Y29174D01*
G01X9801Y29174D01*
G37*
G36*
G01X32611Y41915D02*
G01X32611Y43317D01*
G01X34714Y43317D01*
G01X34714Y41915D01*
G01X32611Y41915D01*
G37*
G36*
G01X32611Y38714D02*
G01X32611Y40116D01*
G01X34714Y40116D01*
G01X34714Y38714D01*
G01X32611Y38714D01*
G37*
G36*
G01X21435Y41788D02*
G01X21435Y43190D01*
G01X23538Y43190D01*
G01X23538Y41788D01*
G01X21435Y41788D01*
G37*
G36*
G01X21435Y38587D02*
G01X21435Y39989D01*
G01X23538Y39989D01*
G01X23538Y38587D01*
G01X21435Y38587D01*
G37*
G36*
G01X29690Y41915D02*
G01X29690Y43317D01*
G01X31793Y43317D01*
G01X31793Y41915D01*
G01X29690Y41915D01*
G37*
G36*
G01X29690Y38714D02*
G01X29690Y40116D01*
G01X31793Y40116D01*
G01X31793Y38714D01*
G01X29690Y38714D01*
G37*
M00*
M02*
